<svg width="367" height="250" viewBox="0 0 367 250" version="1.1" xmlns="http://www.w3.org/2000/svg" xmlns:xlink="http://www.w3.org/1999/xlink">
<title>s1m4_table_summary</title>
<desc>Created using Figma</desc>
<g id="Canvas" transform="translate(173 241)">
<rect x="-173" y="-241" width="367" height="250" fill="#FFFFFF"/>
<g id="Rectangle">
<use xlink:href="#path0_fill" transform="translate(-173 -241)" fill="#FFFFFF"/>
<mask id="mask0_outline_ins">
<use xlink:href="#path0_fill" fill="white" transform="translate(-173 -241)"/>
</mask>
<g mask="url(#mask0_outline_ins)">
<use xlink:href="#path1_stroke_2x" transform="translate(-173 -241)"/>
</g>
</g>
<g id="Nominal">
<use xlink:href="#path2_fill" transform="translate(-133 -166)"/>
</g>
<g id="Ordinal">
<use xlink:href="#path3_fill" transform="translate(-129 -119)"/>
</g>
<g id="Interval">
<use xlink:href="#path4_fill" transform="translate(-129 -70)"/>
</g>
<g id="Ratio">
<use xlink:href="#path5_fill" transform="translate(-120 -26)"/>
</g>
<g id="Graphs we can use to show the distribution">
<use xlink:href="#path6_fill" transform="translate(-1.52667 -230.362)"/>
</g>
<g id="Scale of measurement">
<use xlink:href="#path7_fill" transform="translate(-156 -230)"/>
</g>
<g id="Line">
<use xlink:href="#path8_stroke" transform="translate(-173 -177)"/>
</g>
<g id="Line">
<use xlink:href="#path8_stroke" transform="translate(-173 -130.667)"/>
</g>
<g id="Line">
<use xlink:href="#path8_stroke" transform="translate(-173 -84.3333)"/>
</g>
<g id="Line">
<use xlink:href="#path8_stroke" transform="translate(-173 -38)"/>
</g>
<g id="Line 2">
<use xlink:href="#path9_stroke" transform="matrix(2.99654e-16 1 -1 2.67795e-16 -17 -241)"/>
</g>
<g id="Rectangle 2">
<use xlink:href="#path10_fill" transform="translate(11.0454 -160.066)" fill="#E69F00"/>
</g>
<g id="Rectangle 2.1">
<use xlink:href="#path11_fill" transform="translate(27.5737 -174.511)" fill="#009E73"/>
</g>
<g id="Rectangle 2.2">
<use xlink:href="#path12_fill" transform="translate(44.1021 -146.998)" fill="#D55E00"/>
</g>
<g id="Rectangle 2.3">
<use xlink:href="#path13_fill" transform="translate(60.6304 -153.876)" fill="#56B4E9"/>
</g>
<g id="Line 3">
<use xlink:href="#path14_stroke" transform="translate(6.91333 -134.617)"/>
</g>
<g id="Ellipse">
<use xlink:href="#path15_fill" transform="translate(120.853 -173.181)" fill="#56B4E9"/>
</g>
<g id="Line">
<use xlink:href="#path16_stroke" transform="matrix(0.00826388 -0.999966 0.999973 0.00738532 140.547 -154.565)" fill="#FFFFFF"/>
</g>
<g id="Line">
<use xlink:href="#path17_stroke" transform="matrix(-0.663486 0.748189 -0.783744 -0.621084 140.526 -154.514)" fill="#FFFFFF"/>
</g>
<g id="Line">
<use xlink:href="#path18_stroke" transform="matrix(-0.054159 0.998532 0.998828 0.0484091 139.779 -153.926)" fill="#FFFFFF"/>
</g>
<g id="Line">
<use xlink:href="#path19_stroke" transform="matrix(-0.987052 -0.160402 0.178905 -0.983866 140.547 -154.565)" fill="#FFFFFF"/>
</g>
<g id="Line">
<use xlink:href="#path20_stroke" transform="matrix(0.638536 0.769592 -0.803268 0.595618 139.14 -154.565)" fill="#FFFFFF"/>
</g>
<g id="Rectangle 2.4">
<use xlink:href="#path10_fill" transform="translate(11.0454 -113.524)" fill="#E69F00"/>
</g>
<g id="Rectangle 2.5">
<use xlink:href="#path11_fill" transform="translate(27.5737 -127.968)" fill="#009E73"/>
</g>
<g id="Rectangle 2.8">
<use xlink:href="#path21_fill" transform="translate(79.8724 -78.766)" fill="#0072B2"/>
</g>
<g id="Rectangle 2.9">
<use xlink:href="#path22_fill" transform="translate(87.2809 -74.0204)" fill="#0072B2"/>
</g>
<g id="Rectangle 2.10">
<use xlink:href="#path23_fill" transform="translate(94.6893 -70.6308)" fill="#0072B2"/>
</g>
<g id="Rectangle 2.11">
<use xlink:href="#path24_fill" transform="translate(102.098 -65.2073)" fill="#0072B2"/>
</g>
<g id="Rectangle 2.12">
<use xlink:href="#path25_fill" transform="translate(109.506 -59.106)" fill="#0072B2"/>
</g>
<g id="Rectangle 2.13">
<use xlink:href="#path26_fill" transform="translate(116.915 -53.6825)" fill="#0072B2"/>
</g>
<g id="Rectangle 2.20">
<use xlink:href="#path27_fill" transform="translate(124.323 -49.6149)" fill="#0072B2"/>
</g>
<g id="Rectangle 2.14">
<use xlink:href="#path27_fill" transform="translate(35.4218 -49.6149)" fill="#0072B2"/>
</g>
<g id="Rectangle 2.15">
<use xlink:href="#path26_fill" transform="translate(42.8302 -53.6825)" fill="#0072B2"/>
</g>
<g id="Rectangle 2.16">
<use xlink:href="#path25_fill" transform="translate(50.2387 -59.106)" fill="#0072B2"/>
</g>
<g id="Rectangle 2.17">
<use xlink:href="#path24_fill" transform="translate(57.6471 -65.2073)" fill="#0072B2"/>
</g>
<g id="Rectangle 2.18">
<use xlink:href="#path23_fill" transform="translate(65.0555 -70.6308)" fill="#0072B2"/>
</g>
<g id="Rectangle 2.19">
<use xlink:href="#path22_fill" transform="translate(72.464 -74.0204)" fill="#0072B2"/>
</g>
<g id="Rectangle 2.6">
<use xlink:href="#path12_fill" transform="translate(44.1021 -100.455)" fill="#D55E00"/>
</g>
<g id="Rectangle 2.7">
<use xlink:href="#path13_fill" transform="translate(60.6304 -107.333)" fill="#56B4E9"/>
</g>
<g id="Line 3.1">
<use xlink:href="#path14_stroke" transform="translate(6.91333 -88.0745)"/>
</g>
<g id="Ellipse">
<use xlink:href="#path15_fill" transform="translate(120.853 -126.638)" fill="#56B4E9"/>
</g>
<g id="Line">
<use xlink:href="#path16_stroke" transform="matrix(0.00826388 -0.999966 0.999973 0.00738532 140.547 -108.022)" fill="#FFFFFF"/>
</g>
<g id="Line">
<use xlink:href="#path17_stroke" transform="matrix(-0.663486 0.748189 -0.783744 -0.621084 140.526 -107.971)" fill="#FFFFFF"/>
</g>
<g id="Line">
<use xlink:href="#path18_stroke" transform="matrix(-0.054159 0.998532 0.998828 0.0484091 139.779 -107.383)" fill="#FFFFFF"/>
</g>
<g id="Line">
<use xlink:href="#path19_stroke" transform="matrix(-0.987052 -0.160402 0.178905 -0.983866 140.547 -108.022)" fill="#FFFFFF"/>
</g>
<g id="Line">
<use xlink:href="#path20_stroke" transform="matrix(0.638536 0.769592 -0.803268 0.595618 139.14 -108.022)" fill="#FFFFFF"/>
</g>
<g id="Line 2">
<use xlink:href="#path28_stroke" transform="translate(28.0133 -44.1915)"/>
</g>
<g id="Rectangle 2.21">
<use xlink:href="#path21_fill" transform="translate(79.8724 -32.2234)" fill="#0072B2"/>
</g>
<g id="Rectangle 2.22">
<use xlink:href="#path22_fill" transform="translate(87.2809 -27.4779)" fill="#0072B2"/>
</g>
<g id="Rectangle 2.23">
<use xlink:href="#path23_fill" transform="translate(94.6893 -24.0882)" fill="#0072B2"/>
</g>
<g id="Rectangle 2.24">
<use xlink:href="#path24_fill" transform="translate(102.098 -18.6648)" fill="#0072B2"/>
</g>
<g id="Rectangle 2.25">
<use xlink:href="#path25_fill" transform="translate(109.506 -12.5634)" fill="#0072B2"/>
</g>
<g id="Rectangle 2.26">
<use xlink:href="#path26_fill" transform="translate(116.915 -7.13996)" fill="#0072B2"/>
</g>
<g id="Rectangle 2.27">
<use xlink:href="#path27_fill" transform="translate(124.323 -3.07238)" fill="#0072B2"/>
</g>
<g id="Rectangle 2.28">
<use xlink:href="#path27_fill" transform="translate(35.4218 -3.07238)" fill="#0072B2"/>
</g>
<g id="Rectangle 2.29">
<use xlink:href="#path26_fill" transform="translate(42.8302 -7.13996)" fill="#0072B2"/>
</g>
<g id="Rectangle 2.30">
<use xlink:href="#path25_fill" transform="translate(50.2387 -12.5634)" fill="#0072B2"/>
</g>
<g id="Rectangle 2.31">
<use xlink:href="#path24_fill" transform="translate(57.6471 -18.6648)" fill="#0072B2"/>
</g>
<g id="Rectangle 2.32">
<use xlink:href="#path23_fill" transform="translate(65.0555 -24.0882)" fill="#0072B2"/>
</g>
<g id="Rectangle 2.33">
<use xlink:href="#path22_fill" transform="translate(72.464 -27.4779)" fill="#0072B2"/>
</g>
<g id="Line 2.1">
<use xlink:href="#path28_stroke" transform="translate(28.0133 2.35106)"/>
</g>
</g>
<defs>
<path id="path0_fill" d="M 0 0L 367 0L 367 250L 0 250L 0 0Z"/>
<path id="path1_stroke_2x" d="M 0 0L 0 -1L -1 -1L -1 0L 0 0ZM 367 0L 368 0L 368 -1L 367 -1L 367 0ZM 367 250L 367 251L 368 251L 368 250L 367 250ZM 0 250L -1 250L -1 251L 0 251L 0 250ZM 0 1L 367 1L 367 -1L 0 -1L 0 1ZM 366 0L 366 250L 368 250L 368 0L 366 0ZM 367 249L 0 249L 0 251L 367 251L 367 249ZM 1 250L 1 0L -1 0L -1 250L 1 250Z"/>
<path id="path2_fill" d="M 12.104 17L 10.4077 17L 3.96529 7.13867L 3.96529 17L 2.269 17L 2.269 4.20312L 3.96529 4.20312L 10.4252 14.1084L 10.4252 4.20312L 12.104 4.20312L 12.104 17ZM 14.4155 12.1572C 14.4155 11.2256 14.5971 10.3877 14.9604 9.64355C 15.3295 8.89941 15.8393 8.3252 16.4897 7.9209C 17.146 7.5166 17.893 7.31445 18.7309 7.31445C 20.0258 7.31445 21.0717 7.7627 21.8686 8.65918C 22.6713 9.55566 23.0727 10.748 23.0727 12.2363L 23.0727 12.3506C 23.0727 13.2764 22.894 14.1084 22.5366 14.8467C 22.185 15.5791 21.6782 16.1504 21.0161 16.5605C 20.3598 16.9707 19.604 17.1758 18.7485 17.1758C 17.4594 17.1758 16.4135 16.7275 15.6108 15.8311C 14.8139 14.9346 14.4155 13.748 14.4155 12.2715L 14.4155 12.1572ZM 16.0502 12.3506C 16.0502 13.4053 16.2934 14.252 16.7797 14.8906C 17.2719 15.5293 17.9282 15.8486 18.7485 15.8486C 19.5747 15.8486 20.2309 15.5264 20.7172 14.8818C 21.2036 14.2314 21.4467 13.3232 21.4467 12.1572C 21.4467 11.1143 21.1977 10.2705 20.6997 9.62598C 20.2075 8.97559 19.5512 8.65039 18.7309 8.65039C 17.9282 8.65039 17.2807 8.96973 16.7885 9.6084C 16.2963 10.2471 16.0502 11.1611 16.0502 12.3506ZM 26.6411 7.49023L 26.685 8.54492C 27.3823 7.72461 28.3227 7.31445 29.5063 7.31445C 30.8364 7.31445 31.7417 7.82422 32.2221 8.84375C 32.5385 8.38672 32.9487 8.01758 33.4526 7.73633C 33.9624 7.45508 34.5629 7.31445 35.2543 7.31445C 37.3403 7.31445 38.4008 8.41895 38.436 10.6279L 38.436 17L 36.81 17L 36.81 10.7246C 36.81 10.0449 36.6547 9.53809 36.3442 9.2041C 36.0336 8.86426 35.5122 8.69434 34.7797 8.69434C 34.1762 8.69434 33.6752 8.87598 33.2768 9.23926C 32.8784 9.59668 32.6469 10.0801 32.5825 10.6895L 32.5825 17L 30.9477 17L 30.9477 10.7686C 30.9477 9.38574 30.271 8.69434 28.9174 8.69434C 27.851 8.69434 27.1215 9.14844 26.729 10.0566L 26.729 17L 25.103 17L 25.103 7.49023L 26.6411 7.49023ZM 42.6635 17L 41.0376 17L 41.0376 7.49023L 42.6635 7.49023L 42.6635 17ZM 40.9057 4.96777C 40.9057 4.7041 40.9848 4.48145 41.143 4.2998C 41.3071 4.11816 41.5473 4.02734 41.8637 4.02734C 42.1801 4.02734 42.4204 4.11816 42.5844 4.2998C 42.7485 4.48145 42.8305 4.7041 42.8305 4.96777C 42.8305 5.23145 42.7485 5.45117 42.5844 5.62695C 42.4204 5.80273 42.1801 5.89062 41.8637 5.89062C 41.5473 5.89062 41.3071 5.80273 41.143 5.62695C 40.9848 5.45117 40.9057 5.23145 40.9057 4.96777ZM 46.812 7.49023L 46.8647 8.68555C 47.5913 7.77148 48.5405 7.31445 49.7124 7.31445C 51.7221 7.31445 52.7358 8.44824 52.7534 10.7158L 52.7534 17L 51.1274 17L 51.1274 10.707C 51.1215 10.0215 50.9633 9.51465 50.6528 9.18652C 50.3481 8.8584 49.8706 8.69434 49.2202 8.69434C 48.6928 8.69434 48.2299 8.83496 47.8315 9.11621C 47.4331 9.39746 47.1225 9.7666 46.8999 10.2236L 46.8999 17L 45.2739 17L 45.2739 7.49023L 46.812 7.49023ZM 61.0766 17C 60.9829 16.8125 60.9067 16.4785 60.8481 15.998C 60.0922 16.7832 59.1899 17.1758 58.1411 17.1758C 57.2036 17.1758 56.4331 16.9121 55.8295 16.3848C 55.2319 15.8516 54.9331 15.1777 54.9331 14.3633C 54.9331 13.373 55.3081 12.6055 56.0581 12.0605C 56.8139 11.5098 57.8745 11.2344 59.2397 11.2344L 60.8217 11.2344L 60.8217 10.4873C 60.8217 9.91895 60.6518 9.46777 60.312 9.13379C 59.9721 8.79395 59.4711 8.62402 58.809 8.62402C 58.229 8.62402 57.7426 8.77051 57.3501 9.06348C 56.9575 9.35645 56.7612 9.71094 56.7612 10.127L 55.1264 10.127C 55.1264 9.65234 55.2934 9.19531 55.6274 8.75586C 55.9672 8.31055 56.4243 7.95898 56.9985 7.70117C 57.5786 7.44336 58.2143 7.31445 58.9057 7.31445C 60.0014 7.31445 60.8598 7.58984 61.4809 8.14062C 62.102 8.68555 62.4243 9.43848 62.4477 10.3994L 62.4477 14.7764C 62.4477 15.6494 62.559 16.3438 62.7817 16.8594L 62.7817 17L 61.0766 17ZM 58.3784 15.7607C 58.8881 15.7607 59.3715 15.6289 59.8286 15.3652C 60.2856 15.1016 60.6167 14.7588 60.8217 14.3369L 60.8217 12.3857L 59.5473 12.3857C 57.5551 12.3857 56.559 12.9688 56.559 14.1348C 56.559 14.6445 56.729 15.043 57.0688 15.3301C 57.4086 15.6172 57.8452 15.7607 58.3784 15.7607ZM 66.7631 17L 65.1372 17L 65.1372 3.5L 66.7631 3.5L 66.7631 17Z"/>
<path id="path3_fill" d="M 12.4013 11.0146C 12.4013 12.2686 12.1904 13.3643 11.7685 14.3018C 11.3466 15.2334 10.749 15.9453 9.97555 16.4375C 9.20211 16.9297 8.29977 17.1758 7.26852 17.1758C 6.2607 17.1758 5.36715 16.9297 4.58785 16.4375C 3.80856 15.9395 3.20211 15.2334 2.76852 14.3193C 2.34078 13.3994 2.12106 12.3359 2.10934 11.1289L 2.10934 10.2061C 2.10934 8.97559 2.3232 7.88867 2.75094 6.94531C 3.17867 6.00195 3.78219 5.28125 4.56149 4.7832C 5.34664 4.2793 6.24313 4.02734 7.25094 4.02734C 8.27633 4.02734 9.17867 4.27637 9.95797 4.77441C 10.7431 5.2666 11.3466 5.98438 11.7685 6.92773C 12.1904 7.86523 12.4013 8.95801 12.4013 10.2061L 12.4013 11.0146ZM 10.7226 10.1885C 10.7226 8.6709 10.4179 7.50781 9.80856 6.69922C 9.19918 5.88477 8.34664 5.47754 7.25094 5.47754C 6.18453 5.47754 5.34371 5.88477 4.72848 6.69922C 4.1191 7.50781 3.80563 8.63281 3.78805 10.0742L 3.78805 11.0146C 3.78805 12.4854 4.09566 13.6426 4.7109 14.4863C 5.33199 15.3242 6.18453 15.7432 7.26852 15.7432C 8.35836 15.7432 9.20211 15.3477 9.79977 14.5566C 10.3974 13.7598 10.705 12.6201 10.7226 11.1377L 10.7226 10.1885ZM 19.2744 8.94922C 19.0283 8.9082 18.7617 8.8877 18.4746 8.8877C 17.4082 8.8877 16.6845 9.3418 16.3037 10.25L 16.3037 17L 14.6777 17L 14.6777 7.49023L 16.2597 7.49023L 16.2861 8.58887C 16.8193 7.73926 17.5752 7.31445 18.5537 7.31445C 18.8701 7.31445 19.1103 7.35547 19.2744 7.4375L 19.2744 8.94922ZM 20.206 12.166C 20.206 10.707 20.5517 9.53516 21.2431 8.65039C 21.9345 7.75977 22.8398 7.31445 23.9589 7.31445C 25.0722 7.31445 25.9541 7.69531 26.6045 8.45703L 26.6045 3.5L 28.2304 3.5L 28.2304 17L 26.7363 17L 26.6572 15.9805C 26.0068 16.7773 25.1015 17.1758 23.9414 17.1758C 22.8398 17.1758 21.9404 16.7246 21.2431 15.8223C 20.5517 14.9199 20.206 13.7422 20.206 12.2891L 20.206 12.166ZM 21.832 12.3506C 21.832 13.4287 22.0546 14.2725 22.5 14.8818C 22.9453 15.4912 23.5605 15.7959 24.3457 15.7959C 25.3769 15.7959 26.1298 15.333 26.6045 14.4072L 26.6045 10.0391C 26.1181 9.14258 25.3711 8.69434 24.3632 8.69434C 23.5664 8.69434 22.9453 9.00195 22.5 9.61719C 22.0546 10.2324 21.832 11.1436 21.832 12.3506ZM 32.5283 17L 30.9023 17L 30.9023 7.49023L 32.5283 7.49023L 32.5283 17ZM 30.7705 4.96777C 30.7705 4.7041 30.8496 4.48145 31.0078 4.2998C 31.1718 4.11816 31.4121 4.02734 31.7285 4.02734C 32.0449 4.02734 32.2851 4.11816 32.4492 4.2998C 32.6132 4.48145 32.6953 4.7041 32.6953 4.96777C 32.6953 5.23145 32.6132 5.45117 32.4492 5.62695C 32.2851 5.80273 32.0449 5.89062 31.7285 5.89062C 31.4121 5.89062 31.1718 5.80273 31.0078 5.62695C 30.8496 5.45117 30.7705 5.23145 30.7705 4.96777ZM 36.6767 7.49023L 36.7295 8.68555C 37.456 7.77148 38.4052 7.31445 39.5771 7.31445C 41.5869 7.31445 42.6005 8.44824 42.6181 10.7158L 42.6181 17L 40.9921 17L 40.9921 10.707C 40.9863 10.0215 40.8281 9.51465 40.5175 9.18652C 40.2129 8.8584 39.7353 8.69434 39.0849 8.69434C 38.5576 8.69434 38.0947 8.83496 37.6963 9.11621C 37.2978 9.39746 36.9873 9.7666 36.7646 10.2236L 36.7646 17L 35.1386 17L 35.1386 7.49023L 36.6767 7.49023ZM 50.9414 17C 50.8476 16.8125 50.7714 16.4785 50.7129 15.998C 49.957 16.7832 49.0546 17.1758 48.0058 17.1758C 47.0683 17.1758 46.2978 16.9121 45.6943 16.3848C 45.0966 15.8516 44.7978 15.1777 44.7978 14.3633C 44.7978 13.373 45.1728 12.6055 45.9228 12.0605C 46.6787 11.5098 47.7392 11.2344 49.1045 11.2344L 50.6865 11.2344L 50.6865 10.4873C 50.6865 9.91895 50.5166 9.46777 50.1767 9.13379C 49.8369 8.79395 49.3359 8.62402 48.6738 8.62402C 48.0937 8.62402 47.6074 8.77051 47.2148 9.06348C 46.8222 9.35645 46.6259 9.71094 46.6259 10.127L 44.9912 10.127C 44.9912 9.65234 45.1582 9.19531 45.4921 8.75586C 45.832 8.31055 46.289 7.95898 46.8632 7.70117C 47.4433 7.44336 48.0791 7.31445 48.7705 7.31445C 49.8662 7.31445 50.7246 7.58984 51.3457 8.14062C 51.9668 8.68555 52.289 9.43848 52.3125 10.3994L 52.3125 14.7764C 52.3125 15.6494 52.4238 16.3438 52.6464 16.8594L 52.6464 17L 50.9414 17ZM 48.2431 15.7607C 48.7529 15.7607 49.2363 15.6289 49.6933 15.3652C 50.1504 15.1016 50.4814 14.7588 50.6865 14.3369L 50.6865 12.3857L 49.4121 12.3857C 47.4199 12.3857 46.4238 12.9688 46.4238 14.1348C 46.4238 14.6445 46.5937 15.043 46.9336 15.3301C 47.2734 15.6172 47.7099 15.7607 48.2431 15.7607ZM 56.6279 17L 55.0019 17L 55.0019 3.5L 56.6279 3.5L 56.6279 17Z"/>
<path id="path4_fill" d="M 3.90251 17L 2.21501 17L 2.21501 4.20312L 3.90251 4.20312L 3.90251 17ZM 8.27947 7.49023L 8.3322 8.68555C 9.05876 7.77148 10.008 7.31445 11.1799 7.31445C 13.1896 7.31445 14.2033 8.44824 14.2209 10.7158L 14.2209 17L 12.5949 17L 12.5949 10.707C 12.589 10.0215 12.4308 9.51465 12.1203 9.18652C 11.8156 8.8584 11.3381 8.69434 10.6877 8.69434C 10.1603 8.69434 9.69744 8.83496 9.299 9.11621C 8.90056 9.39746 8.59001 9.7666 8.36736 10.2236L 8.36736 17L 6.74138 17L 6.74138 7.49023L 8.27947 7.49023ZM 18.8791 5.1875L 18.8791 7.49023L 20.6545 7.49023L 20.6545 8.74707L 18.8791 8.74707L 18.8791 14.6445C 18.8791 15.0254 18.9582 15.3125 19.1164 15.5059C 19.2746 15.6934 19.5441 15.7871 19.925 15.7871C 20.1125 15.7871 20.3703 15.752 20.6984 15.6816L 20.6984 17C 20.2707 17.1172 19.8547 17.1758 19.4504 17.1758C 18.7238 17.1758 18.176 16.9561 17.8068 16.5166C 17.4377 16.0771 17.2531 15.4531 17.2531 14.6445L 17.2531 8.74707L 15.5217 8.74707L 15.5217 7.49023L 17.2531 7.49023L 17.2531 5.1875L 18.8791 5.1875ZM 26.508 17.1758C 25.2189 17.1758 24.1701 16.7539 23.3615 15.9102C 22.5529 15.0605 22.1486 13.9268 22.1486 12.5088L 22.1486 12.21C 22.1486 11.2666 22.3273 10.4258 22.6847 9.6875C 23.048 8.94336 23.5519 8.36328 24.1965 7.94727C 24.8468 7.52539 25.55 7.31445 26.3058 7.31445C 27.5422 7.31445 28.5031 7.72168 29.1886 8.53613C 29.8742 9.35059 30.217 10.5166 30.217 12.0342L 30.217 12.7109L 23.7746 12.7109C 23.798 13.6484 24.0705 14.4072 24.592 14.9873C 25.1193 15.5615 25.7873 15.8486 26.5959 15.8486C 27.1701 15.8486 27.6564 15.7314 28.0549 15.4971C 28.4533 15.2627 28.8019 14.9521 29.1008 14.5654L 30.0939 15.3389C 29.297 16.5635 28.1017 17.1758 26.508 17.1758ZM 26.3058 8.65039C 25.6496 8.65039 25.0988 8.89062 24.6535 9.37109C 24.2082 9.8457 23.9328 10.5137 23.8273 11.375L 28.591 11.375L 28.591 11.252C 28.5441 10.4258 28.3215 9.78711 27.923 9.33594C 27.5246 8.87891 26.9855 8.65039 26.3058 8.65039ZM 36.7033 8.94922C 36.4572 8.9082 36.1906 8.8877 35.9035 8.8877C 34.8371 8.8877 34.1135 9.3418 33.7326 10.25L 33.7326 17L 32.1066 17L 32.1066 7.49023L 33.6886 7.49023L 33.715 8.58887C 34.2482 7.73926 35.0041 7.31445 35.9826 7.31445C 36.299 7.31445 36.5392 7.35547 36.7033 7.4375L 36.7033 8.94922ZM 41.5021 14.7939L 43.8576 7.49023L 45.5187 7.49023L 42.1086 17L 40.8693 17L 37.424 7.49023L 39.0851 7.49023L 41.5021 14.7939ZM 52.8136 17C 52.7199 16.8125 52.6437 16.4785 52.5851 15.998C 51.8293 16.7832 50.9269 17.1758 49.8781 17.1758C 48.9406 17.1758 48.1701 16.9121 47.5666 16.3848C 46.9689 15.8516 46.6701 15.1777 46.6701 14.3633C 46.6701 13.373 47.0451 12.6055 47.7951 12.0605C 48.5509 11.5098 49.6115 11.2344 50.9767 11.2344L 52.5588 11.2344L 52.5588 10.4873C 52.5588 9.91895 52.3888 9.46777 52.049 9.13379C 51.7092 8.79395 51.2082 8.62402 50.5461 8.62402C 49.966 8.62402 49.4797 8.77051 49.0871 9.06348C 48.6945 9.35645 48.4982 9.71094 48.4982 10.127L 46.8634 10.127C 46.8634 9.65234 47.0304 9.19531 47.3644 8.75586C 47.7043 8.31055 48.1613 7.95898 48.7355 7.70117C 49.3156 7.44336 49.9513 7.31445 50.6427 7.31445C 51.7384 7.31445 52.5968 7.58984 53.2179 8.14062C 53.839 8.68555 54.1613 9.43848 54.1847 10.3994L 54.1847 14.7764C 54.1847 15.6494 54.2961 16.3438 54.5187 16.8594L 54.5187 17L 52.8136 17ZM 50.1154 15.7607C 50.6252 15.7607 51.1086 15.6289 51.5656 15.3652C 52.0226 15.1016 52.3537 14.7588 52.5588 14.3369L 52.5588 12.3857L 51.2843 12.3857C 49.2922 12.3857 48.2961 12.9688 48.2961 14.1348C 48.2961 14.6445 48.466 15.043 48.8058 15.3301C 49.1457 15.6172 49.5822 15.7607 50.1154 15.7607ZM 58.5002 17L 56.8742 17L 56.8742 3.5L 58.5002 3.5L 58.5002 17Z"/>
<path id="path5_fill" d="M 6.57168 11.8232L 3.56582 11.8232L 3.56582 17L 1.86953 17L 1.86953 4.20312L 6.10586 4.20312C 7.54727 4.20312 8.65469 4.53125 9.42813 5.1875C 10.2074 5.84375 10.5971 6.79883 10.5971 8.05273C 10.5971 8.84961 10.3803 9.54395 9.94668 10.1357C 9.51895 10.7275 8.92129 11.1699 8.15371 11.4629L 11.1596 16.8945L 11.1596 17L 9.34902 17L 6.57168 11.8232ZM 3.56582 10.4434L 6.15859 10.4434C 6.99648 10.4434 7.66152 10.2266 8.15371 9.79297C 8.65176 9.35938 8.90078 8.7793 8.90078 8.05273C 8.90078 7.26172 8.66348 6.65527 8.18887 6.2334C 7.72012 5.81152 7.04043 5.59766 6.14981 5.5918L 3.56582 5.5918L 3.56582 10.4434ZM 18.5863 17C 18.4926 16.8125 18.4164 16.4785 18.3578 15.998C 17.602 16.7832 16.6996 17.1758 15.6508 17.1758C 14.7133 17.1758 13.9428 16.9121 13.3393 16.3848C 12.7416 15.8516 12.4428 15.1777 12.4428 14.3633C 12.4428 13.373 12.8178 12.6055 13.5678 12.0605C 14.3236 11.5098 15.3842 11.2344 16.7494 11.2344L 18.3314 11.2344L 18.3314 10.4873C 18.3314 9.91895 18.1615 9.46777 17.8217 9.13379C 17.4818 8.79395 16.9809 8.62402 16.3188 8.62402C 15.7387 8.62402 15.2523 8.77051 14.8598 9.06348C 14.4672 9.35645 14.2709 9.71094 14.2709 10.127L 12.6361 10.127C 12.6361 9.65234 12.8031 9.19531 13.1371 8.75586C 13.477 8.31055 13.934 7.95898 14.5082 7.70117C 15.0883 7.44336 15.724 7.31445 16.4154 7.31445C 17.5111 7.31445 18.3695 7.58984 18.9906 8.14062C 19.6117 8.68555 19.934 9.43848 19.9574 10.3994L 19.9574 14.7764C 19.9574 15.6494 20.0688 16.3438 20.2914 16.8594L 20.2914 17L 18.5863 17ZM 15.8881 15.7607C 16.3979 15.7607 16.8813 15.6289 17.3383 15.3652C 17.7953 15.1016 18.1264 14.7588 18.3314 14.3369L 18.3314 12.3857L 17.057 12.3857C 15.0648 12.3857 14.0688 12.9688 14.0688 14.1348C 14.0688 14.6445 14.2387 15.043 14.5785 15.3301C 14.9184 15.6172 15.3549 15.7607 15.8881 15.7607ZM 24.7123 5.1875L 24.7123 7.49023L 26.4877 7.49023L 26.4877 8.74707L 24.7123 8.74707L 24.7123 14.6445C 24.7123 15.0254 24.7914 15.3125 24.9496 15.5059C 25.1078 15.6934 25.3773 15.7871 25.7582 15.7871C 25.9457 15.7871 26.2035 15.752 26.5316 15.6816L 26.5316 17C 26.1039 17.1172 25.6879 17.1758 25.2836 17.1758C 24.557 17.1758 24.0092 16.9561 23.64 16.5166C 23.2709 16.0771 23.0863 15.4531 23.0863 14.6445L 23.0863 8.74707L 21.3549 8.74707L 21.3549 7.49023L 23.0863 7.49023L 23.0863 5.1875L 24.7123 5.1875ZM 30.1615 17L 28.5355 17L 28.5355 7.49023L 30.1615 7.49023L 30.1615 17ZM 28.4037 4.96777C 28.4037 4.7041 28.4828 4.48145 28.641 4.2998C 28.8051 4.11816 29.0453 4.02734 29.3617 4.02734C 29.6781 4.02734 29.9184 4.11816 30.0824 4.2998C 30.2465 4.48145 30.3285 4.7041 30.3285 4.96777C 30.3285 5.23145 30.2465 5.45117 30.0824 5.62695C 29.9184 5.80273 29.6781 5.89062 29.3617 5.89062C 29.0453 5.89062 28.8051 5.80273 28.641 5.62695C 28.4828 5.45117 28.4037 5.23145 28.4037 4.96777ZM 32.3412 12.1572C 32.3412 11.2256 32.5229 10.3877 32.8861 9.64355C 33.2553 8.89941 33.765 8.3252 34.4154 7.9209C 35.0717 7.5166 35.8188 7.31445 36.6566 7.31445C 37.9516 7.31445 38.9975 7.7627 39.7943 8.65918C 40.5971 9.55566 40.9984 10.748 40.9984 12.2363L 40.9984 12.3506C 40.9984 13.2764 40.8197 14.1084 40.4623 14.8467C 40.1107 15.5791 39.6039 16.1504 38.9418 16.5605C 38.2855 16.9707 37.5297 17.1758 36.6742 17.1758C 35.3852 17.1758 34.3393 16.7275 33.5365 15.8311C 32.7396 14.9346 32.3412 13.748 32.3412 12.2715L 32.3412 12.1572ZM 33.976 12.3506C 33.976 13.4053 34.2191 14.252 34.7055 14.8906C 35.1977 15.5293 35.8539 15.8486 36.6742 15.8486C 37.5004 15.8486 38.1566 15.5264 38.643 14.8818C 39.1293 14.2314 39.3725 13.3232 39.3725 12.1572C 39.3725 11.1143 39.1234 10.2705 38.6254 9.62598C 38.1332 8.97559 37.477 8.65039 36.6566 8.65039C 35.8539 8.65039 35.2064 8.96973 34.7143 9.6084C 34.2221 10.2471 33.976 11.1611 33.976 12.3506Z"/>
<path id="path6_fill" d="M 12.779 15.3828C 12.3044 15.9512 11.6335 16.3936 10.7663 16.71C 9.89909 17.0205 8.93815 17.1758 7.88346 17.1758C 6.77604 17.1758 5.80338 16.9355 4.96549 16.4551C 4.13346 15.9688 3.48893 15.2656 3.0319 14.3457C 2.58073 13.4258 2.34928 12.3447 2.33756 11.1025L 2.33756 10.2324C 2.33756 8.95508 2.55143 7.85059 2.97916 6.91895C 3.41276 5.98145 4.03385 5.2666 4.84245 4.77441C 5.6569 4.27637 6.60905 4.02734 7.69889 4.02734C 9.21647 4.02734 10.403 4.39062 11.2585 5.11719C 12.1139 5.83789 12.6208 6.88965 12.779 8.27246L 10.2126 8.27246C 10.0954 7.54004 9.83463 7.00391 9.43034 6.66406C 9.0319 6.32422 8.48112 6.1543 7.77799 6.1543C 6.88151 6.1543 6.19889 6.49121 5.73014 7.16504C 5.26139 7.83887 5.02409 8.84082 5.01823 10.1709L 5.01823 10.9883C 5.01823 12.3301 5.27311 13.3438 5.78288 14.0293C 6.29264 14.7148 7.03971 15.0576 8.02409 15.0576C 9.01432 15.0576 9.72038 14.8467 10.1423 14.4248L 10.1423 12.2188L 7.74284 12.2188L 7.74284 10.2764L 12.779 10.2764L 12.779 15.3828ZM 20.1003 9.87207C 19.7546 9.8252 19.4499 9.80176 19.1862 9.80176C 18.2253 9.80176 17.5954 10.127 17.2965 10.7773L 17.2965 17L 14.7565 17L 14.7565 7.49023L 17.1559 7.49023L 17.2262 8.62402C 17.736 7.75098 18.4421 7.31445 19.3444 7.31445C 19.6256 7.31445 19.8893 7.35254 20.1354 7.42871L 20.1003 9.87207ZM 26.5778 17C 26.4606 16.7715 26.3756 16.4873 26.3229 16.1475C 25.7077 16.833 24.9079 17.1758 23.9235 17.1758C 22.9919 17.1758 22.2184 16.9062 21.6032 16.3672C 20.9938 15.8281 20.6891 15.1484 20.6891 14.3281C 20.6891 13.3203 21.0612 12.5469 21.8053 12.0078C 22.5553 11.4688 23.6364 11.1963 25.0485 11.1904L 26.2174 11.1904L 26.2174 10.6455C 26.2174 10.2061 26.1032 9.85449 25.8747 9.59082C 25.652 9.32715 25.2975 9.19531 24.8112 9.19531C 24.3835 9.19531 24.0465 9.29785 23.8005 9.50293C 23.5602 9.70801 23.4401 9.98926 23.4401 10.3467L 20.9001 10.3467C 20.9001 9.7959 21.07 9.28613 21.4098 8.81738C 21.7497 8.34863 22.2301 7.98242 22.8512 7.71875C 23.4723 7.44922 24.1696 7.31445 24.943 7.31445C 26.1149 7.31445 27.0436 7.61035 27.7292 8.20215C 28.4206 8.78809 28.7663 9.61426 28.7663 10.6807L 28.7663 14.8027C 28.7721 15.7051 28.8981 16.3877 29.1442 16.8506L 29.1442 17L 26.5778 17ZM 24.4772 15.2334C 24.8522 15.2334 25.1979 15.1514 25.5143 14.9873C 25.8307 14.8174 26.0651 14.5918 26.2174 14.3105L 26.2174 12.6758L 25.2682 12.6758C 23.9967 12.6758 23.32 13.1152 23.238 13.9941L 23.2292 14.1436C 23.2292 14.46 23.3405 14.7207 23.5631 14.9258C 23.7858 15.1309 24.0905 15.2334 24.4772 15.2334ZM 39.278 12.333C 39.278 13.7979 38.944 14.9727 38.276 15.8574C 37.6139 16.7363 36.7174 17.1758 35.5866 17.1758C 34.6256 17.1758 33.8493 16.8418 33.2575 16.1738L 33.2575 20.6562L 30.7174 20.6562L 30.7174 7.49023L 33.0729 7.49023L 33.1608 8.42188C 33.776 7.68359 34.5788 7.31445 35.569 7.31445C 36.7409 7.31445 37.652 7.74805 38.3024 8.61523C 38.9528 9.48242 39.278 10.6777 39.278 12.2012L 39.278 12.333ZM 36.738 12.1484C 36.738 11.2637 36.5798 10.5811 36.2633 10.1006C 35.9528 9.62012 35.4987 9.37988 34.901 9.37988C 34.1042 9.37988 33.5563 9.68457 33.2575 10.2939L 33.2575 14.1875C 33.568 14.8145 34.1217 15.1279 34.9186 15.1279C 36.1315 15.1279 36.738 14.1348 36.738 12.1484ZM 43.3385 8.52734C 44.0124 7.71875 44.859 7.31445 45.8786 7.31445C 47.9411 7.31445 48.987 8.5127 49.0163 10.9092L 49.0163 17L 46.4762 17L 46.4762 10.9795C 46.4762 10.4346 46.359 10.0332 46.1247 9.77539C 45.8903 9.51172 45.5006 9.37988 44.9557 9.37988C 44.2116 9.37988 43.6725 9.66699 43.3385 10.2412L 43.3385 17L 40.7985 17L 40.7985 3.5L 43.3385 3.5L 43.3385 8.52734ZM 56.0827 14.3721C 56.0827 14.0615 55.9274 13.8184 55.6169 13.6426C 55.3122 13.4609 54.82 13.2998 54.1403 13.1592C 51.8786 12.6846 50.7477 11.7236 50.7477 10.2764C 50.7477 9.43262 51.0964 8.72949 51.7936 8.16699C 52.4967 7.59863 53.4137 7.31445 54.5446 7.31445C 55.7516 7.31445 56.7155 7.59863 57.4362 8.16699C 58.1628 8.73535 58.526 9.47363 58.526 10.3818L 55.986 10.3818C 55.986 10.0186 55.8688 9.71973 55.6344 9.48535C 55.4001 9.24512 55.0339 9.125 54.5358 9.125C 54.1081 9.125 53.777 9.22168 53.5426 9.41504C 53.3083 9.6084 53.1911 9.85449 53.1911 10.1533C 53.1911 10.4346 53.3229 10.6631 53.5866 10.8389C 53.8561 11.0088 54.3073 11.1582 54.9401 11.2871C 55.5729 11.4102 56.1061 11.5508 56.5397 11.709C 57.8815 12.2012 58.5524 13.0537 58.5524 14.2666C 58.5524 15.1338 58.1803 15.8369 57.4362 16.376C 56.6921 16.9092 55.7311 17.1758 54.5534 17.1758C 53.7565 17.1758 53.0475 17.0352 52.4264 16.7539C 51.8112 16.4668 51.3278 16.0771 50.9762 15.585C 50.6247 15.0869 50.4489 14.5508 50.4489 13.9766L 52.8571 13.9766C 52.8805 14.4277 53.0475 14.7734 53.3581 15.0137C 53.6686 15.2539 54.0846 15.374 54.6061 15.374C 55.0924 15.374 55.4587 15.2832 55.7048 15.1016C 55.9567 14.9141 56.0827 14.6709 56.0827 14.3721ZM 72.9489 13.5459L 74.1969 7.49023L 76.6491 7.49023L 74.2233 17L 72.0964 17L 70.2946 11.0146L 68.4928 17L 66.3747 17L 63.9489 7.49023L 66.401 7.49023L 67.6403 13.5371L 69.3805 7.49023L 71.2174 7.49023L 72.9489 13.5459ZM 82.2917 17.1758C 80.8971 17.1758 79.7604 16.748 78.8815 15.8926C 78.0085 15.0371 77.5719 13.8975 77.5719 12.4736L 77.5719 12.2275C 77.5719 11.2725 77.7565 10.4199 78.1256 9.66992C 78.4948 8.91406 79.0163 8.33398 79.6901 7.92969C 80.3698 7.51953 81.1432 7.31445 82.0104 7.31445C 83.3112 7.31445 84.3337 7.72461 85.0778 8.54492C 85.8278 9.36523 86.2028 10.5283 86.2028 12.0342L 86.2028 13.0713L 80.1471 13.0713C 80.2292 13.6924 80.4753 14.1904 80.8854 14.5654C 81.3014 14.9404 81.8258 15.1279 82.4587 15.1279C 83.4372 15.1279 84.2018 14.7734 84.7526 14.0645L 86.0006 15.4619C 85.6198 16.001 85.1042 16.4229 84.4538 16.7275C 83.8034 17.0264 83.0827 17.1758 82.2917 17.1758ZM 82.0016 9.37109C 81.4977 9.37109 81.0876 9.54102 80.7712 9.88086C 80.4606 10.2207 80.2614 10.707 80.1735 11.3398L 83.7067 11.3398L 83.7067 11.1377C 83.695 10.5752 83.5426 10.1416 83.2497 9.83691C 82.9567 9.52637 82.5407 9.37109 82.0016 9.37109ZM 96.0905 15.1279C 96.5592 15.1279 96.9401 14.999 97.2331 14.7412C 97.526 14.4834 97.6784 14.1406 97.6901 13.7129L 100.072 13.7129C 100.066 14.3574 99.8903 14.9492 99.5446 15.4883C 99.1989 16.0215 98.7243 16.4375 98.1208 16.7363C 97.5231 17.0293 96.861 17.1758 96.1344 17.1758C 94.7751 17.1758 93.7028 16.7451 92.9176 15.8838C 92.1325 15.0166 91.7399 13.8213 91.7399 12.2979L 91.7399 12.1309C 91.7399 10.666 92.1296 9.49707 92.9089 8.62402C 93.6881 7.75098 94.7575 7.31445 96.1169 7.31445C 97.3063 7.31445 98.2585 7.6543 98.9733 8.33398C 99.694 9.00781 100.06 9.90723 100.072 11.0322L 97.6901 11.0322C 97.6784 10.54 97.526 10.1416 97.2331 9.83691C 96.9401 9.52637 96.5534 9.37109 96.0729 9.37109C 95.4811 9.37109 95.0329 9.58789 94.7282 10.0215C 94.4294 10.4492 94.2799 11.1465 94.2799 12.1133L 94.2799 12.377C 94.2799 13.3555 94.4294 14.0586 94.7282 14.4863C 95.027 14.9141 95.4811 15.1279 96.0905 15.1279ZM 107.033 17C 106.916 16.7715 106.831 16.4873 106.778 16.1475C 106.163 16.833 105.363 17.1758 104.379 17.1758C 103.447 17.1758 102.674 16.9062 102.058 16.3672C 101.449 15.8281 101.144 15.1484 101.144 14.3281C 101.144 13.3203 101.516 12.5469 102.26 12.0078C 103.01 11.4688 104.091 11.1963 105.504 11.1904L 106.673 11.1904L 106.673 10.6455C 106.673 10.2061 106.558 9.85449 106.33 9.59082C 106.107 9.32715 105.753 9.19531 105.266 9.19531C 104.839 9.19531 104.502 9.29785 104.256 9.50293C 104.015 9.70801 103.895 9.98926 103.895 10.3467L 101.355 10.3467C 101.355 9.7959 101.525 9.28613 101.865 8.81738C 102.205 8.34863 102.685 7.98242 103.306 7.71875C 103.927 7.44922 104.625 7.31445 105.398 7.31445C 106.57 7.31445 107.499 7.61035 108.184 8.20215C 108.876 8.78809 109.221 9.61426 109.221 10.6807L 109.221 14.8027C 109.227 15.7051 109.353 16.3877 109.599 16.8506L 109.599 17L 107.033 17ZM 104.932 15.2334C 105.307 15.2334 105.653 15.1514 105.969 14.9873C 106.286 14.8174 106.52 14.5918 106.673 14.3105L 106.673 12.6758L 105.723 12.6758C 104.452 12.6758 103.775 13.1152 103.693 13.9941L 103.684 14.1436C 103.684 14.46 103.796 14.7207 104.018 14.9258C 104.241 15.1309 104.546 15.2334 104.932 15.2334ZM 113.51 7.49023L 113.59 8.58887C 114.269 7.73926 115.18 7.31445 116.323 7.31445C 117.331 7.31445 118.081 7.61035 118.573 8.20215C 119.065 8.79395 119.317 9.67871 119.329 10.8564L 119.329 17L 116.789 17L 116.789 10.918C 116.789 10.3789 116.672 9.98926 116.437 9.74902C 116.203 9.50293 115.813 9.37988 115.268 9.37988C 114.553 9.37988 114.017 9.68457 113.66 10.2939L 113.66 17L 111.12 17L 111.12 7.49023L 113.51 7.49023ZM 131.44 16.0332C 130.813 16.7949 129.946 17.1758 128.839 17.1758C 127.819 17.1758 127.04 16.8828 126.501 16.2969C 125.967 15.7109 125.695 14.8525 125.683 13.7217L 125.683 7.49023L 128.223 7.49023L 128.223 13.6338C 128.223 14.624 128.674 15.1191 129.577 15.1191C 130.438 15.1191 131.03 14.8203 131.352 14.2227L 131.352 7.49023L 133.901 7.49023L 133.901 17L 131.51 17L 131.44 16.0332ZM 140.967 14.3721C 140.967 14.0615 140.812 13.8184 140.502 13.6426C 140.197 13.4609 139.705 13.2998 139.025 13.1592C 136.763 12.6846 135.632 11.7236 135.632 10.2764C 135.632 9.43262 135.981 8.72949 136.678 8.16699C 137.382 7.59863 138.298 7.31445 139.429 7.31445C 140.636 7.31445 141.6 7.59863 142.321 8.16699C 143.048 8.73535 143.411 9.47363 143.411 10.3818L 140.871 10.3818C 140.871 10.0186 140.754 9.71973 140.519 9.48535C 140.285 9.24512 139.919 9.125 139.421 9.125C 138.993 9.125 138.662 9.22168 138.427 9.41504C 138.193 9.6084 138.076 9.85449 138.076 10.1533C 138.076 10.4346 138.208 10.6631 138.471 10.8389C 138.741 11.0088 139.192 11.1582 139.825 11.2871C 140.458 11.4102 140.991 11.5508 141.424 11.709C 142.766 12.2012 143.437 13.0537 143.437 14.2666C 143.437 15.1338 143.065 15.8369 142.321 16.376C 141.577 16.9092 140.616 17.1758 139.438 17.1758C 138.641 17.1758 137.932 17.0352 137.311 16.7539C 136.696 16.4668 136.213 16.0771 135.861 15.585C 135.509 15.0869 135.334 14.5508 135.334 13.9766L 137.742 13.9766C 137.765 14.4277 137.932 14.7734 138.243 15.0137C 138.553 15.2539 138.969 15.374 139.491 15.374C 139.977 15.374 140.343 15.2832 140.59 15.1016C 140.841 14.9141 140.967 14.6709 140.967 14.3721ZM 149.458 17.1758C 148.063 17.1758 146.926 16.748 146.048 15.8926C 145.174 15.0371 144.738 13.8975 144.738 12.4736L 144.738 12.2275C 144.738 11.2725 144.923 10.4199 145.292 9.66992C 145.661 8.91406 146.182 8.33398 146.856 7.92969C 147.536 7.51953 148.309 7.31445 149.176 7.31445C 150.477 7.31445 151.5 7.72461 152.244 8.54492C 152.994 9.36523 153.369 10.5283 153.369 12.0342L 153.369 13.0713L 147.313 13.0713C 147.395 13.6924 147.641 14.1904 148.051 14.5654C 148.467 14.9404 148.992 15.1279 149.625 15.1279C 150.603 15.1279 151.368 14.7734 151.919 14.0645L 153.167 15.4619C 152.786 16.001 152.27 16.4229 151.62 16.7275C 150.969 17.0264 150.249 17.1758 149.458 17.1758ZM 149.168 9.37109C 148.664 9.37109 148.254 9.54102 147.937 9.88086C 147.627 10.2207 147.427 10.707 147.34 11.3398L 150.873 11.3398L 150.873 11.1377C 150.861 10.5752 150.709 10.1416 150.416 9.83691C 150.123 9.52637 149.707 9.37109 149.168 9.37109ZM 162.342 5.15234L 162.342 7.49023L 163.968 7.49023L 163.968 9.35352L 162.342 9.35352L 162.342 14.0996C 162.342 14.4512 162.41 14.7031 162.545 14.8555C 162.679 15.0078 162.937 15.084 163.318 15.084C 163.599 15.084 163.848 15.0635 164.065 15.0225L 164.065 16.9473C 163.567 17.0996 163.054 17.1758 162.527 17.1758C 160.746 17.1758 159.838 16.2764 159.802 14.4775L 159.802 9.35352L 158.414 9.35352L 158.414 7.49023L 159.802 7.49023L 159.802 5.15234L 162.342 5.15234ZM 164.724 12.1572C 164.724 11.2139 164.906 10.373 165.269 9.63477C 165.632 8.89648 166.154 8.3252 166.834 7.9209C 167.519 7.5166 168.313 7.31445 169.215 7.31445C 170.499 7.31445 171.545 7.70703 172.353 8.49219C 173.168 9.27734 173.622 10.3438 173.715 11.6914L 173.733 12.3418C 173.733 13.8008 173.326 14.9727 172.511 15.8574C 171.697 16.7363 170.604 17.1758 169.233 17.1758C 167.862 17.1758 166.766 16.7363 165.946 15.8574C 165.132 14.9785 164.724 13.7832 164.724 12.2715L 164.724 12.1572ZM 167.264 12.3418C 167.264 13.2441 167.434 13.9355 167.774 14.416C 168.114 14.8906 168.6 15.1279 169.233 15.1279C 169.848 15.1279 170.329 14.8936 170.674 14.4248C 171.02 13.9502 171.193 13.1943 171.193 12.1572C 171.193 11.2725 171.02 10.5869 170.674 10.1006C 170.329 9.61426 169.842 9.37109 169.215 9.37109C 168.594 9.37109 168.114 9.61426 167.774 10.1006C 167.434 10.5811 167.264 11.3281 167.264 12.3418ZM 8.75358 35.3721C 8.75358 35.0615 8.5983 34.8184 8.28776 34.6426C 7.98307 34.4609 7.49088 34.2998 6.8112 34.1592C 4.54948 33.6846 3.41862 32.7236 3.41862 31.2764C 3.41862 30.4326 3.76725 29.7295 4.46452 29.167C 5.16764 28.5986 6.08463 28.3145 7.21549 28.3145C 8.42252 28.3145 9.38639 28.5986 10.1071 29.167C 10.8337 29.7354 11.1969 30.4736 11.1969 31.3818L 8.6569 31.3818C 8.6569 31.0186 8.53971 30.7197 8.30534 30.4854C 8.07096 30.2451 7.70475 30.125 7.2067 30.125C 6.77897 30.125 6.44791 30.2217 6.21354 30.415C 5.97916 30.6084 5.86198 30.8545 5.86198 31.1533C 5.86198 31.4346 5.99381 31.6631 6.25748 31.8389C 6.52702 32.0088 6.97819 32.1582 7.611 32.2871C 8.24381 32.4102 8.77702 32.5508 9.21061 32.709C 10.5524 33.2012 11.2233 34.0537 11.2233 35.2666C 11.2233 36.1338 10.8512 36.8369 10.1071 37.376C 9.36295 37.9092 8.40202 38.1758 7.22428 38.1758C 6.42741 38.1758 5.71842 38.0352 5.09733 37.7539C 4.48209 37.4668 3.9987 37.0771 3.64713 36.585C 3.29557 36.0869 3.11979 35.5508 3.11979 34.9766L 5.52799 34.9766C 5.55143 35.4277 5.71842 35.7734 6.02897 36.0137C 6.33952 36.2539 6.75553 36.374 7.27702 36.374C 7.76334 36.374 8.12955 36.2832 8.37565 36.1016C 8.6276 35.9141 8.75358 35.6709 8.75358 35.3721ZM 15.3454 29.5273C 16.0192 28.7188 16.8659 28.3145 17.8854 28.3145C 19.9479 28.3145 20.9938 29.5127 21.0231 31.9092L 21.0231 38L 18.4831 38L 18.4831 31.9795C 18.4831 31.4346 18.3659 31.0332 18.1315 30.7754C 17.8971 30.5117 17.5075 30.3799 16.9626 30.3799C 16.2184 30.3799 15.6794 30.667 15.3454 31.2412L 15.3454 38L 12.8053 38L 12.8053 24.5L 15.3454 24.5L 15.3454 29.5273ZM 22.5436 33.1572C 22.5436 32.2139 22.7253 31.373 23.0885 30.6348C 23.4518 29.8965 23.9733 29.3252 24.653 28.9209C 25.3385 28.5166 26.1325 28.3145 27.0348 28.3145C 28.318 28.3145 29.3639 28.707 30.1725 29.4922C 30.987 30.2773 31.4411 31.3438 31.5348 32.6914L 31.5524 33.3418C 31.5524 34.8008 31.1452 35.9727 30.3307 36.8574C 29.5163 37.7363 28.4235 38.1758 27.0524 38.1758C 25.6813 38.1758 24.5856 37.7363 23.7653 36.8574C 22.9508 35.9785 22.5436 34.7832 22.5436 33.2715L 22.5436 33.1572ZM 25.0837 33.3418C 25.0837 34.2441 25.2536 34.9355 25.5934 35.416C 25.9333 35.8906 26.4196 36.1279 27.0524 36.1279C 27.6676 36.1279 28.1481 35.8936 28.4938 35.4248C 28.8395 34.9502 29.0124 34.1943 29.0124 33.1572C 29.0124 32.2725 28.8395 31.5869 28.4938 31.1006C 28.1481 30.6143 27.6618 30.3711 27.0348 30.3711C 26.4137 30.3711 25.9333 30.6143 25.5934 31.1006C 25.2536 31.5811 25.0837 32.3281 25.0837 33.3418ZM 41.3874 34.5459L 42.6354 28.4902L 45.0876 28.4902L 42.6618 38L 40.5348 38L 38.7331 32.0146L 36.9313 38L 34.8131 38L 32.3874 28.4902L 34.8395 28.4902L 36.0788 34.5371L 37.819 28.4902L 39.6559 28.4902L 41.3874 34.5459ZM 53.8766 26.1523L 53.8766 28.4902L 55.5026 28.4902L 55.5026 30.3535L 53.8766 30.3535L 53.8766 35.0996C 53.8766 35.4512 53.944 35.7031 54.0788 35.8555C 54.2135 36.0078 54.4714 36.084 54.8522 36.084C 55.1335 36.084 55.3825 36.0635 55.5993 36.0225L 55.5993 37.9473C 55.1012 38.0996 54.5885 38.1758 54.0612 38.1758C 52.2799 38.1758 51.3717 37.2764 51.3366 35.4775L 51.3366 30.3535L 49.9479 30.3535L 49.9479 28.4902L 51.3366 28.4902L 51.3366 26.1523L 53.8766 26.1523ZM 59.3962 29.5273C 60.07 28.7188 60.9167 28.3145 61.9362 28.3145C 63.9987 28.3145 65.0446 29.5127 65.0739 31.9092L 65.0739 38L 62.5339 38L 62.5339 31.9795C 62.5339 31.4346 62.4167 31.0332 62.1823 30.7754C 61.9479 30.5117 61.5583 30.3799 61.0133 30.3799C 60.2692 30.3799 59.7301 30.667 59.3962 31.2412L 59.3962 38L 56.8561 38L 56.8561 24.5L 59.3962 24.5L 59.3962 29.5273ZM 71.3669 38.1758C 69.9723 38.1758 68.8356 37.748 67.9567 36.8926C 67.0837 36.0371 66.6471 34.8975 66.6471 33.4736L 66.6471 33.2275C 66.6471 32.2725 66.8317 31.4199 67.2008 30.6699C 67.57 29.9141 68.0915 29.334 68.7653 28.9297C 69.445 28.5195 70.2184 28.3145 71.0856 28.3145C 72.3864 28.3145 73.4089 28.7246 74.153 29.5449C 74.903 30.3652 75.278 31.5283 75.278 33.0342L 75.278 34.0713L 69.2223 34.0713C 69.3044 34.6924 69.5505 35.1904 69.9606 35.5654C 70.3766 35.9404 70.901 36.1279 71.5339 36.1279C 72.5124 36.1279 73.277 35.7734 73.8278 35.0645L 75.0758 36.4619C 74.695 37.001 74.1794 37.4229 73.529 37.7275C 72.8786 38.0264 72.1579 38.1758 71.3669 38.1758ZM 71.0768 30.3711C 70.5729 30.3711 70.1628 30.541 69.8464 30.8809C 69.5358 31.2207 69.3366 31.707 69.2487 32.3398L 72.7819 32.3398L 72.7819 32.1377C 72.7702 31.5752 72.6178 31.1416 72.3249 30.8369C 72.0319 30.5264 71.6159 30.3711 71.0768 30.3711ZM 80.8151 33.1748C 80.8151 31.6924 81.1462 30.5117 81.8083 29.6328C 82.4762 28.7539 83.3874 28.3145 84.5417 28.3145C 85.4674 28.3145 86.2321 28.6602 86.8356 29.3516L 86.8356 24.5L 89.3844 24.5L 89.3844 38L 87.0905 38L 86.9674 36.9893C 86.3346 37.7803 85.5202 38.1758 84.5241 38.1758C 83.4049 38.1758 82.5055 37.7363 81.8258 36.8574C 81.152 35.9727 80.8151 34.7451 80.8151 33.1748ZM 83.3551 33.3594C 83.3551 34.25 83.5104 34.9326 83.821 35.4072C 84.1315 35.8818 84.5827 36.1191 85.1745 36.1191C 85.9596 36.1191 86.5133 35.7881 86.8356 35.126L 86.8356 31.373C 86.5192 30.7109 85.9714 30.3799 85.1921 30.3799C 83.9674 30.3799 83.3551 31.373 83.3551 33.3594ZM 94.0339 38L 91.485 38L 91.485 28.4902L 94.0339 28.4902L 94.0339 38ZM 91.3356 26.0293C 91.3356 25.6484 91.4616 25.335 91.7135 25.0889C 91.9714 24.8428 92.32 24.7197 92.7594 24.7197C 93.193 24.7197 93.5387 24.8428 93.7965 25.0889C 94.0544 25.335 94.1833 25.6484 94.1833 26.0293C 94.1833 26.416 94.0514 26.7324 93.7878 26.9785C 93.5299 27.2246 93.1872 27.3477 92.7594 27.3477C 92.3317 27.3477 91.986 27.2246 91.7223 26.9785C 91.4645 26.7324 91.3356 26.416 91.3356 26.0293ZM 101.285 35.3721C 101.285 35.0615 101.13 34.8184 100.819 34.6426C 100.514 34.4609 100.022 34.2998 99.3424 34.1592C 97.0807 33.6846 95.9499 32.7236 95.9499 31.2764C 95.9499 30.4326 96.2985 29.7295 96.9958 29.167C 97.6989 28.5986 98.6159 28.3145 99.7467 28.3145C 100.954 28.3145 101.918 28.5986 102.638 29.167C 103.365 29.7354 103.728 30.4736 103.728 31.3818L 101.188 31.3818C 101.188 31.0186 101.071 30.7197 100.837 30.4854C 100.602 30.2451 100.236 30.125 99.738 30.125C 99.3102 30.125 98.9792 30.2217 98.7448 30.415C 98.5104 30.6084 98.3932 30.8545 98.3932 31.1533C 98.3932 31.4346 98.5251 31.6631 98.7887 31.8389C 99.0583 32.0088 99.5094 32.1582 100.142 32.2871C 100.775 32.4102 101.308 32.5508 101.742 32.709C 103.084 33.2012 103.755 34.0537 103.755 35.2666C 103.755 36.1338 103.382 36.8369 102.638 37.376C 101.894 37.9092 100.933 38.1758 99.7555 38.1758C 98.9587 38.1758 98.2497 38.0352 97.6286 37.7539C 97.0133 37.4668 96.5299 37.0771 96.1784 36.585C 95.8268 36.0869 95.651 35.5508 95.651 34.9766L 98.0592 34.9766C 98.0827 35.4277 98.2497 35.7734 98.5602 36.0137C 98.8708 36.2539 99.2868 36.374 99.8083 36.374C 100.295 36.374 100.661 36.2832 100.907 36.1016C 101.159 35.9141 101.285 35.6709 101.285 35.3721ZM 108.439 26.1523L 108.439 28.4902L 110.065 28.4902L 110.065 30.3535L 108.439 30.3535L 108.439 35.0996C 108.439 35.4512 108.507 35.7031 108.641 35.8555C 108.776 36.0078 109.034 36.084 109.415 36.084C 109.696 36.084 109.945 36.0635 110.162 36.0225L 110.162 37.9473C 109.664 38.0996 109.151 38.1758 108.624 38.1758C 106.842 38.1758 105.934 37.2764 105.899 35.4775L 105.899 30.3535L 104.51 30.3535L 104.51 28.4902L 105.899 28.4902L 105.899 26.1523L 108.439 26.1523ZM 116.824 30.8721C 116.478 30.8252 116.174 30.8018 115.91 30.8018C 114.949 30.8018 114.319 31.127 114.02 31.7773L 114.02 38L 111.48 38L 111.48 28.4902L 113.88 28.4902L 113.95 29.624C 114.46 28.751 115.166 28.3145 116.068 28.3145C 116.349 28.3145 116.613 28.3525 116.859 28.4287L 116.824 30.8721ZM 120.735 38L 118.186 38L 118.186 28.4902L 120.735 28.4902L 120.735 38ZM 118.037 26.0293C 118.037 25.6484 118.163 25.335 118.415 25.0889C 118.673 24.8428 119.021 24.7197 119.461 24.7197C 119.894 24.7197 120.24 24.8428 120.498 25.0889C 120.756 25.335 120.884 25.6484 120.884 26.0293C 120.884 26.416 120.753 26.7324 120.489 26.9785C 120.231 27.2246 119.888 27.3477 119.461 27.3477C 119.033 27.3477 118.687 27.2246 118.424 26.9785C 118.166 26.7324 118.037 26.416 118.037 26.0293ZM 131.405 33.333C 131.405 34.8564 131.08 36.0459 130.429 36.9014C 129.779 37.751 128.871 38.1758 127.705 38.1758C 126.674 38.1758 125.85 37.7803 125.235 36.9893L 125.121 38L 122.836 38L 122.836 24.5L 125.376 24.5L 125.376 29.3428C 125.962 28.6572 126.732 28.3145 127.687 28.3145C 128.847 28.3145 129.756 28.7422 130.412 29.5977C 131.074 30.4473 131.405 31.6455 131.405 33.1924L 131.405 33.333ZM 128.865 33.1484C 128.865 32.1875 128.713 31.4873 128.408 31.0479C 128.103 30.6025 127.649 30.3799 127.046 30.3799C 126.237 30.3799 125.68 30.7109 125.376 31.373L 125.376 35.126C 125.686 35.7939 126.249 36.1279 127.063 36.1279C 127.883 36.1279 128.423 35.7236 128.68 34.915C 128.803 34.5283 128.865 33.9395 128.865 33.1484ZM 138.673 37.0332C 138.047 37.7949 137.179 38.1758 136.072 38.1758C 135.052 38.1758 134.273 37.8828 133.734 37.2969C 133.201 36.7109 132.928 35.8525 132.917 34.7217L 132.917 28.4902L 135.457 28.4902L 135.457 34.6338C 135.457 35.624 135.908 36.1191 136.81 36.1191C 137.672 36.1191 138.263 35.8203 138.586 35.2227L 138.586 28.4902L 141.134 28.4902L 141.134 38L 138.744 38L 138.673 37.0332ZM 146.091 26.1523L 146.091 28.4902L 147.717 28.4902L 147.717 30.3535L 146.091 30.3535L 146.091 35.0996C 146.091 35.4512 146.159 35.7031 146.294 35.8555C 146.428 36.0078 146.686 36.084 147.067 36.084C 147.348 36.084 147.597 36.0635 147.814 36.0225L 147.814 37.9473C 147.316 38.0996 146.803 38.1758 146.276 38.1758C 144.495 38.1758 143.587 37.2764 143.551 35.4775L 143.551 30.3535L 142.163 30.3535L 142.163 28.4902L 143.551 28.4902L 143.551 26.1523L 146.091 26.1523ZM 151.813 38L 149.264 38L 149.264 28.4902L 151.813 28.4902L 151.813 38ZM 149.115 26.0293C 149.115 25.6484 149.241 25.335 149.493 25.0889C 149.751 24.8428 150.099 24.7197 150.539 24.7197C 150.972 24.7197 151.318 24.8428 151.576 25.0889C 151.834 25.335 151.963 25.6484 151.963 26.0293C 151.963 26.416 151.831 26.7324 151.567 26.9785C 151.309 27.2246 150.966 27.3477 150.539 27.3477C 150.111 27.3477 149.765 27.2246 149.502 26.9785C 149.244 26.7324 149.115 26.416 149.115 26.0293ZM 153.518 33.1572C 153.518 32.2139 153.7 31.373 154.063 30.6348C 154.426 29.8965 154.948 29.3252 155.628 28.9209C 156.313 28.5166 157.107 28.3145 158.009 28.3145C 159.293 28.3145 160.339 28.707 161.147 29.4922C 161.962 30.2773 162.416 31.3438 162.509 32.6914L 162.527 33.3418C 162.527 34.8008 162.12 35.9727 161.305 36.8574C 160.491 37.7363 159.398 38.1758 158.027 38.1758C 156.656 38.1758 155.56 37.7363 154.74 36.8574C 153.925 35.9785 153.518 34.7832 153.518 33.2715L 153.518 33.1572ZM 156.058 33.3418C 156.058 34.2441 156.228 34.9355 156.568 35.416C 156.908 35.8906 157.394 36.1279 158.027 36.1279C 158.642 36.1279 159.123 35.8936 159.468 35.4248C 159.814 34.9502 159.987 34.1943 159.987 33.1572C 159.987 32.2725 159.814 31.5869 159.468 31.1006C 159.123 30.6143 158.636 30.3711 158.009 30.3711C 157.388 30.3711 156.908 30.6143 156.568 31.1006C 156.228 31.5811 156.058 32.3281 156.058 33.3418ZM 166.429 28.4902L 166.508 29.5889C 167.188 28.7393 168.099 28.3145 169.242 28.3145C 170.25 28.3145 171 28.6104 171.492 29.2021C 171.984 29.7939 172.236 30.6787 172.248 31.8564L 172.248 38L 169.708 38L 169.708 31.918C 169.708 31.3789 169.59 30.9893 169.356 30.749C 169.122 30.5029 168.732 30.3799 168.187 30.3799C 167.472 30.3799 166.936 30.6846 166.579 31.2939L 166.579 38L 164.039 38L 164.039 28.4902L 166.429 28.4902Z"/>
<path id="path7_fill" d="M 29.636 13.6426C 29.636 13.1445 29.4602 12.7637 29.1087 12.5C 28.7571 12.2305 28.1243 11.9492 27.2102 11.6562C 26.2962 11.3574 25.5725 11.0645 25.0393 10.7773C 23.5862 9.99219 22.8596 8.93457 22.8596 7.60449C 22.8596 6.91309 23.053 6.29785 23.4397 5.75879C 23.8323 5.21387 24.3919 4.78906 25.1184 4.48438C 25.8509 4.17969 26.6712 4.02734 27.5794 4.02734C 28.4934 4.02734 29.3079 4.19434 30.0227 4.52832C 30.7376 4.85645 31.2913 5.32227 31.6839 5.92578C 32.0823 6.5293 32.2815 7.21484 32.2815 7.98242L 29.6448 7.98242C 29.6448 7.39648 29.4602 6.94238 29.0911 6.62012C 28.722 6.29199 28.2034 6.12793 27.5354 6.12793C 26.8909 6.12793 26.3899 6.26563 26.0325 6.54102C 25.6751 6.81055 25.4964 7.16797 25.4964 7.61328C 25.4964 8.0293 25.7044 8.37793 26.1204 8.65918C 26.5423 8.94043 27.1604 9.2041 27.9749 9.4502C 29.4749 9.90137 30.5677 10.4609 31.2532 11.1289C 31.9388 11.7969 32.2815 12.6289 32.2815 13.625C 32.2815 14.7324 31.8626 15.6025 31.0247 16.2354C 30.1868 16.8623 29.0589 17.1758 27.6409 17.1758C 26.6565 17.1758 25.76 16.9971 24.9514 16.6396C 24.1429 16.2764 23.5247 15.7812 23.097 15.1543C 22.6751 14.5273 22.4641 13.8008 22.4641 12.9746L 25.1096 12.9746C 25.1096 14.3867 25.9534 15.0928 27.6409 15.0928C 28.2679 15.0928 28.7571 14.9668 29.1087 14.7148C 29.4602 14.457 29.636 14.0996 29.636 13.6426ZM 37.8626 15.1279C 38.3313 15.1279 38.7122 14.999 39.0052 14.7412C 39.2981 14.4834 39.4505 14.1406 39.4622 13.7129L 41.844 13.7129C 41.8382 14.3574 41.6624 14.9492 41.3167 15.4883C 40.971 16.0215 40.4964 16.4375 39.8929 16.7363C 39.2952 17.0293 38.6331 17.1758 37.9065 17.1758C 36.5471 17.1758 35.4749 16.7451 34.6897 15.8838C 33.9046 15.0166 33.512 13.8213 33.512 12.2979L 33.512 12.1309C 33.512 10.666 33.9016 9.49707 34.6809 8.62402C 35.4602 7.75098 36.5296 7.31445 37.8889 7.31445C 39.0784 7.31445 40.0305 7.6543 40.7454 8.33398C 41.4661 9.00781 41.8323 9.90723 41.844 11.0322L 39.4622 11.0322C 39.4505 10.54 39.2981 10.1416 39.0052 9.83691C 38.7122 9.52637 38.3255 9.37109 37.845 9.37109C 37.2532 9.37109 36.805 9.58789 36.5003 10.0215C 36.2014 10.4492 36.052 11.1465 36.052 12.1133L 36.052 12.377C 36.052 13.3555 36.2014 14.0586 36.5003 14.4863C 36.7991 14.9141 37.2532 15.1279 37.8626 15.1279ZM 48.805 17C 48.6878 16.7715 48.6028 16.4873 48.5501 16.1475C 47.9348 16.833 47.135 17.1758 46.1507 17.1758C 45.219 17.1758 44.4456 16.9062 43.8304 16.3672C 43.221 15.8281 42.9163 15.1484 42.9163 14.3281C 42.9163 13.3203 43.2884 12.5469 44.0325 12.0078C 44.7825 11.4688 45.8636 11.1963 47.2757 11.1904L 48.4446 11.1904L 48.4446 10.6455C 48.4446 10.2061 48.3304 9.85449 48.1018 9.59082C 47.8792 9.32715 47.5247 9.19531 47.0384 9.19531C 46.6106 9.19531 46.2737 9.29785 46.0276 9.50293C 45.7874 9.70801 45.6673 9.98926 45.6673 10.3467L 43.1272 10.3467C 43.1272 9.7959 43.2971 9.28613 43.637 8.81738C 43.9768 8.34863 44.4573 7.98242 45.0784 7.71875C 45.6995 7.44922 46.3968 7.31445 47.1702 7.31445C 48.3421 7.31445 49.2708 7.61035 49.9563 8.20215C 50.6477 8.78809 50.9934 9.61426 50.9934 10.6807L 50.9934 14.8027C 50.9993 15.7051 51.1253 16.3877 51.3714 16.8506L 51.3714 17L 48.805 17ZM 46.7044 15.2334C 47.0794 15.2334 47.4251 15.1514 47.7415 14.9873C 48.0579 14.8174 48.2923 14.5918 48.4446 14.3105L 48.4446 12.6758L 47.4954 12.6758C 46.2239 12.6758 45.5471 13.1152 45.4651 13.9941L 45.4563 14.1436C 45.4563 14.46 45.5677 14.7207 45.7903 14.9258C 46.013 15.1309 46.3177 15.2334 46.7044 15.2334ZM 55.6253 17L 53.0764 17L 53.0764 3.5L 55.6253 3.5L 55.6253 17ZM 62.1028 17.1758C 60.7083 17.1758 59.5716 16.748 58.6927 15.8926C 57.8196 15.0371 57.3831 13.8975 57.3831 12.4736L 57.3831 12.2275C 57.3831 11.2725 57.5677 10.4199 57.9368 9.66992C 58.3059 8.91406 58.8274 8.33398 59.5013 7.92969C 60.1809 7.51953 60.9544 7.31445 61.8216 7.31445C 63.1223 7.31445 64.1448 7.72461 64.8889 8.54492C 65.6389 9.36523 66.0139 10.5283 66.0139 12.0342L 66.0139 13.0713L 59.9583 13.0713C 60.0403 13.6924 60.2864 14.1904 60.6966 14.5654C 61.1126 14.9404 61.637 15.1279 62.2698 15.1279C 63.2483 15.1279 64.013 14.7734 64.5638 14.0645L 65.8118 15.4619C 65.4309 16.001 64.9153 16.4229 64.2649 16.7275C 63.6145 17.0264 62.8938 17.1758 62.1028 17.1758ZM 61.8128 9.37109C 61.3089 9.37109 60.8987 9.54102 60.5823 9.88086C 60.2718 10.2207 60.0725 10.707 59.9846 11.3398L 63.5179 11.3398L 63.5179 11.1377C 63.5061 10.5752 63.3538 10.1416 63.0608 9.83691C 62.7679 9.52637 62.3518 9.37109 61.8128 9.37109ZM 71.5511 12.1572C 71.5511 11.2139 71.7327 10.373 72.096 9.63477C 72.4593 8.89648 72.9807 8.3252 73.6604 7.9209C 74.346 7.5166 75.1399 7.31445 76.0423 7.31445C 77.3255 7.31445 78.3714 7.70703 79.18 8.49219C 79.9944 9.27734 80.4485 10.3438 80.5423 11.6914L 80.5598 12.3418C 80.5598 13.8008 80.1526 14.9727 79.3382 15.8574C 78.5237 16.7363 77.4309 17.1758 76.0598 17.1758C 74.6888 17.1758 73.593 16.7363 72.7727 15.8574C 71.9583 14.9785 71.5511 13.7832 71.5511 12.2715L 71.5511 12.1572ZM 74.0911 12.3418C 74.0911 13.2441 74.261 13.9355 74.6009 14.416C 74.9407 14.8906 75.427 15.1279 76.0598 15.1279C 76.6751 15.1279 77.1555 14.8936 77.5013 14.4248C 77.847 13.9502 78.0198 13.1943 78.0198 12.1572C 78.0198 11.2725 77.847 10.5869 77.5013 10.1006C 77.1555 9.61426 76.6692 9.37109 76.0423 9.37109C 75.4212 9.37109 74.9407 9.61426 74.6009 10.1006C 74.261 10.5811 74.0911 11.3281 74.0911 12.3418ZM 82.8186 17L 82.8186 9.35352L 81.4036 9.35352L 81.4036 7.49023L 82.8186 7.49023L 82.8186 6.68164C 82.8186 5.61523 83.1233 4.78906 83.7327 4.20312C 84.3479 3.61133 85.2063 3.31543 86.3079 3.31543C 86.6595 3.31543 87.0901 3.37402 87.5999 3.49121L 87.5735 5.45996C 87.3626 5.40723 87.1048 5.38086 86.8001 5.38086C 85.845 5.38086 85.3675 5.8291 85.3675 6.72559L 85.3675 7.49023L 87.2571 7.49023L 87.2571 9.35352L 85.3675 9.35352L 85.3675 17L 82.8186 17ZM 4.34988 28.4902L 4.42899 29.5537C 5.10281 28.7275 6.01395 28.3145 7.16238 28.3145C 8.38699 28.3145 9.22781 28.7979 9.68484 29.7646C 10.3528 28.7979 11.305 28.3145 12.5413 28.3145C 13.5725 28.3145 14.3401 28.6162 14.844 29.2197C 15.3479 29.8174 15.5999 30.7197 15.5999 31.9268L 15.5999 38L 13.0511 38L 13.0511 31.9355C 13.0511 31.3965 12.9456 31.0039 12.7346 30.7578C 12.5237 30.5059 12.1516 30.3799 11.6184 30.3799C 10.8567 30.3799 10.3294 30.7432 10.0364 31.4697L 10.0452 38L 7.50516 38L 7.50516 31.9443C 7.50516 31.3936 7.39676 30.9951 7.17996 30.749C 6.96317 30.5029 6.59402 30.3799 6.07254 30.3799C 5.35184 30.3799 4.83035 30.6787 4.50809 31.2764L 4.50809 38L 1.96805 38L 1.96805 28.4902L 4.34988 28.4902ZM 21.9368 38.1758C 20.5423 38.1758 19.4055 37.748 18.5266 36.8926C 17.6536 36.0371 17.2171 34.8975 17.2171 33.4736L 17.2171 33.2275C 17.2171 32.2725 17.4016 31.4199 17.7708 30.6699C 18.1399 29.9141 18.6614 29.334 19.3352 28.9297C 20.0149 28.5195 20.7884 28.3145 21.6555 28.3145C 22.9563 28.3145 23.9788 28.7246 24.7229 29.5449C 25.4729 30.3652 25.8479 31.5283 25.8479 33.0342L 25.8479 34.0713L 19.7923 34.0713C 19.8743 34.6924 20.1204 35.1904 20.5305 35.5654C 20.9466 35.9404 21.471 36.1279 22.1038 36.1279C 23.0823 36.1279 23.847 35.7734 24.3977 35.0645L 25.6458 36.4619C 25.2649 37.001 24.7493 37.4229 24.0989 37.7275C 23.4485 38.0264 22.7278 38.1758 21.9368 38.1758ZM 21.6468 30.3711C 21.1429 30.3711 20.7327 30.541 20.4163 30.8809C 20.1057 31.2207 19.9065 31.707 19.8186 32.3398L 23.3518 32.3398L 23.3518 32.1377C 23.3401 31.5752 23.1878 31.1416 22.8948 30.8369C 22.6018 30.5264 22.1858 30.3711 21.6468 30.3711ZM 32.8089 38C 32.6917 37.7715 32.6067 37.4873 32.554 37.1475C 31.9388 37.833 31.1389 38.1758 30.1546 38.1758C 29.2229 38.1758 28.4495 37.9062 27.8343 37.3672C 27.2249 36.8281 26.9202 36.1484 26.9202 35.3281C 26.9202 34.3203 27.2923 33.5469 28.0364 33.0078C 28.7864 32.4688 29.8675 32.1963 31.2796 32.1904L 32.4485 32.1904L 32.4485 31.6455C 32.4485 31.2061 32.3343 30.8545 32.1057 30.5908C 31.8831 30.3271 31.5286 30.1953 31.0423 30.1953C 30.6145 30.1953 30.2776 30.2979 30.0315 30.5029C 29.7913 30.708 29.6712 30.9893 29.6712 31.3467L 27.1311 31.3467C 27.1311 30.7959 27.3011 30.2861 27.6409 29.8174C 27.9807 29.3486 28.4612 28.9824 29.0823 28.7188C 29.7034 28.4492 30.4007 28.3145 31.1741 28.3145C 32.346 28.3145 33.2747 28.6104 33.9602 29.2021C 34.6516 29.7881 34.9973 30.6143 34.9973 31.6807L 34.9973 35.8027C 35.0032 36.7051 35.1292 37.3877 35.3753 37.8506L 35.3753 38L 32.8089 38ZM 30.7083 36.2334C 31.0833 36.2334 31.429 36.1514 31.7454 35.9873C 32.0618 35.8174 32.2962 35.5918 32.4485 35.3105L 32.4485 33.6758L 31.4993 33.6758C 30.2278 33.6758 29.5511 34.1152 29.469 34.9941L 29.4602 35.1436C 29.4602 35.46 29.5716 35.7207 29.7942 35.9258C 30.0169 36.1309 30.3216 36.2334 30.7083 36.2334ZM 42.0989 35.3721C 42.0989 35.0615 41.9436 34.8184 41.6331 34.6426C 41.3284 34.4609 40.8362 34.2998 40.1565 34.1592C 37.8948 33.6846 36.7639 32.7236 36.7639 31.2764C 36.7639 30.4326 37.1126 29.7295 37.8098 29.167C 38.513 28.5986 39.43 28.3145 40.5608 28.3145C 41.7679 28.3145 42.7317 28.5986 43.4524 29.167C 44.179 29.7354 44.5423 30.4736 44.5423 31.3818L 42.0022 31.3818C 42.0022 31.0186 41.885 30.7197 41.6507 30.4854C 41.4163 30.2451 41.0501 30.125 40.552 30.125C 40.1243 30.125 39.7932 30.2217 39.5589 30.415C 39.3245 30.6084 39.2073 30.8545 39.2073 31.1533C 39.2073 31.4346 39.3391 31.6631 39.6028 31.8389C 39.8723 32.0088 40.3235 32.1582 40.9563 32.2871C 41.5891 32.4102 42.1223 32.5508 42.5559 32.709C 43.8977 33.2012 44.5686 34.0537 44.5686 35.2666C 44.5686 36.1338 44.1966 36.8369 43.4524 37.376C 42.7083 37.9092 41.7473 38.1758 40.5696 38.1758C 39.7727 38.1758 39.0638 38.0352 38.4427 37.7539C 37.8274 37.4668 37.344 37.0771 36.9925 36.585C 36.6409 36.0869 36.4651 35.5508 36.4651 34.9766L 38.8733 34.9766C 38.8968 35.4277 39.0638 35.7734 39.3743 36.0137C 39.6848 36.2539 40.1009 36.374 40.6223 36.374C 41.1087 36.374 41.4749 36.2832 41.721 36.1016C 41.9729 35.9141 42.0989 35.6709 42.0989 35.3721ZM 51.9075 37.0332C 51.2805 37.7949 50.4134 38.1758 49.3059 38.1758C 48.2864 38.1758 47.5071 37.8828 46.968 37.2969C 46.4348 36.7109 46.1624 35.8525 46.1507 34.7217L 46.1507 28.4902L 48.6907 28.4902L 48.6907 34.6338C 48.6907 35.624 49.1419 36.1191 50.0442 36.1191C 50.9055 36.1191 51.4973 35.8203 51.8196 35.2227L 51.8196 28.4902L 54.3684 28.4902L 54.3684 38L 51.9778 38L 51.9075 37.0332ZM 61.6282 30.8721C 61.2825 30.8252 60.9778 30.8018 60.7141 30.8018C 59.7532 30.8018 59.1233 31.127 58.8245 31.7773L 58.8245 38L 56.2845 38L 56.2845 28.4902L 58.6839 28.4902L 58.7542 29.624C 59.2639 28.751 59.97 28.3145 60.8723 28.3145C 61.1536 28.3145 61.4173 28.3525 61.6634 28.4287L 61.6282 30.8721ZM 67.0598 38.1758C 65.6653 38.1758 64.5286 37.748 63.6497 36.8926C 62.7766 36.0371 62.3401 34.8975 62.3401 33.4736L 62.3401 33.2275C 62.3401 32.2725 62.5247 31.4199 62.8938 30.6699C 63.263 29.9141 63.7845 29.334 64.4583 28.9297C 65.138 28.5195 65.9114 28.3145 66.7786 28.3145C 68.0794 28.3145 69.1018 28.7246 69.846 29.5449C 70.596 30.3652 70.971 31.5283 70.971 33.0342L 70.971 34.0713L 64.9153 34.0713C 64.9973 34.6924 65.2434 35.1904 65.6536 35.5654C 66.0696 35.9404 66.594 36.1279 67.2268 36.1279C 68.2054 36.1279 68.97 35.7734 69.5208 35.0645L 70.7688 36.4619C 70.388 37.001 69.8723 37.4229 69.222 37.7275C 68.5716 38.0264 67.8509 38.1758 67.0598 38.1758ZM 66.7698 30.3711C 66.2659 30.3711 65.8557 30.541 65.5393 30.8809C 65.2288 31.2207 65.0296 31.707 64.9417 32.3398L 68.4749 32.3398L 68.4749 32.1377C 68.4632 31.5752 68.3108 31.1416 68.0179 30.8369C 67.7249 30.5264 67.3089 30.3711 66.7698 30.3711ZM 74.803 28.4902L 74.8821 29.5537C 75.5559 28.7275 76.4671 28.3145 77.6155 28.3145C 78.8401 28.3145 79.6809 28.7979 80.138 29.7646C 80.8059 28.7979 81.7581 28.3145 82.9944 28.3145C 84.0257 28.3145 84.7932 28.6162 85.2971 29.2197C 85.8011 29.8174 86.053 30.7197 86.053 31.9268L 86.053 38L 83.5042 38L 83.5042 31.9355C 83.5042 31.3965 83.3987 31.0039 83.1878 30.7578C 82.9768 30.5059 82.6048 30.3799 82.0716 30.3799C 81.3098 30.3799 80.7825 30.7432 80.4895 31.4697L 80.4983 38L 77.9583 38L 77.9583 31.9443C 77.9583 31.3936 77.8499 30.9951 77.6331 30.749C 77.4163 30.5029 77.0471 30.3799 76.5257 30.3799C 75.805 30.3799 75.2835 30.6787 74.9612 31.2764L 74.9612 38L 72.4212 38L 72.4212 28.4902L 74.803 28.4902ZM 92.3899 38.1758C 90.9954 38.1758 89.8587 37.748 88.9798 36.8926C 88.1067 36.0371 87.6702 34.8975 87.6702 33.4736L 87.6702 33.2275C 87.6702 32.2725 87.8548 31.4199 88.2239 30.6699C 88.593 29.9141 89.1145 29.334 89.7884 28.9297C 90.468 28.5195 91.2415 28.3145 92.1087 28.3145C 93.4095 28.3145 94.4319 28.7246 95.1761 29.5449C 95.9261 30.3652 96.3011 31.5283 96.3011 33.0342L 96.3011 34.0713L 90.2454 34.0713C 90.3274 34.6924 90.5735 35.1904 90.9837 35.5654C 91.3997 35.9404 91.9241 36.1279 92.5569 36.1279C 93.5354 36.1279 94.3001 35.7734 94.8509 35.0645L 96.0989 36.4619C 95.718 37.001 95.2024 37.4229 94.552 37.7275C 93.9016 38.0264 93.1809 38.1758 92.3899 38.1758ZM 92.0999 30.3711C 91.596 30.3711 91.1858 30.541 90.8694 30.8809C 90.5589 31.2207 90.3596 31.707 90.2718 32.3398L 93.805 32.3398L 93.805 32.1377C 93.7932 31.5752 93.6409 31.1416 93.3479 30.8369C 93.055 30.5264 92.6389 30.3711 92.0999 30.3711ZM 100.089 28.4902L 100.168 29.5889C 100.848 28.7393 101.759 28.3145 102.902 28.3145C 103.909 28.3145 104.659 28.6104 105.152 29.2021C 105.644 29.7939 105.896 30.6787 105.908 31.8564L 105.908 38L 103.367 38L 103.367 31.918C 103.367 31.3789 103.25 30.9893 103.016 30.749C 102.782 30.5029 102.392 30.3799 101.847 30.3799C 101.132 30.3799 100.596 30.6846 100.239 31.2939L 100.239 38L 97.6985 38L 97.6985 28.4902L 100.089 28.4902ZM 110.882 26.1523L 110.882 28.4902L 112.508 28.4902L 112.508 30.3535L 110.882 30.3535L 110.882 35.0996C 110.882 35.4512 110.949 35.7031 111.084 35.8555C 111.219 36.0078 111.477 36.084 111.858 36.084C 112.139 36.084 112.388 36.0635 112.605 36.0225L 112.605 37.9473C 112.107 38.0996 111.594 38.1758 111.067 38.1758C 109.285 38.1758 108.377 37.2764 108.342 35.4775L 108.342 30.3535L 106.953 30.3535L 106.953 28.4902L 108.342 28.4902L 108.342 26.1523L 110.882 26.1523Z"/>
<path id="path8_stroke" d="M 0 0L 367 0L 367 -1L 0 -1L 0 0Z"/>
<path id="path9_stroke" d="M 0 0L 250 0L 250 -1L 0 -1L 0 0Z"/>
<path id="path10_fill" d="M 0 0L 8.26417 0L 8.26417 24.7616L 0 24.7616L 0 0Z"/>
<path id="path11_fill" d="M 0 0L 8.26417 0L 8.26417 39.2058L 0 39.2058L 0 0Z"/>
<path id="path12_fill" d="M 0 0L 8.26417 0L 8.26417 11.693L 0 11.693L 0 0Z"/>
<path id="path13_fill" d="M 0 0L 8.26417 0L 8.26417 18.5712L 0 18.5712L 0 0Z"/>
<path id="path14_stroke" d="M 0 0L 66.1133 0L 66.1133 -0.8L 0 -0.8L 0 0Z"/>
<path id="path15_fill" d="M 39.3867 18.6165C 39.3867 28.898 30.5697 37.2329 19.6933 37.2329C 8.81701 37.2329 0 28.898 0 18.6165C 0 8.33487 8.81701 0 19.6933 0C 30.5697 0 39.3867 8.33487 39.3867 18.6165Z"/>
<path id="path16_stroke" d="M 0 0L 18.6165 0L 18.6165 -0.8L 0 -0.8L 0 0Z"/>
<path id="path17_stroke" d="M 0.004176 0.598172L 18.9872 0.399979L 18.9788 -0.399978L -0.004176 -0.201784L 0.004176 0.598172Z"/>
<path id="path18_stroke" d="M 0.00701002 0.716127L 18.0463 0.399939L 18.0323 -0.399938L -0.00701002 -0.0837499L 0.00701002 0.716127Z"/>
<path id="path19_stroke" d="M 0 0L 19.9517 0L 19.9517 -0.8L 0 -0.8L 0 0Z"/>
<path id="path20_stroke" d="M 0 0L 20.0331 0L 20.0331 -0.8L 0 -0.8L 0 0Z"/>
<path id="path21_fill" d="M 0 0L 7.40844 0L 7.40844 33.8965L 0 33.8965L 0 0Z"/>
<path id="path22_fill" d="M 0 0L 7.40844 0L 7.40844 29.151L 0 29.151L 0 0Z"/>
<path id="path23_fill" d="M 0 0L 7.40844 0L 7.40844 25.7614L 0 25.7614L 0 0Z"/>
<path id="path24_fill" d="M 0 0L 7.40844 0L 7.40844 20.3379L 0 20.3379L 0 0Z"/>
<path id="path25_fill" d="M 0 0L 7.40844 0L 7.40844 14.2365L 0 14.2365L 0 0Z"/>
<path id="path26_fill" d="M 0 0L 7.40844 0L 7.40844 8.8131L 0 8.8131L 0 0Z"/>
<path id="path27_fill" d="M 0 0L 7.40844 0L 7.40844 4.74552L 0 4.74552L 0 0Z"/>
<path id="path28_stroke" d="M 0 0L 111.127 0L 111.127 -1L 0 -1L 0 0Z"/>
</defs>
</svg>
