<svg width="559" height="215" viewBox="0 0 559 215" version="1.1" xmlns="http://www.w3.org/2000/svg" xmlns:xlink="http://www.w3.org/1999/xlink">
<title>s1m5_interquartile_range</title>
<desc>Created using Figma</desc>
<g id="Canvas" transform="translate(274 142)">
<rect x="-274" y="-142" width="559" height="215" fill="#FFFFFF"/>
<g id="Line">
<use xlink:href="#path0_stroke" transform="matrix(-3.1225e-16 -1 1 -3.1225e-16 -202 72.0024)"/>
</g>
<g id="Rectangle">
<use xlink:href="#path1_fill" transform="translate(-242 -67)" fill="#56B4E9"/>
<mask id="mask0_outline_ins">
<use xlink:href="#path1_fill" fill="white" transform="translate(-242 -67)"/>
</mask>
<g mask="url(#mask0_outline_ins)">
<use xlink:href="#path2_stroke_2x" transform="translate(-242 -67)"/>
</g>
</g>
<g id="Line 2">
<use xlink:href="#path3_stroke" transform="translate(-242 -34)"/>
</g>
<g id="Line 3">
<use xlink:href="#path4_stroke" transform="translate(-216 72)"/>
</g>
<g id="Line 3.1">
<use xlink:href="#path4_stroke" transform="translate(-216 -140)"/>
</g>
<g id="25%">
<use xlink:href="#path5_fill" transform="translate(-274 -9)"/>
</g>
<g id="50%">
<use xlink:href="#path6_fill" transform="translate(-274 -42)"/>
</g>
<g id="75%">
<use xlink:href="#path7_fill" transform="translate(-274 -75)"/>
</g>
<g id="upper quartile">
<use xlink:href="#path8_fill" transform="translate(-157 -75)"/>
</g>
<g id="lower quartile">
<use xlink:href="#path9_fill" transform="translate(-157 -9)"/>
</g>
<g id="middle quartile">
<use xlink:href="#path10_fill" transform="translate(-157 -42)"/>
</g>
<g id="Line 4">
<use xlink:href="#path11_stroke" transform="matrix(-5.77729e-16 -1 1 -5.77597e-16 -46 1)"/>
</g>
<g id="Line 5">
<use xlink:href="#path12_stroke" transform="translate(-59 -65)"/>
</g>
<g id="Line 5.1">
<use xlink:href="#path12_stroke" transform="translate(-59 0.992425)"/>
</g>
<g id="upper quartile - lower quartile = interquartile range">
<use xlink:href="#path13_fill" transform="translate(-28 -42)"/>
</g>
</g>
<defs>
<path id="path0_stroke" d="M 0 0L 212.002 0L 212.002 -2L 0 -2L 0 0Z"/>
<path id="path1_fill" d="M 0 0L 80 0L 80 66L 0 66L 0 0Z"/>
<path id="path2_stroke_2x" d="M 0 0L 0 -1L -1 -1L -1 0L 0 0ZM 80 0L 81 0L 81 -1L 80 -1L 80 0ZM 80 66L 80 67L 81 67L 81 66L 80 66ZM 0 66L -1 66L -1 67L 0 67L 0 66ZM 0 1L 80 1L 80 -1L 0 -1L 0 1ZM 79 0L 79 66L 81 66L 81 0L 79 0ZM 80 65L 0 65L 0 67L 80 67L 80 65ZM 1 66L 1 0L -1 0L -1 66L 1 66Z"/>
<path id="path3_stroke" d="M 0 0L 80 0L 80 -1L 0 -1L 0 0Z"/>
<path id="path4_stroke" d="M 0 0L 26 0L 26 -2L 0 -2L 0 0Z"/>
<path id="path5_fill" d="M 7.49902 13L 0.676758 13L 0.676758 11.6465L 3.89648 8.21484C 4.33854 7.73177 4.66439 7.31022 4.87402 6.9502C 5.08822 6.59017 5.19531 6.24837 5.19531 5.9248C 5.19531 5.48275 5.08366 5.13639 4.86035 4.88574C 4.63704 4.63053 4.31803 4.50293 3.90332 4.50293C 3.45671 4.50293 3.10352 4.65788 2.84375 4.96777C 2.58854 5.27311 2.46094 5.67643 2.46094 6.17773L 0.478516 6.17773C 0.478516 5.57161 0.62207 5.0179 0.90918 4.5166C 1.20085 4.0153 1.611 3.62337 2.13965 3.34082C 2.66829 3.05371 3.26758 2.91016 3.9375 2.91016C 4.96289 2.91016 5.75814 3.15625 6.32324 3.64844C 6.8929 4.14062 7.17773 4.83561 7.17773 5.7334C 7.17773 6.22559 7.05013 6.72689 6.79492 7.2373C 6.53971 7.74772 6.10221 8.34245 5.48242 9.02148L 3.21973 11.4072L 7.49902 11.4072L 7.49902 13ZM 9.00977 8.10547L 9.58398 3.04688L 15.1621 3.04688L 15.1621 4.69434L 11.2041 4.69434L 10.958 6.83398C 11.4274 6.58333 11.9264 6.45801 12.4551 6.45801C 13.403 6.45801 14.1458 6.75195 14.6836 7.33984C 15.2214 7.92773 15.4902 8.75033 15.4902 9.80762C 15.4902 10.4502 15.3535 11.0267 15.0801 11.5371C 14.8112 12.043 14.4238 12.4372 13.918 12.7197C 13.4121 12.9977 12.8151 13.1367 12.127 13.1367C 11.5254 13.1367 10.9671 13.016 10.4521 12.7744C 9.93717 12.5283 9.5293 12.1842 9.22852 11.7422C 8.93229 11.3001 8.77507 10.7965 8.75684 10.2314L 10.7119 10.2314C 10.7529 10.6462 10.8965 10.9697 11.1426 11.2021C 11.3932 11.43 11.7191 11.5439 12.1201 11.5439C 12.5667 11.5439 12.9108 11.3844 13.1523 11.0654C 13.3939 10.7419 13.5146 10.2861 13.5146 9.69824C 13.5146 9.13314 13.3757 8.7002 13.0977 8.39941C 12.8197 8.09863 12.4255 7.94824 11.915 7.94824C 11.4456 7.94824 11.0651 8.07129 10.7734 8.31738L 10.582 8.49512L 9.00977 8.10547ZM 16.7275 4.96094C 16.7275 4.35026 16.9258 3.85579 17.3223 3.47754C 17.7188 3.09473 18.2383 2.90332 18.8809 2.90332C 19.5326 2.90332 20.0566 3.09245 20.4531 3.4707C 20.8496 3.8444 21.0479 4.35254 21.0479 4.99512L 21.0479 5.4873C 21.0479 6.10254 20.8496 6.59701 20.4531 6.9707C 20.0566 7.3444 19.5371 7.53125 18.8945 7.53125C 18.2474 7.53125 17.7233 7.3444 17.3223 6.9707C 16.9258 6.59245 16.7275 6.08431 16.7275 5.44629L 16.7275 4.96094ZM 18.04 5.4873C 18.04 5.76074 18.1175 5.98177 18.2725 6.15039C 18.432 6.31445 18.6393 6.39648 18.8945 6.39648C 19.1497 6.39648 19.3525 6.31217 19.5029 6.14355C 19.6533 5.97493 19.7285 5.74935 19.7285 5.4668L 19.7285 4.96094C 19.7285 4.6875 19.6533 4.46647 19.5029 4.29785C 19.3525 4.12923 19.1452 4.04492 18.8809 4.04492C 18.6302 4.04492 18.4274 4.12923 18.2725 4.29785C 18.1175 4.46191 18.04 4.69206 18.04 4.98828L 18.04 5.4873ZM 21.4854 10.5596C 21.4854 9.94434 21.6859 9.44987 22.0869 9.07617C 22.488 8.69792 23.0075 8.50879 23.6455 8.50879C 24.2926 8.50879 24.8145 8.69564 25.2109 9.06934C 25.612 9.43848 25.8125 9.94889 25.8125 10.6006L 25.8125 11.0928C 25.8125 11.7035 25.6165 12.1979 25.2246 12.5762C 24.8327 12.9499 24.3109 13.1367 23.6592 13.1367C 23.0029 13.1367 22.4766 12.9476 22.0801 12.5693C 21.6836 12.1911 21.4854 11.6898 21.4854 11.0654L 21.4854 10.5596ZM 22.7979 11.0928C 22.7979 11.3434 22.8799 11.5576 23.0439 11.7354C 23.208 11.9131 23.4131 12.002 23.6592 12.002C 24.2152 12.002 24.4932 11.6943 24.4932 11.0791L 24.4932 10.5596C 24.4932 10.2861 24.4157 10.0674 24.2607 9.90332C 24.1058 9.7347 23.9007 9.65039 23.6455 9.65039C 23.3903 9.65039 23.1852 9.7347 23.0303 9.90332C 22.8753 10.0674 22.7979 10.293 22.7979 10.5801L 22.7979 11.0928ZM 19.2842 12.2549L 18.3203 11.7354L 23.1807 3.95605L 24.1445 4.47559L 19.2842 12.2549Z"/>
<path id="path6_fill" d="M 1.4082 8.00977L 1.91406 3.04688L 7.01367 3.04688L 7.01367 4.21582L 2.9873 4.21582L 2.68652 6.92969C 3.17415 6.64258 3.72786 6.49902 4.34766 6.49902C 5.25456 6.49902 5.97461 6.7998 6.50781 7.40137C 7.04102 7.99837 7.30762 8.80729 7.30762 9.82812C 7.30762 10.8535 7.02962 11.6624 6.47363 12.2549C 5.9222 12.8428 5.14974 13.1367 4.15625 13.1367C 3.27669 13.1367 2.55892 12.8929 2.00293 12.4053C 1.44694 11.9176 1.13021 11.2432 1.05273 10.3818L 2.24902 10.3818C 2.3265 10.9515 2.5293 11.3822 2.85742 11.6738C 3.18555 11.9609 3.61849 12.1045 4.15625 12.1045C 4.74414 12.1045 5.20443 11.904 5.53711 11.5029C 5.87435 11.1019 6.04297 10.5482 6.04297 9.8418C 6.04297 9.17643 5.86068 8.64323 5.49609 8.24219C 5.13607 7.83659 4.65527 7.63379 4.05371 7.63379C 3.50228 7.63379 3.06934 7.75456 2.75488 7.99609L 2.41992 8.26953L 1.4082 8.00977ZM 14.9297 8.75488C 14.9297 10.236 14.6768 11.3366 14.1709 12.0566C 13.665 12.7767 12.8743 13.1367 11.7988 13.1367C 10.737 13.1367 9.95085 12.7858 9.44043 12.084C 8.93001 11.3776 8.66569 10.3249 8.64746 8.92578L 8.64746 7.2373C 8.64746 5.77441 8.90039 4.6875 9.40625 3.97656C 9.91211 3.26562 10.7051 2.91016 11.7852 2.91016C 12.8561 2.91016 13.6445 3.25423 14.1504 3.94238C 14.6562 4.62598 14.916 5.68327 14.9297 7.11426L 14.9297 8.75488ZM 13.665 7.02539C 13.665 5.95443 13.5146 5.17513 13.2139 4.6875C 12.9131 4.19531 12.4368 3.94922 11.7852 3.94922C 11.138 3.94922 10.6663 4.19303 10.3701 4.68066C 10.0739 5.16829 9.92122 5.91797 9.91211 6.92969L 9.91211 8.95312C 9.91211 10.0286 10.0671 10.8239 10.377 11.3389C 10.6914 11.8493 11.1654 12.1045 11.7988 12.1045C 12.4232 12.1045 12.8857 11.863 13.1865 11.3799C 13.4919 10.8968 13.6514 10.1357 13.665 9.09668L 13.665 7.02539ZM 16.4404 4.96094C 16.4404 4.36393 16.6296 3.87174 17.0078 3.48438C 17.3906 3.09701 17.8805 2.90332 18.4775 2.90332C 19.0837 2.90332 19.5736 3.09928 19.9473 3.49121C 20.3255 3.87858 20.5146 4.38216 20.5146 5.00195L 20.5146 5.4873C 20.5146 6.08887 20.3232 6.58105 19.9404 6.96387C 19.5622 7.34212 19.0791 7.53125 18.4912 7.53125C 17.8988 7.53125 17.4089 7.34212 17.0215 6.96387C 16.6341 6.58105 16.4404 6.07292 16.4404 5.43945L 16.4404 4.96094ZM 17.3838 5.4873C 17.3838 5.84277 17.484 6.13672 17.6846 6.36914C 17.8851 6.59701 18.154 6.71094 18.4912 6.71094C 18.8148 6.71094 19.0745 6.59928 19.2705 6.37598C 19.471 6.15267 19.5713 5.84733 19.5713 5.45996L 19.5713 4.96094C 19.5713 4.60547 19.4733 4.31152 19.2773 4.0791C 19.0814 3.84668 18.8148 3.73047 18.4775 3.73047C 18.1403 3.73047 17.8737 3.84668 17.6777 4.0791C 17.4818 4.31152 17.3838 4.61458 17.3838 4.98828L 17.3838 5.4873ZM 21.2871 10.5596C 21.2871 9.96257 21.4762 9.47266 21.8545 9.08984C 22.2373 8.70247 22.7272 8.50879 23.3242 8.50879C 23.9212 8.50879 24.4111 8.7002 24.7939 9.08301C 25.1768 9.46582 25.3682 9.97396 25.3682 10.6074L 25.3682 11.0928C 25.3682 11.6898 25.1768 12.182 24.7939 12.5693C 24.4157 12.9521 23.9303 13.1436 23.3379 13.1436C 22.7454 13.1436 22.2555 12.9544 21.8682 12.5762C 21.4808 12.1934 21.2871 11.6852 21.2871 11.0518L 21.2871 10.5596ZM 22.2305 11.0928C 22.2305 11.4528 22.3307 11.749 22.5312 11.9814C 22.7318 12.2093 23.0007 12.3232 23.3379 12.3232C 23.666 12.3232 23.9281 12.2116 24.124 11.9883C 24.32 11.7604 24.418 11.4528 24.418 11.0654L 24.418 10.5596C 24.418 10.1995 24.3177 9.9056 24.1172 9.67773C 23.9212 9.44987 23.6569 9.33594 23.3242 9.33594C 23.0007 9.33594 22.7363 9.44987 22.5312 9.67773C 22.3307 9.90104 22.2305 10.2041 22.2305 10.5869L 22.2305 11.0928ZM 18.7783 12.248L 18.0605 11.7969L 22.9209 4.01758L 23.6387 4.46875L 18.7783 12.248Z"/>
<path id="path7_fill" d="M 7.44434 4.1543L 3.5957 13L 1.51074 13L 5.36621 4.64648L 0.416992 4.64648L 0.416992 3.04688L 7.44434 3.04688L 7.44434 4.1543ZM 9.00977 8.10547L 9.58398 3.04688L 15.1621 3.04688L 15.1621 4.69434L 11.2041 4.69434L 10.958 6.83398C 11.4274 6.58333 11.9264 6.45801 12.4551 6.45801C 13.403 6.45801 14.1458 6.75195 14.6836 7.33984C 15.2214 7.92773 15.4902 8.75033 15.4902 9.80762C 15.4902 10.4502 15.3535 11.0267 15.0801 11.5371C 14.8112 12.043 14.4238 12.4372 13.918 12.7197C 13.4121 12.9977 12.8151 13.1367 12.127 13.1367C 11.5254 13.1367 10.9671 13.016 10.4521 12.7744C 9.93717 12.5283 9.5293 12.1842 9.22852 11.7422C 8.93229 11.3001 8.77507 10.7965 8.75684 10.2314L 10.7119 10.2314C 10.7529 10.6462 10.8965 10.9697 11.1426 11.2021C 11.3932 11.43 11.7191 11.5439 12.1201 11.5439C 12.5667 11.5439 12.9108 11.3844 13.1523 11.0654C 13.3939 10.7419 13.5146 10.2861 13.5146 9.69824C 13.5146 9.13314 13.3757 8.7002 13.0977 8.39941C 12.8197 8.09863 12.4255 7.94824 11.915 7.94824C 11.4456 7.94824 11.0651 8.07129 10.7734 8.31738L 10.582 8.49512L 9.00977 8.10547ZM 16.7275 4.96094C 16.7275 4.35026 16.9258 3.85579 17.3223 3.47754C 17.7188 3.09473 18.2383 2.90332 18.8809 2.90332C 19.5326 2.90332 20.0566 3.09245 20.4531 3.4707C 20.8496 3.8444 21.0479 4.35254 21.0479 4.99512L 21.0479 5.4873C 21.0479 6.10254 20.8496 6.59701 20.4531 6.9707C 20.0566 7.3444 19.5371 7.53125 18.8945 7.53125C 18.2474 7.53125 17.7233 7.3444 17.3223 6.9707C 16.9258 6.59245 16.7275 6.08431 16.7275 5.44629L 16.7275 4.96094ZM 18.04 5.4873C 18.04 5.76074 18.1175 5.98177 18.2725 6.15039C 18.432 6.31445 18.6393 6.39648 18.8945 6.39648C 19.1497 6.39648 19.3525 6.31217 19.5029 6.14355C 19.6533 5.97493 19.7285 5.74935 19.7285 5.4668L 19.7285 4.96094C 19.7285 4.6875 19.6533 4.46647 19.5029 4.29785C 19.3525 4.12923 19.1452 4.04492 18.8809 4.04492C 18.6302 4.04492 18.4274 4.12923 18.2725 4.29785C 18.1175 4.46191 18.04 4.69206 18.04 4.98828L 18.04 5.4873ZM 21.4854 10.5596C 21.4854 9.94434 21.6859 9.44987 22.0869 9.07617C 22.488 8.69792 23.0075 8.50879 23.6455 8.50879C 24.2926 8.50879 24.8145 8.69564 25.2109 9.06934C 25.612 9.43848 25.8125 9.94889 25.8125 10.6006L 25.8125 11.0928C 25.8125 11.7035 25.6165 12.1979 25.2246 12.5762C 24.8327 12.9499 24.3109 13.1367 23.6592 13.1367C 23.0029 13.1367 22.4766 12.9476 22.0801 12.5693C 21.6836 12.1911 21.4854 11.6898 21.4854 11.0654L 21.4854 10.5596ZM 22.7979 11.0928C 22.7979 11.3434 22.8799 11.5576 23.0439 11.7354C 23.208 11.9131 23.4131 12.002 23.6592 12.002C 24.2152 12.002 24.4932 11.6943 24.4932 11.0791L 24.4932 10.5596C 24.4932 10.2861 24.4157 10.0674 24.2607 9.90332C 24.1058 9.7347 23.9007 9.65039 23.6455 9.65039C 23.3903 9.65039 23.1852 9.7347 23.0303 9.90332C 22.8753 10.0674 22.7979 10.293 22.7979 10.5801L 22.7979 11.0928ZM 19.2842 12.2549L 18.3203 11.7354L 23.1807 3.95605L 24.1445 4.47559L 19.2842 12.2549Z"/>
<path id="path8_fill" d="M 5.18848 12.248C 4.70085 12.8405 4.02637 13.1367 3.16504 13.1367C 2.37207 13.1367 1.76595 12.9089 1.34668 12.4531C 0.931966 11.9974 0.720052 11.3298 0.710938 10.4502L 0.710938 5.60352L 2.68652 5.60352L 2.68652 10.3818C 2.68652 11.152 3.03743 11.5371 3.73926 11.5371C 4.40918 11.5371 4.86947 11.3047 5.12012 10.8398L 5.12012 5.60352L 7.10254 5.60352L 7.10254 13L 5.24316 13L 5.18848 12.248ZM 15.251 9.37012C 15.251 10.5094 14.9912 11.4232 14.4717 12.1113C 13.9567 12.7949 13.2594 13.1367 12.3799 13.1367C 11.6325 13.1367 11.0286 12.877 10.5684 12.3574L 10.5684 15.8438L 8.59277 15.8438L 8.59277 5.60352L 10.4248 5.60352L 10.4932 6.32812C 10.9717 5.75391 11.596 5.4668 12.3662 5.4668C 13.2777 5.4668 13.9863 5.80404 14.4922 6.47852C 14.998 7.15299 15.251 8.08268 15.251 9.26758L 15.251 9.37012ZM 13.2754 9.22656C 13.2754 8.53841 13.1523 8.00749 12.9062 7.63379C 12.6647 7.26009 12.3115 7.07324 11.8467 7.07324C 11.2269 7.07324 10.8008 7.31022 10.5684 7.78418L 10.5684 10.8125C 10.8099 11.3001 11.2406 11.5439 11.8604 11.5439C 12.8037 11.5439 13.2754 10.7715 13.2754 9.22656ZM 23.1396 9.37012C 23.1396 10.5094 22.8799 11.4232 22.3604 12.1113C 21.8454 12.7949 21.1481 13.1367 20.2686 13.1367C 19.5212 13.1367 18.9173 12.877 18.457 12.3574L 18.457 15.8438L 16.4814 15.8438L 16.4814 5.60352L 18.3135 5.60352L 18.3818 6.32812C 18.8604 5.75391 19.4847 5.4668 20.2549 5.4668C 21.1663 5.4668 21.875 5.80404 22.3809 6.47852C 22.8867 7.15299 23.1396 8.08268 23.1396 9.26758L 23.1396 9.37012ZM 21.1641 9.22656C 21.1641 8.53841 21.041 8.00749 20.7949 7.63379C 20.5534 7.26009 20.2002 7.07324 19.7354 7.07324C 19.1156 7.07324 18.6895 7.31022 18.457 7.78418L 18.457 10.8125C 18.6986 11.3001 19.1292 11.5439 19.749 11.5439C 20.6924 11.5439 21.1641 10.7715 21.1641 9.22656ZM 27.7744 13.1367C 26.6898 13.1367 25.8057 12.804 25.1221 12.1387C 24.443 11.4733 24.1035 10.5869 24.1035 9.47949L 24.1035 9.28809C 24.1035 8.54525 24.2471 7.88216 24.5342 7.29883C 24.8213 6.71094 25.2269 6.25977 25.751 5.94531C 26.2796 5.6263 26.8812 5.4668 27.5557 5.4668C 28.5674 5.4668 29.3626 5.78581 29.9414 6.42383C 30.5247 7.06185 30.8164 7.96647 30.8164 9.1377L 30.8164 9.94434L 26.1064 9.94434C 26.1702 10.4274 26.3617 10.8148 26.6807 11.1064C 27.0042 11.3981 27.4121 11.5439 27.9043 11.5439C 28.6654 11.5439 29.2601 11.2682 29.6885 10.7168L 30.6592 11.8037C 30.363 12.223 29.9619 12.5511 29.4561 12.7881C 28.9502 13.0205 28.3896 13.1367 27.7744 13.1367ZM 27.5488 7.06641C 27.1569 7.06641 26.8379 7.19857 26.5918 7.46289C 26.3503 7.72721 26.1953 8.10547 26.127 8.59766L 28.875 8.59766L 28.875 8.44043C 28.8659 8.00293 28.7474 7.66569 28.5195 7.42871C 28.2917 7.18717 27.9681 7.06641 27.5488 7.06641ZM 36.1006 7.45605C 35.8317 7.4196 35.5947 7.40137 35.3896 7.40137C 34.6423 7.40137 34.1523 7.6543 33.9199 8.16016L 33.9199 13L 31.9443 13L 31.9443 5.60352L 33.8105 5.60352L 33.8652 6.48535C 34.2617 5.80632 34.8109 5.4668 35.5127 5.4668C 35.7314 5.4668 35.9365 5.49642 36.1279 5.55566L 36.1006 7.45605ZM 40.2363 9.2334C 40.2363 8.07129 40.4938 7.15299 41.0088 6.47852C 41.5283 5.80404 42.2393 5.4668 43.1416 5.4668C 43.9346 5.4668 44.5658 5.76986 45.0352 6.37598L 45.165 5.60352L 46.9014 5.60352L 46.9014 15.8438L 44.9189 15.8438L 44.9189 12.3643C 44.4632 12.8792 43.8662 13.1367 43.1279 13.1367C 42.2484 13.1367 41.5465 12.7949 41.0225 12.1113C 40.4984 11.4277 40.2363 10.4684 40.2363 9.2334ZM 42.2119 9.37695C 42.2119 10.0833 42.335 10.6211 42.5811 10.9902C 42.8317 11.3594 43.1826 11.5439 43.6338 11.5439C 44.2399 11.5439 44.6683 11.3024 44.9189 10.8193L 44.9189 7.76367C 44.6729 7.29883 44.249 7.06641 43.6475 7.06641C 43.1917 7.06641 42.8385 7.25098 42.5879 7.62012C 42.3372 7.98926 42.2119 8.57487 42.2119 9.37695ZM 52.8896 12.248C 52.402 12.8405 51.7275 13.1367 50.8662 13.1367C 50.0732 13.1367 49.4671 12.9089 49.0479 12.4531C 48.6331 11.9974 48.4212 11.3298 48.4121 10.4502L 48.4121 5.60352L 50.3877 5.60352L 50.3877 10.3818C 50.3877 11.152 50.7386 11.5371 51.4404 11.5371C 52.1104 11.5371 52.5706 11.3047 52.8213 10.8398L 52.8213 5.60352L 54.8037 5.60352L 54.8037 13L 52.9443 13L 52.8896 12.248ZM 60.5801 13C 60.4889 12.8223 60.4229 12.6012 60.3818 12.3369C 59.9033 12.8701 59.2812 13.1367 58.5156 13.1367C 57.791 13.1367 57.1895 12.9271 56.7109 12.5078C 56.237 12.0885 56 11.5599 56 10.9219C 56 10.138 56.2894 9.53646 56.8682 9.11719C 57.4515 8.69792 58.2923 8.486 59.3906 8.48145L 60.2998 8.48145L 60.2998 8.05762C 60.2998 7.71582 60.2109 7.44238 60.0332 7.2373C 59.86 7.03223 59.5843 6.92969 59.2061 6.92969C 58.8734 6.92969 58.6113 7.00944 58.4199 7.16895C 58.2331 7.32845 58.1396 7.5472 58.1396 7.8252L 56.1641 7.8252C 56.1641 7.39681 56.2962 7.00033 56.5605 6.63574C 56.8249 6.27116 57.1986 5.98633 57.6816 5.78125C 58.1647 5.57161 58.707 5.4668 59.3086 5.4668C 60.2201 5.4668 60.9424 5.69694 61.4756 6.15723C 62.0133 6.61296 62.2822 7.25553 62.2822 8.08496L 62.2822 11.291C 62.2868 11.9928 62.3848 12.5238 62.5762 12.8838L 62.5762 13L 60.5801 13ZM 58.9463 11.626C 59.238 11.626 59.5068 11.5622 59.7529 11.4346C 59.999 11.3024 60.1813 11.127 60.2998 10.9082L 60.2998 9.63672L 59.5615 9.63672C 58.5726 9.63672 58.0462 9.97852 57.9824 10.6621L 57.9756 10.7783C 57.9756 11.0244 58.0622 11.2272 58.2354 11.3867C 58.4085 11.5462 58.6455 11.626 58.9463 11.626ZM 67.9561 7.45605C 67.6872 7.4196 67.4502 7.40137 67.2451 7.40137C 66.4977 7.40137 66.0078 7.6543 65.7754 8.16016L 65.7754 13L 63.7998 13L 63.7998 5.60352L 65.666 5.60352L 65.7207 6.48535C 66.1172 5.80632 66.6663 5.4668 67.3682 5.4668C 67.5869 5.4668 67.792 5.49642 67.9834 5.55566L 67.9561 7.45605ZM 71.6201 3.78516L 71.6201 5.60352L 72.8848 5.60352L 72.8848 7.05273L 71.6201 7.05273L 71.6201 10.7441C 71.6201 11.0176 71.6725 11.2135 71.7773 11.332C 71.8822 11.4505 72.0827 11.5098 72.3789 11.5098C 72.5977 11.5098 72.7913 11.4938 72.96 11.4619L 72.96 12.959C 72.5726 13.0775 72.1738 13.1367 71.7637 13.1367C 70.3783 13.1367 69.6719 12.4372 69.6445 11.0381L 69.6445 7.05273L 68.5645 7.05273L 68.5645 5.60352L 69.6445 5.60352L 69.6445 3.78516L 71.6201 3.78516ZM 76.0703 13L 74.0879 13L 74.0879 5.60352L 76.0703 5.60352L 76.0703 13ZM 73.9717 3.68945C 73.9717 3.39323 74.0697 3.14941 74.2656 2.95801C 74.4661 2.7666 74.7373 2.6709 75.0791 2.6709C 75.4163 2.6709 75.6852 2.7666 75.8857 2.95801C 76.0863 3.14941 76.1865 3.39323 76.1865 3.68945C 76.1865 3.99023 76.084 4.23633 75.8789 4.42773C 75.6784 4.61914 75.4118 4.71484 75.0791 4.71484C 74.7464 4.71484 74.4775 4.61914 74.2725 4.42773C 74.0719 4.23633 73.9717 3.99023 73.9717 3.68945ZM 79.7891 13L 77.8066 13L 77.8066 2.5L 79.7891 2.5L 79.7891 13ZM 84.8271 13.1367C 83.7425 13.1367 82.8584 12.804 82.1748 12.1387C 81.4958 11.4733 81.1562 10.5869 81.1562 9.47949L 81.1562 9.28809C 81.1562 8.54525 81.2998 7.88216 81.5869 7.29883C 81.874 6.71094 82.2796 6.25977 82.8037 5.94531C 83.3324 5.6263 83.9339 5.4668 84.6084 5.4668C 85.6201 5.4668 86.4154 5.78581 86.9941 6.42383C 87.5775 7.06185 87.8691 7.96647 87.8691 9.1377L 87.8691 9.94434L 83.1592 9.94434C 83.223 10.4274 83.4144 10.8148 83.7334 11.1064C 84.057 11.3981 84.4648 11.5439 84.957 11.5439C 85.7181 11.5439 86.3128 11.2682 86.7412 10.7168L 87.7119 11.8037C 87.4157 12.223 87.0146 12.5511 86.5088 12.7881C 86.0029 13.0205 85.4424 13.1367 84.8271 13.1367ZM 84.6016 7.06641C 84.2096 7.06641 83.8906 7.19857 83.6445 7.46289C 83.403 7.72721 83.248 8.10547 83.1797 8.59766L 85.9277 8.59766L 85.9277 8.44043C 85.9186 8.00293 85.8001 7.66569 85.5723 7.42871C 85.3444 7.18717 85.0208 7.06641 84.6016 7.06641Z"/>
<path id="path9_fill" d="M 2.84375 13L 0.861328 13L 0.861328 2.5L 2.84375 2.5L 2.84375 13ZM 4.16992 9.2334C 4.16992 8.49967 4.3112 7.8457 4.59375 7.27148C 4.8763 6.69727 5.2819 6.25293 5.81055 5.93848C 6.34375 5.62402 6.96126 5.4668 7.66309 5.4668C 8.66113 5.4668 9.47461 5.77214 10.1035 6.38281C 10.737 6.99349 11.0902 7.82292 11.1631 8.87109L 11.1768 9.37695C 11.1768 10.5117 10.86 11.4232 10.2266 12.1113C 9.5931 12.7949 8.74316 13.1367 7.67676 13.1367C 6.61035 13.1367 5.75814 12.7949 5.12012 12.1113C 4.48665 11.4277 4.16992 10.498 4.16992 9.32227L 4.16992 9.2334ZM 6.14551 9.37695C 6.14551 10.0788 6.27767 10.6165 6.54199 10.9902C 6.80632 11.3594 7.18457 11.5439 7.67676 11.5439C 8.15527 11.5439 8.52897 11.3617 8.79785 10.9971C 9.06673 10.6279 9.20117 10.04 9.20117 9.2334C 9.20117 8.54525 9.06673 8.01204 8.79785 7.63379C 8.52897 7.25553 8.15072 7.06641 7.66309 7.06641C 7.18001 7.06641 6.80632 7.25553 6.54199 7.63379C 6.27767 8.00749 6.14551 8.58854 6.14551 9.37695ZM 18.8262 10.3135L 19.7969 5.60352L 21.7041 5.60352L 19.8174 13L 18.1631 13L 16.7617 8.34473L 15.3604 13L 13.7129 13L 11.8262 5.60352L 13.7334 5.60352L 14.6973 10.3066L 16.0508 5.60352L 17.4795 5.60352L 18.8262 10.3135ZM 26.0928 13.1367C 25.0081 13.1367 24.124 12.804 23.4404 12.1387C 22.7614 11.4733 22.4219 10.5869 22.4219 9.47949L 22.4219 9.28809C 22.4219 8.54525 22.5654 7.88216 22.8525 7.29883C 23.1396 6.71094 23.5452 6.25977 24.0693 5.94531C 24.598 5.6263 25.1995 5.4668 25.874 5.4668C 26.8857 5.4668 27.681 5.78581 28.2598 6.42383C 28.8431 7.06185 29.1348 7.96647 29.1348 9.1377L 29.1348 9.94434L 24.4248 9.94434C 24.4886 10.4274 24.68 10.8148 24.999 11.1064C 25.3226 11.3981 25.7305 11.5439 26.2227 11.5439C 26.9837 11.5439 27.5785 11.2682 28.0068 10.7168L 28.9775 11.8037C 28.6813 12.223 28.2803 12.5511 27.7744 12.7881C 27.2686 13.0205 26.708 13.1367 26.0928 13.1367ZM 25.8672 7.06641C 25.4753 7.06641 25.1562 7.19857 24.9102 7.46289C 24.6686 7.72721 24.5137 8.10547 24.4453 8.59766L 27.1934 8.59766L 27.1934 8.44043C 27.1842 8.00293 27.0658 7.66569 26.8379 7.42871C 26.61 7.18717 26.2865 7.06641 25.8672 7.06641ZM 34.4189 7.45605C 34.1501 7.4196 33.9131 7.40137 33.708 7.40137C 32.9606 7.40137 32.4707 7.6543 32.2383 8.16016L 32.2383 13L 30.2627 13L 30.2627 5.60352L 32.1289 5.60352L 32.1836 6.48535C 32.5801 5.80632 33.1292 5.4668 33.8311 5.4668C 34.0498 5.4668 34.2549 5.49642 34.4463 5.55566L 34.4189 7.45605ZM 38.5547 9.2334C 38.5547 8.07129 38.8122 7.15299 39.3271 6.47852C 39.8467 5.80404 40.5576 5.4668 41.46 5.4668C 42.2529 5.4668 42.8841 5.76986 43.3535 6.37598L 43.4834 5.60352L 45.2197 5.60352L 45.2197 15.8438L 43.2373 15.8438L 43.2373 12.3643C 42.7816 12.8792 42.1846 13.1367 41.4463 13.1367C 40.5667 13.1367 39.8649 12.7949 39.3408 12.1113C 38.8167 11.4277 38.5547 10.4684 38.5547 9.2334ZM 40.5303 9.37695C 40.5303 10.0833 40.6533 10.6211 40.8994 10.9902C 41.1501 11.3594 41.501 11.5439 41.9521 11.5439C 42.5583 11.5439 42.9867 11.3024 43.2373 10.8193L 43.2373 7.76367C 42.9912 7.29883 42.5674 7.06641 41.9658 7.06641C 41.5101 7.06641 41.1569 7.25098 40.9062 7.62012C 40.6556 7.98926 40.5303 8.57487 40.5303 9.37695ZM 51.208 12.248C 50.7204 12.8405 50.0459 13.1367 49.1846 13.1367C 48.3916 13.1367 47.7855 12.9089 47.3662 12.4531C 46.9515 11.9974 46.7396 11.3298 46.7305 10.4502L 46.7305 5.60352L 48.7061 5.60352L 48.7061 10.3818C 48.7061 11.152 49.057 11.5371 49.7588 11.5371C 50.4287 11.5371 50.889 11.3047 51.1396 10.8398L 51.1396 5.60352L 53.1221 5.60352L 53.1221 13L 51.2627 13L 51.208 12.248ZM 58.8984 13C 58.8073 12.8223 58.7412 12.6012 58.7002 12.3369C 58.2217 12.8701 57.5996 13.1367 56.834 13.1367C 56.1094 13.1367 55.5078 12.9271 55.0293 12.5078C 54.5553 12.0885 54.3184 11.5599 54.3184 10.9219C 54.3184 10.138 54.6077 9.53646 55.1865 9.11719C 55.7699 8.69792 56.6107 8.486 57.709 8.48145L 58.6182 8.48145L 58.6182 8.05762C 58.6182 7.71582 58.5293 7.44238 58.3516 7.2373C 58.1784 7.03223 57.9027 6.92969 57.5244 6.92969C 57.1917 6.92969 56.9297 7.00944 56.7383 7.16895C 56.5514 7.32845 56.458 7.5472 56.458 7.8252L 54.4824 7.8252C 54.4824 7.39681 54.6146 7.00033 54.8789 6.63574C 55.1432 6.27116 55.5169 5.98633 56 5.78125C 56.4831 5.57161 57.0254 5.4668 57.627 5.4668C 58.5384 5.4668 59.2607 5.69694 59.7939 6.15723C 60.3317 6.61296 60.6006 7.25553 60.6006 8.08496L 60.6006 11.291C 60.6051 11.9928 60.7031 12.5238 60.8945 12.8838L 60.8945 13L 58.8984 13ZM 57.2646 11.626C 57.5563 11.626 57.8252 11.5622 58.0713 11.4346C 58.3174 11.3024 58.4997 11.127 58.6182 10.9082L 58.6182 9.63672L 57.8799 9.63672C 56.891 9.63672 56.3646 9.97852 56.3008 10.6621L 56.2939 10.7783C 56.2939 11.0244 56.3805 11.2272 56.5537 11.3867C 56.7269 11.5462 56.9639 11.626 57.2646 11.626ZM 66.2744 7.45605C 66.0055 7.4196 65.7686 7.40137 65.5635 7.40137C 64.8161 7.40137 64.3262 7.6543 64.0938 8.16016L 64.0938 13L 62.1182 13L 62.1182 5.60352L 63.9844 5.60352L 64.0391 6.48535C 64.4355 5.80632 64.9847 5.4668 65.6865 5.4668C 65.9053 5.4668 66.1104 5.49642 66.3018 5.55566L 66.2744 7.45605ZM 69.9385 3.78516L 69.9385 5.60352L 71.2031 5.60352L 71.2031 7.05273L 69.9385 7.05273L 69.9385 10.7441C 69.9385 11.0176 69.9909 11.2135 70.0957 11.332C 70.2005 11.4505 70.401 11.5098 70.6973 11.5098C 70.916 11.5098 71.1097 11.4938 71.2783 11.4619L 71.2783 12.959C 70.891 13.0775 70.4922 13.1367 70.082 13.1367C 68.6966 13.1367 67.9902 12.4372 67.9629 11.0381L 67.9629 7.05273L 66.8828 7.05273L 66.8828 5.60352L 67.9629 5.60352L 67.9629 3.78516L 69.9385 3.78516ZM 74.3887 13L 72.4062 13L 72.4062 5.60352L 74.3887 5.60352L 74.3887 13ZM 72.29 3.68945C 72.29 3.39323 72.388 3.14941 72.584 2.95801C 72.7845 2.7666 73.0557 2.6709 73.3975 2.6709C 73.7347 2.6709 74.0036 2.7666 74.2041 2.95801C 74.4046 3.14941 74.5049 3.39323 74.5049 3.68945C 74.5049 3.99023 74.4023 4.23633 74.1973 4.42773C 73.9967 4.61914 73.7301 4.71484 73.3975 4.71484C 73.0648 4.71484 72.7959 4.61914 72.5908 4.42773C 72.3903 4.23633 72.29 3.99023 72.29 3.68945ZM 78.1074 13L 76.125 13L 76.125 2.5L 78.1074 2.5L 78.1074 13ZM 83.1455 13.1367C 82.0609 13.1367 81.1768 12.804 80.4932 12.1387C 79.8141 11.4733 79.4746 10.5869 79.4746 9.47949L 79.4746 9.28809C 79.4746 8.54525 79.6182 7.88216 79.9053 7.29883C 80.1924 6.71094 80.598 6.25977 81.1221 5.94531C 81.6507 5.6263 82.2523 5.4668 82.9268 5.4668C 83.9385 5.4668 84.7337 5.78581 85.3125 6.42383C 85.8958 7.06185 86.1875 7.96647 86.1875 9.1377L 86.1875 9.94434L 81.4775 9.94434C 81.5413 10.4274 81.7327 10.8148 82.0518 11.1064C 82.3753 11.3981 82.7832 11.5439 83.2754 11.5439C 84.0365 11.5439 84.6312 11.2682 85.0596 10.7168L 86.0303 11.8037C 85.734 12.223 85.333 12.5511 84.8271 12.7881C 84.3213 13.0205 83.7607 13.1367 83.1455 13.1367ZM 82.9199 7.06641C 82.528 7.06641 82.209 7.19857 81.9629 7.46289C 81.7214 7.72721 81.5664 8.10547 81.498 8.59766L 84.2461 8.59766L 84.2461 8.44043C 84.237 8.00293 84.1185 7.66569 83.8906 7.42871C 83.6628 7.18717 83.3392 7.06641 82.9199 7.06641Z"/>
<path id="path10_fill" d="M 2.14648 5.60352L 2.18066 6.42383C 2.72298 5.78581 3.45443 5.4668 4.375 5.4668C 5.40951 5.4668 6.11361 5.86328 6.4873 6.65625C 6.7334 6.30078 7.05241 6.01367 7.44434 5.79492C 7.84082 5.57617 8.30794 5.4668 8.8457 5.4668C 10.4681 5.4668 11.293 6.32585 11.3203 8.04395L 11.3203 13L 10.0557 13L 10.0557 8.11914C 10.0557 7.59049 9.9349 7.19629 9.69336 6.93652C 9.45182 6.6722 9.04622 6.54004 8.47656 6.54004C 8.00716 6.54004 7.61751 6.68132 7.30762 6.96387C 6.99772 7.24186 6.81771 7.61784 6.76758 8.0918L 6.76758 13L 5.49609 13L 5.49609 8.15332C 5.49609 7.0778 4.96973 6.54004 3.91699 6.54004C 3.08757 6.54004 2.52018 6.89323 2.21484 7.59961L 2.21484 13L 0.950195 13L 0.950195 5.60352L 2.14648 5.60352ZM 14.6084 13L 13.3438 13L 13.3438 5.60352L 14.6084 5.60352L 14.6084 13ZM 13.2412 3.6416C 13.2412 3.43652 13.3027 3.26335 13.4258 3.12207C 13.5534 2.98079 13.7402 2.91016 13.9863 2.91016C 14.2324 2.91016 14.4193 2.98079 14.5469 3.12207C 14.6745 3.26335 14.7383 3.43652 14.7383 3.6416C 14.7383 3.84668 14.6745 4.01758 14.5469 4.1543C 14.4193 4.29102 14.2324 4.35938 13.9863 4.35938C 13.7402 4.35938 13.5534 4.29102 13.4258 4.1543C 13.3027 4.01758 13.2412 3.84668 13.2412 3.6416ZM 16.3311 9.24023C 16.3311 8.10547 16.5999 7.19401 17.1377 6.50586C 17.6755 5.81315 18.3796 5.4668 19.25 5.4668C 20.1159 5.4668 20.8018 5.76302 21.3076 6.35547L 21.3076 2.5L 22.5723 2.5L 22.5723 13L 21.4102 13L 21.3486 12.207C 20.8428 12.8268 20.1387 13.1367 19.2363 13.1367C 18.3796 13.1367 17.68 12.7858 17.1377 12.084C 16.5999 11.3822 16.3311 10.4661 16.3311 9.33594L 16.3311 9.24023ZM 17.5957 9.38379C 17.5957 10.2223 17.7689 10.8786 18.1152 11.3525C 18.4616 11.8265 18.9401 12.0635 19.5508 12.0635C 20.3529 12.0635 20.9385 11.7035 21.3076 10.9834L 21.3076 7.58594C 20.9294 6.88867 20.3483 6.54004 19.5645 6.54004C 18.9447 6.54004 18.4616 6.7793 18.1152 7.25781C 17.7689 7.73633 17.5957 8.44499 17.5957 9.38379ZM 24.2334 9.24023C 24.2334 8.10547 24.5023 7.19401 25.04 6.50586C 25.5778 5.81315 26.2819 5.4668 27.1523 5.4668C 28.0182 5.4668 28.7041 5.76302 29.21 6.35547L 29.21 2.5L 30.4746 2.5L 30.4746 13L 29.3125 13L 29.251 12.207C 28.7451 12.8268 28.041 13.1367 27.1387 13.1367C 26.2819 13.1367 25.5824 12.7858 25.04 12.084C 24.5023 11.3822 24.2334 10.4661 24.2334 9.33594L 24.2334 9.24023ZM 25.498 9.38379C 25.498 10.2223 25.6712 10.8786 26.0176 11.3525C 26.3639 11.8265 26.8424 12.0635 27.4531 12.0635C 28.2552 12.0635 28.8408 11.7035 29.21 10.9834L 29.21 7.58594C 28.8317 6.88867 28.2507 6.54004 27.4668 6.54004C 26.847 6.54004 26.3639 6.7793 26.0176 7.25781C 25.6712 7.73633 25.498 8.44499 25.498 9.38379ZM 33.8174 13L 32.5527 13L 32.5527 2.5L 33.8174 2.5L 33.8174 13ZM 38.917 13.1367C 37.9144 13.1367 37.0986 12.8086 36.4697 12.1523C 35.8408 11.4915 35.5264 10.6097 35.5264 9.50684L 35.5264 9.27441C 35.5264 8.54069 35.6654 7.88672 35.9434 7.3125C 36.2259 6.73372 36.6178 6.28255 37.1191 5.95898C 37.625 5.63086 38.1719 5.4668 38.7598 5.4668C 39.7214 5.4668 40.4688 5.78353 41.002 6.41699C 41.5352 7.05046 41.8018 7.95736 41.8018 9.1377L 41.8018 9.66406L 36.791 9.66406C 36.8092 10.3932 37.0212 10.9834 37.4268 11.4346C 37.8369 11.8812 38.3564 12.1045 38.9854 12.1045C 39.432 12.1045 39.8102 12.0133 40.1201 11.8311C 40.43 11.6488 40.7012 11.4072 40.9336 11.1064L 41.7061 11.708C 41.0863 12.6605 40.1566 13.1367 38.917 13.1367ZM 38.7598 6.50586C 38.2493 6.50586 37.821 6.69271 37.4746 7.06641C 37.1283 7.43555 36.9141 7.95508 36.832 8.625L 40.5371 8.625L 40.5371 8.5293C 40.5007 7.88672 40.3275 7.38997 40.0176 7.03906C 39.7077 6.68359 39.2884 6.50586 38.7598 6.50586ZM 46.4365 9.24023C 46.4365 8.07812 46.7031 7.15983 47.2363 6.48535C 47.7695 5.80632 48.485 5.4668 49.3828 5.4668C 50.2578 5.4668 50.9482 5.76074 51.4541 6.34863L 51.5088 5.60352L 52.6709 5.60352L 52.6709 15.8438L 51.4062 15.8438L 51.4062 12.3164C 50.8958 12.8633 50.2168 13.1367 49.3691 13.1367C 48.4759 13.1367 47.7627 12.7904 47.2295 12.0977C 46.7008 11.4004 46.4365 10.4775 46.4365 9.3291L 46.4365 9.24023ZM 47.7012 9.38379C 47.7012 10.2314 47.8789 10.8968 48.2344 11.3799C 48.5944 11.863 49.0775 12.1045 49.6836 12.1045C 50.4355 12.1045 51.0098 11.7718 51.4062 11.1064L 51.4062 7.4834C 51.0052 6.83171 50.4355 6.50586 49.6973 6.50586C 49.0866 6.50586 48.6012 6.74967 48.2412 7.2373C 47.8812 7.72038 47.7012 8.43587 47.7012 9.38379ZM 59.2676 12.2686C 58.7754 12.8473 58.0531 13.1367 57.1006 13.1367C 56.3122 13.1367 55.7106 12.9089 55.2959 12.4531C 54.8857 11.9928 54.6784 11.3138 54.6738 10.416L 54.6738 5.60352L 55.9385 5.60352L 55.9385 10.3818C 55.9385 11.5029 56.3942 12.0635 57.3057 12.0635C 58.2718 12.0635 58.9144 11.7035 59.2334 10.9834L 59.2334 5.60352L 60.498 5.60352L 60.498 13L 59.2949 13L 59.2676 12.2686ZM 66.9922 13C 66.9193 12.8542 66.86 12.5944 66.8145 12.2207C 66.2266 12.8314 65.5247 13.1367 64.709 13.1367C 63.9798 13.1367 63.3805 12.9316 62.9111 12.5215C 62.4463 12.1068 62.2139 11.5827 62.2139 10.9492C 62.2139 10.179 62.5055 9.58203 63.0889 9.1582C 63.6768 8.72982 64.5016 8.51562 65.5635 8.51562L 66.7939 8.51562L 66.7939 7.93457C 66.7939 7.49251 66.6618 7.1416 66.3975 6.88184C 66.1331 6.61751 65.7435 6.48535 65.2285 6.48535C 64.7773 6.48535 64.3991 6.59928 64.0938 6.82715C 63.7884 7.05501 63.6357 7.33073 63.6357 7.6543L 62.3643 7.6543C 62.3643 7.28516 62.4941 6.92969 62.7539 6.58789C 63.0182 6.24154 63.3737 5.9681 63.8203 5.76758C 64.2715 5.56706 64.766 5.4668 65.3037 5.4668C 66.1559 5.4668 66.8236 5.68099 67.3066 6.10938C 67.7897 6.5332 68.0404 7.11882 68.0586 7.86621L 68.0586 11.2705C 68.0586 11.9495 68.1452 12.4896 68.3184 12.8906L 68.3184 13L 66.9922 13ZM 64.8936 12.0361C 65.29 12.0361 65.666 11.9336 66.0215 11.7285C 66.377 11.5234 66.6344 11.2568 66.7939 10.9287L 66.7939 9.41113L 65.8027 9.41113C 64.2533 9.41113 63.4785 9.86458 63.4785 10.7715C 63.4785 11.168 63.6107 11.4779 63.875 11.7012C 64.1393 11.9245 64.4788 12.0361 64.8936 12.0361ZM 73.6162 6.73828C 73.4248 6.70638 73.2174 6.69043 72.9941 6.69043C 72.1647 6.69043 71.6019 7.04362 71.3057 7.75L 71.3057 13L 70.041 13L 70.041 5.60352L 71.2715 5.60352L 71.292 6.45801C 71.7067 5.7972 72.2946 5.4668 73.0557 5.4668C 73.3018 5.4668 73.4886 5.4987 73.6162 5.5625L 73.6162 6.73828ZM 76.8428 3.8125L 76.8428 5.60352L 78.2236 5.60352L 78.2236 6.58105L 76.8428 6.58105L 76.8428 11.168C 76.8428 11.4642 76.9043 11.6875 77.0273 11.8379C 77.1504 11.9837 77.36 12.0566 77.6562 12.0566C 77.8021 12.0566 78.0026 12.0293 78.2578 11.9746L 78.2578 13C 77.9251 13.0911 77.6016 13.1367 77.2871 13.1367C 76.722 13.1367 76.2959 12.9658 76.0088 12.624C 75.7217 12.2822 75.5781 11.7969 75.5781 11.168L 75.5781 6.58105L 74.2314 6.58105L 74.2314 5.60352L 75.5781 5.60352L 75.5781 3.8125L 76.8428 3.8125ZM 81.0811 13L 79.8164 13L 79.8164 5.60352L 81.0811 5.60352L 81.0811 13ZM 79.7139 3.6416C 79.7139 3.43652 79.7754 3.26335 79.8984 3.12207C 80.026 2.98079 80.2129 2.91016 80.459 2.91016C 80.7051 2.91016 80.8919 2.98079 81.0195 3.12207C 81.1471 3.26335 81.2109 3.43652 81.2109 3.6416C 81.2109 3.84668 81.1471 4.01758 81.0195 4.1543C 80.8919 4.29102 80.7051 4.35938 80.459 4.35938C 80.2129 4.35938 80.026 4.29102 79.8984 4.1543C 79.7754 4.01758 79.7139 3.84668 79.7139 3.6416ZM 84.4854 13L 83.2207 13L 83.2207 2.5L 84.4854 2.5L 84.4854 13ZM 89.585 13.1367C 88.5824 13.1367 87.7666 12.8086 87.1377 12.1523C 86.5088 11.4915 86.1943 10.6097 86.1943 9.50684L 86.1943 9.27441C 86.1943 8.54069 86.3333 7.88672 86.6113 7.3125C 86.8939 6.73372 87.2858 6.28255 87.7871 5.95898C 88.293 5.63086 88.8398 5.4668 89.4277 5.4668C 90.3893 5.4668 91.1367 5.78353 91.6699 6.41699C 92.2031 7.05046 92.4697 7.95736 92.4697 9.1377L 92.4697 9.66406L 87.459 9.66406C 87.4772 10.3932 87.6891 10.9834 88.0947 11.4346C 88.5049 11.8812 89.0244 12.1045 89.6533 12.1045C 90.0999 12.1045 90.4782 12.0133 90.7881 11.8311C 91.098 11.6488 91.3691 11.4072 91.6016 11.1064L 92.374 11.708C 91.7542 12.6605 90.8245 13.1367 89.585 13.1367ZM 89.4277 6.50586C 88.9173 6.50586 88.4889 6.69271 88.1426 7.06641C 87.7962 7.43555 87.582 7.95508 87.5 8.625L 91.2051 8.625L 91.2051 8.5293C 91.1686 7.88672 90.9954 7.38997 90.6855 7.03906C 90.3757 6.68359 89.9564 6.50586 89.4277 6.50586Z"/>
<path id="path11_stroke" d="M 0 0L 66 0L 66 -1.5L 0 -1.5L 0 0Z"/>
<path id="path12_stroke" d="M 0 0L 13 0L 13 -1.5L 0 -1.5L 0 0Z"/>
<path id="path13_fill" d="M 4.60059 12.2344C 4.05371 12.8496 3.37467 13.1504 2.56348 13.1367C 1.85254 13.1276 1.31478 12.8724 0.950195 12.3711C 0.585612 11.8698 0.444336 11.209 0.526367 10.3887L 1.32617 5.60352L 3.25391 5.60352L 2.44043 10.4092C 2.4222 10.5596 2.41992 10.7008 2.43359 10.833C 2.47917 11.2887 2.7321 11.5234 3.19238 11.5371C 3.78939 11.5553 4.28385 11.3252 4.67578 10.8467L 5.59863 5.60352L 7.54004 5.60352L 6.25488 13L 4.45703 13L 4.60059 12.2344ZM 14.793 9.32227C 14.6973 10.097 14.4945 10.7852 14.1846 11.3867C 13.8747 11.9883 13.4896 12.4349 13.0293 12.7266C 12.569 13.0182 12.0586 13.1572 11.498 13.1436C 10.7826 13.1253 10.2174 12.8587 9.80273 12.3438L 9.12598 15.8438L 7.19824 15.8438L 8.96875 5.60352L 10.7461 5.59668L 10.6162 6.3418C 11.1494 5.74023 11.7783 5.44857 12.5029 5.4668C 13.2275 5.48503 13.7904 5.74935 14.1914 6.25977C 14.5924 6.76562 14.8066 7.45378 14.834 8.32422C 14.8431 8.60677 14.8294 8.93945 14.793 9.32227ZM 12.8789 9.17871L 12.9199 8.52246C 12.929 8.0804 12.847 7.72949 12.6738 7.46973C 12.5052 7.20996 12.2568 7.07552 11.9287 7.06641C 11.3682 7.04818 10.9056 7.28516 10.541 7.77734L 9.9873 10.8262C 10.1559 11.2865 10.5182 11.5257 11.0742 11.5439C 11.5391 11.5576 11.9264 11.3776 12.2363 11.0039C 12.5462 10.6302 12.7604 10.0218 12.8789 9.17871ZM 22.5039 9.32227C 22.4082 10.097 22.2054 10.7852 21.8955 11.3867C 21.5856 11.9883 21.2005 12.4349 20.7402 12.7266C 20.2799 13.0182 19.7695 13.1572 19.209 13.1436C 18.4935 13.1253 17.9284 12.8587 17.5137 12.3438L 16.8369 15.8438L 14.9092 15.8438L 16.6797 5.60352L 18.457 5.59668L 18.3271 6.3418C 18.8604 5.74023 19.4893 5.44857 20.2139 5.4668C 20.9385 5.48503 21.5013 5.74935 21.9023 6.25977C 22.3034 6.76562 22.5176 7.45378 22.5449 8.32422C 22.554 8.60677 22.5404 8.93945 22.5039 9.32227ZM 20.5898 9.17871L 20.6309 8.52246C 20.64 8.0804 20.5579 7.72949 20.3848 7.46973C 20.2161 7.20996 19.9678 7.07552 19.6396 7.06641C 19.0791 7.04818 18.6165 7.28516 18.252 7.77734L 17.6982 10.8262C 17.8669 11.2865 18.2292 11.5257 18.7852 11.5439C 19.25 11.5576 19.6374 11.3776 19.9473 11.0039C 20.2572 10.6302 20.4714 10.0218 20.5898 9.17871ZM 26.626 13.1367C 25.9788 13.1322 25.4046 12.9749 24.9033 12.665C 24.4066 12.3506 24.0352 11.9222 23.7891 11.3799C 23.543 10.833 23.4473 10.2314 23.502 9.5752L 23.5225 9.30176C 23.5908 8.58171 23.8005 7.9209 24.1514 7.31934C 24.5023 6.71777 24.9535 6.25521 25.5049 5.93164C 26.0563 5.60352 26.667 5.44857 27.3369 5.4668C 28.2894 5.48503 29.0094 5.83594 29.4971 6.51953C 29.9893 7.19857 30.1761 8.0599 30.0576 9.10352L 29.9482 9.94434L 25.416 9.94434C 25.3978 10.4229 25.514 10.8057 25.7646 11.0928C 26.0153 11.3799 26.3571 11.528 26.79 11.5371C 27.4919 11.5553 28.1071 11.2842 28.6357 10.7236L 29.5176 11.8174C 29.2396 12.2367 28.8385 12.5648 28.3145 12.8018C 27.7904 13.0342 27.2275 13.1458 26.626 13.1367ZM 27.2412 7.05957C 26.8857 7.05046 26.569 7.16211 26.291 7.39453C 26.0176 7.62695 25.7715 8.03027 25.5527 8.60449L 28.2051 8.60449L 28.2461 8.42676C 28.2734 8.24447 28.2757 8.07129 28.2529 7.90723C 28.2074 7.6429 28.0957 7.43783 27.918 7.29199C 27.7402 7.1416 27.5146 7.06413 27.2412 7.05957ZM 35.5879 7.45605C 35.3236 7.41048 35.1071 7.3877 34.9385 7.3877C 34.2503 7.36947 33.7057 7.62695 33.3047 8.16016L 32.4502 13L 30.5225 13L 31.8076 5.60352L 33.6191 5.59668L 33.4414 6.49902C 33.9062 5.80176 34.4805 5.45312 35.1641 5.45312C 35.3555 5.45312 35.5788 5.48503 35.834 5.54883L 35.5879 7.45605ZM 42.6836 5.45996C 43.4492 5.47819 44.0348 5.78809 44.4404 6.38965L 44.7549 5.59668L 46.4775 5.60352L 44.7002 15.8438L 42.7588 15.8438L 43.4492 12.3506C 42.9342 12.8929 42.335 13.1549 41.6514 13.1367C 41.1911 13.1322 40.7878 13.0114 40.4414 12.7744C 40.0951 12.5374 39.8262 12.1956 39.6348 11.749C 39.4479 11.2979 39.3454 10.8034 39.3271 10.2656C 39.3135 9.97852 39.3203 9.69824 39.3477 9.4248L 39.3887 9.12402C 39.498 8.3584 39.7077 7.68848 40.0176 7.11426C 40.332 6.54004 40.7148 6.11849 41.166 5.84961C 41.6217 5.57617 42.1276 5.44629 42.6836 5.45996ZM 41.2549 10.3066C 41.3005 11.1178 41.624 11.5303 42.2256 11.5439C 42.7679 11.5622 43.2327 11.3229 43.6201 10.8262L 44.1807 7.75C 44.0029 7.30794 43.6452 7.0778 43.1074 7.05957C 42.6243 7.0459 42.2256 7.2373 41.9111 7.63379C 41.5967 8.02572 41.3939 8.57487 41.3027 9.28125C 41.2572 9.75065 41.2412 10.0924 41.2549 10.3066ZM 51.3311 12.2344C 50.7842 12.8496 50.1051 13.1504 49.2939 13.1367C 48.583 13.1276 48.0452 12.8724 47.6807 12.3711C 47.3161 11.8698 47.1748 11.209 47.2568 10.3887L 48.0566 5.60352L 49.9844 5.60352L 49.1709 10.4092C 49.1527 10.5596 49.1504 10.7008 49.1641 10.833C 49.2096 11.2887 49.4626 11.5234 49.9229 11.5371C 50.5199 11.5553 51.0143 11.3252 51.4062 10.8467L 52.3291 5.60352L 54.2705 5.60352L 52.9854 13L 51.1875 13L 51.3311 12.2344ZM 58.7002 13C 58.641 12.8132 58.6159 12.5898 58.625 12.3301C 58.069 12.8861 57.4401 13.1549 56.7383 13.1367C 56.0911 13.1276 55.5534 12.918 55.125 12.5078C 54.7012 12.0931 54.5029 11.5827 54.5303 10.9766C 54.5622 10.1699 54.8994 9.55241 55.542 9.12402C 56.1891 8.69108 57.055 8.47461 58.1396 8.47461L 59.042 8.48828L 59.1377 8.04395C 59.165 7.89355 59.1719 7.75 59.1582 7.61328C 59.1354 7.39909 59.0534 7.23275 58.9121 7.11426C 58.7754 6.99121 58.5931 6.92741 58.3652 6.92285C 58.0645 6.91374 57.8092 6.98893 57.5996 7.14844C 57.39 7.30339 57.2555 7.52897 57.1963 7.8252L 55.2617 7.83203C 55.2936 7.12565 55.6172 6.55371 56.2324 6.11621C 56.8522 5.67415 57.6156 5.45768 58.5225 5.4668C 59.361 5.48503 60.0173 5.73568 60.4912 6.21875C 60.9652 6.69727 61.1634 7.31478 61.0859 8.07129L 60.5186 11.6123L 60.4844 12.0498C 60.4753 12.3734 60.514 12.6468 60.6006 12.8701L 60.5938 13L 58.7002 13ZM 57.2168 11.6396C 57.7728 11.6579 58.2581 11.4163 58.6729 10.915L 58.9121 9.63672L 58.2422 9.62988C 57.5312 9.64811 57.0186 9.86458 56.7041 10.2793C 56.5902 10.4297 56.5195 10.6143 56.4922 10.833C 56.4557 11.0791 56.5059 11.2751 56.6426 11.4209C 56.7839 11.5622 56.9753 11.6351 57.2168 11.6396ZM 66.8418 7.45605C 66.5775 7.41048 66.361 7.3877 66.1924 7.3877C 65.5042 7.36947 64.9596 7.62695 64.5586 8.16016L 63.7041 13L 61.7764 13L 63.0615 5.60352L 64.873 5.59668L 64.6953 6.49902C 65.1602 5.80176 65.7344 5.45312 66.418 5.45312C 66.6094 5.45312 66.8327 5.48503 67.0879 5.54883L 66.8418 7.45605ZM 71.0596 3.78516L 70.7383 5.60352L 71.9688 5.60352L 71.7158 7.05273L 70.4854 7.05273L 69.8564 10.7578C 69.8291 10.9902 69.8473 11.168 69.9111 11.291C 69.9749 11.4141 70.1299 11.4801 70.376 11.4893C 70.4489 11.4938 70.6449 11.4824 70.9639 11.4551L 70.8271 12.9658C 70.4854 13.0798 70.1162 13.1322 69.7197 13.123C 69.0863 13.1139 68.6146 12.9157 68.3047 12.5283C 67.9948 12.141 67.8672 11.6169 67.9219 10.9561L 68.5576 7.05273L 67.5117 7.05273L 67.7646 5.60352L 68.8105 5.60352L 69.125 3.78516L 71.0596 3.78516ZM 73.8486 13L 71.9072 13L 73.1924 5.60352L 75.1338 5.60352L 73.8486 13ZM 73.418 3.72363C 73.4089 3.41829 73.5091 3.16536 73.7188 2.96484C 73.9284 2.76432 74.1813 2.66406 74.4775 2.66406C 74.7692 2.65495 75.0221 2.74382 75.2363 2.93066C 75.4505 3.11751 75.5622 3.35905 75.5713 3.65527C 75.5804 3.93783 75.4847 4.18392 75.2842 4.39355C 75.0882 4.60319 74.8307 4.71257 74.5117 4.72168C 74.2246 4.73079 73.9717 4.64421 73.7529 4.46191C 73.5387 4.27962 73.4271 4.03353 73.418 3.72363ZM 77.5264 13L 75.585 13L 77.4102 2.5L 79.3447 2.5L 77.5264 13ZM 82.6807 13.1367C 82.0335 13.1322 81.4593 12.9749 80.958 12.665C 80.4613 12.3506 80.0898 11.9222 79.8438 11.3799C 79.5977 10.833 79.502 10.2314 79.5566 9.5752L 79.5771 9.30176C 79.6455 8.58171 79.8551 7.9209 80.2061 7.31934C 80.557 6.71777 81.0081 6.25521 81.5596 5.93164C 82.111 5.60352 82.7217 5.44857 83.3916 5.4668C 84.3441 5.48503 85.0641 5.83594 85.5518 6.51953C 86.0439 7.19857 86.2308 8.0599 86.1123 9.10352L 86.0029 9.94434L 81.4707 9.94434C 81.4525 10.4229 81.5687 10.8057 81.8193 11.0928C 82.07 11.3799 82.4118 11.528 82.8447 11.5371C 83.5465 11.5553 84.1618 11.2842 84.6904 10.7236L 85.5723 11.8174C 85.2943 12.2367 84.8932 12.5648 84.3691 12.8018C 83.8451 13.0342 83.2822 13.1458 82.6807 13.1367ZM 83.2959 7.05957C 82.9404 7.05046 82.6237 7.16211 82.3457 7.39453C 82.0723 7.62695 81.8262 8.03027 81.6074 8.60449L 84.2598 8.60449L 84.3008 8.42676C 84.3281 8.24447 84.3304 8.07129 84.3076 7.90723C 84.262 7.6429 84.1504 7.43783 83.9727 7.29199C 83.7949 7.1416 83.5693 7.06413 83.2959 7.05957ZM 94.377 9.53418L 90.6309 9.53418L 90.9043 7.94141L 94.6572 7.94141L 94.377 9.53418ZM 100.864 13L 98.9229 13L 100.748 2.5L 102.683 2.5L 100.864 13ZM 106.736 5.4668C 107.388 5.47591 107.949 5.64453 108.418 5.97266C 108.892 6.29622 109.238 6.74512 109.457 7.31934C 109.68 7.889 109.76 8.52246 109.696 9.21973C 109.591 10.3955 109.181 11.348 108.466 12.0771C 107.755 12.8018 106.875 13.1549 105.827 13.1367C 105.185 13.1276 104.629 12.9635 104.159 12.6445C 103.69 12.321 103.343 11.8743 103.12 11.3047C 102.897 10.735 102.817 10.1061 102.881 9.41797C 102.999 8.19661 103.414 7.22591 104.125 6.50586C 104.836 5.78581 105.706 5.43945 106.736 5.4668ZM 104.788 10.1221C 104.797 10.5596 104.9 10.9059 105.096 11.1611C 105.292 11.4118 105.567 11.5417 105.923 11.5508C 106.515 11.569 106.98 11.2979 107.317 10.7373C 107.655 10.1722 107.812 9.43164 107.789 8.51562C 107.771 8.07812 107.664 7.72949 107.468 7.46973C 107.276 7.2054 107.001 7.06868 106.641 7.05957C 106.066 7.04134 105.606 7.3125 105.26 7.87305C 104.918 8.42904 104.761 9.17871 104.788 10.1221ZM 116.936 10.3066L 118.692 5.60352L 120.613 5.60352L 117.503 13L 115.89 13L 115.343 8.37207L 113.183 13L 111.569 13L 111.022 5.60352L 112.827 5.60352L 112.943 10.2588L 115.056 5.60352L 116.45 5.60352L 116.936 10.3066ZM 123.819 13.1367C 123.172 13.1322 122.598 12.9749 122.097 12.665C 121.6 12.3506 121.229 11.9222 120.982 11.3799C 120.736 10.833 120.641 10.2314 120.695 9.5752L 120.716 9.30176C 120.784 8.58171 120.994 7.9209 121.345 7.31934C 121.696 6.71777 122.147 6.25521 122.698 5.93164C 123.25 5.60352 123.86 5.44857 124.53 5.4668C 125.483 5.48503 126.203 5.83594 126.69 6.51953C 127.183 7.19857 127.369 8.0599 127.251 9.10352L 127.142 9.94434L 122.609 9.94434C 122.591 10.4229 122.707 10.8057 122.958 11.0928C 123.209 11.3799 123.55 11.528 123.983 11.5371C 124.685 11.5553 125.3 11.2842 125.829 10.7236L 126.711 11.8174C 126.433 12.2367 126.032 12.5648 125.508 12.8018C 124.984 13.0342 124.421 13.1458 123.819 13.1367ZM 124.435 7.05957C 124.079 7.05046 123.762 7.16211 123.484 7.39453C 123.211 7.62695 122.965 8.03027 122.746 8.60449L 125.398 8.60449L 125.439 8.42676C 125.467 8.24447 125.469 8.07129 125.446 7.90723C 125.401 7.6429 125.289 7.43783 125.111 7.29199C 124.934 7.1416 124.708 7.06413 124.435 7.05957ZM 132.781 7.45605C 132.517 7.41048 132.3 7.3877 132.132 7.3877C 131.444 7.36947 130.899 7.62695 130.498 8.16016L 129.644 13L 127.716 13L 129.001 5.60352L 130.812 5.59668L 130.635 6.49902C 131.1 5.80176 131.674 5.45312 132.357 5.45312C 132.549 5.45312 132.772 5.48503 133.027 5.54883L 132.781 7.45605ZM 139.877 5.45996C 140.643 5.47819 141.228 5.78809 141.634 6.38965L 141.948 5.59668L 143.671 5.60352L 141.894 15.8438L 139.952 15.8438L 140.643 12.3506C 140.128 12.8929 139.528 13.1549 138.845 13.1367C 138.384 13.1322 137.981 13.0114 137.635 12.7744C 137.288 12.5374 137.02 12.1956 136.828 11.749C 136.641 11.2979 136.539 10.8034 136.521 10.2656C 136.507 9.97852 136.514 9.69824 136.541 9.4248L 136.582 9.12402C 136.691 8.3584 136.901 7.68848 137.211 7.11426C 137.525 6.54004 137.908 6.11849 138.359 5.84961C 138.815 5.57617 139.321 5.44629 139.877 5.45996ZM 138.448 10.3066C 138.494 11.1178 138.817 11.5303 139.419 11.5439C 139.961 11.5622 140.426 11.3229 140.813 10.8262L 141.374 7.75C 141.196 7.30794 140.839 7.0778 140.301 7.05957C 139.818 7.0459 139.419 7.2373 139.104 7.63379C 138.79 8.02572 138.587 8.57487 138.496 9.28125C 138.451 9.75065 138.435 10.0924 138.448 10.3066ZM 148.524 12.2344C 147.978 12.8496 147.299 13.1504 146.487 13.1367C 145.776 13.1276 145.239 12.8724 144.874 12.3711C 144.509 11.8698 144.368 11.209 144.45 10.3887L 145.25 5.60352L 147.178 5.60352L 146.364 10.4092C 146.346 10.5596 146.344 10.7008 146.357 10.833C 146.403 11.2887 146.656 11.5234 147.116 11.5371C 147.713 11.5553 148.208 11.3252 148.6 10.8467L 149.522 5.60352L 151.464 5.60352L 150.179 13L 148.381 13L 148.524 12.2344ZM 155.894 13C 155.834 12.8132 155.809 12.5898 155.818 12.3301C 155.262 12.8861 154.633 13.1549 153.932 13.1367C 153.285 13.1276 152.747 12.918 152.318 12.5078C 151.895 12.0931 151.696 11.5827 151.724 10.9766C 151.756 10.1699 152.093 9.55241 152.735 9.12402C 153.382 8.69108 154.248 8.47461 155.333 8.47461L 156.235 8.48828L 156.331 8.04395C 156.358 7.89355 156.365 7.75 156.352 7.61328C 156.329 7.39909 156.247 7.23275 156.105 7.11426C 155.969 6.99121 155.786 6.92741 155.559 6.92285C 155.258 6.91374 155.003 6.98893 154.793 7.14844C 154.583 7.30339 154.449 7.52897 154.39 7.8252L 152.455 7.83203C 152.487 7.12565 152.811 6.55371 153.426 6.11621C 154.046 5.67415 154.809 5.45768 155.716 5.4668C 156.554 5.48503 157.211 5.73568 157.685 6.21875C 158.159 6.69727 158.357 7.31478 158.279 8.07129L 157.712 11.6123L 157.678 12.0498C 157.669 12.3734 157.707 12.6468 157.794 12.8701L 157.787 13L 155.894 13ZM 154.41 11.6396C 154.966 11.6579 155.451 11.4163 155.866 10.915L 156.105 9.63672L 155.436 9.62988C 154.725 9.64811 154.212 9.86458 153.897 10.2793C 153.784 10.4297 153.713 10.6143 153.686 10.833C 153.649 11.0791 153.699 11.2751 153.836 11.4209C 153.977 11.5622 154.169 11.6351 154.41 11.6396ZM 164.035 7.45605C 163.771 7.41048 163.554 7.3877 163.386 7.3877C 162.698 7.36947 162.153 7.62695 161.752 8.16016L 160.897 13L 158.97 13L 160.255 5.60352L 162.066 5.59668L 161.889 6.49902C 162.354 5.80176 162.928 5.45312 163.611 5.45312C 163.803 5.45312 164.026 5.48503 164.281 5.54883L 164.035 7.45605ZM 168.253 3.78516L 167.932 5.60352L 169.162 5.60352L 168.909 7.05273L 167.679 7.05273L 167.05 10.7578C 167.022 10.9902 167.041 11.168 167.104 11.291C 167.168 11.4141 167.323 11.4801 167.569 11.4893C 167.642 11.4938 167.838 11.4824 168.157 11.4551L 168.021 12.9658C 167.679 13.0798 167.31 13.1322 166.913 13.123C 166.28 13.1139 165.808 12.9157 165.498 12.5283C 165.188 12.141 165.061 11.6169 165.115 10.9561L 165.751 7.05273L 164.705 7.05273L 164.958 5.60352L 166.004 5.60352L 166.318 3.78516L 168.253 3.78516ZM 171.042 13L 169.101 13L 170.386 5.60352L 172.327 5.60352L 171.042 13ZM 170.611 3.72363C 170.602 3.41829 170.702 3.16536 170.912 2.96484C 171.122 2.76432 171.375 2.66406 171.671 2.66406C 171.963 2.65495 172.215 2.74382 172.43 2.93066C 172.644 3.11751 172.756 3.35905 172.765 3.65527C 172.774 3.93783 172.678 4.18392 172.478 4.39355C 172.282 4.60319 172.024 4.71257 171.705 4.72168C 171.418 4.73079 171.165 4.64421 170.946 4.46191C 170.732 4.27962 170.62 4.03353 170.611 3.72363ZM 174.72 13L 172.778 13L 174.604 2.5L 176.538 2.5L 174.72 13ZM 179.874 13.1367C 179.227 13.1322 178.653 12.9749 178.151 12.665C 177.655 12.3506 177.283 11.9222 177.037 11.3799C 176.791 10.833 176.695 10.2314 176.75 9.5752L 176.771 9.30176C 176.839 8.58171 177.049 7.9209 177.399 7.31934C 177.75 6.71777 178.201 6.25521 178.753 5.93164C 179.304 5.60352 179.915 5.44857 180.585 5.4668C 181.537 5.48503 182.257 5.83594 182.745 6.51953C 183.237 7.19857 183.424 8.0599 183.306 9.10352L 183.196 9.94434L 178.664 9.94434C 178.646 10.4229 178.762 10.8057 179.013 11.0928C 179.263 11.3799 179.605 11.528 180.038 11.5371C 180.74 11.5553 181.355 11.2842 181.884 10.7236L 182.766 11.8174C 182.488 12.2367 182.087 12.5648 181.562 12.8018C 181.038 13.0342 180.476 13.1458 179.874 13.1367ZM 180.489 7.05957C 180.134 7.05046 179.817 7.16211 179.539 7.39453C 179.266 7.62695 179.02 8.03027 178.801 8.60449L 181.453 8.60449L 181.494 8.42676C 181.521 8.24447 181.524 8.07129 181.501 7.90723C 181.455 7.6429 181.344 7.43783 181.166 7.29199C 180.988 7.1416 180.763 7.06413 180.489 7.05957ZM 194.216 7.90039L 188.275 7.90039L 188.562 6.28711L 194.503 6.28711L 194.216 7.90039ZM 193.703 10.8604L 187.763 10.8604L 188.05 9.24707L 193.99 9.24707L 193.703 10.8604ZM 200.573 13L 198.632 13L 199.917 5.60352L 201.858 5.60352L 200.573 13ZM 200.143 3.72363C 200.133 3.41829 200.234 3.16536 200.443 2.96484C 200.653 2.76432 200.906 2.66406 201.202 2.66406C 201.494 2.65495 201.747 2.74382 201.961 2.93066C 202.175 3.11751 202.287 3.35905 202.296 3.65527C 202.305 3.93783 202.209 4.18392 202.009 4.39355C 201.813 4.60319 201.555 4.71257 201.236 4.72168C 200.949 4.73079 200.696 4.64421 200.478 4.46191C 200.263 4.27962 200.152 4.03353 200.143 3.72363ZM 205.263 5.59668L 205.099 6.47168C 205.691 5.78353 206.409 5.44857 207.252 5.4668C 207.949 5.48047 208.464 5.73568 208.797 6.23242C 209.13 6.72917 209.25 7.41732 209.159 8.29688L 208.38 13L 206.452 13L 207.245 8.27637C 207.268 8.09863 207.272 7.93685 207.259 7.79102C 207.2 7.32617 206.908 7.08691 206.384 7.07324C 205.878 7.05501 205.424 7.28971 205.023 7.77734L 204.101 13L 202.173 13L 203.458 5.60352L 205.263 5.59668ZM 213.808 3.78516L 213.486 5.60352L 214.717 5.60352L 214.464 7.05273L 213.233 7.05273L 212.604 10.7578C 212.577 10.9902 212.595 11.168 212.659 11.291C 212.723 11.4141 212.878 11.4801 213.124 11.4893C 213.197 11.4938 213.393 11.4824 213.712 11.4551L 213.575 12.9658C 213.233 13.0798 212.864 13.1322 212.468 13.123C 211.834 13.1139 211.363 12.9157 211.053 12.5283C 210.743 12.141 210.615 11.6169 210.67 10.9561L 211.306 7.05273L 210.26 7.05273L 210.513 5.60352L 211.559 5.60352L 211.873 3.78516L 213.808 3.78516ZM 218.073 13.1367C 217.426 13.1322 216.852 12.9749 216.351 12.665C 215.854 12.3506 215.482 11.9222 215.236 11.3799C 214.99 10.833 214.895 10.2314 214.949 9.5752L 214.97 9.30176C 215.038 8.58171 215.248 7.9209 215.599 7.31934C 215.95 6.71777 216.401 6.25521 216.952 5.93164C 217.504 5.60352 218.114 5.44857 218.784 5.4668C 219.737 5.48503 220.457 5.83594 220.944 6.51953C 221.437 7.19857 221.623 8.0599 221.505 9.10352L 221.396 9.94434L 216.863 9.94434C 216.845 10.4229 216.961 10.8057 217.212 11.0928C 217.463 11.3799 217.804 11.528 218.237 11.5371C 218.939 11.5553 219.554 11.2842 220.083 10.7236L 220.965 11.8174C 220.687 12.2367 220.286 12.5648 219.762 12.8018C 219.238 13.0342 218.675 13.1458 218.073 13.1367ZM 218.688 7.05957C 218.333 7.05046 218.016 7.16211 217.738 7.39453C 217.465 7.62695 217.219 8.03027 217 8.60449L 219.652 8.60449L 219.693 8.42676C 219.721 8.24447 219.723 8.07129 219.7 7.90723C 219.655 7.6429 219.543 7.43783 219.365 7.29199C 219.188 7.1416 218.962 7.06413 218.688 7.05957ZM 227.035 7.45605C 226.771 7.41048 226.554 7.3877 226.386 7.3877C 225.698 7.36947 225.153 7.62695 224.752 8.16016L 223.897 13L 221.97 13L 223.255 5.60352L 225.066 5.59668L 224.889 6.49902C 225.354 5.80176 225.928 5.45312 226.611 5.45312C 226.803 5.45312 227.026 5.48503 227.281 5.54883L 227.035 7.45605ZM 230.535 5.45996C 231.301 5.47819 231.886 5.78809 232.292 6.38965L 232.606 5.59668L 234.329 5.60352L 232.552 15.8438L 230.61 15.8438L 231.301 12.3506C 230.786 12.8929 230.187 13.1549 229.503 13.1367C 229.043 13.1322 228.639 13.0114 228.293 12.7744C 227.947 12.5374 227.678 12.1956 227.486 11.749C 227.299 11.2979 227.197 10.8034 227.179 10.2656C 227.165 9.97852 227.172 9.69824 227.199 9.4248L 227.24 9.12402C 227.35 8.3584 227.559 7.68848 227.869 7.11426C 228.184 6.54004 228.566 6.11849 229.018 5.84961C 229.473 5.57617 229.979 5.44629 230.535 5.45996ZM 229.106 10.3066C 229.152 11.1178 229.476 11.5303 230.077 11.5439C 230.619 11.5622 231.084 11.3229 231.472 10.8262L 232.032 7.75C 231.854 7.30794 231.497 7.0778 230.959 7.05957C 230.476 7.0459 230.077 7.2373 229.763 7.63379C 229.448 8.02572 229.245 8.57487 229.154 9.28125C 229.109 9.75065 229.093 10.0924 229.106 10.3066ZM 239.183 12.2344C 238.636 12.8496 237.957 13.1504 237.146 13.1367C 236.435 13.1276 235.897 12.8724 235.532 12.3711C 235.168 11.8698 235.026 11.209 235.108 10.3887L 235.908 5.60352L 237.836 5.60352L 237.022 10.4092C 237.004 10.5596 237.002 10.7008 237.016 10.833C 237.061 11.2887 237.314 11.5234 237.774 11.5371C 238.371 11.5553 238.866 11.3252 239.258 10.8467L 240.181 5.60352L 242.122 5.60352L 240.837 13L 239.039 13L 239.183 12.2344ZM 246.552 13C 246.493 12.8132 246.467 12.5898 246.477 12.3301C 245.921 12.8861 245.292 13.1549 244.59 13.1367C 243.943 13.1276 243.405 12.918 242.977 12.5078C 242.553 12.0931 242.354 11.5827 242.382 10.9766C 242.414 10.1699 242.751 9.55241 243.394 9.12402C 244.041 8.69108 244.907 8.47461 245.991 8.47461L 246.894 8.48828L 246.989 8.04395C 247.017 7.89355 247.023 7.75 247.01 7.61328C 246.987 7.39909 246.905 7.23275 246.764 7.11426C 246.627 6.99121 246.445 6.92741 246.217 6.92285C 245.916 6.91374 245.661 6.98893 245.451 7.14844C 245.242 7.30339 245.107 7.52897 245.048 7.8252L 243.113 7.83203C 243.145 7.12565 243.469 6.55371 244.084 6.11621C 244.704 5.67415 245.467 5.45768 246.374 5.4668C 247.213 5.48503 247.869 5.73568 248.343 6.21875C 248.817 6.69727 249.015 7.31478 248.938 8.07129L 248.37 11.6123L 248.336 12.0498C 248.327 12.3734 248.366 12.6468 248.452 12.8701L 248.445 13L 246.552 13ZM 245.068 11.6396C 245.624 11.6579 246.11 11.4163 246.524 10.915L 246.764 9.63672L 246.094 9.62988C 245.383 9.64811 244.87 9.86458 244.556 10.2793C 244.442 10.4297 244.371 10.6143 244.344 10.833C 244.307 11.0791 244.357 11.2751 244.494 11.4209C 244.635 11.5622 244.827 11.6351 245.068 11.6396ZM 254.693 7.45605C 254.429 7.41048 254.213 7.3877 254.044 7.3877C 253.356 7.36947 252.811 7.62695 252.41 8.16016L 251.556 13L 249.628 13L 250.913 5.60352L 252.725 5.59668L 252.547 6.49902C 253.012 5.80176 253.586 5.45312 254.27 5.45312C 254.461 5.45312 254.684 5.48503 254.939 5.54883L 254.693 7.45605ZM 258.911 3.78516L 258.59 5.60352L 259.82 5.60352L 259.567 7.05273L 258.337 7.05273L 257.708 10.7578C 257.681 10.9902 257.699 11.168 257.763 11.291C 257.826 11.4141 257.981 11.4801 258.228 11.4893C 258.3 11.4938 258.496 11.4824 258.815 11.4551L 258.679 12.9658C 258.337 13.0798 257.968 13.1322 257.571 13.123C 256.938 13.1139 256.466 12.9157 256.156 12.5283C 255.846 12.141 255.719 11.6169 255.773 10.9561L 256.409 7.05273L 255.363 7.05273L 255.616 5.60352L 256.662 5.60352L 256.977 3.78516L 258.911 3.78516ZM 261.7 13L 259.759 13L 261.044 5.60352L 262.985 5.60352L 261.7 13ZM 261.27 3.72363C 261.26 3.41829 261.361 3.16536 261.57 2.96484C 261.78 2.76432 262.033 2.66406 262.329 2.66406C 262.621 2.65495 262.874 2.74382 263.088 2.93066C 263.302 3.11751 263.414 3.35905 263.423 3.65527C 263.432 3.93783 263.336 4.18392 263.136 4.39355C 262.94 4.60319 262.682 4.71257 262.363 4.72168C 262.076 4.73079 261.823 4.64421 261.604 4.46191C 261.39 4.27962 261.279 4.03353 261.27 3.72363ZM 265.378 13L 263.437 13L 265.262 2.5L 267.196 2.5L 265.378 13ZM 270.532 13.1367C 269.885 13.1322 269.311 12.9749 268.81 12.665C 268.313 12.3506 267.941 11.9222 267.695 11.3799C 267.449 10.833 267.354 10.2314 267.408 9.5752L 267.429 9.30176C 267.497 8.58171 267.707 7.9209 268.058 7.31934C 268.409 6.71777 268.86 6.25521 269.411 5.93164C 269.963 5.60352 270.573 5.44857 271.243 5.4668C 272.196 5.48503 272.916 5.83594 273.403 6.51953C 273.896 7.19857 274.082 8.0599 273.964 9.10352L 273.854 9.94434L 269.322 9.94434C 269.304 10.4229 269.42 10.8057 269.671 11.0928C 269.922 11.3799 270.263 11.528 270.696 11.5371C 271.398 11.5553 272.013 11.2842 272.542 10.7236L 273.424 11.8174C 273.146 12.2367 272.745 12.5648 272.221 12.8018C 271.697 13.0342 271.134 13.1458 270.532 13.1367ZM 271.147 7.05957C 270.792 7.05046 270.475 7.16211 270.197 7.39453C 269.924 7.62695 269.678 8.03027 269.459 8.60449L 272.111 8.60449L 272.152 8.42676C 272.18 8.24447 272.182 8.07129 272.159 7.90723C 272.114 7.6429 272.002 7.43783 271.824 7.29199C 271.646 7.1416 271.421 7.06413 271.147 7.05957ZM 282.953 7.45605C 282.689 7.41048 282.472 7.3877 282.304 7.3877C 281.616 7.36947 281.071 7.62695 280.67 8.16016L 279.815 13L 277.888 13L 279.173 5.60352L 280.984 5.59668L 280.807 6.49902C 281.271 5.80176 281.846 5.45312 282.529 5.45312C 282.721 5.45312 282.944 5.48503 283.199 5.54883L 282.953 7.45605ZM 286.993 13C 286.934 12.8132 286.909 12.5898 286.918 12.3301C 286.362 12.8861 285.733 13.1549 285.031 13.1367C 284.384 13.1276 283.846 12.918 283.418 12.5078C 282.994 12.0931 282.796 11.5827 282.823 10.9766C 282.855 10.1699 283.192 9.55241 283.835 9.12402C 284.482 8.69108 285.348 8.47461 286.433 8.47461L 287.335 8.48828L 287.431 8.04395C 287.458 7.89355 287.465 7.75 287.451 7.61328C 287.428 7.39909 287.346 7.23275 287.205 7.11426C 287.068 6.99121 286.886 6.92741 286.658 6.92285C 286.357 6.91374 286.102 6.98893 285.893 7.14844C 285.683 7.30339 285.549 7.52897 285.489 7.8252L 283.555 7.83203C 283.587 7.12565 283.91 6.55371 284.525 6.11621C 285.145 5.67415 285.909 5.45768 286.815 5.4668C 287.654 5.48503 288.31 5.73568 288.784 6.21875C 289.258 6.69727 289.456 7.31478 289.379 8.07129L 288.812 11.6123L 288.777 12.0498C 288.768 12.3734 288.807 12.6468 288.894 12.8701L 288.887 13L 286.993 13ZM 285.51 11.6396C 286.066 11.6579 286.551 11.4163 286.966 10.915L 287.205 9.63672L 286.535 9.62988C 285.824 9.64811 285.312 9.86458 284.997 10.2793C 284.883 10.4297 284.812 10.6143 284.785 10.833C 284.749 11.0791 284.799 11.2751 284.936 11.4209C 285.077 11.5622 285.268 11.6351 285.51 11.6396ZM 293.118 5.59668L 292.954 6.47168C 293.547 5.78353 294.264 5.44857 295.107 5.4668C 295.805 5.48047 296.32 5.73568 296.652 6.23242C 296.985 6.72917 297.106 7.41732 297.015 8.29688L 296.235 13L 294.308 13L 295.101 8.27637C 295.123 8.09863 295.128 7.93685 295.114 7.79102C 295.055 7.32617 294.763 7.08691 294.239 7.07324C 293.733 7.05501 293.28 7.28971 292.879 7.77734L 291.956 13L 290.028 13L 291.313 5.60352L 293.118 5.59668ZM 298.122 9.29492C 298.259 8.15104 298.63 7.22363 299.236 6.5127C 299.847 5.7972 300.615 5.44629 301.54 5.45996C 302.328 5.47819 302.916 5.76302 303.304 6.31445L 303.557 5.59668L 305.327 5.60352L 304.117 12.7471C 303.985 13.7314 303.566 14.5107 302.859 15.085C 302.153 15.6592 301.278 15.9372 300.234 15.9189C 299.724 15.9098 299.236 15.7982 298.771 15.584C 298.307 15.3743 297.924 15.085 297.623 14.7158L 298.58 13.54C 299.008 14.0824 299.546 14.3626 300.193 14.3809C 300.695 14.3991 301.123 14.2669 301.479 13.9844C 301.834 13.7064 302.076 13.3122 302.203 12.8018L 302.312 12.3574C 301.775 12.8952 301.171 13.1549 300.501 13.1367C 299.781 13.1276 299.209 12.861 298.785 12.3369C 298.361 11.8083 298.129 11.1224 298.088 10.2793C 298.074 10.0013 298.086 9.67318 298.122 9.29492ZM 300.016 10.1016C 300.016 10.5299 300.104 10.874 300.282 11.1338C 300.465 11.389 300.727 11.5234 301.068 11.5371C 301.592 11.5553 302.057 11.332 302.463 10.8672L 303.037 7.73633C 302.841 7.30794 302.479 7.08464 301.95 7.06641C 301.458 7.05273 301.041 7.25098 300.699 7.66113C 300.357 8.07129 300.143 8.61589 300.057 9.29492C 300.025 9.6276 300.011 9.89648 300.016 10.1016ZM 309.087 13.1367C 308.44 13.1322 307.866 12.9749 307.364 12.665C 306.868 12.3506 306.496 11.9222 306.25 11.3799C 306.004 10.833 305.908 10.2314 305.963 9.5752L 305.983 9.30176C 306.052 8.58171 306.261 7.9209 306.612 7.31934C 306.963 6.71777 307.414 6.25521 307.966 5.93164C 308.517 5.60352 309.128 5.44857 309.798 5.4668C 310.75 5.48503 311.47 5.83594 311.958 6.51953C 312.45 7.19857 312.637 8.0599 312.519 9.10352L 312.409 9.94434L 307.877 9.94434C 307.859 10.4229 307.975 10.8057 308.226 11.0928C 308.476 11.3799 308.818 11.528 309.251 11.5371C 309.953 11.5553 310.568 11.2842 311.097 10.7236L 311.979 11.8174C 311.701 12.2367 311.299 12.5648 310.775 12.8018C 310.251 13.0342 309.688 13.1458 309.087 13.1367ZM 309.702 7.05957C 309.347 7.05046 309.03 7.16211 308.752 7.39453C 308.479 7.62695 308.232 8.03027 308.014 8.60449L 310.666 8.60449L 310.707 8.42676C 310.734 8.24447 310.737 8.07129 310.714 7.90723C 310.668 7.6429 310.557 7.43783 310.379 7.29199C 310.201 7.1416 309.976 7.06413 309.702 7.05957Z"/>
</defs>
</svg>
