<svg width="254" height="125" viewBox="0 0 254 125" version="1.1" xmlns="http://www.w3.org/2000/svg" xmlns:xlink="http://www.w3.org/1999/xlink">
<g id="Canvas" fill="none">
<rect width="254" height="125" fill="white"/>
<g id="Line">
<line y1="-0.5" x2="253.002" y2="-0.5" transform="translate(-0.000396729 38.3139)" stroke="black"/>
</g>
<g id="Line_2">
<line y1="-0.5" x2="253" y2="-0.5" transform="translate(-0.000244141 79.25)" stroke="black"/>
</g>
<g id="Line 2">
<line y1="-0.5" x2="123.004" y2="-0.5" transform="matrix(0 -1 1 0 80.5 124.002)" stroke="black"/>
</g>
<g id="Line 2.1">
<line y1="-0.5" x2="123.004" y2="-0.5" transform="matrix(0 -1 1 0 80.5 124.002)" stroke="black"/>
</g>
<g id="Line 2.2">
<line y1="-0.5" x2="123.004" y2="-0.5" transform="matrix(0 -1 1 0 169 124.004)" stroke="black"/>
</g>
<g id="Line 2.3">
<line y1="-0.5" x2="123.004" y2="-0.5" transform="matrix(0 -1 1 0 169 124.004)" stroke="black"/>
</g>
<g id="Population">
<path d="M 3.43066 9.49316L 3.43066 13L 1.37988 13L 1.37988 3.04688L 5.2627 3.04688C 6.01009 3.04688 6.66634 3.18359 7.23145 3.45703C 7.80111 3.73047 8.23861 4.12012 8.54395 4.62598C 8.84928 5.12728 9.00195 5.69922 9.00195 6.3418C 9.00195 7.31706 8.66699 8.08724 7.99707 8.65234C 7.33171 9.21289 6.40885 9.49316 5.22852 9.49316L 3.43066 9.49316ZM 3.43066 7.83203L 5.2627 7.83203C 5.80501 7.83203 6.21745 7.70443 6.5 7.44922C 6.78711 7.19401 6.93066 6.82943 6.93066 6.35547C 6.93066 5.86784 6.78711 5.47363 6.5 5.17285C 6.21289 4.87207 5.81641 4.71712 5.31055 4.70801L 3.43066 4.70801L 3.43066 7.83203ZM 9.88379 9.2334C 9.88379 8.49967 10.0251 7.8457 10.3076 7.27148C 10.5902 6.69727 10.9958 6.25293 11.5244 5.93848C 12.0576 5.62402 12.6751 5.4668 13.377 5.4668C 14.375 5.4668 15.1885 5.77214 15.8174 6.38281C 16.4508 6.99349 16.804 7.82292 16.877 8.87109L 16.8906 9.37695C 16.8906 10.5117 16.5739 11.4232 15.9404 12.1113C 15.307 12.7949 14.457 13.1367 13.3906 13.1367C 12.3242 13.1367 11.472 12.7949 10.834 12.1113C 10.2005 11.4277 9.88379 10.498 9.88379 9.32227L 9.88379 9.2334ZM 11.8594 9.37695C 11.8594 10.0788 11.9915 10.6165 12.2559 10.9902C 12.5202 11.3594 12.8984 11.5439 13.3906 11.5439C 13.8691 11.5439 14.2428 11.3617 14.5117 10.9971C 14.7806 10.6279 14.915 10.04 14.915 9.2334C 14.915 8.54525 14.7806 8.01204 14.5117 7.63379C 14.2428 7.25553 13.8646 7.06641 13.377 7.06641C 12.8939 7.06641 12.5202 7.25553 12.2559 7.63379C 11.9915 8.00749 11.8594 8.58854 11.8594 9.37695ZM 24.7656 9.37012C 24.7656 10.5094 24.5059 11.4232 23.9863 12.1113C 23.4714 12.7949 22.7741 13.1367 21.8945 13.1367C 21.1471 13.1367 20.5433 12.877 20.083 12.3574L 20.083 15.8438L 18.1074 15.8438L 18.1074 5.60352L 19.9395 5.60352L 20.0078 6.32812C 20.4863 5.75391 21.1107 5.4668 21.8809 5.4668C 22.7923 5.4668 23.501 5.80404 24.0068 6.47852C 24.5127 7.15299 24.7656 8.08268 24.7656 9.26758L 24.7656 9.37012ZM 22.79 9.22656C 22.79 8.53841 22.667 8.00749 22.4209 7.63379C 22.1794 7.26009 21.8262 7.07324 21.3613 7.07324C 20.7415 7.07324 20.3154 7.31022 20.083 7.78418L 20.083 10.8125C 20.3245 11.3001 20.7552 11.5439 21.375 11.5439C 22.3184 11.5439 22.79 10.7715 22.79 9.22656ZM 30.4258 12.248C 29.9382 12.8405 29.2637 13.1367 28.4023 13.1367C 27.6094 13.1367 27.0033 12.9089 26.584 12.4531C 26.1693 11.9974 25.9574 11.3298 25.9482 10.4502L 25.9482 5.60352L 27.9238 5.60352L 27.9238 10.3818C 27.9238 11.152 28.2747 11.5371 28.9766 11.5371C 29.6465 11.5371 30.1068 11.3047 30.3574 10.8398L 30.3574 5.60352L 32.3398 5.60352L 32.3398 13L 30.4805 13L 30.4258 12.248ZM 35.915 13L 33.9326 13L 33.9326 2.5L 35.915 2.5L 35.915 13ZM 41.835 13C 41.7438 12.8223 41.6777 12.6012 41.6367 12.3369C 41.1582 12.8701 40.5361 13.1367 39.7705 13.1367C 39.0459 13.1367 38.4443 12.9271 37.9658 12.5078C 37.4919 12.0885 37.2549 11.5599 37.2549 10.9219C 37.2549 10.138 37.5443 9.53646 38.123 9.11719C 38.7064 8.69792 39.5472 8.486 40.6455 8.48145L 41.5547 8.48145L 41.5547 8.05762C 41.5547 7.71582 41.4658 7.44238 41.2881 7.2373C 41.1149 7.03223 40.8392 6.92969 40.4609 6.92969C 40.1283 6.92969 39.8662 7.00944 39.6748 7.16895C 39.488 7.32845 39.3945 7.5472 39.3945 7.8252L 37.4189 7.8252C 37.4189 7.39681 37.5511 7.00033 37.8154 6.63574C 38.0798 6.27116 38.4535 5.98633 38.9365 5.78125C 39.4196 5.57161 39.9619 5.4668 40.5635 5.4668C 41.4749 5.4668 42.1973 5.69694 42.7305 6.15723C 43.2682 6.61296 43.5371 7.25553 43.5371 8.08496L 43.5371 11.291C 43.5417 11.9928 43.6396 12.5238 43.8311 12.8838L 43.8311 13L 41.835 13ZM 40.2012 11.626C 40.4928 11.626 40.7617 11.5622 41.0078 11.4346C 41.2539 11.3024 41.4362 11.127 41.5547 10.9082L 41.5547 9.63672L 40.8164 9.63672C 39.8275 9.63672 39.3011 9.97852 39.2373 10.6621L 39.2305 10.7783C 39.2305 11.0244 39.3171 11.2272 39.4902 11.3867C 39.6634 11.5462 39.9004 11.626 40.2012 11.626ZM 47.4199 3.78516L 47.4199 5.60352L 48.6846 5.60352L 48.6846 7.05273L 47.4199 7.05273L 47.4199 10.7441C 47.4199 11.0176 47.4723 11.2135 47.5771 11.332C 47.682 11.4505 47.8825 11.5098 48.1787 11.5098C 48.3975 11.5098 48.5911 11.4938 48.7598 11.4619L 48.7598 12.959C 48.3724 13.0775 47.9736 13.1367 47.5635 13.1367C 46.1781 13.1367 45.4717 12.4372 45.4443 11.0381L 45.4443 7.05273L 44.3643 7.05273L 44.3643 5.60352L 45.4443 5.60352L 45.4443 3.78516L 47.4199 3.78516ZM 51.8701 13L 49.8877 13L 49.8877 5.60352L 51.8701 5.60352L 51.8701 13ZM 49.7715 3.68945C 49.7715 3.39323 49.8695 3.14941 50.0654 2.95801C 50.266 2.7666 50.5371 2.6709 50.8789 2.6709C 51.2161 2.6709 51.485 2.7666 51.6855 2.95801C 51.8861 3.14941 51.9863 3.39323 51.9863 3.68945C 51.9863 3.99023 51.8838 4.23633 51.6787 4.42773C 51.4782 4.61914 51.2116 4.71484 50.8789 4.71484C 50.5462 4.71484 50.2773 4.61914 50.0723 4.42773C 49.8717 4.23633 49.7715 3.99023 49.7715 3.68945ZM 53.1963 9.2334C 53.1963 8.49967 53.3376 7.8457 53.6201 7.27148C 53.9027 6.69727 54.3083 6.25293 54.8369 5.93848C 55.3701 5.62402 55.9876 5.4668 56.6895 5.4668C 57.6875 5.4668 58.501 5.77214 59.1299 6.38281C 59.7633 6.99349 60.1165 7.82292 60.1895 8.87109L 60.2031 9.37695C 60.2031 10.5117 59.8864 11.4232 59.2529 12.1113C 58.6195 12.7949 57.7695 13.1367 56.7031 13.1367C 55.6367 13.1367 54.7845 12.7949 54.1465 12.1113C 53.513 11.4277 53.1963 10.498 53.1963 9.32227L 53.1963 9.2334ZM 55.1719 9.37695C 55.1719 10.0788 55.304 10.6165 55.5684 10.9902C 55.8327 11.3594 56.2109 11.5439 56.7031 11.5439C 57.1816 11.5439 57.5553 11.3617 57.8242 10.9971C 58.0931 10.6279 58.2275 10.04 58.2275 9.2334C 58.2275 8.54525 58.0931 8.01204 57.8242 7.63379C 57.5553 7.25553 57.1771 7.06641 56.6895 7.06641C 56.2064 7.06641 55.8327 7.25553 55.5684 7.63379C 55.304 8.00749 55.1719 8.58854 55.1719 9.37695ZM 63.2383 5.60352L 63.2998 6.45801C 63.8285 5.7972 64.5371 5.4668 65.4258 5.4668C 66.2096 5.4668 66.793 5.69694 67.1758 6.15723C 67.5586 6.61751 67.7546 7.30566 67.7637 8.22168L 67.7637 13L 65.7881 13L 65.7881 8.26953C 65.7881 7.85026 65.6969 7.5472 65.5146 7.36035C 65.3324 7.16895 65.0293 7.07324 64.6055 7.07324C 64.0495 7.07324 63.6325 7.31022 63.3545 7.78418L 63.3545 13L 61.3789 13L 61.3789 5.60352L 63.2383 5.60352Z" transform="translate(91 11)" fill="black"/>
</g>
<g id="Sample">
<path d="M 6.33594 10.3887C 6.33594 10.0013 6.19922 9.70508 5.92578 9.5C 5.65234 9.29036 5.16016 9.07161 4.44922 8.84375C 3.73828 8.61133 3.17546 8.38346 2.76074 8.16016C 1.63053 7.54948 1.06543 6.72689 1.06543 5.69238C 1.06543 5.15462 1.21582 4.67611 1.5166 4.25684C 1.82194 3.83301 2.25716 3.5026 2.82227 3.26562C 3.39193 3.02865 4.02995 2.91016 4.73633 2.91016C 5.44727 2.91016 6.08073 3.04004 6.63672 3.2998C 7.19271 3.55501 7.62337 3.91732 7.92871 4.38672C 8.23861 4.85612 8.39355 5.38932 8.39355 5.98633L 6.34277 5.98633C 6.34277 5.5306 6.19922 5.17741 5.91211 4.92676C 5.625 4.67155 5.22168 4.54395 4.70215 4.54395C 4.20085 4.54395 3.8112 4.65104 3.5332 4.86523C 3.25521 5.07487 3.11621 5.35286 3.11621 5.69922C 3.11621 6.02279 3.27799 6.29395 3.60156 6.5127C 3.92969 6.73145 4.41048 6.93652 5.04395 7.12793C 6.21061 7.47884 7.06055 7.91406 7.59375 8.43359C 8.12695 8.95312 8.39355 9.60026 8.39355 10.375C 8.39355 11.2363 8.06771 11.9131 7.41602 12.4053C 6.76432 12.8929 5.88704 13.1367 4.78418 13.1367C 4.01855 13.1367 3.32129 12.9977 2.69238 12.7197C 2.06348 12.4372 1.58268 12.0521 1.25 11.5645C 0.921875 11.0768 0.757812 10.5117 0.757812 9.86914L 2.81543 9.86914C 2.81543 10.9674 3.47168 11.5166 4.78418 11.5166C 5.27181 11.5166 5.65234 11.4186 5.92578 11.2227C 6.19922 11.0221 6.33594 10.7441 6.33594 10.3887ZM 13.9443 13C 13.8532 12.8223 13.7871 12.6012 13.7461 12.3369C 13.2676 12.8701 12.6455 13.1367 11.8799 13.1367C 11.1553 13.1367 10.5537 12.9271 10.0752 12.5078C 9.60124 12.0885 9.36426 11.5599 9.36426 10.9219C 9.36426 10.138 9.65365 9.53646 10.2324 9.11719C 10.8158 8.69792 11.6566 8.486 12.7549 8.48145L 13.6641 8.48145L 13.6641 8.05762C 13.6641 7.71582 13.5752 7.44238 13.3975 7.2373C 13.2243 7.03223 12.9486 6.92969 12.5703 6.92969C 12.2376 6.92969 11.9756 7.00944 11.7842 7.16895C 11.5973 7.32845 11.5039 7.5472 11.5039 7.8252L 9.52832 7.8252C 9.52832 7.39681 9.66048 7.00033 9.9248 6.63574C 10.1891 6.27116 10.5628 5.98633 11.0459 5.78125C 11.529 5.57161 12.0713 5.4668 12.6729 5.4668C 13.5843 5.4668 14.3066 5.69694 14.8398 6.15723C 15.3776 6.61296 15.6465 7.25553 15.6465 8.08496L 15.6465 11.291C 15.651 11.9928 15.749 12.5238 15.9404 12.8838L 15.9404 13L 13.9443 13ZM 12.3105 11.626C 12.6022 11.626 12.8711 11.5622 13.1172 11.4346C 13.3633 11.3024 13.5456 11.127 13.6641 10.9082L 13.6641 9.63672L 12.9258 9.63672C 11.9368 9.63672 11.4105 9.97852 11.3467 10.6621L 11.3398 10.7783C 11.3398 11.0244 11.4264 11.2272 11.5996 11.3867C 11.7728 11.5462 12.0098 11.626 12.3105 11.626ZM 19.0166 5.60352L 19.0781 6.43066C 19.6022 5.78809 20.3109 5.4668 21.2041 5.4668C 22.1566 5.4668 22.8105 5.84277 23.166 6.59473C 23.6855 5.84277 24.4261 5.4668 25.3877 5.4668C 26.1898 5.4668 26.7868 5.7015 27.1787 6.1709C 27.5706 6.63574 27.7666 7.33757 27.7666 8.27637L 27.7666 13L 25.7842 13L 25.7842 8.2832C 25.7842 7.86393 25.7021 7.55859 25.5381 7.36719C 25.374 7.17122 25.0846 7.07324 24.6699 7.07324C 24.0775 7.07324 23.6673 7.35579 23.4395 7.9209L 23.4463 13L 21.4707 13L 21.4707 8.29004C 21.4707 7.86165 21.3864 7.55176 21.2178 7.36035C 21.0492 7.16895 20.762 7.07324 20.3564 7.07324C 19.7959 7.07324 19.3903 7.30566 19.1396 7.77051L 19.1396 13L 17.1641 13L 17.1641 5.60352L 19.0166 5.60352ZM 35.9492 9.37012C 35.9492 10.5094 35.6895 11.4232 35.1699 12.1113C 34.6549 12.7949 33.9577 13.1367 33.0781 13.1367C 32.3307 13.1367 31.7269 12.877 31.2666 12.3574L 31.2666 15.8438L 29.291 15.8438L 29.291 5.60352L 31.123 5.60352L 31.1914 6.32812C 31.6699 5.75391 32.2943 5.4668 33.0645 5.4668C 33.9759 5.4668 34.6846 5.80404 35.1904 6.47852C 35.6963 7.15299 35.9492 8.08268 35.9492 9.26758L 35.9492 9.37012ZM 33.9736 9.22656C 33.9736 8.53841 33.8506 8.00749 33.6045 7.63379C 33.363 7.26009 33.0098 7.07324 32.5449 7.07324C 31.9251 7.07324 31.499 7.31022 31.2666 7.78418L 31.2666 10.8125C 31.5081 11.3001 31.9388 11.5439 32.5586 11.5439C 33.502 11.5439 33.9736 10.7715 33.9736 9.22656ZM 39.2646 13L 37.2822 13L 37.2822 2.5L 39.2646 2.5L 39.2646 13ZM 44.3027 13.1367C 43.2181 13.1367 42.334 12.804 41.6504 12.1387C 40.9714 11.4733 40.6318 10.5869 40.6318 9.47949L 40.6318 9.28809C 40.6318 8.54525 40.7754 7.88216 41.0625 7.29883C 41.3496 6.71094 41.7552 6.25977 42.2793 5.94531C 42.8079 5.6263 43.4095 5.4668 44.084 5.4668C 45.0957 5.4668 45.891 5.78581 46.4697 6.42383C 47.0531 7.06185 47.3447 7.96647 47.3447 9.1377L 47.3447 9.94434L 42.6348 9.94434C 42.6986 10.4274 42.89 10.8148 43.209 11.1064C 43.5326 11.3981 43.9404 11.5439 44.4326 11.5439C 45.1937 11.5439 45.7884 11.2682 46.2168 10.7168L 47.1875 11.8037C 46.8913 12.223 46.4902 12.5511 45.9844 12.7881C 45.4785 13.0205 44.918 13.1367 44.3027 13.1367ZM 44.0771 7.06641C 43.6852 7.06641 43.3662 7.19857 43.1201 7.46289C 42.8786 7.72721 42.7236 8.10547 42.6553 8.59766L 45.4033 8.59766L 45.4033 8.44043C 45.3942 8.00293 45.2757 7.66569 45.0479 7.42871C 44.82 7.18717 44.4964 7.06641 44.0771 7.06641Z" transform="translate(192 11)" fill="black"/>
</g>
<g id="Mean">
<path d="M 3.97266 3.04688L 6.5293 10.2656L 9.07227 3.04688L 11.7656 3.04688L 11.7656 13L 9.70801 13L 9.70801 10.2793L 9.91309 5.58301L 7.22656 13L 5.81836 13L 3.13867 5.58984L 3.34375 10.2793L 3.34375 13L 1.29297 13L 1.29297 3.04688L 3.97266 3.04688ZM 16.8311 13.1367C 15.7464 13.1367 14.8623 12.804 14.1787 12.1387C 13.4997 11.4733 13.1602 10.5869 13.1602 9.47949L 13.1602 9.28809C 13.1602 8.54525 13.3037 7.88216 13.5908 7.29883C 13.8779 6.71094 14.2835 6.25977 14.8076 5.94531C 15.3363 5.6263 15.9378 5.4668 16.6123 5.4668C 17.624 5.4668 18.4193 5.78581 18.998 6.42383C 19.5814 7.06185 19.873 7.96647 19.873 9.1377L 19.873 9.94434L 15.1631 9.94434C 15.2269 10.4274 15.4183 10.8148 15.7373 11.1064C 16.0609 11.3981 16.4688 11.5439 16.9609 11.5439C 17.722 11.5439 18.3167 11.2682 18.7451 10.7168L 19.7158 11.8037C 19.4196 12.223 19.0186 12.5511 18.5127 12.7881C 18.0068 13.0205 17.4463 13.1367 16.8311 13.1367ZM 16.6055 7.06641C 16.2135 7.06641 15.8945 7.19857 15.6484 7.46289C 15.4069 7.72721 15.252 8.10547 15.1836 8.59766L 17.9316 8.59766L 17.9316 8.44043C 17.9225 8.00293 17.804 7.66569 17.5762 7.42871C 17.3483 7.18717 17.0247 7.06641 16.6055 7.06641ZM 25.2871 13C 25.196 12.8223 25.1299 12.6012 25.0889 12.3369C 24.6104 12.8701 23.9883 13.1367 23.2227 13.1367C 22.498 13.1367 21.8965 12.9271 21.418 12.5078C 20.944 12.0885 20.707 11.5599 20.707 10.9219C 20.707 10.138 20.9964 9.53646 21.5752 9.11719C 22.1585 8.69792 22.9993 8.486 24.0977 8.48145L 25.0068 8.48145L 25.0068 8.05762C 25.0068 7.71582 24.918 7.44238 24.7402 7.2373C 24.5671 7.03223 24.2913 6.92969 23.9131 6.92969C 23.5804 6.92969 23.3184 7.00944 23.127 7.16895C 22.9401 7.32845 22.8467 7.5472 22.8467 7.8252L 20.8711 7.8252C 20.8711 7.39681 21.0033 7.00033 21.2676 6.63574C 21.5319 6.27116 21.9056 5.98633 22.3887 5.78125C 22.8717 5.57161 23.4141 5.4668 24.0156 5.4668C 24.9271 5.4668 25.6494 5.69694 26.1826 6.15723C 26.7204 6.61296 26.9893 7.25553 26.9893 8.08496L 26.9893 11.291C 26.9938 11.9928 27.0918 12.5238 27.2832 12.8838L 27.2832 13L 25.2871 13ZM 23.6533 11.626C 23.945 11.626 24.2139 11.5622 24.46 11.4346C 24.7061 11.3024 24.8883 11.127 25.0068 10.9082L 25.0068 9.63672L 24.2686 9.63672C 23.2796 9.63672 22.7533 9.97852 22.6895 10.6621L 22.6826 10.7783C 22.6826 11.0244 22.7692 11.2272 22.9424 11.3867C 23.1156 11.5462 23.3525 11.626 23.6533 11.626ZM 30.3252 5.60352L 30.3867 6.45801C 30.9154 5.7972 31.624 5.4668 32.5127 5.4668C 33.2965 5.4668 33.8799 5.69694 34.2627 6.15723C 34.6455 6.61751 34.8415 7.30566 34.8506 8.22168L 34.8506 13L 32.875 13L 32.875 8.26953C 32.875 7.85026 32.7839 7.5472 32.6016 7.36035C 32.4193 7.16895 32.1162 7.07324 31.6924 7.07324C 31.1364 7.07324 30.7194 7.31022 30.4414 7.78418L 30.4414 13L 28.4658 13L 28.4658 5.60352L 30.3252 5.60352Z" transform="translate(22 48)" fill="black"/>
</g>
<g id="Number of values">
<path d="M 12.7715 13L 10.7207 13L 6.72852 6.45117L 6.72852 13L 4.67773 13L 4.67773 3.04688L 6.72852 3.04688L 10.7275 9.60938L 10.7275 3.04688L 12.7715 3.04688L 12.7715 13ZM 18.8623 12.248C 18.3747 12.8405 17.7002 13.1367 16.8389 13.1367C 16.0459 13.1367 15.4398 12.9089 15.0205 12.4531C 14.6058 11.9974 14.3939 11.3298 14.3848 10.4502L 14.3848 5.60352L 16.3604 5.60352L 16.3604 10.3818C 16.3604 11.152 16.7113 11.5371 17.4131 11.5371C 18.083 11.5371 18.5433 11.3047 18.7939 10.8398L 18.7939 5.60352L 20.7764 5.60352L 20.7764 13L 18.917 13L 18.8623 12.248ZM 24.1191 5.60352L 24.1807 6.43066C 24.7048 5.78809 25.4134 5.4668 26.3066 5.4668C 27.2591 5.4668 27.9131 5.84277 28.2686 6.59473C 28.7881 5.84277 29.5286 5.4668 30.4902 5.4668C 31.2923 5.4668 31.8893 5.7015 32.2812 6.1709C 32.6732 6.63574 32.8691 7.33757 32.8691 8.27637L 32.8691 13L 30.8867 13L 30.8867 8.2832C 30.8867 7.86393 30.8047 7.55859 30.6406 7.36719C 30.4766 7.17122 30.1872 7.07324 29.7725 7.07324C 29.18 7.07324 28.7699 7.35579 28.542 7.9209L 28.5488 13L 26.5732 13L 26.5732 8.29004C 26.5732 7.86165 26.4889 7.55176 26.3203 7.36035C 26.1517 7.16895 25.8646 7.07324 25.459 7.07324C 24.8984 7.07324 24.4928 7.30566 24.2422 7.77051L 24.2422 13L 22.2666 13L 22.2666 5.60352L 24.1191 5.60352ZM 41.0586 9.37012C 41.0586 10.555 40.8057 11.4801 40.2998 12.1455C 39.7939 12.8063 39.0876 13.1367 38.1807 13.1367C 37.3786 13.1367 36.7383 12.8291 36.2598 12.2139L 36.1709 13L 34.3936 13L 34.3936 2.5L 36.3691 2.5L 36.3691 6.2666C 36.8249 5.7334 37.4242 5.4668 38.167 5.4668C 39.0693 5.4668 39.7757 5.79948 40.2861 6.46484C 40.8011 7.12565 41.0586 8.05762 41.0586 9.26074L 41.0586 9.37012ZM 39.083 9.22656C 39.083 8.47917 38.9645 7.93457 38.7275 7.59277C 38.4906 7.24642 38.1374 7.07324 37.668 7.07324C 37.0391 7.07324 36.6061 7.33073 36.3691 7.8457L 36.3691 10.7646C 36.6107 11.2842 37.0482 11.5439 37.6816 11.5439C 38.3197 11.5439 38.7389 11.2295 38.9395 10.6006C 39.0352 10.2998 39.083 9.8418 39.083 9.22656ZM 45.6865 13.1367C 44.6019 13.1367 43.7178 12.804 43.0342 12.1387C 42.3551 11.4733 42.0156 10.5869 42.0156 9.47949L 42.0156 9.28809C 42.0156 8.54525 42.1592 7.88216 42.4463 7.29883C 42.7334 6.71094 43.139 6.25977 43.6631 5.94531C 44.1917 5.6263 44.7933 5.4668 45.4678 5.4668C 46.4795 5.4668 47.2747 5.78581 47.8535 6.42383C 48.4368 7.06185 48.7285 7.96647 48.7285 9.1377L 48.7285 9.94434L 44.0186 9.94434C 44.0824 10.4274 44.2738 10.8148 44.5928 11.1064C 44.9163 11.3981 45.3242 11.5439 45.8164 11.5439C 46.5775 11.5439 47.1722 11.2682 47.6006 10.7168L 48.5713 11.8037C 48.2751 12.223 47.874 12.5511 47.3682 12.7881C 46.8623 13.0205 46.3018 13.1367 45.6865 13.1367ZM 45.4609 7.06641C 45.069 7.06641 44.75 7.19857 44.5039 7.46289C 44.2624 7.72721 44.1074 8.10547 44.0391 8.59766L 46.7871 8.59766L 46.7871 8.44043C 46.778 8.00293 46.6595 7.66569 46.4316 7.42871C 46.2038 7.18717 45.8802 7.06641 45.4609 7.06641ZM 54.0127 7.45605C 53.7438 7.4196 53.5068 7.40137 53.3018 7.40137C 52.5544 7.40137 52.0645 7.6543 51.832 8.16016L 51.832 13L 49.8564 13L 49.8564 5.60352L 51.7227 5.60352L 51.7773 6.48535C 52.1738 5.80632 52.723 5.4668 53.4248 5.4668C 53.6436 5.4668 53.8486 5.49642 54.04 5.55566L 54.0127 7.45605ZM 0.835938 25.2334C 0.835938 24.4997 0.977214 23.8457 1.25977 23.2715C 1.54232 22.6973 1.94792 22.2529 2.47656 21.9385C 3.00977 21.624 3.62728 21.4668 4.3291 21.4668C 5.32715 21.4668 6.14062 21.7721 6.76953 22.3828C 7.40299 22.9935 7.75618 23.8229 7.8291 24.8711L 7.84277 25.377C 7.84277 26.5117 7.52604 27.4232 6.89258 28.1113C 6.25911 28.7949 5.40918 29.1367 4.34277 29.1367C 3.27637 29.1367 2.42415 28.7949 1.78613 28.1113C 1.15267 27.4277 0.835938 26.498 0.835938 25.3223L 0.835938 25.2334ZM 2.81152 25.377C 2.81152 26.0788 2.94368 26.6165 3.20801 26.9902C 3.47233 27.3594 3.85059 27.5439 4.34277 27.5439C 4.82129 27.5439 5.19499 27.3617 5.46387 26.9971C 5.73275 26.6279 5.86719 26.04 5.86719 25.2334C 5.86719 24.5452 5.73275 24.012 5.46387 23.6338C 5.19499 23.2555 4.81673 23.0664 4.3291 23.0664C 3.84603 23.0664 3.47233 23.2555 3.20801 23.6338C 2.94368 24.0075 2.81152 24.5885 2.81152 25.377ZM 9.59961 29L 9.59961 23.0527L 8.49902 23.0527L 8.49902 21.6035L 9.59961 21.6035L 9.59961 20.9746C 9.59961 20.1452 9.83659 19.5026 10.3105 19.0469C 10.7891 18.5866 11.4567 18.3564 12.3135 18.3564C 12.5869 18.3564 12.9219 18.402 13.3184 18.4932L 13.2979 20.0244C 13.1338 19.9834 12.9333 19.9629 12.6963 19.9629C 11.9535 19.9629 11.582 20.3115 11.582 21.0088L 11.582 21.6035L 13.0518 21.6035L 13.0518 23.0527L 11.582 23.0527L 11.582 29L 9.59961 29ZM 20.332 26.5869L 21.7061 21.6035L 23.7705 21.6035L 21.2754 29L 19.3887 29L 16.8936 21.6035L 18.958 21.6035L 20.332 26.5869ZM 28.8223 29C 28.7311 28.8223 28.665 28.6012 28.624 28.3369C 28.1455 28.8701 27.5234 29.1367 26.7578 29.1367C 26.0332 29.1367 25.4316 28.9271 24.9531 28.5078C 24.4792 28.0885 24.2422 27.5599 24.2422 26.9219C 24.2422 26.138 24.5316 25.5365 25.1104 25.1172C 25.6937 24.6979 26.5345 24.486 27.6328 24.4814L 28.542 24.4814L 28.542 24.0576C 28.542 23.7158 28.4531 23.4424 28.2754 23.2373C 28.1022 23.0322 27.8265 22.9297 27.4482 22.9297C 27.1156 22.9297 26.8535 23.0094 26.6621 23.1689C 26.4753 23.3285 26.3818 23.5472 26.3818 23.8252L 24.4062 23.8252C 24.4062 23.3968 24.5384 23.0003 24.8027 22.6357C 25.0671 22.2712 25.4408 21.9863 25.9238 21.7812C 26.4069 21.5716 26.9492 21.4668 27.5508 21.4668C 28.4622 21.4668 29.1846 21.6969 29.7178 22.1572C 30.2555 22.613 30.5244 23.2555 30.5244 24.085L 30.5244 27.291C 30.529 27.9928 30.627 28.5238 30.8184 28.8838L 30.8184 29L 28.8223 29ZM 27.1885 27.626C 27.4801 27.626 27.749 27.5622 27.9951 27.4346C 28.2412 27.3024 28.4235 27.127 28.542 26.9082L 28.542 25.6367L 27.8037 25.6367C 26.8148 25.6367 26.2884 25.9785 26.2246 26.6621L 26.2178 26.7783C 26.2178 27.0244 26.3044 27.2272 26.4775 27.3867C 26.6507 27.5462 26.8877 27.626 27.1885 27.626ZM 34.127 29L 32.1445 29L 32.1445 18.5L 34.127 18.5L 34.127 29ZM 40.1904 28.248C 39.7028 28.8405 39.0283 29.1367 38.167 29.1367C 37.374 29.1367 36.7679 28.9089 36.3486 28.4531C 35.9339 27.9974 35.722 27.3298 35.7129 26.4502L 35.7129 21.6035L 37.6885 21.6035L 37.6885 26.3818C 37.6885 27.152 38.0394 27.5371 38.7412 27.5371C 39.4111 27.5371 39.8714 27.3047 40.1221 26.8398L 40.1221 21.6035L 42.1045 21.6035L 42.1045 29L 40.2451 29L 40.1904 28.248ZM 46.999 29.1367C 45.9144 29.1367 45.0303 28.804 44.3467 28.1387C 43.6676 27.4733 43.3281 26.5869 43.3281 25.4795L 43.3281 25.2881C 43.3281 24.5452 43.4717 23.8822 43.7588 23.2988C 44.0459 22.7109 44.4515 22.2598 44.9756 21.9453C 45.5042 21.6263 46.1058 21.4668 46.7803 21.4668C 47.792 21.4668 48.5872 21.7858 49.166 22.4238C 49.7493 23.0618 50.041 23.9665 50.041 25.1377L 50.041 25.9443L 45.3311 25.9443C 45.3949 26.4274 45.5863 26.8148 45.9053 27.1064C 46.2288 27.3981 46.6367 27.5439 47.1289 27.5439C 47.89 27.5439 48.4847 27.2682 48.9131 26.7168L 49.8838 27.8037C 49.5876 28.223 49.1865 28.5511 48.6807 28.7881C 48.1748 29.0205 47.6143 29.1367 46.999 29.1367ZM 46.7734 23.0664C 46.3815 23.0664 46.0625 23.1986 45.8164 23.4629C 45.5749 23.7272 45.4199 24.1055 45.3516 24.5977L 48.0996 24.5977L 48.0996 24.4404C 48.0905 24.0029 47.972 23.6657 47.7441 23.4287C 47.5163 23.1872 47.1927 23.0664 46.7734 23.0664ZM 55.1748 26.9561C 55.1748 26.7145 55.054 26.5254 54.8125 26.3887C 54.5755 26.2474 54.1927 26.1221 53.6641 26.0127C 51.9049 25.6436 51.0254 24.8962 51.0254 23.7705C 51.0254 23.1143 51.2965 22.5674 51.8389 22.1299C 52.3857 21.6878 53.099 21.4668 53.9785 21.4668C 54.9173 21.4668 55.667 21.6878 56.2275 22.1299C 56.7926 22.5719 57.0752 23.1462 57.0752 23.8525L 55.0996 23.8525C 55.0996 23.57 55.0085 23.3376 54.8262 23.1553C 54.6439 22.9684 54.359 22.875 53.9717 22.875C 53.639 22.875 53.3815 22.9502 53.1992 23.1006C 53.0169 23.251 52.9258 23.4424 52.9258 23.6748C 52.9258 23.8936 53.0283 24.0713 53.2334 24.208C 53.443 24.3402 53.7939 24.4564 54.2861 24.5566C 54.7783 24.6523 55.193 24.7617 55.5303 24.8848C 56.5739 25.2676 57.0957 25.9307 57.0957 26.874C 57.0957 27.5485 56.8063 28.0954 56.2275 28.5146C 55.6488 28.9294 54.9014 29.1367 53.9854 29.1367C 53.3656 29.1367 52.8141 29.0273 52.3311 28.8086C 51.8525 28.5853 51.4766 28.2822 51.2031 27.8994C 50.9297 27.512 50.793 27.0951 50.793 26.6484L 52.666 26.6484C 52.6842 26.9993 52.8141 27.2682 53.0557 27.4551C 53.2972 27.6419 53.6208 27.7354 54.0264 27.7354C 54.4046 27.7354 54.6895 27.6647 54.8809 27.5234C 55.0768 27.3776 55.1748 27.1885 55.1748 26.9561Z" transform="translate(11 86)" fill="black"/>
</g>
<g id="&#206;&#188;">
<path d="M 3.29688 6.54688L 2.49219 11.4219C 2.4401 11.8594 2.42188 12.2292 2.4375 12.5312C 2.48958 13.4844 2.89583 13.9688 3.65625 13.9844C 4.60938 14.0156 5.33854 13.6224 5.84375 12.8047L 6.92969 6.54688L 8.35156 6.54688L 6.88281 15L 5.61719 15L 5.76562 14.1016C 5.1875 14.8203 4.47656 15.1745 3.63281 15.1641C 2.92969 15.1641 2.36979 14.9688 1.95312 14.5781L 1.25781 18.25L -0.148438 18.25L 1.88281 6.54688L 3.29688 6.54688Z" transform="translate(121 46)" fill="black"/>
</g>
<g id="N">
<path d="M 9.38281 15L 7.96094 15L 3.89844 6.17188L 2.36719 15L 0.890625 15L 2.86719 3.625L 4.28906 3.625L 8.35938 12.4922L 9.89844 3.625L 11.3594 3.625L 9.38281 15Z" transform="translate(118 93)" fill="black"/>
</g>
<g id="n">
<path d="M 3.22656 6.53906L 3.02344 7.60938C 3.78385 6.77604 4.64844 6.36979 5.61719 6.39062C 6.41406 6.41146 7.0026 6.6875 7.38281 7.21875C 7.76302 7.75 7.90365 8.4974 7.80469 9.46094L 6.88281 15L 5.46875 15L 6.39844 9.4375C 6.42969 9.18229 6.43229 8.94531 6.40625 8.72656C 6.31771 7.9974 5.88802 7.625 5.11719 7.60938C 4.26823 7.59375 3.52344 8.04688 2.88281 8.96875L 1.83594 15L 0.421875 15L 1.89062 6.54688L 3.22656 6.53906Z" transform="translate(199 93)" fill="black"/>
</g>
<g id="x">
<path d="M 3.98438 9.625L 6.28125 6.54688L 8.01562 6.54688L 4.625 10.7969L 6.6875 15L 5.14844 15L 3.75 11.8438L 1.36719 15L -0.359375 15L 3.13281 10.6562L 1.13281 6.54688L 2.67969 6.54688L 3.98438 9.625Z" transform="translate(179 46)" fill="black"/>
</g>
<g id="Line 6.2">
<line y1="-0.5" x2="7" y2="-0.5" transform="translate(180 51)" stroke="black"/>
</g>
<g id="x_2">
<path d="M 3.98438 9.625L 6.28125 6.54688L 8.01562 6.54688L 4.625 10.7969L 6.6875 15L 5.14844 15L 3.75 11.8438L 1.36719 15L -0.359375 15L 3.13281 10.6562L 1.13281 6.54688L 2.67969 6.54688L 3.98438 9.625Z" transform="translate(195 46)" fill="black"/>
</g>
<g id="Line 6.3">
<line y1="-0.5" x2="7" y2="-0.5" transform="translate(196 51)" stroke="black"/>
</g>
<g id="Line 6.4">
<line y1="-0.5" x2="8" y2="-0.5" transform="translate(218 48)" stroke="black"/>
</g>
<g id=",">
<path d="M 0.867188 17.2734L 0.0546875 16.6875C 0.658854 15.9427 1.03385 15.2031 1.17969 14.4688L 1.38281 13.2891L 2.76562 13.2891L 2.60156 14.3438C 2.41406 15.5312 1.83594 16.5078 0.867188 17.2734Z" transform="translate(187 46)" fill="black"/>
</g>
<g id="n_2">
<path d="M 2.2041 3.71191L 2.07715 4.38086C 2.55241 3.86003 3.09277 3.60612 3.69824 3.61914C 4.19629 3.63216 4.56413 3.80469 4.80176 4.13672C 5.03939 4.46875 5.12728 4.93587 5.06543 5.53809L 4.48926 9L 3.60547 9L 4.18652 5.52344C 4.20605 5.36393 4.20768 5.21582 4.19141 5.0791C 4.13607 4.62337 3.86751 4.39062 3.38574 4.38086C 2.85514 4.37109 2.38965 4.6543 1.98926 5.23047L 1.33496 9L 0.451172 9L 1.36914 3.7168L 2.2041 3.71191Z" transform="translate(202 54)" fill="black"/>
</g>
<g id=", X, M">
<path d="M 0.164062 17.2734L -0.648438 16.6875C -0.0442708 15.9427 0.330729 15.2031 0.476562 14.4688L 0.679688 13.2891L 2.0625 13.2891L 1.89844 14.3438C 1.71094 15.5312 1.13281 16.5078 0.164062 17.2734ZM 12.4844 7.97656L 15.8047 3.625L 17.6172 3.625L 13.1875 9.33594L 15.8359 15L 14.1875 15L 12.1719 10.5703L 8.75 15L 6.9375 15L 11.4609 9.19531L 8.88281 3.625L 10.5078 3.625L 12.4844 7.97656ZM 17.0234 17.2734L 16.2109 16.6875C 16.8151 15.9427 17.1901 15.2031 17.3359 14.4688L 17.5391 13.2891L 18.9219 13.2891L 18.7578 14.3438C 18.5703 15.5312 17.9922 16.5078 17.0234 17.2734ZM 28.4297 3.625L 30.4219 12.8906L 35.6406 3.625L 37.5703 3.625L 35.5938 15L 34.1328 15L 34.9141 10.5L 35.8438 5.92188L 30.6875 15L 29.5625 15L 27.5312 5.74219L 26.8281 10.6484L 26.0703 15L 24.6016 15L 26.5781 3.625L 28.4297 3.625Z" transform="translate(209 46)" fill="black"/>
</g>
</g>
</svg>

