<svg width="306" height="156" viewBox="0 0 306 156" version="1.1" xmlns="http://www.w3.org/2000/svg" xmlns:xlink="http://www.w3.org/1999/xlink">
<g id="Canvas" fill="none">
<rect width="306" height="156" fill="white"/>
<line id="Line" y1="-1" x2="305.999" y2="-1" transform="translate(-3.05176e-05 120.889)" stroke-width="2" stroke="black"/>
<line id="Line 2" y1="-1" x2="11" y2="-1" transform="matrix(0 1 -1 0 10 116)" stroke-width="2" stroke="black"/>
<line id="Line 2.1" y1="-1" x2="10" y2="-1" transform="matrix(0 1 -1 0 294 116)" stroke-width="2" stroke="black"/>
<path id="Min" d="M 3.05859 2.46875L 5.25 8.65625L 7.42969 2.46875L 9.73828 2.46875L 9.73828 11L 7.97461 11L 7.97461 8.66797L 8.15039 4.64258L 5.84766 11L 4.64062 11L 2.34375 4.64844L 2.51953 8.66797L 2.51953 11L 0.761719 11L 0.761719 2.46875L 3.05859 2.46875ZM 12.9492 11L 11.25 11L 11.25 4.66016L 12.9492 4.66016L 12.9492 11ZM 11.1504 3.01953C 11.1504 2.76563 11.2344 2.55664 11.4023 2.39258C 11.5742 2.22852 11.8066 2.14648 12.0996 2.14648C 12.3887 2.14648 12.6191 2.22852 12.791 2.39258C 12.9629 2.55664 13.0488 2.76563 13.0488 3.01953C 13.0488 3.27734 12.9609 3.48828 12.7852 3.65234C 12.6133 3.81641 12.3848 3.89844 12.0996 3.89844C 11.8145 3.89844 11.584 3.81641 11.4082 3.65234C 11.2363 3.48828 11.1504 3.27734 11.1504 3.01953ZM 15.9082 4.66016L 15.9609 5.39258C 16.4141 4.82617 17.0215 4.54297 17.7832 4.54297C 18.4551 4.54297 18.9551 4.74023 19.2832 5.13477C 19.6113 5.5293 19.7793 6.11914 19.7871 6.9043L 19.7871 11L 18.0938 11L 18.0938 6.94531C 18.0938 6.58594 18.0156 6.32617 17.8594 6.16602C 17.7031 6.00195 17.4434 5.91992 17.0801 5.91992C 16.6035 5.91992 16.2461 6.12305 16.0078 6.5293L 16.0078 11L 14.3145 11L 14.3145 4.66016L 15.9082 4.66016Z" transform="translate(0 130)" fill="black"/>
<path id="Max" d="M 3.05859 2.46875L 5.25 8.65625L 7.42969 2.46875L 9.73828 2.46875L 9.73828 11L 7.97461 11L 7.97461 8.66797L 8.15039 4.64258L 5.84766 11L 4.64062 11L 2.34375 4.64844L 2.51953 8.66797L 2.51953 11L 0.761719 11L 0.761719 2.46875L 3.05859 2.46875ZM 14.8359 11C 14.7578 10.8477 14.7012 10.6582 14.666 10.4316C 14.2559 10.8887 13.7227 11.1172 13.0664 11.1172C 12.4453 11.1172 11.9297 10.9375 11.5195 10.5781C 11.1133 10.2188 10.9102 9.76562 10.9102 9.21875C 10.9102 8.54688 11.1582 8.03125 11.6543 7.67188C 12.1543 7.3125 12.875 7.13086 13.8164 7.12695L 14.5957 7.12695L 14.5957 6.76367C 14.5957 6.4707 14.5195 6.23633 14.3672 6.06055C 14.2188 5.88477 13.9824 5.79688 13.6582 5.79688C 13.373 5.79688 13.1484 5.86523 12.9844 6.00195C 12.8242 6.13867 12.7441 6.32617 12.7441 6.56445L 11.0508 6.56445C 11.0508 6.19727 11.1641 5.85742 11.3906 5.54492C 11.6172 5.23242 11.9375 4.98828 12.3516 4.8125C 12.7656 4.63281 13.2305 4.54297 13.7461 4.54297C 14.5273 4.54297 15.1465 4.74023 15.6035 5.13477C 16.0645 5.52539 16.2949 6.07617 16.2949 6.78711L 16.2949 9.53516C 16.2988 10.1367 16.3828 10.5918 16.5469 10.9004L 16.5469 11L 14.8359 11ZM 13.4355 9.82227C 13.6855 9.82227 13.916 9.76758 14.127 9.6582C 14.3379 9.54492 14.4941 9.39453 14.5957 9.20703L 14.5957 8.11719L 13.9629 8.11719C 13.1152 8.11719 12.6641 8.41016 12.6094 8.99609L 12.6035 9.0957C 12.6035 9.30664 12.6777 9.48047 12.8262 9.61719C 12.9746 9.75391 13.1777 9.82227 13.4355 9.82227ZM 20.0098 6.55273L 21.0762 4.66016L 22.8867 4.66016L 21.082 7.76562L 22.9629 11L 21.1465 11L 20.0156 9.00781L 18.8906 11L 17.0684 11L 18.9492 7.76562L 17.1504 4.66016L 18.9668 4.66016L 20.0098 6.55273Z" transform="translate(282 130)" fill="black"/>
<line id="Line 3" y1="-1" x2="104" y2="-1" transform="matrix(0 1 -1 0 147 16)" stroke-width="2" stroke-dasharray="2 2" stroke="#009E73"/>
<path id="Mean Median" d="M 8.47656 2.46875L 10.668 8.65625L 12.8477 2.46875L 15.1562 2.46875L 15.1562 11L 13.3926 11L 13.3926 8.66797L 13.5684 4.64258L 11.2656 11L 10.0586 11L 7.76172 4.64844L 7.9375 8.66797L 7.9375 11L 6.17969 11L 6.17969 2.46875L 8.47656 2.46875ZM 19.498 11.1172C 18.5684 11.1172 17.8105 10.832 17.2246 10.2617C 16.6426 9.69141 16.3516 8.93164 16.3516 7.98242L 16.3516 7.81836C 16.3516 7.18164 16.4746 6.61328 16.7207 6.11328C 16.9668 5.60938 17.3145 5.22266 17.7637 4.95312C 18.2168 4.67969 18.7324 4.54297 19.3105 4.54297C 20.1777 4.54297 20.8594 4.81641 21.3555 5.36328C 21.8555 5.91016 22.1055 6.68555 22.1055 7.68945L 22.1055 8.38086L 18.0684 8.38086C 18.123 8.79492 18.2871 9.12695 18.5605 9.37695C 18.8379 9.62695 19.1875 9.75195 19.6094 9.75195C 20.2617 9.75195 20.7715 9.51562 21.1387 9.04297L 21.9707 9.97461C 21.7168 10.334 21.373 10.6152 20.9395 10.8184C 20.5059 11.0176 20.0254 11.1172 19.498 11.1172ZM 19.3047 5.91406C 18.9688 5.91406 18.6953 6.02734 18.4844 6.25391C 18.2773 6.48047 18.1445 6.80469 18.0859 7.22656L 20.4414 7.22656L 20.4414 7.0918C 20.4336 6.7168 20.332 6.42773 20.1367 6.22461C 19.9414 6.01758 19.6641 5.91406 19.3047 5.91406ZM 26.7461 11C 26.668 10.8477 26.6113 10.6582 26.5762 10.4316C 26.166 10.8887 25.6328 11.1172 24.9766 11.1172C 24.3555 11.1172 23.8398 10.9375 23.4297 10.5781C 23.0234 10.2188 22.8203 9.76562 22.8203 9.21875C 22.8203 8.54688 23.0684 8.03125 23.5645 7.67188C 24.0645 7.3125 24.7852 7.13086 25.7266 7.12695L 26.5059 7.12695L 26.5059 6.76367C 26.5059 6.4707 26.4297 6.23633 26.2773 6.06055C 26.1289 5.88477 25.8926 5.79688 25.5684 5.79688C 25.2832 5.79688 25.0586 5.86523 24.8945 6.00195C 24.7344 6.13867 24.6543 6.32617 24.6543 6.56445L 22.9609 6.56445C 22.9609 6.19727 23.0742 5.85742 23.3008 5.54492C 23.5273 5.23242 23.8477 4.98828 24.2617 4.8125C 24.6758 4.63281 25.1406 4.54297 25.6562 4.54297C 26.4375 4.54297 27.0566 4.74023 27.5137 5.13477C 27.9746 5.52539 28.2051 6.07617 28.2051 6.78711L 28.2051 9.53516C 28.209 10.1367 28.293 10.5918 28.457 10.9004L 28.457 11L 26.7461 11ZM 25.3457 9.82227C 25.5957 9.82227 25.8262 9.76758 26.0371 9.6582C 26.248 9.54492 26.4043 9.39453 26.5059 9.20703L 26.5059 8.11719L 25.873 8.11719C 25.0254 8.11719 24.5742 8.41016 24.5195 8.99609L 24.5137 9.0957C 24.5137 9.30664 24.5879 9.48047 24.7363 9.61719C 24.8848 9.75391 25.0879 9.82227 25.3457 9.82227ZM 31.0645 4.66016L 31.1172 5.39258C 31.5703 4.82617 32.1777 4.54297 32.9395 4.54297C 33.6113 4.54297 34.1113 4.74023 34.4395 5.13477C 34.7676 5.5293 34.9355 6.11914 34.9434 6.9043L 34.9434 11L 33.25 11L 33.25 6.94531C 33.25 6.58594 33.1719 6.32617 33.0156 6.16602C 32.8594 6.00195 32.5996 5.91992 32.2363 5.91992C 31.7598 5.91992 31.4023 6.12305 31.1641 6.5293L 31.1641 11L 29.4707 11L 29.4707 4.66016L 31.0645 4.66016ZM 3.50195 16.4688L 5.69336 22.6562L 7.87305 16.4688L 10.1816 16.4688L 10.1816 25L 8.41797 25L 8.41797 22.668L 8.59375 18.6426L 6.29102 25L 5.08398 25L 2.78711 18.6484L 2.96289 22.668L 2.96289 25L 1.20508 25L 1.20508 16.4688L 3.50195 16.4688ZM 14.5234 25.1172C 13.5938 25.1172 12.8359 24.832 12.25 24.2617C 11.668 23.6914 11.377 22.9316 11.377 21.9824L 11.377 21.8184C 11.377 21.1816 11.5 20.6133 11.7461 20.1133C 11.9922 19.6094 12.3398 19.2227 12.7891 18.9531C 13.2422 18.6797 13.7578 18.543 14.3359 18.543C 15.2031 18.543 15.8848 18.8164 16.3809 19.3633C 16.8809 19.9102 17.1309 20.6855 17.1309 21.6895L 17.1309 22.3809L 13.0938 22.3809C 13.1484 22.7949 13.3125 23.127 13.5859 23.377C 13.8633 23.627 14.2129 23.752 14.6348 23.752C 15.2871 23.752 15.7969 23.5156 16.1641 23.043L 16.9961 23.9746C 16.7422 24.334 16.3984 24.6152 15.9648 24.8184C 15.5312 25.0176 15.0508 25.1172 14.5234 25.1172ZM 14.3301 19.9141C 13.9941 19.9141 13.7207 20.0273 13.5098 20.2539C 13.3027 20.4805 13.1699 20.8047 13.1113 21.2266L 15.4668 21.2266L 15.4668 21.0918C 15.459 20.7168 15.3574 20.4277 15.1621 20.2246C 14.9668 20.0176 14.6895 19.9141 14.3301 19.9141ZM 17.834 21.7832C 17.834 20.7949 18.0547 20.0078 18.4961 19.4219C 18.9414 18.8359 19.5488 18.543 20.3184 18.543C 20.9355 18.543 21.4453 18.7734 21.8477 19.2344L 21.8477 16L 23.5469 16L 23.5469 25L 22.0176 25L 21.9355 24.3262C 21.5137 24.8535 20.9707 25.1172 20.3066 25.1172C 19.5605 25.1172 18.9609 24.8242 18.5078 24.2383C 18.0586 23.6484 17.834 22.8301 17.834 21.7832ZM 19.5273 21.9062C 19.5273 22.5 19.6309 22.9551 19.8379 23.2715C 20.0449 23.5879 20.3457 23.7461 20.7402 23.7461C 21.2637 23.7461 21.6328 23.5254 21.8477 23.084L 21.8477 20.582C 21.6367 20.1406 21.2715 19.9199 20.752 19.9199C 19.9355 19.9199 19.5273 20.582 19.5273 21.9062ZM 26.6465 25L 24.9473 25L 24.9473 18.6602L 26.6465 18.6602L 26.6465 25ZM 24.8477 17.0195C 24.8477 16.7656 24.9316 16.5566 25.0996 16.3926C 25.2715 16.2285 25.5039 16.1465 25.7969 16.1465C 26.0859 16.1465 26.3164 16.2285 26.4883 16.3926C 26.6602 16.5566 26.7461 16.7656 26.7461 17.0195C 26.7461 17.2773 26.6582 17.4883 26.4824 17.6523C 26.3105 17.8164 26.082 17.8984 25.7969 17.8984C 25.5117 17.8984 25.2812 17.8164 25.1055 17.6523C 24.9336 17.4883 24.8477 17.2773 24.8477 17.0195ZM 31.7207 25C 31.6426 24.8477 31.5859 24.6582 31.5508 24.4316C 31.1406 24.8887 30.6074 25.1172 29.9512 25.1172C 29.3301 25.1172 28.8145 24.9375 28.4043 24.5781C 27.998 24.2188 27.7949 23.7656 27.7949 23.2188C 27.7949 22.5469 28.043 22.0312 28.5391 21.6719C 29.0391 21.3125 29.7598 21.1309 30.7012 21.127L 31.4805 21.127L 31.4805 20.7637C 31.4805 20.4707 31.4043 20.2363 31.252 20.0605C 31.1035 19.8848 30.8672 19.7969 30.543 19.7969C 30.2578 19.7969 30.0332 19.8652 29.8691 20.002C 29.709 20.1387 29.6289 20.3262 29.6289 20.5645L 27.9355 20.5645C 27.9355 20.1973 28.0488 19.8574 28.2754 19.5449C 28.502 19.2324 28.8223 18.9883 29.2363 18.8125C 29.6504 18.6328 30.1152 18.543 30.6309 18.543C 31.4121 18.543 32.0312 18.7402 32.4883 19.1348C 32.9492 19.5254 33.1797 20.0762 33.1797 20.7871L 33.1797 23.5352C 33.1836 24.1367 33.2676 24.5918 33.4316 24.9004L 33.4316 25L 31.7207 25ZM 30.3203 23.8223C 30.5703 23.8223 30.8008 23.7676 31.0117 23.6582C 31.2227 23.5449 31.3789 23.3945 31.4805 23.207L 31.4805 22.1172L 30.8477 22.1172C 30 22.1172 29.5488 22.4102 29.4941 22.9961L 29.4883 23.0957C 29.4883 23.3066 29.5625 23.4805 29.7109 23.6172C 29.8594 23.7539 30.0625 23.8223 30.3203 23.8223ZM 36.0391 18.6602L 36.0918 19.3926C 36.5449 18.8262 37.1523 18.543 37.9141 18.543C 38.5859 18.543 39.0859 18.7402 39.4141 19.1348C 39.7422 19.5293 39.9102 20.1191 39.918 20.9043L 39.918 25L 38.2246 25L 38.2246 20.9453C 38.2246 20.5859 38.1465 20.3262 37.9902 20.166C 37.834 20.002 37.5742 19.9199 37.2109 19.9199C 36.7344 19.9199 36.377 20.123 36.1387 20.5293L 36.1387 25L 34.4453 25L 34.4453 18.6602L 36.0391 18.6602Z" transform="translate(127 130)" fill="#009E73"/>
<line id="Line 2.2" y1="-1" x2="11" y2="-1" transform="matrix(0 1 -1 0 147 116)" stroke-width="2" stroke="black"/>
<line id="Line 4" y1="-1" x2="100" y2="-1" transform="matrix(0 -1 1 0 12 116)" stroke-width="2" stroke="#0072B2"/>
<line id="Line 4.1" y1="-1" x2="100" y2="-1" transform="matrix(0 -1 1 0 296 116)" stroke-width="2" stroke="#0072B2"/>
<line id="Line 5" y1="-1" x2="286" y2="-1" transform="translate(10 16)" stroke-width="2" stroke="#0072B2"/>
<path id="No mode" d="M 7.85938 11L 6.10156 11L 2.67969 5.38672L 2.67969 11L 0.921875 11L 0.921875 2.46875L 2.67969 2.46875L 6.10742 8.09375L 6.10742 2.46875L 7.85938 2.46875L 7.85938 11ZM 9.01953 7.77148C 9.01953 7.14258 9.14062 6.58203 9.38281 6.08984C 9.625 5.59766 9.97266 5.2168 10.4258 4.94727C 10.8828 4.67773 11.4121 4.54297 12.0137 4.54297C 12.8691 4.54297 13.5664 4.80469 14.1055 5.32812C 14.6484 5.85156 14.9512 6.5625 15.0137 7.46094L 15.0254 7.89453C 15.0254 8.86719 14.7539 9.64844 14.2109 10.2383C 13.668 10.8242 12.9395 11.1172 12.0254 11.1172C 11.1113 11.1172 10.3809 10.8242 9.83398 10.2383C 9.29102 9.65234 9.01953 8.85547 9.01953 7.84766L 9.01953 7.77148ZM 10.7129 7.89453C 10.7129 8.49609 10.8262 8.95703 11.0527 9.27734C 11.2793 9.59375 11.6035 9.75195 12.0254 9.75195C 12.4355 9.75195 12.7559 9.5957 12.9863 9.2832C 13.2168 8.9668 13.332 8.46289 13.332 7.77148C 13.332 7.18164 13.2168 6.72461 12.9863 6.40039C 12.7559 6.07617 12.4316 5.91406 12.0137 5.91406C 11.5996 5.91406 11.2793 6.07617 11.0527 6.40039C 10.8262 6.7207 10.7129 7.21875 10.7129 7.89453ZM 20.6445 4.66016L 20.6973 5.36914C 21.1465 4.81836 21.7539 4.54297 22.5195 4.54297C 23.3359 4.54297 23.8965 4.86523 24.2012 5.50977C 24.6465 4.86523 25.2812 4.54297 26.1055 4.54297C 26.793 4.54297 27.3047 4.74414 27.6406 5.14648C 27.9766 5.54492 28.1445 6.14648 28.1445 6.95117L 28.1445 11L 26.4453 11L 26.4453 6.95703C 26.4453 6.59766 26.375 6.33594 26.2344 6.17188C 26.0938 6.00391 25.8457 5.91992 25.4902 5.91992C 24.9824 5.91992 24.6309 6.16211 24.4355 6.64648L 24.4414 11L 22.748 11L 22.748 6.96289C 22.748 6.5957 22.6758 6.33008 22.5312 6.16602C 22.3867 6.00195 22.1406 5.91992 21.793 5.91992C 21.3125 5.91992 20.9648 6.11914 20.75 6.51758L 20.75 11L 19.0566 11L 19.0566 4.66016L 20.6445 4.66016ZM 29.1875 7.77148C 29.1875 7.14258 29.3086 6.58203 29.5508 6.08984C 29.793 5.59766 30.1406 5.2168 30.5938 4.94727C 31.0508 4.67773 31.5801 4.54297 32.1816 4.54297C 33.0371 4.54297 33.7344 4.80469 34.2734 5.32812C 34.8164 5.85156 35.1191 6.5625 35.1816 7.46094L 35.1934 7.89453C 35.1934 8.86719 34.9219 9.64844 34.3789 10.2383C 33.8359 10.8242 33.1074 11.1172 32.1934 11.1172C 31.2793 11.1172 30.5488 10.8242 30.002 10.2383C 29.459 9.65234 29.1875 8.85547 29.1875 7.84766L 29.1875 7.77148ZM 30.8809 7.89453C 30.8809 8.49609 30.9941 8.95703 31.2207 9.27734C 31.4473 9.59375 31.7715 9.75195 32.1934 9.75195C 32.6035 9.75195 32.9238 9.5957 33.1543 9.2832C 33.3848 8.9668 33.5 8.46289 33.5 7.77148C 33.5 7.18164 33.3848 6.72461 33.1543 6.40039C 32.9238 6.07617 32.5996 5.91406 32.1816 5.91406C 31.7676 5.91406 31.4473 6.07617 31.2207 6.40039C 30.9941 6.7207 30.8809 7.21875 30.8809 7.89453ZM 35.9727 7.7832C 35.9727 6.79492 36.1934 6.00781 36.6348 5.42188C 37.0801 4.83594 37.6875 4.54297 38.457 4.54297C 39.0742 4.54297 39.584 4.77344 39.9863 5.23438L 39.9863 2L 41.6855 2L 41.6855 11L 40.1562 11L 40.0742 10.3262C 39.6523 10.8535 39.1094 11.1172 38.4453 11.1172C 37.6992 11.1172 37.0996 10.8242 36.6465 10.2383C 36.1973 9.64844 35.9727 8.83008 35.9727 7.7832ZM 37.666 7.90625C 37.666 8.5 37.7695 8.95508 37.9766 9.27148C 38.1836 9.58789 38.4844 9.74609 38.8789 9.74609C 39.4023 9.74609 39.7715 9.52539 39.9863 9.08398L 39.9863 6.58203C 39.7754 6.14062 39.4102 5.91992 38.8906 5.91992C 38.0742 5.91992 37.666 6.58203 37.666 7.90625ZM 45.916 11.1172C 44.9863 11.1172 44.2285 10.832 43.6426 10.2617C 43.0605 9.69141 42.7695 8.93164 42.7695 7.98242L 42.7695 7.81836C 42.7695 7.18164 42.8926 6.61328 43.1387 6.11328C 43.3848 5.60938 43.7324 5.22266 44.1816 4.95312C 44.6348 4.67969 45.1504 4.54297 45.7285 4.54297C 46.5957 4.54297 47.2773 4.81641 47.7734 5.36328C 48.2734 5.91016 48.5234 6.68555 48.5234 7.68945L 48.5234 8.38086L 44.4863 8.38086C 44.541 8.79492 44.7051 9.12695 44.9785 9.37695C 45.2559 9.62695 45.6055 9.75195 46.0273 9.75195C 46.6797 9.75195 47.1895 9.51562 47.5566 9.04297L 48.3887 9.97461C 48.1348 10.334 47.791 10.6152 47.3574 10.8184C 46.9238 11.0176 46.4434 11.1172 45.916 11.1172ZM 45.7227 5.91406C 45.3867 5.91406 45.1133 6.02734 44.9023 6.25391C 44.6953 6.48047 44.5625 6.80469 44.5039 7.22656L 46.8594 7.22656L 46.8594 7.0918C 46.8516 6.7168 46.75 6.42773 46.5547 6.22461C 46.3594 6.01758 46.082 5.91406 45.7227 5.91406Z" transform="translate(123 -2)" fill="#D55E00"/>
</g>
</svg>
