<svg width="744" height="277" viewBox="0 0 744 277" fill="none" xmlns="http://www.w3.org/2000/svg">
<rect width="744" height="277" fill="white"/>
<path d="M0 152C58.4528 -160.319 75.0659 96.4402 312 152H0Z" transform="translate(24 15)" fill="#56B4E9" fill-opacity="0.3"/>
<path d="M0 152C58.4528 -160.319 75.0659 96.4402 312 152" transform="translate(24 15)" stroke="#0072B2" stroke-width="2"/>
<line y1="-1" x2="167.002" y2="-1" transform="translate(2 167.996) rotate(-89.4854)" stroke="black" stroke-width="2"/>
<line y1="-1" x2="343.001" y2="-1" transform="translate(0 169)" stroke="black" stroke-width="2"/>
<path d="M0 152C58.4528 -160.319 75.0659 96.4402 312 152H0Z" transform="translate(424 15)" fill="#56B4E9" fill-opacity="0.3"/>
<path d="M0 152C58.4528 -160.319 75.0659 96.4402 312 152" transform="translate(424 15)" stroke="#0072B2" stroke-width="2"/>
<path d="M0 71C25.2921 -74.8859 32.4804 45.0477 135 71H0Z" transform="translate(59 96)" fill="#D55E00"/>
<path d="M0 71C25.2921 -74.8859 32.4805 45.0477 135 71" transform="translate(59 96)" stroke="#0072B2" stroke-width="2"/>
<line y1="-1" x2="167.002" y2="-1" transform="translate(402 167.996) rotate(-89.4854)" stroke="black" stroke-width="2"/>
<line y1="-1" x2="343.001" y2="-1" transform="translate(400 169)" stroke="black" stroke-width="2"/>
<path d="M3.35938 10.9922V15H1.01562V3.625H5.45312C6.30729 3.625 7.05729 3.78125 7.70312 4.09375C8.35417 4.40625 8.85417 4.85156 9.20312 5.42969C9.55208 6.0026 9.72656 6.65625 9.72656 7.39062C9.72656 8.50521 9.34375 9.38542 8.57812 10.0312C7.81771 10.6719 6.76302 10.9922 5.41406 10.9922H3.35938ZM3.35938 9.09375H5.45312C6.07292 9.09375 6.54427 8.94792 6.86719 8.65625C7.19531 8.36458 7.35938 7.94792 7.35938 7.40625C7.35938 6.84896 7.19531 6.39844 6.86719 6.05469C6.53906 5.71094 6.08594 5.53385 5.50781 5.52344H3.35938V9.09375ZM10.7344 10.6953C10.7344 9.85677 10.8958 9.10938 11.2188 8.45312C11.5417 7.79688 12.0052 7.28906 12.6094 6.92969C13.2188 6.57031 13.9245 6.39062 14.7266 6.39062C15.8672 6.39062 16.7969 6.73958 17.5156 7.4375C18.2396 8.13542 18.6432 9.08333 18.7266 10.2812L18.7422 10.8594C18.7422 12.1562 18.3802 13.1979 17.6562 13.9844C16.9323 14.7656 15.9609 15.1562 14.7422 15.1562C13.5234 15.1562 12.5495 14.7656 11.8203 13.9844C11.0964 13.2031 10.7344 12.1406 10.7344 10.7969V10.6953ZM12.9922 10.8594C12.9922 11.6615 13.1432 12.276 13.4453 12.7031C13.7474 13.125 14.1797 13.3359 14.7422 13.3359C15.2891 13.3359 15.7161 13.1276 16.0234 12.7109C16.3307 12.2891 16.4844 11.6172 16.4844 10.6953C16.4844 9.90885 16.3307 9.29948 16.0234 8.86719C15.7161 8.4349 15.2839 8.21875 14.7266 8.21875C14.1745 8.21875 13.7474 8.4349 13.4453 8.86719C13.1432 9.29427 12.9922 9.95833 12.9922 10.8594ZM27.7422 10.8516C27.7422 12.1536 27.4453 13.1979 26.8516 13.9844C26.263 14.7656 25.4661 15.1562 24.4609 15.1562C23.6068 15.1562 22.9167 14.8594 22.3906 14.2656V18.25H20.1328V6.54688H22.2266L22.3047 7.375C22.8516 6.71875 23.5651 6.39062 24.4453 6.39062C25.487 6.39062 26.2969 6.77604 26.875 7.54688C27.4531 8.31771 27.7422 9.38021 27.7422 10.7344V10.8516ZM25.4844 10.6875C25.4844 9.90104 25.3438 9.29427 25.0625 8.86719C24.7865 8.4401 24.3828 8.22656 23.8516 8.22656C23.1432 8.22656 22.6562 8.4974 22.3906 9.03906V12.5C22.6667 13.0573 23.1589 13.3359 23.8672 13.3359C24.9453 13.3359 25.4844 12.4531 25.4844 10.6875ZM34.2109 14.1406C33.6536 14.8177 32.8828 15.1562 31.8984 15.1562C30.9922 15.1562 30.2995 14.8958 29.8203 14.375C29.3464 13.8542 29.1042 13.0911 29.0938 12.0859V6.54688H31.3516V12.0078C31.3516 12.888 31.7526 13.3281 32.5547 13.3281C33.3203 13.3281 33.8464 13.0625 34.1328 12.5312V6.54688H36.3984V15H34.2734L34.2109 14.1406ZM40.4844 15H38.2188V3H40.4844V15ZM47.25 15C47.1458 14.7969 47.0703 14.5443 47.0234 14.2422C46.4766 14.8516 45.7656 15.1562 44.8906 15.1562C44.0625 15.1562 43.375 14.9167 42.8281 14.4375C42.2865 13.9583 42.0156 13.3542 42.0156 12.625C42.0156 11.7292 42.3464 11.0417 43.0078 10.5625C43.6745 10.0833 44.6354 9.84115 45.8906 9.83594H46.9297V9.35156C46.9297 8.96094 46.8281 8.64844 46.625 8.41406C46.4271 8.17969 46.112 8.0625 45.6797 8.0625C45.2995 8.0625 45 8.15365 44.7812 8.33594C44.5677 8.51823 44.4609 8.76823 44.4609 9.08594H42.2031C42.2031 8.59635 42.3542 8.14323 42.6562 7.72656C42.9583 7.3099 43.3854 6.98438 43.9375 6.75C44.4896 6.51042 45.1094 6.39062 45.7969 6.39062C46.8385 6.39062 47.6641 6.65365 48.2734 7.17969C48.888 7.70052 49.1953 8.4349 49.1953 9.38281V13.0469C49.2005 13.849 49.3125 14.4557 49.5312 14.8672V15H47.25ZM45.3828 13.4297C45.7161 13.4297 46.0234 13.3568 46.3047 13.2109C46.5859 13.0599 46.7943 12.8594 46.9297 12.6094V11.1562H46.0859C44.9557 11.1562 44.3542 11.5469 44.2812 12.3281L44.2734 12.4609C44.2734 12.7422 44.3724 12.974 44.5703 13.1562C44.7682 13.3385 45.0391 13.4297 45.3828 13.4297ZM53.6328 4.46875V6.54688H55.0781V8.20312H53.6328V12.4219C53.6328 12.7344 53.6927 12.9583 53.8125 13.0938C53.9323 13.2292 54.1615 13.2969 54.5 13.2969C54.75 13.2969 54.9714 13.2786 55.1641 13.2422V14.9531C54.7214 15.0885 54.2656 15.1562 53.7969 15.1562C52.2135 15.1562 51.4062 14.3568 51.375 12.7578V8.20312H50.1406V6.54688H51.375V4.46875H53.6328ZM58.7188 15H56.4531V6.54688H58.7188V15ZM56.3203 4.35938C56.3203 4.02083 56.4323 3.74219 56.6562 3.52344C56.8854 3.30469 57.1953 3.19531 57.5859 3.19531C57.9714 3.19531 58.2786 3.30469 58.5078 3.52344C58.737 3.74219 58.8516 4.02083 58.8516 4.35938C58.8516 4.70312 58.7344 4.98438 58.5 5.20312C58.2708 5.42188 57.9661 5.53125 57.5859 5.53125C57.2057 5.53125 56.8984 5.42188 56.6641 5.20312C56.4349 4.98438 56.3203 4.70312 56.3203 4.35938ZM60.2344 10.6953C60.2344 9.85677 60.3958 9.10938 60.7188 8.45312C61.0417 7.79688 61.5052 7.28906 62.1094 6.92969C62.7188 6.57031 63.4245 6.39062 64.2266 6.39062C65.3672 6.39062 66.2969 6.73958 67.0156 7.4375C67.7396 8.13542 68.1432 9.08333 68.2266 10.2812L68.2422 10.8594C68.2422 12.1562 67.8802 13.1979 67.1562 13.9844C66.4323 14.7656 65.4609 15.1562 64.2422 15.1562C63.0234 15.1562 62.0495 14.7656 61.3203 13.9844C60.5964 13.2031 60.2344 12.1406 60.2344 10.7969V10.6953ZM62.4922 10.8594C62.4922 11.6615 62.6432 12.276 62.9453 12.7031C63.2474 13.125 63.6797 13.3359 64.2422 13.3359C64.7891 13.3359 65.2161 13.1276 65.5234 12.7109C65.8307 12.2891 65.9844 11.6172 65.9844 10.6953C65.9844 9.90885 65.8307 9.29948 65.5234 8.86719C65.2161 8.4349 64.7839 8.21875 64.2266 8.21875C63.6745 8.21875 63.2474 8.4349 62.9453 8.86719C62.6432 9.29427 62.4922 9.95833 62.4922 10.8594ZM71.7109 6.54688L71.7812 7.52344C72.3854 6.76823 73.1953 6.39062 74.2109 6.39062C75.1068 6.39062 75.7734 6.65365 76.2109 7.17969C76.6484 7.70573 76.8724 8.49219 76.8828 9.53906V15H74.625V9.59375C74.625 9.11458 74.5208 8.76823 74.3125 8.55469C74.1042 8.33594 73.7578 8.22656 73.2734 8.22656C72.638 8.22656 72.1615 8.4974 71.8438 9.03906V15H69.5859V6.54688H71.7109Z" transform="translate(59 56)" fill="black"/>
<path d="M3.35938 10.9922V15H1.01562V3.625H5.45312C6.30729 3.625 7.05729 3.78125 7.70312 4.09375C8.35417 4.40625 8.85417 4.85156 9.20312 5.42969C9.55208 6.0026 9.72656 6.65625 9.72656 7.39062C9.72656 8.50521 9.34375 9.38542 8.57812 10.0312C7.81771 10.6719 6.76302 10.9922 5.41406 10.9922H3.35938ZM3.35938 9.09375H5.45312C6.07292 9.09375 6.54427 8.94792 6.86719 8.65625C7.19531 8.36458 7.35938 7.94792 7.35938 7.40625C7.35938 6.84896 7.19531 6.39844 6.86719 6.05469C6.53906 5.71094 6.08594 5.53385 5.50781 5.52344H3.35938V9.09375ZM10.7344 10.6953C10.7344 9.85677 10.8958 9.10938 11.2188 8.45312C11.5417 7.79688 12.0052 7.28906 12.6094 6.92969C13.2188 6.57031 13.9245 6.39062 14.7266 6.39062C15.8672 6.39062 16.7969 6.73958 17.5156 7.4375C18.2396 8.13542 18.6432 9.08333 18.7266 10.2812L18.7422 10.8594C18.7422 12.1562 18.3802 13.1979 17.6562 13.9844C16.9323 14.7656 15.9609 15.1562 14.7422 15.1562C13.5234 15.1562 12.5495 14.7656 11.8203 13.9844C11.0964 13.2031 10.7344 12.1406 10.7344 10.7969V10.6953ZM12.9922 10.8594C12.9922 11.6615 13.1432 12.276 13.4453 12.7031C13.7474 13.125 14.1797 13.3359 14.7422 13.3359C15.2891 13.3359 15.7161 13.1276 16.0234 12.7109C16.3307 12.2891 16.4844 11.6172 16.4844 10.6953C16.4844 9.90885 16.3307 9.29948 16.0234 8.86719C15.7161 8.4349 15.2839 8.21875 14.7266 8.21875C14.1745 8.21875 13.7474 8.4349 13.4453 8.86719C13.1432 9.29427 12.9922 9.95833 12.9922 10.8594ZM27.7422 10.8516C27.7422 12.1536 27.4453 13.1979 26.8516 13.9844C26.263 14.7656 25.4661 15.1562 24.4609 15.1562C23.6068 15.1562 22.9167 14.8594 22.3906 14.2656V18.25H20.1328V6.54688H22.2266L22.3047 7.375C22.8516 6.71875 23.5651 6.39062 24.4453 6.39062C25.487 6.39062 26.2969 6.77604 26.875 7.54688C27.4531 8.31771 27.7422 9.38021 27.7422 10.7344V10.8516ZM25.4844 10.6875C25.4844 9.90104 25.3438 9.29427 25.0625 8.86719C24.7865 8.4401 24.3828 8.22656 23.8516 8.22656C23.1432 8.22656 22.6562 8.4974 22.3906 9.03906V12.5C22.6667 13.0573 23.1589 13.3359 23.8672 13.3359C24.9453 13.3359 25.4844 12.4531 25.4844 10.6875ZM34.2109 14.1406C33.6536 14.8177 32.8828 15.1562 31.8984 15.1562C30.9922 15.1562 30.2995 14.8958 29.8203 14.375C29.3464 13.8542 29.1042 13.0911 29.0938 12.0859V6.54688H31.3516V12.0078C31.3516 12.888 31.7526 13.3281 32.5547 13.3281C33.3203 13.3281 33.8464 13.0625 34.1328 12.5312V6.54688H36.3984V15H34.2734L34.2109 14.1406ZM40.4844 15H38.2188V3H40.4844V15ZM47.25 15C47.1458 14.7969 47.0703 14.5443 47.0234 14.2422C46.4766 14.8516 45.7656 15.1562 44.8906 15.1562C44.0625 15.1562 43.375 14.9167 42.8281 14.4375C42.2865 13.9583 42.0156 13.3542 42.0156 12.625C42.0156 11.7292 42.3464 11.0417 43.0078 10.5625C43.6745 10.0833 44.6354 9.84115 45.8906 9.83594H46.9297V9.35156C46.9297 8.96094 46.8281 8.64844 46.625 8.41406C46.4271 8.17969 46.112 8.0625 45.6797 8.0625C45.2995 8.0625 45 8.15365 44.7812 8.33594C44.5677 8.51823 44.4609 8.76823 44.4609 9.08594H42.2031C42.2031 8.59635 42.3542 8.14323 42.6562 7.72656C42.9583 7.3099 43.3854 6.98438 43.9375 6.75C44.4896 6.51042 45.1094 6.39062 45.7969 6.39062C46.8385 6.39062 47.6641 6.65365 48.2734 7.17969C48.888 7.70052 49.1953 8.4349 49.1953 9.38281V13.0469C49.2005 13.849 49.3125 14.4557 49.5312 14.8672V15H47.25ZM45.3828 13.4297C45.7161 13.4297 46.0234 13.3568 46.3047 13.2109C46.5859 13.0599 46.7943 12.8594 46.9297 12.6094V11.1562H46.0859C44.9557 11.1562 44.3542 11.5469 44.2812 12.3281L44.2734 12.4609C44.2734 12.7422 44.3724 12.974 44.5703 13.1562C44.7682 13.3385 45.0391 13.4297 45.3828 13.4297ZM53.6328 4.46875V6.54688H55.0781V8.20312H53.6328V12.4219C53.6328 12.7344 53.6927 12.9583 53.8125 13.0938C53.9323 13.2292 54.1615 13.2969 54.5 13.2969C54.75 13.2969 54.9714 13.2786 55.1641 13.2422V14.9531C54.7214 15.0885 54.2656 15.1562 53.7969 15.1562C52.2135 15.1562 51.4062 14.3568 51.375 12.7578V8.20312H50.1406V6.54688H51.375V4.46875H53.6328ZM58.7188 15H56.4531V6.54688H58.7188V15ZM56.3203 4.35938C56.3203 4.02083 56.4323 3.74219 56.6562 3.52344C56.8854 3.30469 57.1953 3.19531 57.5859 3.19531C57.9714 3.19531 58.2786 3.30469 58.5078 3.52344C58.737 3.74219 58.8516 4.02083 58.8516 4.35938C58.8516 4.70312 58.7344 4.98438 58.5 5.20312C58.2708 5.42188 57.9661 5.53125 57.5859 5.53125C57.2057 5.53125 56.8984 5.42188 56.6641 5.20312C56.4349 4.98438 56.3203 4.70312 56.3203 4.35938ZM60.2344 10.6953C60.2344 9.85677 60.3958 9.10938 60.7188 8.45312C61.0417 7.79688 61.5052 7.28906 62.1094 6.92969C62.7188 6.57031 63.4245 6.39062 64.2266 6.39062C65.3672 6.39062 66.2969 6.73958 67.0156 7.4375C67.7396 8.13542 68.1432 9.08333 68.2266 10.2812L68.2422 10.8594C68.2422 12.1562 67.8802 13.1979 67.1562 13.9844C66.4323 14.7656 65.4609 15.1562 64.2422 15.1562C63.0234 15.1562 62.0495 14.7656 61.3203 13.9844C60.5964 13.2031 60.2344 12.1406 60.2344 10.7969V10.6953ZM62.4922 10.8594C62.4922 11.6615 62.6432 12.276 62.9453 12.7031C63.2474 13.125 63.6797 13.3359 64.2422 13.3359C64.7891 13.3359 65.2161 13.1276 65.5234 12.7109C65.8307 12.2891 65.9844 11.6172 65.9844 10.6953C65.9844 9.90885 65.8307 9.29948 65.5234 8.86719C65.2161 8.4349 64.7839 8.21875 64.2266 8.21875C63.6745 8.21875 63.2474 8.4349 62.9453 8.86719C62.6432 9.29427 62.4922 9.95833 62.4922 10.8594ZM71.7109 6.54688L71.7812 7.52344C72.3854 6.76823 73.1953 6.39062 74.2109 6.39062C75.1068 6.39062 75.7734 6.65365 76.2109 7.17969C76.6484 7.70573 76.8724 8.49219 76.8828 9.53906V15H74.625V9.59375C74.625 9.11458 74.5208 8.76823 74.3125 8.55469C74.1042 8.33594 73.7578 8.22656 73.2734 8.22656C72.638 8.22656 72.1615 8.4974 71.8438 9.03906V15H69.5859V6.54688H71.7109Z" transform="translate(459 56)" fill="black"/>
<path d="M6.91406 12.0156C6.91406 11.5729 6.75781 11.2344 6.44531 11C6.13281 10.7604 5.57031 10.5104 4.75781 10.25C3.94531 9.98438 3.30208 9.72396 2.82812 9.46875C1.53646 8.77083 0.890625 7.83073 0.890625 6.64844C0.890625 6.03385 1.0625 5.48698 1.40625 5.00781C1.75521 4.52344 2.2526 4.14583 2.89844 3.875C3.54948 3.60417 4.27865 3.46875 5.08594 3.46875C5.89844 3.46875 6.6224 3.61719 7.25781 3.91406C7.89323 4.20573 8.38542 4.61979 8.73438 5.15625C9.08854 5.69271 9.26562 6.30208 9.26562 6.98438H6.92188C6.92188 6.46354 6.75781 6.0599 6.42969 5.77344C6.10156 5.48177 5.64062 5.33594 5.04688 5.33594C4.47396 5.33594 4.02865 5.45833 3.71094 5.70312C3.39323 5.94271 3.23438 6.26042 3.23438 6.65625C3.23438 7.02604 3.41927 7.33594 3.78906 7.58594C4.16406 7.83594 4.71354 8.07031 5.4375 8.28906C6.77083 8.6901 7.74219 9.1875 8.35156 9.78125C8.96094 10.375 9.26562 11.1146 9.26562 12C9.26562 12.9844 8.89323 13.7578 8.14844 14.3203C7.40365 14.8776 6.40104 15.1562 5.14062 15.1562C4.26562 15.1562 3.46875 14.9974 2.75 14.6797C2.03125 14.3568 1.48177 13.9167 1.10156 13.3594C0.726562 12.8021 0.539062 12.1562 0.539062 11.4219H2.89062C2.89062 12.6771 3.64062 13.3047 5.14062 13.3047C5.69792 13.3047 6.13281 13.1927 6.44531 12.9688C6.75781 12.7396 6.91406 12.4219 6.91406 12.0156ZM15.6094 15C15.5052 14.7969 15.4297 14.5443 15.3828 14.2422C14.8359 14.8516 14.125 15.1562 13.25 15.1562C12.4219 15.1562 11.7344 14.9167 11.1875 14.4375C10.6458 13.9583 10.375 13.3542 10.375 12.625C10.375 11.7292 10.7057 11.0417 11.3672 10.5625C12.0339 10.0833 12.9948 9.84115 14.25 9.83594H15.2891V9.35156C15.2891 8.96094 15.1875 8.64844 14.9844 8.41406C14.7865 8.17969 14.4714 8.0625 14.0391 8.0625C13.6589 8.0625 13.3594 8.15365 13.1406 8.33594C12.9271 8.51823 12.8203 8.76823 12.8203 9.08594H10.5625C10.5625 8.59635 10.7135 8.14323 11.0156 7.72656C11.3177 7.3099 11.7448 6.98438 12.2969 6.75C12.849 6.51042 13.4688 6.39062 14.1562 6.39062C15.1979 6.39062 16.0234 6.65365 16.6328 7.17969C17.2474 7.70052 17.5547 8.4349 17.5547 9.38281V13.0469C17.5599 13.849 17.6719 14.4557 17.8906 14.8672V15H15.6094ZM13.7422 13.4297C14.0755 13.4297 14.3828 13.3568 14.6641 13.2109C14.9453 13.0599 15.1536 12.8594 15.2891 12.6094V11.1562H14.4453C13.3151 11.1562 12.7135 11.5469 12.6406 12.3281L12.6328 12.4609C12.6328 12.7422 12.7318 12.974 12.9297 13.1562C13.1276 13.3385 13.3984 13.4297 13.7422 13.4297ZM21.4062 6.54688L21.4766 7.49219C22.0755 6.75781 22.8854 6.39062 23.9062 6.39062C24.9948 6.39062 25.7422 6.82031 26.1484 7.67969C26.7422 6.82031 27.5885 6.39062 28.6875 6.39062C29.6042 6.39062 30.2865 6.65885 30.7344 7.19531C31.1823 7.72656 31.4062 8.52865 31.4062 9.60156V15H29.1406V9.60938C29.1406 9.13021 29.0469 8.78125 28.8594 8.5625C28.6719 8.33854 28.3411 8.22656 27.8672 8.22656C27.1901 8.22656 26.7214 8.54948 26.4609 9.19531L26.4688 15H24.2109V9.61719C24.2109 9.1276 24.1146 8.77344 23.9219 8.55469C23.7292 8.33594 23.401 8.22656 22.9375 8.22656C22.2969 8.22656 21.8333 8.49219 21.5469 9.02344V15H19.2891V6.54688H21.4062ZM40.7578 10.8516C40.7578 12.1536 40.4609 13.1979 39.8672 13.9844C39.2786 14.7656 38.4818 15.1562 37.4766 15.1562C36.6224 15.1562 35.9323 14.8594 35.4062 14.2656V18.25H33.1484V6.54688H35.2422L35.3203 7.375C35.8672 6.71875 36.5807 6.39062 37.4609 6.39062C38.5026 6.39062 39.3125 6.77604 39.8906 7.54688C40.4688 8.31771 40.7578 9.38021 40.7578 10.7344V10.8516ZM38.5 10.6875C38.5 9.90104 38.3594 9.29427 38.0781 8.86719C37.8021 8.4401 37.3984 8.22656 36.8672 8.22656C36.1589 8.22656 35.6719 8.4974 35.4062 9.03906V12.5C35.6823 13.0573 36.1745 13.3359 36.8828 13.3359C37.9609 13.3359 38.5 12.4531 38.5 10.6875ZM44.5469 15H42.2812V3H44.5469V15ZM50.3047 15.1562C49.0651 15.1562 48.0547 14.776 47.2734 14.0156C46.4974 13.2552 46.1094 12.2422 46.1094 10.9766V10.7578C46.1094 9.90885 46.2734 9.15104 46.6016 8.48438C46.9297 7.8125 47.3932 7.29688 47.9922 6.9375C48.5964 6.57292 49.2839 6.39062 50.0547 6.39062C51.2109 6.39062 52.1198 6.75521 52.7812 7.48438C53.4479 8.21354 53.7812 9.2474 53.7812 10.5859V11.5078H48.3984C48.4714 12.0599 48.6901 12.5026 49.0547 12.8359C49.4245 13.1693 49.8906 13.3359 50.4531 13.3359C51.3229 13.3359 52.0026 13.0208 52.4922 12.3906L53.6016 13.6328C53.263 14.112 52.8047 14.487 52.2266 14.7578C51.6484 15.0234 51.0078 15.1562 50.3047 15.1562ZM50.0469 8.21875C49.599 8.21875 49.2344 8.36979 48.9531 8.67188C48.6771 8.97396 48.5 9.40625 48.4219 9.96875H51.5625V9.78906C51.5521 9.28906 51.4167 8.90365 51.1562 8.63281C50.8958 8.35677 50.526 8.21875 50.0469 8.21875Z" transform="translate(72 138)" fill="white"/>
<path d="M0 45.4229C79.5 -50.5772 106.028 33.5784 135 45.4229H0Z" transform="translate(498 122)" fill="#D55E00"/>
<path d="M0 45.4229C79.5 -50.5772 106.028 33.5784 135 45.4229" transform="translate(498 122)" stroke="#0072B2" stroke-width="2"/>
<path d="M6.91406 12.0156C6.91406 11.5729 6.75781 11.2344 6.44531 11C6.13281 10.7604 5.57031 10.5104 4.75781 10.25C3.94531 9.98438 3.30208 9.72396 2.82812 9.46875C1.53646 8.77083 0.890625 7.83073 0.890625 6.64844C0.890625 6.03385 1.0625 5.48698 1.40625 5.00781C1.75521 4.52344 2.2526 4.14583 2.89844 3.875C3.54948 3.60417 4.27865 3.46875 5.08594 3.46875C5.89844 3.46875 6.6224 3.61719 7.25781 3.91406C7.89323 4.20573 8.38542 4.61979 8.73438 5.15625C9.08854 5.69271 9.26562 6.30208 9.26562 6.98438H6.92188C6.92188 6.46354 6.75781 6.0599 6.42969 5.77344C6.10156 5.48177 5.64062 5.33594 5.04688 5.33594C4.47396 5.33594 4.02865 5.45833 3.71094 5.70312C3.39323 5.94271 3.23438 6.26042 3.23438 6.65625C3.23438 7.02604 3.41927 7.33594 3.78906 7.58594C4.16406 7.83594 4.71354 8.07031 5.4375 8.28906C6.77083 8.6901 7.74219 9.1875 8.35156 9.78125C8.96094 10.375 9.26562 11.1146 9.26562 12C9.26562 12.9844 8.89323 13.7578 8.14844 14.3203C7.40365 14.8776 6.40104 15.1562 5.14062 15.1562C4.26562 15.1562 3.46875 14.9974 2.75 14.6797C2.03125 14.3568 1.48177 13.9167 1.10156 13.3594C0.726562 12.8021 0.539062 12.1562 0.539062 11.4219H2.89062C2.89062 12.6771 3.64062 13.3047 5.14062 13.3047C5.69792 13.3047 6.13281 13.1927 6.44531 12.9688C6.75781 12.7396 6.91406 12.4219 6.91406 12.0156ZM15.6094 15C15.5052 14.7969 15.4297 14.5443 15.3828 14.2422C14.8359 14.8516 14.125 15.1562 13.25 15.1562C12.4219 15.1562 11.7344 14.9167 11.1875 14.4375C10.6458 13.9583 10.375 13.3542 10.375 12.625C10.375 11.7292 10.7057 11.0417 11.3672 10.5625C12.0339 10.0833 12.9948 9.84115 14.25 9.83594H15.2891V9.35156C15.2891 8.96094 15.1875 8.64844 14.9844 8.41406C14.7865 8.17969 14.4714 8.0625 14.0391 8.0625C13.6589 8.0625 13.3594 8.15365 13.1406 8.33594C12.9271 8.51823 12.8203 8.76823 12.8203 9.08594H10.5625C10.5625 8.59635 10.7135 8.14323 11.0156 7.72656C11.3177 7.3099 11.7448 6.98438 12.2969 6.75C12.849 6.51042 13.4688 6.39062 14.1562 6.39062C15.1979 6.39062 16.0234 6.65365 16.6328 7.17969C17.2474 7.70052 17.5547 8.4349 17.5547 9.38281V13.0469C17.5599 13.849 17.6719 14.4557 17.8906 14.8672V15H15.6094ZM13.7422 13.4297C14.0755 13.4297 14.3828 13.3568 14.6641 13.2109C14.9453 13.0599 15.1536 12.8594 15.2891 12.6094V11.1562H14.4453C13.3151 11.1562 12.7135 11.5469 12.6406 12.3281L12.6328 12.4609C12.6328 12.7422 12.7318 12.974 12.9297 13.1562C13.1276 13.3385 13.3984 13.4297 13.7422 13.4297ZM21.4062 6.54688L21.4766 7.49219C22.0755 6.75781 22.8854 6.39062 23.9062 6.39062C24.9948 6.39062 25.7422 6.82031 26.1484 7.67969C26.7422 6.82031 27.5885 6.39062 28.6875 6.39062C29.6042 6.39062 30.2865 6.65885 30.7344 7.19531C31.1823 7.72656 31.4062 8.52865 31.4062 9.60156V15H29.1406V9.60938C29.1406 9.13021 29.0469 8.78125 28.8594 8.5625C28.6719 8.33854 28.3411 8.22656 27.8672 8.22656C27.1901 8.22656 26.7214 8.54948 26.4609 9.19531L26.4688 15H24.2109V9.61719C24.2109 9.1276 24.1146 8.77344 23.9219 8.55469C23.7292 8.33594 23.401 8.22656 22.9375 8.22656C22.2969 8.22656 21.8333 8.49219 21.5469 9.02344V15H19.2891V6.54688H21.4062ZM40.7578 10.8516C40.7578 12.1536 40.4609 13.1979 39.8672 13.9844C39.2786 14.7656 38.4818 15.1562 37.4766 15.1562C36.6224 15.1562 35.9323 14.8594 35.4062 14.2656V18.25H33.1484V6.54688H35.2422L35.3203 7.375C35.8672 6.71875 36.5807 6.39062 37.4609 6.39062C38.5026 6.39062 39.3125 6.77604 39.8906 7.54688C40.4688 8.31771 40.7578 9.38021 40.7578 10.7344V10.8516ZM38.5 10.6875C38.5 9.90104 38.3594 9.29427 38.0781 8.86719C37.8021 8.4401 37.3984 8.22656 36.8672 8.22656C36.1589 8.22656 35.6719 8.4974 35.4062 9.03906V12.5C35.6823 13.0573 36.1745 13.3359 36.8828 13.3359C37.9609 13.3359 38.5 12.4531 38.5 10.6875ZM44.5469 15H42.2812V3H44.5469V15ZM50.3047 15.1562C49.0651 15.1562 48.0547 14.776 47.2734 14.0156C46.4974 13.2552 46.1094 12.2422 46.1094 10.9766V10.7578C46.1094 9.90885 46.2734 9.15104 46.6016 8.48438C46.9297 7.8125 47.3932 7.29688 47.9922 6.9375C48.5964 6.57292 49.2839 6.39062 50.0547 6.39062C51.2109 6.39062 52.1198 6.75521 52.7812 7.48438C53.4479 8.21354 53.7812 9.2474 53.7812 10.5859V11.5078H48.3984C48.4714 12.0599 48.6901 12.5026 49.0547 12.8359C49.4245 13.1693 49.8906 13.3359 50.4531 13.3359C51.3229 13.3359 52.0026 13.0208 52.4922 12.3906L53.6016 13.6328C53.263 14.112 52.8047 14.487 52.2266 14.7578C51.6484 15.0234 51.0078 15.1562 50.3047 15.1562ZM50.0469 8.21875C49.599 8.21875 49.2344 8.36979 48.9531 8.67188C48.6771 8.97396 48.5 9.40625 48.4219 9.96875H51.5625V9.78906C51.5521 9.28906 51.4167 8.90365 51.1562 8.63281C50.8958 8.35677 50.526 8.21875 50.0469 8.21875Z" transform="translate(534 141)" fill="white"/>
<path d="M175.354 0.353553C175.549 0.158291 175.549 -0.158291 175.354 -0.353553L172.172 -3.53553C171.976 -3.7308 171.66 -3.7308 171.464 -3.53553C171.269 -3.34027 171.269 -3.02369 171.464 -2.82843L174.293 0L171.464 2.82843C171.269 3.02369 171.269 3.34027 171.464 3.53553C171.66 3.7308 171.976 3.7308 172.172 3.53553L175.354 0.353553ZM0 0.5H0.994318V-0.5H0V0.5ZM2.98295 0.5H4.97159V-0.5H2.98295V0.5ZM6.96023 0.5H8.94886V-0.5H6.96023V0.5ZM10.9375 0.5H12.9261V-0.5H10.9375V0.5ZM14.9148 0.5H16.9034V-0.5H14.9148V0.5ZM18.892 0.5H20.8807V-0.5H18.892V0.5ZM22.8693 0.5H24.858V-0.5H22.8693V0.5ZM26.8466 0.5H28.8352V-0.5H26.8466V0.5ZM30.8239 0.5H32.8125V-0.5H30.8239V0.5ZM34.8011 0.5H36.7898V-0.5H34.8011V0.5ZM38.7784 0.5H40.767V-0.5H38.7784V0.5ZM42.7557 0.5H44.7443V-0.5H42.7557V0.5ZM46.733 0.5H48.7216V-0.5H46.733V0.5ZM50.7102 0.5H52.6989V-0.5H50.7102V0.5ZM54.6875 0.5H56.6761V-0.5H54.6875V0.5ZM58.6648 0.5H60.6534V-0.5H58.6648V0.5ZM62.642 0.5H64.6307V-0.5H62.642V0.5ZM66.6193 0.5H68.608V-0.5H66.6193V0.5ZM70.5966 0.5H72.5852V-0.5H70.5966V0.5ZM74.5739 0.5H76.5625V-0.5H74.5739V0.5ZM78.5511 0.5H80.5398V-0.5H78.5511V0.5ZM82.5284 0.5H84.517V-0.5H82.5284V0.5ZM86.5057 0.5H88.4943V-0.5H86.5057V0.5ZM90.483 0.5H92.4716V-0.5H90.483V0.5ZM94.4602 0.5H96.4489V-0.5H94.4602V0.5ZM98.4375 0.5H100.426V-0.5H98.4375V0.5ZM102.415 0.5H104.403V-0.5H102.415V0.5ZM106.392 0.5H108.381V-0.5H106.392V0.5ZM110.369 0.5H112.358V-0.5H110.369V0.5ZM114.347 0.5H116.335V-0.5H114.347V0.5ZM118.324 0.5H120.312V-0.5H118.324V0.5ZM122.301 0.5H124.29V-0.5H122.301V0.5ZM126.278 0.5H128.267V-0.5H126.278V0.5ZM130.256 0.5H132.244V-0.5H130.256V0.5ZM134.233 0.5H136.222V-0.5H134.233V0.5ZM138.21 0.5H140.199V-0.5H138.21V0.5ZM142.188 0.5H144.176V-0.5H142.188V0.5ZM146.165 0.5H148.153V-0.5H146.165V0.5ZM150.142 0.5H152.131V-0.5H150.142V0.5ZM154.119 0.5H156.108V-0.5H154.119V0.5ZM158.097 0.5H160.085V-0.5H158.097V0.5ZM162.074 0.5H164.062V-0.5H162.074V0.5ZM166.051 0.5H168.04V-0.5H166.051V0.5ZM170.028 0.5H172.017V-0.5H170.028V0.5ZM174.006 0.5H175V-0.5H174.006V0.5ZM175.707 0.707107C176.098 0.316583 176.098 -0.316583 175.707 -0.707107L169.343 -7.07107C168.953 -7.46159 168.319 -7.46159 167.929 -7.07107C167.538 -6.68054 167.538 -6.04738 167.929 -5.65685L173.586 0L167.929 5.65685C167.538 6.04738 167.538 6.68054 167.929 7.07107C168.319 7.46159 168.953 7.46159 169.343 7.07107L175.707 0.707107ZM0 1H0.994318V-1H0V1ZM2.98295 1H4.97159V-1H2.98295V1ZM6.96023 1H8.94886V-1H6.96023V1ZM10.9375 1H12.9261V-1H10.9375V1ZM14.9148 1H16.9034V-1H14.9148V1ZM18.892 1H20.8807V-1H18.892V1ZM22.8693 1H24.858V-1H22.8693V1ZM26.8466 1H28.8352V-1H26.8466V1ZM30.8239 1H32.8125V-1H30.8239V1ZM34.8011 1H36.7898V-1H34.8011V1ZM38.7784 1H40.767V-1H38.7784V1ZM42.7557 1H44.7443V-1H42.7557V1ZM46.733 1H48.7216V-1H46.733V1ZM50.7102 1H52.6989V-1H50.7102V1ZM54.6875 1H56.6761V-1H54.6875V1ZM58.6648 1H60.6534V-1H58.6648V1ZM62.642 1H64.6307V-1H62.642V1ZM66.6193 1H68.608V-1H66.6193V1ZM70.5966 1H72.5852V-1H70.5966V1ZM74.5739 1H76.5625V-1H74.5739V1ZM78.5511 1H80.5398V-1H78.5511V1ZM82.5284 1H84.517V-1H82.5284V1ZM86.5057 1H88.4943V-1H86.5057V1ZM90.483 1H92.4716V-1H90.483V1ZM94.4602 1H96.4489V-1H94.4602V1ZM98.4375 1H100.426V-1H98.4375V1ZM102.415 1H104.403V-1H102.415V1ZM106.392 1H108.381V-1H106.392V1ZM110.369 1H112.358V-1H110.369V1ZM114.347 1H116.335V-1H114.347V1ZM118.324 1H120.312V-1H118.324V1ZM122.301 1H124.29V-1H122.301V1ZM126.278 1H128.267V-1H126.278V1ZM130.256 1H132.244V-1H130.256V1ZM134.233 1H136.222V-1H134.233V1ZM138.21 1H140.199V-1H138.21V1ZM142.188 1H144.176V-1H142.188V1ZM146.165 1H148.153V-1H146.165V1ZM150.142 1H152.131V-1H150.142V1ZM154.119 1H156.108V-1H154.119V1ZM158.097 1H160.085V-1H158.097V1ZM162.074 1H164.062V-1H162.074V1ZM166.051 1H168.04V-1H166.051V1ZM170.028 1H172.017V-1H170.028V1ZM174.006 1H175V-1H174.006V1Z" transform="translate(161 235)" fill="#0072B2"/>
<path d="M137.354 0.353553C137.549 0.158291 137.549 -0.158291 137.354 -0.353553L134.172 -3.53553C133.976 -3.7308 133.66 -3.7308 133.464 -3.53553C133.269 -3.34027 133.269 -3.02369 133.464 -2.82843L136.293 0L133.464 2.82843C133.269 3.02369 133.269 3.34027 133.464 3.53553C133.66 3.7308 133.976 3.7308 134.172 3.53553L137.354 0.353553ZM0 0.5H1.00735V-0.5H0V0.5ZM3.02206 0.5H5.03676V-0.5H3.02206V0.5ZM7.05147 0.5H9.06618V-0.5H7.05147V0.5ZM11.0809 0.5H13.0956V-0.5H11.0809V0.5ZM15.1103 0.5H17.125V-0.5H15.1103V0.5ZM19.1397 0.5H21.1544V-0.5H19.1397V0.5ZM23.1691 0.5H25.1838V-0.5H23.1691V0.5ZM27.1985 0.5H29.2132V-0.5H27.1985V0.5ZM31.2279 0.5H33.2426V-0.5H31.2279V0.5ZM35.2574 0.5H37.2721V-0.5H35.2574V0.5ZM39.2868 0.5H41.3015V-0.5H39.2868V0.5ZM43.3162 0.5H45.3309V-0.5H43.3162V0.5ZM47.3456 0.5H49.3603V-0.5H47.3456V0.5ZM51.375 0.5H53.3897V-0.5H51.375V0.5ZM55.4044 0.5H57.4191V-0.5H55.4044V0.5ZM59.4338 0.5H61.4485V-0.5H59.4338V0.5ZM63.4632 0.5H65.4779V-0.5H63.4632V0.5ZM67.4926 0.5H69.5074V-0.5H67.4926V0.5ZM71.5221 0.5H73.5368V-0.5H71.5221V0.5ZM75.5515 0.5H77.5662V-0.5H75.5515V0.5ZM79.5809 0.5H81.5956V-0.5H79.5809V0.5ZM83.6103 0.5H85.625V-0.5H83.6103V0.5ZM87.6397 0.5H89.6544V-0.5H87.6397V0.5ZM91.6691 0.5H93.6838V-0.5H91.6691V0.5ZM95.6985 0.5H97.7132V-0.5H95.6985V0.5ZM99.7279 0.5H101.743V-0.5H99.7279V0.5ZM103.757 0.5H105.772V-0.5H103.757V0.5ZM107.787 0.5H109.801V-0.5H107.787V0.5ZM111.816 0.5H113.831V-0.5H111.816V0.5ZM115.846 0.5H117.86V-0.5H115.846V0.5ZM119.875 0.5H121.89V-0.5H119.875V0.5ZM123.904 0.5H125.919V-0.5H123.904V0.5ZM127.934 0.5H129.949V-0.5H127.934V0.5ZM131.963 0.5H133.978V-0.5H131.963V0.5ZM135.993 0.5H137V-0.5H135.993V0.5ZM137.707 0.707107C138.098 0.316583 138.098 -0.316583 137.707 -0.707107L131.343 -7.07107C130.953 -7.46159 130.319 -7.46159 129.929 -7.07107C129.538 -6.68054 129.538 -6.04738 129.929 -5.65685L135.586 0L129.929 5.65685C129.538 6.04738 129.538 6.68054 129.929 7.07107C130.319 7.46159 130.953 7.46159 131.343 7.07107L137.707 0.707107ZM0 1H1.00735V-1H0V1ZM3.02206 1H5.03676V-1H3.02206V1ZM7.05147 1H9.06618V-1H7.05147V1ZM11.0809 1H13.0956V-1H11.0809V1ZM15.1103 1H17.125V-1H15.1103V1ZM19.1397 1H21.1544V-1H19.1397V1ZM23.1691 1H25.1838V-1H23.1691V1ZM27.1985 1H29.2132V-1H27.1985V1ZM31.2279 1H33.2426V-1H31.2279V1ZM35.2574 1H37.2721V-1H35.2574V1ZM39.2868 1H41.3015V-1H39.2868V1ZM43.3162 1H45.3309V-1H43.3162V1ZM47.3456 1H49.3603V-1H47.3456V1ZM51.375 1H53.3897V-1H51.375V1ZM55.4044 1H57.4191V-1H55.4044V1ZM59.4338 1H61.4485V-1H59.4338V1ZM63.4632 1H65.4779V-1H63.4632V1ZM67.4926 1H69.5074V-1H67.4926V1ZM71.5221 1H73.5368V-1H71.5221V1ZM75.5515 1H77.5662V-1H75.5515V1ZM79.5809 1H81.5956V-1H79.5809V1ZM83.6103 1H85.625V-1H83.6103V1ZM87.6397 1H89.6544V-1H87.6397V1ZM91.6691 1H93.6838V-1H91.6691V1ZM95.6985 1H97.7132V-1H95.6985V1ZM99.7279 1H101.743V-1H99.7279V1ZM103.757 1H105.772V-1H103.757V1ZM107.787 1H109.801V-1H107.787V1ZM111.816 1H113.831V-1H111.816V1ZM115.846 1H117.86V-1H115.846V1ZM119.875 1H121.89V-1H119.875V1ZM123.904 1H125.919V-1H123.904V1ZM127.934 1H129.949V-1H127.934V1ZM131.963 1H133.978V-1H131.963V1ZM135.993 1H137V-1H135.993V1Z" transform="translate(161 235) rotate(180)" fill="#0072B2"/>
<path d="M76.1077 0.353553C76.3029 0.158291 76.3029 -0.158291 76.1077 -0.353553L72.9257 -3.53553C72.7304 -3.7308 72.4138 -3.7308 72.2186 -3.53553C72.0233 -3.34027 72.0233 -3.02369 72.2186 -2.82843L75.047 0L72.2186 2.82843C72.0233 3.02369 72.0233 3.34027 72.2186 3.53553C72.4138 3.7308 72.7304 3.7308 72.9257 3.53553L76.1077 0.353553ZM0 0.5H0.996765V-0.5H0V0.5ZM2.99029 0.5H4.98382V-0.5H2.99029V0.5ZM6.97735 0.5H8.97088V-0.5H6.97735V0.5ZM10.9644 0.5H12.9579V-0.5H10.9644V0.5ZM14.9515 0.5H16.945V-0.5H14.9515V0.5ZM18.9385 0.5H20.9321V-0.5H18.9385V0.5ZM22.9256 0.5H24.9191V-0.5H22.9256V0.5ZM26.9126 0.5H28.9062V-0.5H26.9126V0.5ZM30.8997 0.5H32.8932V-0.5H30.8997V0.5ZM34.8868 0.5H36.8803V-0.5H34.8868V0.5ZM38.8738 0.5H40.8674V-0.5H38.8738V0.5ZM42.8609 0.5H44.8544V-0.5H42.8609V0.5ZM46.8479 0.5H48.8415V-0.5H46.8479V0.5ZM50.835 0.5H52.8285V-0.5H50.835V0.5ZM54.8221 0.5H56.8156V-0.5H54.8221V0.5ZM58.8091 0.5H60.8026V-0.5H58.8091V0.5ZM62.7962 0.5H64.7897V-0.5H62.7962V0.5ZM66.7832 0.5H68.7768V-0.5H66.7832V0.5ZM70.7703 0.5H72.7638V-0.5H70.7703V0.5ZM74.7574 0.5H75.7541V-0.5H74.7574V0.5ZM76.4612 0.707107C76.8518 0.316583 76.8518 -0.316583 76.4612 -0.707107L70.0973 -7.07107C69.7067 -7.46159 69.0736 -7.46159 68.6831 -7.07107C68.2925 -6.68054 68.2925 -6.04738 68.6831 -5.65685L74.3399 0L68.6831 5.65685C68.2925 6.04738 68.2925 6.68054 68.6831 7.07107C69.0736 7.46159 69.7067 7.46159 70.0973 7.07107L76.4612 0.707107ZM0 1H0.996765V-1H0V1ZM2.99029 1H4.98382V-1H2.99029V1ZM6.97735 1H8.97088V-1H6.97735V1ZM10.9644 1H12.9579V-1H10.9644V1ZM14.9515 1H16.945V-1H14.9515V1ZM18.9385 1H20.9321V-1H18.9385V1ZM22.9256 1H24.9191V-1H22.9256V1ZM26.9126 1H28.9062V-1H26.9126V1ZM30.8997 1H32.8932V-1H30.8997V1ZM34.8868 1H36.8803V-1H34.8868V1ZM38.8738 1H40.8674V-1H38.8738V1ZM42.8609 1H44.8544V-1H42.8609V1ZM46.8479 1H48.8415V-1H46.8479V1ZM50.835 1H52.8285V-1H50.835V1ZM54.8221 1H56.8156V-1H54.8221V1ZM58.8091 1H60.8026V-1H58.8091V1ZM62.7962 1H64.7897V-1H62.7962V1ZM66.7832 1H68.7768V-1H66.7832V1ZM70.7703 1H72.7638V-1H70.7703V1ZM74.7574 1H75.7541V-1H74.7574V1Z" transform="matrix(1 0 0.0249016 0.99969 118 185)" fill="#D55E00"/>
<path d="M59.6402 0.353553C59.8355 0.158291 59.8355 -0.158291 59.6402 -0.353553L56.4582 -3.53553C56.263 -3.7308 55.9464 -3.7308 55.7511 -3.53553C55.5559 -3.34027 55.5559 -3.02369 55.7511 -2.82843L58.5796 0L55.7511 2.82843C55.5559 3.02369 55.5559 3.34027 55.7511 3.53553C55.9464 3.7308 56.263 3.7308 56.4582 3.53553L59.6402 0.353553ZM0 0.5H0.988111V-0.5H0V0.5ZM2.96433 0.5H4.94056V-0.5H2.96433V0.5ZM6.91678 0.5H8.893V-0.5H6.91678V0.5ZM10.8692 0.5H12.8454V-0.5H10.8692V0.5ZM14.8217 0.5H16.7979V-0.5H14.8217V0.5ZM18.7741 0.5H20.7503V-0.5H18.7741V0.5ZM22.7266 0.5H24.7028V-0.5H22.7266V0.5ZM26.679 0.5H28.6552V-0.5H26.679V0.5ZM30.6314 0.5H32.6077V-0.5H30.6314V0.5ZM34.5839 0.5H36.5601V-0.5H34.5839V0.5ZM38.5363 0.5H40.5126V-0.5H38.5363V0.5ZM42.4888 0.5H44.465V-0.5H42.4888V0.5ZM46.4412 0.5H48.4174V-0.5H46.4412V0.5ZM50.3937 0.5H52.3699V-0.5H50.3937V0.5ZM54.3461 0.5H56.3223V-0.5H54.3461V0.5ZM58.2986 0.5H59.2867V-0.5H58.2986V0.5ZM59.9938 0.707107C60.3843 0.316583 60.3843 -0.316583 59.9938 -0.707107L53.6298 -7.07107C53.2393 -7.46159 52.6061 -7.46159 52.2156 -7.07107C51.8251 -6.68054 51.8251 -6.04738 52.2156 -5.65685L57.8725 0L52.2156 5.65685C51.8251 6.04738 51.8251 6.68054 52.2156 7.07107C52.6061 7.46159 53.2393 7.46159 53.6298 7.07107L59.9938 0.707107ZM0 1H0.988111V-1H0V1ZM2.96433 1H4.94056V-1H2.96433V1ZM6.91678 1H8.893V-1H6.91678V1ZM10.8692 1H12.8454V-1H10.8692V1ZM14.8217 1H16.7979V-1H14.8217V1ZM18.7741 1H20.7503V-1H18.7741V1ZM22.7266 1H24.7028V-1H22.7266V1ZM26.679 1H28.6552V-1H26.679V1ZM30.6314 1H32.6077V-1H30.6314V1ZM34.5839 1H36.5601V-1H34.5839V1ZM38.5363 1H40.5126V-1H38.5363V1ZM42.4888 1H44.465V-1H42.4888V1ZM46.4412 1H48.4174V-1H46.4412V1ZM50.3937 1H52.3699V-1H50.3937V1ZM54.3461 1H56.3223V-1H54.3461V1ZM58.2986 1H59.2867V-1H58.2986V1Z" transform="matrix(-1 0 -0.00372224 -0.999993 118.287 185)" fill="#D55E00"/>
<path d="M11.6875 9.92969C10.401 9.5599 9.46354 9.10677 8.875 8.57031C8.29167 8.02865 8 7.36198 8 6.57031C8 5.67448 8.35677 4.9349 9.07031 4.35156C9.78906 3.76302 10.7214 3.46875 11.8672 3.46875C12.6484 3.46875 13.3438 3.61979 13.9531 3.92188C14.5677 4.22396 15.0417 4.64062 15.375 5.17188C15.7135 5.70312 15.8828 6.28385 15.8828 6.91406H14.375C14.375 6.22656 14.1562 5.6875 13.7188 5.29688C13.2812 4.90104 12.6641 4.70312 11.8672 4.70312C11.1276 4.70312 10.5495 4.86719 10.1328 5.19531C9.72135 5.51823 9.51562 5.96875 9.51562 6.54688C9.51562 7.01042 9.71094 7.40365 10.1016 7.72656C10.4974 8.04427 11.1667 8.33594 12.1094 8.60156C13.0573 8.86719 13.7969 9.16146 14.3281 9.48438C14.8646 9.80208 15.2604 10.1745 15.5156 10.6016C15.776 11.0286 15.9062 11.5312 15.9062 12.1094C15.9062 13.0312 15.5469 13.7708 14.8281 14.3281C14.1094 14.8802 13.1484 15.1562 11.9453 15.1562C11.1641 15.1562 10.4349 15.0078 9.75781 14.7109C9.08073 14.4089 8.55729 13.9974 8.1875 13.4766C7.82292 12.9557 7.64062 12.3646 7.64062 11.7031H9.14844C9.14844 12.3906 9.40104 12.9349 9.90625 13.3359C10.4167 13.7318 11.0964 13.9297 11.9453 13.9297C12.737 13.9297 13.3438 13.7682 13.7656 13.4453C14.1875 13.1224 14.3984 12.6823 14.3984 12.125C14.3984 11.5677 14.2031 11.138 13.8125 10.8359C13.4219 10.5286 12.7135 10.2266 11.6875 9.92969ZM24.75 10.8672C24.75 12.1536 24.4557 13.1901 23.8672 13.9766C23.2786 14.763 22.4818 15.1562 21.4766 15.1562C20.4505 15.1562 19.6432 14.8307 19.0547 14.1797V18.25H17.6094V6.54688H18.9297L19 7.48438C19.5885 6.75521 20.4062 6.39062 21.4531 6.39062C22.4688 6.39062 23.2708 6.77344 23.8594 7.53906C24.4531 8.30469 24.75 9.36979 24.75 10.7344V10.8672ZM23.3047 10.7031C23.3047 9.75 23.1016 8.9974 22.6953 8.44531C22.2891 7.89323 21.7318 7.61719 21.0234 7.61719C20.1484 7.61719 19.4922 8.00521 19.0547 8.78125V12.8203C19.487 13.5911 20.1484 13.9766 21.0391 13.9766C21.7318 13.9766 22.2812 13.7031 22.6875 13.1562C23.099 12.6042 23.3047 11.7865 23.3047 10.7031ZM30.6797 7.84375C30.4609 7.80729 30.224 7.78906 29.9688 7.78906C29.0208 7.78906 28.3776 8.19271 28.0391 9V15H26.5938V6.54688H28L28.0234 7.52344C28.4974 6.76823 29.1693 6.39062 30.0391 6.39062C30.3203 6.39062 30.5339 6.42708 30.6797 6.5V7.84375ZM35.3672 15.1562C34.2214 15.1562 33.2891 14.7812 32.5703 14.0312C31.8516 13.276 31.4922 12.2682 31.4922 11.0078V10.7422C31.4922 9.90365 31.651 9.15625 31.9688 8.5C32.2917 7.83854 32.7396 7.32292 33.3125 6.95312C33.8906 6.57812 34.5156 6.39062 35.1875 6.39062C36.2865 6.39062 37.1406 6.7526 37.75 7.47656C38.3594 8.20052 38.6641 9.23698 38.6641 10.5859V11.1875H32.9375C32.9583 12.0208 33.2005 12.6953 33.6641 13.2109C34.1328 13.7214 34.7266 13.9766 35.4453 13.9766C35.9557 13.9766 36.388 13.8724 36.7422 13.6641C37.0964 13.4557 37.4062 13.1797 37.6719 12.8359L38.5547 13.5234C37.8464 14.612 36.7839 15.1562 35.3672 15.1562ZM35.1875 7.57812C34.6042 7.57812 34.1146 7.79167 33.7188 8.21875C33.3229 8.64062 33.0781 9.23438 32.9844 10H37.2188V9.89062C37.1771 9.15625 36.9792 8.58854 36.625 8.1875C36.2708 7.78125 35.7917 7.57812 35.1875 7.57812ZM45.5625 15C45.4792 14.8333 45.4115 14.5365 45.3594 14.1094C44.6875 14.8073 43.8854 15.1562 42.9531 15.1562C42.1198 15.1562 41.4349 14.9219 40.8984 14.4531C40.3672 13.9792 40.1016 13.3802 40.1016 12.6562C40.1016 11.776 40.4349 11.0938 41.1016 10.6094C41.7734 10.1198 42.7161 9.875 43.9297 9.875H45.3359V9.21094C45.3359 8.70573 45.1849 8.30469 44.8828 8.00781C44.5807 7.70573 44.1354 7.55469 43.5469 7.55469C43.0312 7.55469 42.599 7.6849 42.25 7.94531C41.901 8.20573 41.7266 8.52083 41.7266 8.89062H40.2734C40.2734 8.46875 40.4219 8.0625 40.7188 7.67188C41.0208 7.27604 41.4271 6.96354 41.9375 6.73438C42.4531 6.50521 43.0182 6.39062 43.6328 6.39062C44.6068 6.39062 45.3698 6.63542 45.9219 7.125C46.474 7.60938 46.7604 8.27865 46.7812 9.13281V13.0234C46.7812 13.7995 46.8802 14.4167 47.0781 14.875V15H45.5625ZM43.1641 13.8984C43.6172 13.8984 44.0469 13.7812 44.4531 13.5469C44.8594 13.3125 45.1536 13.0078 45.3359 12.6328V10.8984H44.2031C42.4323 10.8984 41.5469 11.4167 41.5469 12.4531C41.5469 12.9062 41.6979 13.2604 42 13.5156C42.3021 13.7708 42.6901 13.8984 43.1641 13.8984ZM48.6953 10.7031C48.6953 9.40625 49.0026 8.36458 49.6172 7.57812C50.2318 6.78646 51.0365 6.39062 52.0312 6.39062C53.0208 6.39062 53.8047 6.72917 54.3828 7.40625V3H55.8281V15H54.5L54.4297 14.0938C53.8516 14.8021 53.0469 15.1562 52.0156 15.1562C51.0365 15.1562 50.237 14.7552 49.6172 13.9531C49.0026 13.151 48.6953 12.1042 48.6953 10.8125V10.7031ZM50.1406 10.8672C50.1406 11.8255 50.3385 12.5755 50.7344 13.1172C51.1302 13.6589 51.6771 13.9297 52.375 13.9297C53.2917 13.9297 53.9609 13.5182 54.3828 12.6953V8.8125C53.9505 8.01562 53.2865 7.61719 52.3906 7.61719C51.6823 7.61719 51.1302 7.89062 50.7344 8.4375C50.3385 8.98438 50.1406 9.79427 50.1406 10.8672ZM1.22656 29.3828C1.22656 28.2057 1.38281 27.0755 1.69531 25.9922C2.01302 24.9089 2.48438 23.9245 3.10938 23.0391C3.73438 22.1536 4.38281 21.5286 5.05469 21.1641L5.35156 22.1172C4.59115 22.7005 3.96615 23.5911 3.47656 24.7891C2.99219 25.987 2.72656 27.3281 2.67969 28.8125L2.67188 29.4766C2.67188 31.487 3.03906 33.2318 3.77344 34.7109C4.21615 35.5964 4.74219 36.2891 5.35156 36.7891L5.05469 37.6719C4.36198 37.2865 3.70052 36.6406 3.07031 35.7344C1.84115 33.9635 1.22656 31.8464 1.22656 29.3828ZM11.1016 31.6641C11.1016 31.388 10.9635 31.1719 10.6875 31.0156C10.4167 30.8542 9.97917 30.7109 9.375 30.5859C7.36458 30.1641 6.35938 29.3099 6.35938 28.0234C6.35938 27.2734 6.66927 26.6484 7.28906 26.1484C7.91406 25.6432 8.72917 25.3906 9.73438 25.3906C10.8073 25.3906 11.6641 25.6432 12.3047 26.1484C12.9505 26.6536 13.2734 27.3099 13.2734 28.1172H11.0156C11.0156 27.7943 10.9115 27.5286 10.7031 27.3203C10.4948 27.1068 10.1693 27 9.72656 27C9.34635 27 9.05208 27.0859 8.84375 27.2578C8.63542 27.4297 8.53125 27.6484 8.53125 27.9141C8.53125 28.1641 8.64844 28.3672 8.88281 28.5234C9.1224 28.6745 9.52344 28.8073 10.0859 28.9219C10.6484 29.0312 11.1224 29.1562 11.5078 29.2969C12.7005 29.7344 13.2969 30.4922 13.2969 31.5703C13.2969 32.3411 12.9661 32.9661 12.3047 33.4453C11.6432 33.9193 10.7891 34.1562 9.74219 34.1562C9.03385 34.1562 8.40365 34.0312 7.85156 33.7812C7.30469 33.526 6.875 33.1797 6.5625 32.7422C6.25 32.2995 6.09375 31.8229 6.09375 31.3125H8.23438C8.25521 31.7135 8.40365 32.0208 8.67969 32.2344C8.95573 32.4479 9.32552 32.5547 9.78906 32.5547C10.2214 32.5547 10.5469 32.474 10.7656 32.3125C10.9896 32.1458 11.1016 31.9297 11.1016 31.6641ZM19.6562 34C19.5521 33.7969 19.4766 33.5443 19.4297 33.2422C18.8828 33.8516 18.1719 34.1562 17.2969 34.1562C16.4688 34.1562 15.7812 33.9167 15.2344 33.4375C14.6927 32.9583 14.4219 32.3542 14.4219 31.625C14.4219 30.7292 14.7526 30.0417 15.4141 29.5625C16.0807 29.0833 17.0417 28.8411 18.2969 28.8359H19.3359V28.3516C19.3359 27.9609 19.2344 27.6484 19.0312 27.4141C18.8333 27.1797 18.5182 27.0625 18.0859 27.0625C17.7057 27.0625 17.4062 27.1536 17.1875 27.3359C16.974 27.5182 16.8672 27.7682 16.8672 28.0859H14.6094C14.6094 27.5964 14.7604 27.1432 15.0625 26.7266C15.3646 26.3099 15.7917 25.9844 16.3438 25.75C16.8958 25.5104 17.5156 25.3906 18.2031 25.3906C19.2448 25.3906 20.0703 25.6536 20.6797 26.1797C21.2943 26.7005 21.6016 27.4349 21.6016 28.3828V32.0469C21.6068 32.849 21.7188 33.4557 21.9375 33.8672V34H19.6562ZM17.7891 32.4297C18.1224 32.4297 18.4297 32.3568 18.7109 32.2109C18.9922 32.0599 19.2005 31.8594 19.3359 31.6094V30.1562H18.4922C17.362 30.1562 16.7604 30.5469 16.6875 31.3281L16.6797 31.4609C16.6797 31.7422 16.7786 31.974 16.9766 32.1562C17.1745 32.3385 17.4453 32.4297 17.7891 32.4297ZM25.4531 25.5469L25.5234 26.4922C26.1224 25.7578 26.9323 25.3906 27.9531 25.3906C29.0417 25.3906 29.7891 25.8203 30.1953 26.6797C30.7891 25.8203 31.6354 25.3906 32.7344 25.3906C33.651 25.3906 34.3333 25.6589 34.7812 26.1953C35.2292 26.7266 35.4531 27.5286 35.4531 28.6016V34H33.1875V28.6094C33.1875 28.1302 33.0938 27.7812 32.9062 27.5625C32.7188 27.3385 32.388 27.2266 31.9141 27.2266C31.237 27.2266 30.7682 27.5495 30.5078 28.1953L30.5156 34H28.2578V28.6172C28.2578 28.1276 28.1615 27.7734 27.9688 27.5547C27.776 27.3359 27.4479 27.2266 26.9844 27.2266C26.3438 27.2266 25.8802 27.4922 25.5938 28.0234V34H23.3359V25.5469H25.4531ZM44.8047 29.8516C44.8047 31.1536 44.5078 32.1979 43.9141 32.9844C43.3255 33.7656 42.5286 34.1562 41.5234 34.1562C40.6693 34.1562 39.9792 33.8594 39.4531 33.2656V37.25H37.1953V25.5469H39.2891L39.3672 26.375C39.9141 25.7188 40.6276 25.3906 41.5078 25.3906C42.5495 25.3906 43.3594 25.776 43.9375 26.5469C44.5156 27.3177 44.8047 28.3802 44.8047 29.7344V29.8516ZM42.5469 29.6875C42.5469 28.901 42.4062 28.2943 42.125 27.8672C41.849 27.4401 41.4453 27.2266 40.9141 27.2266C40.2057 27.2266 39.7188 27.4974 39.4531 28.0391V31.5C39.7292 32.0573 40.2214 32.3359 40.9297 32.3359C42.0078 32.3359 42.5469 31.4531 42.5469 29.6875ZM48.5938 34H46.3281V22H48.5938V34ZM54.3516 34.1562C53.112 34.1562 52.1016 33.776 51.3203 33.0156C50.5443 32.2552 50.1562 31.2422 50.1562 29.9766V29.7578C50.1562 28.9089 50.3203 28.151 50.6484 27.4844C50.9766 26.8125 51.4401 26.2969 52.0391 25.9375C52.6432 25.5729 53.3307 25.3906 54.1016 25.3906C55.2578 25.3906 56.1667 25.7552 56.8281 26.4844C57.4948 27.2135 57.8281 28.2474 57.8281 29.5859V30.5078H52.4453C52.5182 31.0599 52.737 31.5026 53.1016 31.8359C53.4714 32.1693 53.9375 32.3359 54.5 32.3359C55.3698 32.3359 56.0495 32.0208 56.5391 31.3906L57.6484 32.6328C57.3099 33.112 56.8516 33.487 56.2734 33.7578C55.6953 34.0234 55.0547 34.1562 54.3516 34.1562ZM54.0938 27.2188C53.6458 27.2188 53.2812 27.3698 53 27.6719C52.724 27.974 52.5469 28.4062 52.4688 28.9688H55.6094V28.7891C55.599 28.2891 55.4635 27.9036 55.2031 27.6328C54.9427 27.3568 54.5729 27.2188 54.0938 27.2188ZM62.6797 29.4609C62.6797 30.6224 62.526 31.737 62.2188 32.8047C61.9167 33.8672 61.4505 34.849 60.8203 35.75C60.1953 36.651 59.5391 37.2917 58.8516 37.6719L58.5469 36.7891C59.349 36.1745 59.9922 35.2214 60.4766 33.9297C60.9661 32.6328 61.2161 31.1953 61.2266 29.6172V29.3672C61.2266 28.2734 61.112 27.2578 60.8828 26.3203C60.6536 25.3776 60.3333 24.5339 59.9219 23.7891C59.5156 23.0443 59.0573 22.4635 58.5469 22.0469L58.8516 21.1641C59.5391 21.5443 60.1927 22.1797 60.8125 23.0703C61.4375 23.9609 61.9036 24.9427 62.2109 26.0156C62.5234 27.0885 62.6797 28.237 62.6797 29.4609Z" transform="translate(95 189)" fill="#D55E00"/>
<path d="M23.6875 9.92969C22.401 9.5599 21.4635 9.10677 20.875 8.57031C20.2917 8.02865 20 7.36198 20 6.57031C20 5.67448 20.3568 4.9349 21.0703 4.35156C21.7891 3.76302 22.7214 3.46875 23.8672 3.46875C24.6484 3.46875 25.3438 3.61979 25.9531 3.92188C26.5677 4.22396 27.0417 4.64062 27.375 5.17188C27.7135 5.70312 27.8828 6.28385 27.8828 6.91406H26.375C26.375 6.22656 26.1562 5.6875 25.7188 5.29688C25.2812 4.90104 24.6641 4.70312 23.8672 4.70312C23.1276 4.70312 22.5495 4.86719 22.1328 5.19531C21.7214 5.51823 21.5156 5.96875 21.5156 6.54688C21.5156 7.01042 21.7109 7.40365 22.1016 7.72656C22.4974 8.04427 23.1667 8.33594 24.1094 8.60156C25.0573 8.86719 25.7969 9.16146 26.3281 9.48438C26.8646 9.80208 27.2604 10.1745 27.5156 10.6016C27.776 11.0286 27.9062 11.5312 27.9062 12.1094C27.9062 13.0312 27.5469 13.7708 26.8281 14.3281C26.1094 14.8802 25.1484 15.1562 23.9453 15.1562C23.1641 15.1562 22.4349 15.0078 21.7578 14.7109C21.0807 14.4089 20.5573 13.9974 20.1875 13.4766C19.8229 12.9557 19.6406 12.3646 19.6406 11.7031H21.1484C21.1484 12.3906 21.401 12.9349 21.9062 13.3359C22.4167 13.7318 23.0964 13.9297 23.9453 13.9297C24.737 13.9297 25.3438 13.7682 25.7656 13.4453C26.1875 13.1224 26.3984 12.6823 26.3984 12.125C26.3984 11.5677 26.2031 11.138 25.8125 10.8359C25.4219 10.5286 24.7135 10.2266 23.6875 9.92969ZM36.75 10.8672C36.75 12.1536 36.4557 13.1901 35.8672 13.9766C35.2786 14.763 34.4818 15.1562 33.4766 15.1562C32.4505 15.1562 31.6432 14.8307 31.0547 14.1797V18.25H29.6094V6.54688H30.9297L31 7.48438C31.5885 6.75521 32.4062 6.39062 33.4531 6.39062C34.4688 6.39062 35.2708 6.77344 35.8594 7.53906C36.4531 8.30469 36.75 9.36979 36.75 10.7344V10.8672ZM35.3047 10.7031C35.3047 9.75 35.1016 8.9974 34.6953 8.44531C34.2891 7.89323 33.7318 7.61719 33.0234 7.61719C32.1484 7.61719 31.4922 8.00521 31.0547 8.78125V12.8203C31.487 13.5911 32.1484 13.9766 33.0391 13.9766C33.7318 13.9766 34.2812 13.7031 34.6875 13.1562C35.099 12.6042 35.3047 11.7865 35.3047 10.7031ZM42.6797 7.84375C42.4609 7.80729 42.224 7.78906 41.9688 7.78906C41.0208 7.78906 40.3776 8.19271 40.0391 9V15H38.5938V6.54688H40L40.0234 7.52344C40.4974 6.76823 41.1693 6.39062 42.0391 6.39062C42.3203 6.39062 42.5339 6.42708 42.6797 6.5V7.84375ZM47.3672 15.1562C46.2214 15.1562 45.2891 14.7812 44.5703 14.0312C43.8516 13.276 43.4922 12.2682 43.4922 11.0078V10.7422C43.4922 9.90365 43.651 9.15625 43.9688 8.5C44.2917 7.83854 44.7396 7.32292 45.3125 6.95312C45.8906 6.57812 46.5156 6.39062 47.1875 6.39062C48.2865 6.39062 49.1406 6.7526 49.75 7.47656C50.3594 8.20052 50.6641 9.23698 50.6641 10.5859V11.1875H44.9375C44.9583 12.0208 45.2005 12.6953 45.6641 13.2109C46.1328 13.7214 46.7266 13.9766 47.4453 13.9766C47.9557 13.9766 48.388 13.8724 48.7422 13.6641C49.0964 13.4557 49.4062 13.1797 49.6719 12.8359L50.5547 13.5234C49.8464 14.612 48.7839 15.1562 47.3672 15.1562ZM47.1875 7.57812C46.6042 7.57812 46.1146 7.79167 45.7188 8.21875C45.3229 8.64062 45.0781 9.23438 44.9844 10H49.2188V9.89062C49.1771 9.15625 48.9792 8.58854 48.625 8.1875C48.2708 7.78125 47.7917 7.57812 47.1875 7.57812ZM57.5625 15C57.4792 14.8333 57.4115 14.5365 57.3594 14.1094C56.6875 14.8073 55.8854 15.1562 54.9531 15.1562C54.1198 15.1562 53.4349 14.9219 52.8984 14.4531C52.3672 13.9792 52.1016 13.3802 52.1016 12.6562C52.1016 11.776 52.4349 11.0938 53.1016 10.6094C53.7734 10.1198 54.7161 9.875 55.9297 9.875H57.3359V9.21094C57.3359 8.70573 57.1849 8.30469 56.8828 8.00781C56.5807 7.70573 56.1354 7.55469 55.5469 7.55469C55.0312 7.55469 54.599 7.6849 54.25 7.94531C53.901 8.20573 53.7266 8.52083 53.7266 8.89062H52.2734C52.2734 8.46875 52.4219 8.0625 52.7188 7.67188C53.0208 7.27604 53.4271 6.96354 53.9375 6.73438C54.4531 6.50521 55.0182 6.39062 55.6328 6.39062C56.6068 6.39062 57.3698 6.63542 57.9219 7.125C58.474 7.60938 58.7604 8.27865 58.7812 9.13281V13.0234C58.7812 13.7995 58.8802 14.4167 59.0781 14.875V15H57.5625ZM55.1641 13.8984C55.6172 13.8984 56.0469 13.7812 56.4531 13.5469C56.8594 13.3125 57.1536 13.0078 57.3359 12.6328V10.8984H56.2031C54.4323 10.8984 53.5469 11.4167 53.5469 12.4531C53.5469 12.9062 53.6979 13.2604 54 13.5156C54.3021 13.7708 54.6901 13.8984 55.1641 13.8984ZM60.6953 10.7031C60.6953 9.40625 61.0026 8.36458 61.6172 7.57812C62.2318 6.78646 63.0365 6.39062 64.0312 6.39062C65.0208 6.39062 65.8047 6.72917 66.3828 7.40625V3H67.8281V15H66.5L66.4297 14.0938C65.8516 14.8021 65.0469 15.1562 64.0156 15.1562C63.0365 15.1562 62.237 14.7552 61.6172 13.9531C61.0026 13.151 60.6953 12.1042 60.6953 10.8125V10.7031ZM62.1406 10.8672C62.1406 11.8255 62.3385 12.5755 62.7344 13.1172C63.1302 13.6589 63.6771 13.9297 64.375 13.9297C65.2917 13.9297 65.9609 13.5182 66.3828 12.6953V8.8125C65.9505 8.01562 65.2865 7.61719 64.3906 7.61719C63.6823 7.61719 63.1302 7.89062 62.7344 8.4375C62.3385 8.98438 62.1406 9.79427 62.1406 10.8672ZM1.25781 29.3828C1.25781 28.2057 1.41406 27.0755 1.72656 25.9922C2.04427 24.9089 2.51562 23.9245 3.14062 23.0391C3.76562 22.1536 4.41406 21.5286 5.08594 21.1641L5.38281 22.1172C4.6224 22.7005 3.9974 23.5911 3.50781 24.7891C3.02344 25.987 2.75781 27.3281 2.71094 28.8125L2.70312 29.4766C2.70312 31.487 3.07031 33.2318 3.80469 34.7109C4.2474 35.5964 4.77344 36.2891 5.38281 36.7891L5.08594 37.6719C4.39323 37.2865 3.73177 36.6406 3.10156 35.7344C1.8724 33.9635 1.25781 31.8464 1.25781 29.3828ZM14.1641 29.8516C14.1641 31.1536 13.8672 32.1979 13.2734 32.9844C12.6849 33.7656 11.888 34.1562 10.8828 34.1562C10.0286 34.1562 9.33854 33.8594 8.8125 33.2656V37.25H6.55469V25.5469H8.64844L8.72656 26.375C9.27344 25.7188 9.98698 25.3906 10.8672 25.3906C11.9089 25.3906 12.7188 25.776 13.2969 26.5469C13.875 27.3177 14.1641 28.3802 14.1641 29.7344V29.8516ZM11.9062 29.6875C11.9062 28.901 11.7656 28.2943 11.4844 27.8672C11.2083 27.4401 10.8047 27.2266 10.2734 27.2266C9.5651 27.2266 9.07812 27.4974 8.8125 28.0391V31.5C9.08854 32.0573 9.58073 32.3359 10.2891 32.3359C11.3672 32.3359 11.9062 31.4531 11.9062 29.6875ZM15.2188 29.6953C15.2188 28.8568 15.3802 28.1094 15.7031 27.4531C16.026 26.7969 16.4896 26.2891 17.0938 25.9297C17.7031 25.5703 18.4089 25.3906 19.2109 25.3906C20.3516 25.3906 21.2812 25.7396 22 26.4375C22.724 27.1354 23.1276 28.0833 23.2109 29.2812L23.2266 29.8594C23.2266 31.1562 22.8646 32.1979 22.1406 32.9844C21.4167 33.7656 20.4453 34.1562 19.2266 34.1562C18.0078 34.1562 17.0339 33.7656 16.3047 32.9844C15.5807 32.2031 15.2188 31.1406 15.2188 29.7969V29.6953ZM17.4766 29.8594C17.4766 30.6615 17.6276 31.276 17.9297 31.7031C18.2318 32.125 18.6641 32.3359 19.2266 32.3359C19.7734 32.3359 20.2005 32.1276 20.5078 31.7109C20.8151 31.2891 20.9688 30.6172 20.9688 29.6953C20.9688 28.9089 20.8151 28.2995 20.5078 27.8672C20.2005 27.4349 19.7682 27.2188 19.2109 27.2188C18.6589 27.2188 18.2318 27.4349 17.9297 27.8672C17.6276 28.2943 17.4766 28.9583 17.4766 29.8594ZM32.2266 29.8516C32.2266 31.1536 31.9297 32.1979 31.3359 32.9844C30.7474 33.7656 29.9505 34.1562 28.9453 34.1562C28.0911 34.1562 27.401 33.8594 26.875 33.2656V37.25H24.6172V25.5469H26.7109L26.7891 26.375C27.3359 25.7188 28.0495 25.3906 28.9297 25.3906C29.9714 25.3906 30.7812 25.776 31.3594 26.5469C31.9375 27.3177 32.2266 28.3802 32.2266 29.7344V29.8516ZM29.9688 29.6875C29.9688 28.901 29.8281 28.2943 29.5469 27.8672C29.2708 27.4401 28.8672 27.2266 28.3359 27.2266C27.6276 27.2266 27.1406 27.4974 26.875 28.0391V31.5C27.151 32.0573 27.6432 32.3359 28.3516 32.3359C29.4297 32.3359 29.9688 31.4531 29.9688 29.6875ZM38.6953 33.1406C38.138 33.8177 37.3672 34.1562 36.3828 34.1562C35.4766 34.1562 34.7839 33.8958 34.3047 33.375C33.8307 32.8542 33.5885 32.0911 33.5781 31.0859V25.5469H35.8359V31.0078C35.8359 31.888 36.237 32.3281 37.0391 32.3281C37.8047 32.3281 38.3307 32.0625 38.6172 31.5312V25.5469H40.8828V34H38.7578L38.6953 33.1406ZM44.9688 34H42.7031V22H44.9688V34ZM51.7344 34C51.6302 33.7969 51.5547 33.5443 51.5078 33.2422C50.9609 33.8516 50.25 34.1562 49.375 34.1562C48.5469 34.1562 47.8594 33.9167 47.3125 33.4375C46.7708 32.9583 46.5 32.3542 46.5 31.625C46.5 30.7292 46.8307 30.0417 47.4922 29.5625C48.1589 29.0833 49.1198 28.8411 50.375 28.8359H51.4141V28.3516C51.4141 27.9609 51.3125 27.6484 51.1094 27.4141C50.9115 27.1797 50.5964 27.0625 50.1641 27.0625C49.7839 27.0625 49.4844 27.1536 49.2656 27.3359C49.0521 27.5182 48.9453 27.7682 48.9453 28.0859H46.6875C46.6875 27.5964 46.8385 27.1432 47.1406 26.7266C47.4427 26.3099 47.8698 25.9844 48.4219 25.75C48.974 25.5104 49.5938 25.3906 50.2812 25.3906C51.3229 25.3906 52.1484 25.6536 52.7578 26.1797C53.3724 26.7005 53.6797 27.4349 53.6797 28.3828V32.0469C53.6849 32.849 53.7969 33.4557 54.0156 33.8672V34H51.7344ZM49.8672 32.4297C50.2005 32.4297 50.5078 32.3568 50.7891 32.2109C51.0703 32.0599 51.2786 31.8594 51.4141 31.6094V30.1562H50.5703C49.4401 30.1562 48.8385 30.5469 48.7656 31.3281L48.7578 31.4609C48.7578 31.7422 48.8568 31.974 49.0547 32.1562C49.2526 32.3385 49.5234 32.4297 49.8672 32.4297ZM58.1172 23.4688V25.5469H59.5625V27.2031H58.1172V31.4219C58.1172 31.7344 58.1771 31.9583 58.2969 32.0938C58.4167 32.2292 58.6458 32.2969 58.9844 32.2969C59.2344 32.2969 59.4557 32.2786 59.6484 32.2422V33.9531C59.2057 34.0885 58.75 34.1562 58.2812 34.1562C56.6979 34.1562 55.8906 33.3568 55.8594 31.7578V27.2031H54.625V25.5469H55.8594V23.4688H58.1172ZM63.2031 34H60.9375V25.5469H63.2031V34ZM60.8047 23.3594C60.8047 23.0208 60.9167 22.7422 61.1406 22.5234C61.3698 22.3047 61.6797 22.1953 62.0703 22.1953C62.4557 22.1953 62.763 22.3047 62.9922 22.5234C63.2214 22.7422 63.3359 23.0208 63.3359 23.3594C63.3359 23.7031 63.2188 23.9844 62.9844 24.2031C62.7552 24.4219 62.4505 24.5312 62.0703 24.5312C61.6901 24.5312 61.3828 24.4219 61.1484 24.2031C60.9193 23.9844 60.8047 23.7031 60.8047 23.3594ZM64.7188 29.6953C64.7188 28.8568 64.8802 28.1094 65.2031 27.4531C65.526 26.7969 65.9896 26.2891 66.5938 25.9297C67.2031 25.5703 67.9089 25.3906 68.7109 25.3906C69.8516 25.3906 70.7812 25.7396 71.5 26.4375C72.224 27.1354 72.6276 28.0833 72.7109 29.2812L72.7266 29.8594C72.7266 31.1562 72.3646 32.1979 71.6406 32.9844C70.9167 33.7656 69.9453 34.1562 68.7266 34.1562C67.5078 34.1562 66.5339 33.7656 65.8047 32.9844C65.0807 32.2031 64.7188 31.1406 64.7188 29.7969V29.6953ZM66.9766 29.8594C66.9766 30.6615 67.1276 31.276 67.4297 31.7031C67.7318 32.125 68.1641 32.3359 68.7266 32.3359C69.2734 32.3359 69.7005 32.1276 70.0078 31.7109C70.3151 31.2891 70.4688 30.6172 70.4688 29.6953C70.4688 28.9089 70.3151 28.2995 70.0078 27.8672C69.7005 27.4349 69.2682 27.2188 68.7109 27.2188C68.1589 27.2188 67.7318 27.4349 67.4297 27.8672C67.1276 28.2943 66.9766 28.9583 66.9766 29.8594ZM76.1953 25.5469L76.2656 26.5234C76.8698 25.7682 77.6797 25.3906 78.6953 25.3906C79.5911 25.3906 80.2578 25.6536 80.6953 26.1797C81.1328 26.7057 81.3568 27.4922 81.3672 28.5391V34H79.1094V28.5938C79.1094 28.1146 79.0052 27.7682 78.7969 27.5547C78.5885 27.3359 78.2422 27.2266 77.7578 27.2266C77.1224 27.2266 76.6458 27.4974 76.3281 28.0391V34H74.0703V25.5469H76.1953ZM86.6484 29.4609C86.6484 30.6224 86.4948 31.737 86.1875 32.8047C85.8854 33.8672 85.4193 34.849 84.7891 35.75C84.1641 36.651 83.5078 37.2917 82.8203 37.6719L82.5156 36.7891C83.3177 36.1745 83.9609 35.2214 84.4453 33.9297C84.9349 32.6328 85.1849 31.1953 85.1953 29.6172V29.3672C85.1953 28.2734 85.0807 27.2578 84.8516 26.3203C84.6224 25.3776 84.3021 24.5339 83.8906 23.7891C83.4844 23.0443 83.026 22.4635 82.5156 22.0469L82.8203 21.1641C83.5078 21.5443 84.1615 22.1797 84.7812 23.0703C85.4062 23.9609 85.8724 24.9427 86.1797 26.0156C86.4922 27.0885 86.6484 28.237 86.6484 29.4609Z" transform="translate(128 239)" fill="#0072B2"/>
<path d="M175.354 0.353553C175.549 0.158291 175.549 -0.158291 175.354 -0.353553L172.172 -3.53553C171.976 -3.7308 171.66 -3.7308 171.464 -3.53553C171.269 -3.34027 171.269 -3.02369 171.464 -2.82843L174.293 0L171.464 2.82843C171.269 3.02369 171.269 3.34027 171.464 3.53553C171.66 3.7308 171.976 3.7308 172.172 3.53553L175.354 0.353553ZM0 0.5H0.994318V-0.5H0V0.5ZM2.98295 0.5H4.97159V-0.5H2.98295V0.5ZM6.96023 0.5H8.94886V-0.5H6.96023V0.5ZM10.9375 0.5H12.9261V-0.5H10.9375V0.5ZM14.9148 0.5H16.9034V-0.5H14.9148V0.5ZM18.892 0.5H20.8807V-0.5H18.892V0.5ZM22.8693 0.5H24.858V-0.5H22.8693V0.5ZM26.8466 0.5H28.8352V-0.5H26.8466V0.5ZM30.8239 0.5H32.8125V-0.5H30.8239V0.5ZM34.8011 0.5H36.7898V-0.5H34.8011V0.5ZM38.7784 0.5H40.767V-0.5H38.7784V0.5ZM42.7557 0.5H44.7443V-0.5H42.7557V0.5ZM46.733 0.5H48.7216V-0.5H46.733V0.5ZM50.7102 0.5H52.6989V-0.5H50.7102V0.5ZM54.6875 0.5H56.6761V-0.5H54.6875V0.5ZM58.6648 0.5H60.6534V-0.5H58.6648V0.5ZM62.642 0.5H64.6307V-0.5H62.642V0.5ZM66.6193 0.5H68.608V-0.5H66.6193V0.5ZM70.5966 0.5H72.5852V-0.5H70.5966V0.5ZM74.5739 0.5H76.5625V-0.5H74.5739V0.5ZM78.5511 0.5H80.5398V-0.5H78.5511V0.5ZM82.5284 0.5H84.517V-0.5H82.5284V0.5ZM86.5057 0.5H88.4943V-0.5H86.5057V0.5ZM90.483 0.5H92.4716V-0.5H90.483V0.5ZM94.4602 0.5H96.4489V-0.5H94.4602V0.5ZM98.4375 0.5H100.426V-0.5H98.4375V0.5ZM102.415 0.5H104.403V-0.5H102.415V0.5ZM106.392 0.5H108.381V-0.5H106.392V0.5ZM110.369 0.5H112.358V-0.5H110.369V0.5ZM114.347 0.5H116.335V-0.5H114.347V0.5ZM118.324 0.5H120.312V-0.5H118.324V0.5ZM122.301 0.5H124.29V-0.5H122.301V0.5ZM126.278 0.5H128.267V-0.5H126.278V0.5ZM130.256 0.5H132.244V-0.5H130.256V0.5ZM134.233 0.5H136.222V-0.5H134.233V0.5ZM138.21 0.5H140.199V-0.5H138.21V0.5ZM142.188 0.5H144.176V-0.5H142.188V0.5ZM146.165 0.5H148.153V-0.5H146.165V0.5ZM150.142 0.5H152.131V-0.5H150.142V0.5ZM154.119 0.5H156.108V-0.5H154.119V0.5ZM158.097 0.5H160.085V-0.5H158.097V0.5ZM162.074 0.5H164.062V-0.5H162.074V0.5ZM166.051 0.5H168.04V-0.5H166.051V0.5ZM170.028 0.5H172.017V-0.5H170.028V0.5ZM174.006 0.5H175V-0.5H174.006V0.5ZM175.707 0.707107C176.098 0.316583 176.098 -0.316583 175.707 -0.707107L169.343 -7.07107C168.953 -7.46159 168.319 -7.46159 167.929 -7.07107C167.538 -6.68054 167.538 -6.04738 167.929 -5.65685L173.586 0L167.929 5.65685C167.538 6.04738 167.538 6.68054 167.929 7.07107C168.319 7.46159 168.953 7.46159 169.343 7.07107L175.707 0.707107ZM0 1H0.994318V-1H0V1ZM2.98295 1H4.97159V-1H2.98295V1ZM6.96023 1H8.94886V-1H6.96023V1ZM10.9375 1H12.9261V-1H10.9375V1ZM14.9148 1H16.9034V-1H14.9148V1ZM18.892 1H20.8807V-1H18.892V1ZM22.8693 1H24.858V-1H22.8693V1ZM26.8466 1H28.8352V-1H26.8466V1ZM30.8239 1H32.8125V-1H30.8239V1ZM34.8011 1H36.7898V-1H34.8011V1ZM38.7784 1H40.767V-1H38.7784V1ZM42.7557 1H44.7443V-1H42.7557V1ZM46.733 1H48.7216V-1H46.733V1ZM50.7102 1H52.6989V-1H50.7102V1ZM54.6875 1H56.6761V-1H54.6875V1ZM58.6648 1H60.6534V-1H58.6648V1ZM62.642 1H64.6307V-1H62.642V1ZM66.6193 1H68.608V-1H66.6193V1ZM70.5966 1H72.5852V-1H70.5966V1ZM74.5739 1H76.5625V-1H74.5739V1ZM78.5511 1H80.5398V-1H78.5511V1ZM82.5284 1H84.517V-1H82.5284V1ZM86.5057 1H88.4943V-1H86.5057V1ZM90.483 1H92.4716V-1H90.483V1ZM94.4602 1H96.4489V-1H94.4602V1ZM98.4375 1H100.426V-1H98.4375V1ZM102.415 1H104.403V-1H102.415V1ZM106.392 1H108.381V-1H106.392V1ZM110.369 1H112.358V-1H110.369V1ZM114.347 1H116.335V-1H114.347V1ZM118.324 1H120.312V-1H118.324V1ZM122.301 1H124.29V-1H122.301V1ZM126.278 1H128.267V-1H126.278V1ZM130.256 1H132.244V-1H130.256V1ZM134.233 1H136.222V-1H134.233V1ZM138.21 1H140.199V-1H138.21V1ZM142.188 1H144.176V-1H142.188V1ZM146.165 1H148.153V-1H146.165V1ZM150.142 1H152.131V-1H150.142V1ZM154.119 1H156.108V-1H154.119V1ZM158.097 1H160.085V-1H158.097V1ZM162.074 1H164.062V-1H162.074V1ZM166.051 1H168.04V-1H166.051V1ZM170.028 1H172.017V-1H170.028V1ZM174.006 1H175V-1H174.006V1Z" transform="translate(561 235)" fill="#0072B2"/>
<path d="M137.354 0.353553C137.549 0.158291 137.549 -0.158291 137.354 -0.353553L134.172 -3.53553C133.976 -3.7308 133.66 -3.7308 133.464 -3.53553C133.269 -3.34027 133.269 -3.02369 133.464 -2.82843L136.293 0L133.464 2.82843C133.269 3.02369 133.269 3.34027 133.464 3.53553C133.66 3.7308 133.976 3.7308 134.172 3.53553L137.354 0.353553ZM0 0.5H1.00735V-0.5H0V0.5ZM3.02206 0.5H5.03676V-0.5H3.02206V0.5ZM7.05147 0.5H9.06618V-0.5H7.05147V0.5ZM11.0809 0.5H13.0956V-0.5H11.0809V0.5ZM15.1103 0.5H17.125V-0.5H15.1103V0.5ZM19.1397 0.5H21.1544V-0.5H19.1397V0.5ZM23.1691 0.5H25.1838V-0.5H23.1691V0.5ZM27.1985 0.5H29.2132V-0.5H27.1985V0.5ZM31.2279 0.5H33.2426V-0.5H31.2279V0.5ZM35.2574 0.5H37.2721V-0.5H35.2574V0.5ZM39.2868 0.5H41.3015V-0.5H39.2868V0.5ZM43.3162 0.5H45.3309V-0.5H43.3162V0.5ZM47.3456 0.5H49.3603V-0.5H47.3456V0.5ZM51.375 0.5H53.3897V-0.5H51.375V0.5ZM55.4044 0.5H57.4191V-0.5H55.4044V0.5ZM59.4338 0.5H61.4485V-0.5H59.4338V0.5ZM63.4632 0.5H65.4779V-0.5H63.4632V0.5ZM67.4926 0.5H69.5074V-0.5H67.4926V0.5ZM71.5221 0.5H73.5368V-0.5H71.5221V0.5ZM75.5515 0.5H77.5662V-0.5H75.5515V0.5ZM79.5809 0.5H81.5956V-0.5H79.5809V0.5ZM83.6103 0.5H85.625V-0.5H83.6103V0.5ZM87.6397 0.5H89.6544V-0.5H87.6397V0.5ZM91.6691 0.5H93.6838V-0.5H91.6691V0.5ZM95.6985 0.5H97.7132V-0.5H95.6985V0.5ZM99.7279 0.5H101.743V-0.5H99.7279V0.5ZM103.757 0.5H105.772V-0.5H103.757V0.5ZM107.787 0.5H109.801V-0.5H107.787V0.5ZM111.816 0.5H113.831V-0.5H111.816V0.5ZM115.846 0.5H117.86V-0.5H115.846V0.5ZM119.875 0.5H121.89V-0.5H119.875V0.5ZM123.904 0.5H125.919V-0.5H123.904V0.5ZM127.934 0.5H129.949V-0.5H127.934V0.5ZM131.963 0.5H133.978V-0.5H131.963V0.5ZM135.993 0.5H137V-0.5H135.993V0.5ZM137.707 0.707107C138.098 0.316583 138.098 -0.316583 137.707 -0.707107L131.343 -7.07107C130.953 -7.46159 130.319 -7.46159 129.929 -7.07107C129.538 -6.68054 129.538 -6.04738 129.929 -5.65685L135.586 0L129.929 5.65685C129.538 6.04738 129.538 6.68054 129.929 7.07107C130.319 7.46159 130.953 7.46159 131.343 7.07107L137.707 0.707107ZM0 1H1.00735V-1H0V1ZM3.02206 1H5.03676V-1H3.02206V1ZM7.05147 1H9.06618V-1H7.05147V1ZM11.0809 1H13.0956V-1H11.0809V1ZM15.1103 1H17.125V-1H15.1103V1ZM19.1397 1H21.1544V-1H19.1397V1ZM23.1691 1H25.1838V-1H23.1691V1ZM27.1985 1H29.2132V-1H27.1985V1ZM31.2279 1H33.2426V-1H31.2279V1ZM35.2574 1H37.2721V-1H35.2574V1ZM39.2868 1H41.3015V-1H39.2868V1ZM43.3162 1H45.3309V-1H43.3162V1ZM47.3456 1H49.3603V-1H47.3456V1ZM51.375 1H53.3897V-1H51.375V1ZM55.4044 1H57.4191V-1H55.4044V1ZM59.4338 1H61.4485V-1H59.4338V1ZM63.4632 1H65.4779V-1H63.4632V1ZM67.4926 1H69.5074V-1H67.4926V1ZM71.5221 1H73.5368V-1H71.5221V1ZM75.5515 1H77.5662V-1H75.5515V1ZM79.5809 1H81.5956V-1H79.5809V1ZM83.6103 1H85.625V-1H83.6103V1ZM87.6397 1H89.6544V-1H87.6397V1ZM91.6691 1H93.6838V-1H91.6691V1ZM95.6985 1H97.7132V-1H95.6985V1ZM99.7279 1H101.743V-1H99.7279V1ZM103.757 1H105.772V-1H103.757V1ZM107.787 1H109.801V-1H107.787V1ZM111.816 1H113.831V-1H111.816V1ZM115.846 1H117.86V-1H115.846V1ZM119.875 1H121.89V-1H119.875V1ZM123.904 1H125.919V-1H123.904V1ZM127.934 1H129.949V-1H127.934V1ZM131.963 1H133.978V-1H131.963V1ZM135.993 1H137V-1H135.993V1Z" transform="translate(561 235) rotate(180)" fill="#0072B2"/>
<path d="M76.3536 0.353553C76.5488 0.158291 76.5488 -0.158291 76.3536 -0.353553L73.1716 -3.53553C72.9763 -3.7308 72.6597 -3.7308 72.4645 -3.53553C72.2692 -3.34027 72.2692 -3.02369 72.4645 -2.82843L75.2929 0L72.4645 2.82843C72.2692 3.02369 72.2692 3.34027 72.4645 3.53553C72.6597 3.7308 72.9763 3.7308 73.1716 3.53553L76.3536 0.353553ZM0 0.5H1V-0.5H0V0.5ZM3 0.5H5V-0.5H3V0.5ZM7 0.5H9V-0.5H7V0.5ZM11 0.5H13V-0.5H11V0.5ZM15 0.5H17V-0.5H15V0.5ZM19 0.5H21V-0.5H19V0.5ZM23 0.5H25V-0.5H23V0.5ZM27 0.5H29V-0.5H27V0.5ZM31 0.5H33V-0.5H31V0.5ZM35 0.5H37V-0.5H35V0.5ZM39 0.5H41V-0.5H39V0.5ZM43 0.5H45V-0.5H43V0.5ZM47 0.5H49V-0.5H47V0.5ZM51 0.5H53V-0.5H51V0.5ZM55 0.5H57V-0.5H55V0.5ZM59 0.5H61V-0.5H59V0.5ZM63 0.5H65V-0.5H63V0.5ZM67 0.5H69V-0.5H67V0.5ZM71 0.5H73V-0.5H71V0.5ZM75 0.5H76V-0.5H75V0.5ZM76.7071 0.707107C77.0976 0.316583 77.0976 -0.316583 76.7071 -0.707107L70.3431 -7.07107C69.9526 -7.46159 69.3195 -7.46159 68.9289 -7.07107C68.5384 -6.68054 68.5384 -6.04738 68.9289 -5.65685L74.5858 0L68.9289 5.65685C68.5384 6.04738 68.5384 6.68054 68.9289 7.07107C69.3195 7.46159 69.9526 7.46159 70.3431 7.07107L76.7071 0.707107ZM0 1H1V-1H0V1ZM3 1H5V-1H3V1ZM7 1H9V-1H7V1ZM11 1H13V-1H11V1ZM15 1H17V-1H15V1ZM19 1H21V-1H19V1ZM23 1H25V-1H23V1ZM27 1H29V-1H27V1ZM31 1H33V-1H31V1ZM35 1H37V-1H35V1ZM39 1H41V-1H39V1ZM43 1H45V-1H43V1ZM47 1H49V-1H47V1ZM51 1H53V-1H51V1ZM55 1H57V-1H55V1ZM59 1H61V-1H59V1ZM63 1H65V-1H63V1ZM67 1H69V-1H67V1ZM71 1H73V-1H71V1ZM75 1H76V-1H75V1Z" transform="translate(557 185)" fill="#D55E00"/>
<path d="M59.6402 0.353553C59.8355 0.158291 59.8355 -0.158291 59.6402 -0.353553L56.4582 -3.53553C56.263 -3.7308 55.9464 -3.7308 55.7511 -3.53553C55.5559 -3.34027 55.5559 -3.02369 55.7511 -2.82843L58.5796 0L55.7511 2.82843C55.5559 3.02369 55.5559 3.34027 55.7511 3.53553C55.9464 3.7308 56.263 3.7308 56.4582 3.53553L59.6402 0.353553ZM0 0.5H0.988111V-0.5H0V0.5ZM2.96433 0.5H4.94056V-0.5H2.96433V0.5ZM6.91678 0.5H8.893V-0.5H6.91678V0.5ZM10.8692 0.5H12.8454V-0.5H10.8692V0.5ZM14.8217 0.5H16.7979V-0.5H14.8217V0.5ZM18.7741 0.5H20.7503V-0.5H18.7741V0.5ZM22.7266 0.5H24.7028V-0.5H22.7266V0.5ZM26.679 0.5H28.6552V-0.5H26.679V0.5ZM30.6314 0.5H32.6077V-0.5H30.6314V0.5ZM34.5839 0.5H36.5601V-0.5H34.5839V0.5ZM38.5363 0.5H40.5126V-0.5H38.5363V0.5ZM42.4888 0.5H44.465V-0.5H42.4888V0.5ZM46.4412 0.5H48.4174V-0.5H46.4412V0.5ZM50.3937 0.5H52.3699V-0.5H50.3937V0.5ZM54.3461 0.5H56.3223V-0.5H54.3461V0.5ZM58.2986 0.5H59.2867V-0.5H58.2986V0.5ZM59.9938 0.707107C60.3843 0.316583 60.3843 -0.316583 59.9938 -0.707107L53.6298 -7.07107C53.2393 -7.46159 52.6061 -7.46159 52.2156 -7.07107C51.8251 -6.68054 51.8251 -6.04738 52.2156 -5.65685L57.8725 0L52.2156 5.65685C51.8251 6.04738 51.8251 6.68054 52.2156 7.07107C52.6061 7.46159 53.2393 7.46159 53.6298 7.07107L59.9938 0.707107ZM0 1H0.988111V-1H0V1ZM2.96433 1H4.94056V-1H2.96433V1ZM6.91678 1H8.893V-1H6.91678V1ZM10.8692 1H12.8454V-1H10.8692V1ZM14.8217 1H16.7979V-1H14.8217V1ZM18.7741 1H20.7503V-1H18.7741V1ZM22.7266 1H24.7028V-1H22.7266V1ZM26.679 1H28.6552V-1H26.679V1ZM30.6314 1H32.6077V-1H30.6314V1ZM34.5839 1H36.5601V-1H34.5839V1ZM38.5363 1H40.5126V-1H38.5363V1ZM42.4888 1H44.465V-1H42.4888V1ZM46.4412 1H48.4174V-1H46.4412V1ZM50.3937 1H52.3699V-1H50.3937V1ZM54.3461 1H56.3223V-1H54.3461V1ZM58.2986 1H59.2867V-1H58.2986V1Z" transform="matrix(-1 0 -0.00372224 -0.999993 557.287 185)" fill="#D55E00"/>
<path d="M11.6875 9.92969C10.401 9.5599 9.46354 9.10677 8.875 8.57031C8.29167 8.02865 8 7.36198 8 6.57031C8 5.67448 8.35677 4.9349 9.07031 4.35156C9.78906 3.76302 10.7214 3.46875 11.8672 3.46875C12.6484 3.46875 13.3438 3.61979 13.9531 3.92188C14.5677 4.22396 15.0417 4.64062 15.375 5.17188C15.7135 5.70312 15.8828 6.28385 15.8828 6.91406H14.375C14.375 6.22656 14.1562 5.6875 13.7188 5.29688C13.2812 4.90104 12.6641 4.70312 11.8672 4.70312C11.1276 4.70312 10.5495 4.86719 10.1328 5.19531C9.72135 5.51823 9.51562 5.96875 9.51562 6.54688C9.51562 7.01042 9.71094 7.40365 10.1016 7.72656C10.4974 8.04427 11.1667 8.33594 12.1094 8.60156C13.0573 8.86719 13.7969 9.16146 14.3281 9.48438C14.8646 9.80208 15.2604 10.1745 15.5156 10.6016C15.776 11.0286 15.9062 11.5312 15.9062 12.1094C15.9062 13.0312 15.5469 13.7708 14.8281 14.3281C14.1094 14.8802 13.1484 15.1562 11.9453 15.1562C11.1641 15.1562 10.4349 15.0078 9.75781 14.7109C9.08073 14.4089 8.55729 13.9974 8.1875 13.4766C7.82292 12.9557 7.64062 12.3646 7.64062 11.7031H9.14844C9.14844 12.3906 9.40104 12.9349 9.90625 13.3359C10.4167 13.7318 11.0964 13.9297 11.9453 13.9297C12.737 13.9297 13.3438 13.7682 13.7656 13.4453C14.1875 13.1224 14.3984 12.6823 14.3984 12.125C14.3984 11.5677 14.2031 11.138 13.8125 10.8359C13.4219 10.5286 12.7135 10.2266 11.6875 9.92969ZM24.75 10.8672C24.75 12.1536 24.4557 13.1901 23.8672 13.9766C23.2786 14.763 22.4818 15.1562 21.4766 15.1562C20.4505 15.1562 19.6432 14.8307 19.0547 14.1797V18.25H17.6094V6.54688H18.9297L19 7.48438C19.5885 6.75521 20.4062 6.39062 21.4531 6.39062C22.4688 6.39062 23.2708 6.77344 23.8594 7.53906C24.4531 8.30469 24.75 9.36979 24.75 10.7344V10.8672ZM23.3047 10.7031C23.3047 9.75 23.1016 8.9974 22.6953 8.44531C22.2891 7.89323 21.7318 7.61719 21.0234 7.61719C20.1484 7.61719 19.4922 8.00521 19.0547 8.78125V12.8203C19.487 13.5911 20.1484 13.9766 21.0391 13.9766C21.7318 13.9766 22.2812 13.7031 22.6875 13.1562C23.099 12.6042 23.3047 11.7865 23.3047 10.7031ZM30.6797 7.84375C30.4609 7.80729 30.224 7.78906 29.9688 7.78906C29.0208 7.78906 28.3776 8.19271 28.0391 9V15H26.5938V6.54688H28L28.0234 7.52344C28.4974 6.76823 29.1693 6.39062 30.0391 6.39062C30.3203 6.39062 30.5339 6.42708 30.6797 6.5V7.84375ZM35.3672 15.1562C34.2214 15.1562 33.2891 14.7812 32.5703 14.0312C31.8516 13.276 31.4922 12.2682 31.4922 11.0078V10.7422C31.4922 9.90365 31.651 9.15625 31.9688 8.5C32.2917 7.83854 32.7396 7.32292 33.3125 6.95312C33.8906 6.57812 34.5156 6.39062 35.1875 6.39062C36.2865 6.39062 37.1406 6.7526 37.75 7.47656C38.3594 8.20052 38.6641 9.23698 38.6641 10.5859V11.1875H32.9375C32.9583 12.0208 33.2005 12.6953 33.6641 13.2109C34.1328 13.7214 34.7266 13.9766 35.4453 13.9766C35.9557 13.9766 36.388 13.8724 36.7422 13.6641C37.0964 13.4557 37.4062 13.1797 37.6719 12.8359L38.5547 13.5234C37.8464 14.612 36.7839 15.1562 35.3672 15.1562ZM35.1875 7.57812C34.6042 7.57812 34.1146 7.79167 33.7188 8.21875C33.3229 8.64062 33.0781 9.23438 32.9844 10H37.2188V9.89062C37.1771 9.15625 36.9792 8.58854 36.625 8.1875C36.2708 7.78125 35.7917 7.57812 35.1875 7.57812ZM45.5625 15C45.4792 14.8333 45.4115 14.5365 45.3594 14.1094C44.6875 14.8073 43.8854 15.1562 42.9531 15.1562C42.1198 15.1562 41.4349 14.9219 40.8984 14.4531C40.3672 13.9792 40.1016 13.3802 40.1016 12.6562C40.1016 11.776 40.4349 11.0938 41.1016 10.6094C41.7734 10.1198 42.7161 9.875 43.9297 9.875H45.3359V9.21094C45.3359 8.70573 45.1849 8.30469 44.8828 8.00781C44.5807 7.70573 44.1354 7.55469 43.5469 7.55469C43.0312 7.55469 42.599 7.6849 42.25 7.94531C41.901 8.20573 41.7266 8.52083 41.7266 8.89062H40.2734C40.2734 8.46875 40.4219 8.0625 40.7188 7.67188C41.0208 7.27604 41.4271 6.96354 41.9375 6.73438C42.4531 6.50521 43.0182 6.39062 43.6328 6.39062C44.6068 6.39062 45.3698 6.63542 45.9219 7.125C46.474 7.60938 46.7604 8.27865 46.7812 9.13281V13.0234C46.7812 13.7995 46.8802 14.4167 47.0781 14.875V15H45.5625ZM43.1641 13.8984C43.6172 13.8984 44.0469 13.7812 44.4531 13.5469C44.8594 13.3125 45.1536 13.0078 45.3359 12.6328V10.8984H44.2031C42.4323 10.8984 41.5469 11.4167 41.5469 12.4531C41.5469 12.9062 41.6979 13.2604 42 13.5156C42.3021 13.7708 42.6901 13.8984 43.1641 13.8984ZM48.6953 10.7031C48.6953 9.40625 49.0026 8.36458 49.6172 7.57812C50.2318 6.78646 51.0365 6.39062 52.0312 6.39062C53.0208 6.39062 53.8047 6.72917 54.3828 7.40625V3H55.8281V15H54.5L54.4297 14.0938C53.8516 14.8021 53.0469 15.1562 52.0156 15.1562C51.0365 15.1562 50.237 14.7552 49.6172 13.9531C49.0026 13.151 48.6953 12.1042 48.6953 10.8125V10.7031ZM50.1406 10.8672C50.1406 11.8255 50.3385 12.5755 50.7344 13.1172C51.1302 13.6589 51.6771 13.9297 52.375 13.9297C53.2917 13.9297 53.9609 13.5182 54.3828 12.6953V8.8125C53.9505 8.01562 53.2865 7.61719 52.3906 7.61719C51.6823 7.61719 51.1302 7.89062 50.7344 8.4375C50.3385 8.98438 50.1406 9.79427 50.1406 10.8672ZM1.22656 29.3828C1.22656 28.2057 1.38281 27.0755 1.69531 25.9922C2.01302 24.9089 2.48438 23.9245 3.10938 23.0391C3.73438 22.1536 4.38281 21.5286 5.05469 21.1641L5.35156 22.1172C4.59115 22.7005 3.96615 23.5911 3.47656 24.7891C2.99219 25.987 2.72656 27.3281 2.67969 28.8125L2.67188 29.4766C2.67188 31.487 3.03906 33.2318 3.77344 34.7109C4.21615 35.5964 4.74219 36.2891 5.35156 36.7891L5.05469 37.6719C4.36198 37.2865 3.70052 36.6406 3.07031 35.7344C1.84115 33.9635 1.22656 31.8464 1.22656 29.3828ZM11.1016 31.6641C11.1016 31.388 10.9635 31.1719 10.6875 31.0156C10.4167 30.8542 9.97917 30.7109 9.375 30.5859C7.36458 30.1641 6.35938 29.3099 6.35938 28.0234C6.35938 27.2734 6.66927 26.6484 7.28906 26.1484C7.91406 25.6432 8.72917 25.3906 9.73438 25.3906C10.8073 25.3906 11.6641 25.6432 12.3047 26.1484C12.9505 26.6536 13.2734 27.3099 13.2734 28.1172H11.0156C11.0156 27.7943 10.9115 27.5286 10.7031 27.3203C10.4948 27.1068 10.1693 27 9.72656 27C9.34635 27 9.05208 27.0859 8.84375 27.2578C8.63542 27.4297 8.53125 27.6484 8.53125 27.9141C8.53125 28.1641 8.64844 28.3672 8.88281 28.5234C9.1224 28.6745 9.52344 28.8073 10.0859 28.9219C10.6484 29.0312 11.1224 29.1562 11.5078 29.2969C12.7005 29.7344 13.2969 30.4922 13.2969 31.5703C13.2969 32.3411 12.9661 32.9661 12.3047 33.4453C11.6432 33.9193 10.7891 34.1562 9.74219 34.1562C9.03385 34.1562 8.40365 34.0312 7.85156 33.7812C7.30469 33.526 6.875 33.1797 6.5625 32.7422C6.25 32.2995 6.09375 31.8229 6.09375 31.3125H8.23438C8.25521 31.7135 8.40365 32.0208 8.67969 32.2344C8.95573 32.4479 9.32552 32.5547 9.78906 32.5547C10.2214 32.5547 10.5469 32.474 10.7656 32.3125C10.9896 32.1458 11.1016 31.9297 11.1016 31.6641ZM19.6562 34C19.5521 33.7969 19.4766 33.5443 19.4297 33.2422C18.8828 33.8516 18.1719 34.1562 17.2969 34.1562C16.4688 34.1562 15.7812 33.9167 15.2344 33.4375C14.6927 32.9583 14.4219 32.3542 14.4219 31.625C14.4219 30.7292 14.7526 30.0417 15.4141 29.5625C16.0807 29.0833 17.0417 28.8411 18.2969 28.8359H19.3359V28.3516C19.3359 27.9609 19.2344 27.6484 19.0312 27.4141C18.8333 27.1797 18.5182 27.0625 18.0859 27.0625C17.7057 27.0625 17.4062 27.1536 17.1875 27.3359C16.974 27.5182 16.8672 27.7682 16.8672 28.0859H14.6094C14.6094 27.5964 14.7604 27.1432 15.0625 26.7266C15.3646 26.3099 15.7917 25.9844 16.3438 25.75C16.8958 25.5104 17.5156 25.3906 18.2031 25.3906C19.2448 25.3906 20.0703 25.6536 20.6797 26.1797C21.2943 26.7005 21.6016 27.4349 21.6016 28.3828V32.0469C21.6068 32.849 21.7188 33.4557 21.9375 33.8672V34H19.6562ZM17.7891 32.4297C18.1224 32.4297 18.4297 32.3568 18.7109 32.2109C18.9922 32.0599 19.2005 31.8594 19.3359 31.6094V30.1562H18.4922C17.362 30.1562 16.7604 30.5469 16.6875 31.3281L16.6797 31.4609C16.6797 31.7422 16.7786 31.974 16.9766 32.1562C17.1745 32.3385 17.4453 32.4297 17.7891 32.4297ZM25.4531 25.5469L25.5234 26.4922C26.1224 25.7578 26.9323 25.3906 27.9531 25.3906C29.0417 25.3906 29.7891 25.8203 30.1953 26.6797C30.7891 25.8203 31.6354 25.3906 32.7344 25.3906C33.651 25.3906 34.3333 25.6589 34.7812 26.1953C35.2292 26.7266 35.4531 27.5286 35.4531 28.6016V34H33.1875V28.6094C33.1875 28.1302 33.0938 27.7812 32.9062 27.5625C32.7188 27.3385 32.388 27.2266 31.9141 27.2266C31.237 27.2266 30.7682 27.5495 30.5078 28.1953L30.5156 34H28.2578V28.6172C28.2578 28.1276 28.1615 27.7734 27.9688 27.5547C27.776 27.3359 27.4479 27.2266 26.9844 27.2266C26.3438 27.2266 25.8802 27.4922 25.5938 28.0234V34H23.3359V25.5469H25.4531ZM44.8047 29.8516C44.8047 31.1536 44.5078 32.1979 43.9141 32.9844C43.3255 33.7656 42.5286 34.1562 41.5234 34.1562C40.6693 34.1562 39.9792 33.8594 39.4531 33.2656V37.25H37.1953V25.5469H39.2891L39.3672 26.375C39.9141 25.7188 40.6276 25.3906 41.5078 25.3906C42.5495 25.3906 43.3594 25.776 43.9375 26.5469C44.5156 27.3177 44.8047 28.3802 44.8047 29.7344V29.8516ZM42.5469 29.6875C42.5469 28.901 42.4062 28.2943 42.125 27.8672C41.849 27.4401 41.4453 27.2266 40.9141 27.2266C40.2057 27.2266 39.7188 27.4974 39.4531 28.0391V31.5C39.7292 32.0573 40.2214 32.3359 40.9297 32.3359C42.0078 32.3359 42.5469 31.4531 42.5469 29.6875ZM48.5938 34H46.3281V22H48.5938V34ZM54.3516 34.1562C53.112 34.1562 52.1016 33.776 51.3203 33.0156C50.5443 32.2552 50.1562 31.2422 50.1562 29.9766V29.7578C50.1562 28.9089 50.3203 28.151 50.6484 27.4844C50.9766 26.8125 51.4401 26.2969 52.0391 25.9375C52.6432 25.5729 53.3307 25.3906 54.1016 25.3906C55.2578 25.3906 56.1667 25.7552 56.8281 26.4844C57.4948 27.2135 57.8281 28.2474 57.8281 29.5859V30.5078H52.4453C52.5182 31.0599 52.737 31.5026 53.1016 31.8359C53.4714 32.1693 53.9375 32.3359 54.5 32.3359C55.3698 32.3359 56.0495 32.0208 56.5391 31.3906L57.6484 32.6328C57.3099 33.112 56.8516 33.487 56.2734 33.7578C55.6953 34.0234 55.0547 34.1562 54.3516 34.1562ZM54.0938 27.2188C53.6458 27.2188 53.2812 27.3698 53 27.6719C52.724 27.974 52.5469 28.4062 52.4688 28.9688H55.6094V28.7891C55.599 28.2891 55.4635 27.9036 55.2031 27.6328C54.9427 27.3568 54.5729 27.2188 54.0938 27.2188ZM62.6797 29.4609C62.6797 30.6224 62.526 31.737 62.2188 32.8047C61.9167 33.8672 61.4505 34.849 60.8203 35.75C60.1953 36.651 59.5391 37.2917 58.8516 37.6719L58.5469 36.7891C59.349 36.1745 59.9922 35.2214 60.4766 33.9297C60.9661 32.6328 61.2161 31.1953 61.2266 29.6172V29.3672C61.2266 28.2734 61.112 27.2578 60.8828 26.3203C60.6536 25.3776 60.3333 24.5339 59.9219 23.7891C59.5156 23.0443 59.0573 22.4635 58.5469 22.0469L58.8516 21.1641C59.5391 21.5443 60.1927 22.1797 60.8125 23.0703C61.4375 23.9609 61.9036 24.9427 62.2109 26.0156C62.5234 27.0885 62.6797 28.237 62.6797 29.4609Z" transform="translate(530 189)" fill="#D55E00"/>
<path d="M23.6875 9.92969C22.401 9.5599 21.4635 9.10677 20.875 8.57031C20.2917 8.02865 20 7.36198 20 6.57031C20 5.67448 20.3568 4.9349 21.0703 4.35156C21.7891 3.76302 22.7214 3.46875 23.8672 3.46875C24.6484 3.46875 25.3438 3.61979 25.9531 3.92188C26.5677 4.22396 27.0417 4.64062 27.375 5.17188C27.7135 5.70312 27.8828 6.28385 27.8828 6.91406H26.375C26.375 6.22656 26.1562 5.6875 25.7188 5.29688C25.2812 4.90104 24.6641 4.70312 23.8672 4.70312C23.1276 4.70312 22.5495 4.86719 22.1328 5.19531C21.7214 5.51823 21.5156 5.96875 21.5156 6.54688C21.5156 7.01042 21.7109 7.40365 22.1016 7.72656C22.4974 8.04427 23.1667 8.33594 24.1094 8.60156C25.0573 8.86719 25.7969 9.16146 26.3281 9.48438C26.8646 9.80208 27.2604 10.1745 27.5156 10.6016C27.776 11.0286 27.9062 11.5312 27.9062 12.1094C27.9062 13.0312 27.5469 13.7708 26.8281 14.3281C26.1094 14.8802 25.1484 15.1562 23.9453 15.1562C23.1641 15.1562 22.4349 15.0078 21.7578 14.7109C21.0807 14.4089 20.5573 13.9974 20.1875 13.4766C19.8229 12.9557 19.6406 12.3646 19.6406 11.7031H21.1484C21.1484 12.3906 21.401 12.9349 21.9062 13.3359C22.4167 13.7318 23.0964 13.9297 23.9453 13.9297C24.737 13.9297 25.3438 13.7682 25.7656 13.4453C26.1875 13.1224 26.3984 12.6823 26.3984 12.125C26.3984 11.5677 26.2031 11.138 25.8125 10.8359C25.4219 10.5286 24.7135 10.2266 23.6875 9.92969ZM36.75 10.8672C36.75 12.1536 36.4557 13.1901 35.8672 13.9766C35.2786 14.763 34.4818 15.1562 33.4766 15.1562C32.4505 15.1562 31.6432 14.8307 31.0547 14.1797V18.25H29.6094V6.54688H30.9297L31 7.48438C31.5885 6.75521 32.4062 6.39062 33.4531 6.39062C34.4688 6.39062 35.2708 6.77344 35.8594 7.53906C36.4531 8.30469 36.75 9.36979 36.75 10.7344V10.8672ZM35.3047 10.7031C35.3047 9.75 35.1016 8.9974 34.6953 8.44531C34.2891 7.89323 33.7318 7.61719 33.0234 7.61719C32.1484 7.61719 31.4922 8.00521 31.0547 8.78125V12.8203C31.487 13.5911 32.1484 13.9766 33.0391 13.9766C33.7318 13.9766 34.2812 13.7031 34.6875 13.1562C35.099 12.6042 35.3047 11.7865 35.3047 10.7031ZM42.6797 7.84375C42.4609 7.80729 42.224 7.78906 41.9688 7.78906C41.0208 7.78906 40.3776 8.19271 40.0391 9V15H38.5938V6.54688H40L40.0234 7.52344C40.4974 6.76823 41.1693 6.39062 42.0391 6.39062C42.3203 6.39062 42.5339 6.42708 42.6797 6.5V7.84375ZM47.3672 15.1562C46.2214 15.1562 45.2891 14.7812 44.5703 14.0312C43.8516 13.276 43.4922 12.2682 43.4922 11.0078V10.7422C43.4922 9.90365 43.651 9.15625 43.9688 8.5C44.2917 7.83854 44.7396 7.32292 45.3125 6.95312C45.8906 6.57812 46.5156 6.39062 47.1875 6.39062C48.2865 6.39062 49.1406 6.7526 49.75 7.47656C50.3594 8.20052 50.6641 9.23698 50.6641 10.5859V11.1875H44.9375C44.9583 12.0208 45.2005 12.6953 45.6641 13.2109C46.1328 13.7214 46.7266 13.9766 47.4453 13.9766C47.9557 13.9766 48.388 13.8724 48.7422 13.6641C49.0964 13.4557 49.4062 13.1797 49.6719 12.8359L50.5547 13.5234C49.8464 14.612 48.7839 15.1562 47.3672 15.1562ZM47.1875 7.57812C46.6042 7.57812 46.1146 7.79167 45.7188 8.21875C45.3229 8.64062 45.0781 9.23438 44.9844 10H49.2188V9.89062C49.1771 9.15625 48.9792 8.58854 48.625 8.1875C48.2708 7.78125 47.7917 7.57812 47.1875 7.57812ZM57.5625 15C57.4792 14.8333 57.4115 14.5365 57.3594 14.1094C56.6875 14.8073 55.8854 15.1562 54.9531 15.1562C54.1198 15.1562 53.4349 14.9219 52.8984 14.4531C52.3672 13.9792 52.1016 13.3802 52.1016 12.6562C52.1016 11.776 52.4349 11.0938 53.1016 10.6094C53.7734 10.1198 54.7161 9.875 55.9297 9.875H57.3359V9.21094C57.3359 8.70573 57.1849 8.30469 56.8828 8.00781C56.5807 7.70573 56.1354 7.55469 55.5469 7.55469C55.0312 7.55469 54.599 7.6849 54.25 7.94531C53.901 8.20573 53.7266 8.52083 53.7266 8.89062H52.2734C52.2734 8.46875 52.4219 8.0625 52.7188 7.67188C53.0208 7.27604 53.4271 6.96354 53.9375 6.73438C54.4531 6.50521 55.0182 6.39062 55.6328 6.39062C56.6068 6.39062 57.3698 6.63542 57.9219 7.125C58.474 7.60938 58.7604 8.27865 58.7812 9.13281V13.0234C58.7812 13.7995 58.8802 14.4167 59.0781 14.875V15H57.5625ZM55.1641 13.8984C55.6172 13.8984 56.0469 13.7812 56.4531 13.5469C56.8594 13.3125 57.1536 13.0078 57.3359 12.6328V10.8984H56.2031C54.4323 10.8984 53.5469 11.4167 53.5469 12.4531C53.5469 12.9062 53.6979 13.2604 54 13.5156C54.3021 13.7708 54.6901 13.8984 55.1641 13.8984ZM60.6953 10.7031C60.6953 9.40625 61.0026 8.36458 61.6172 7.57812C62.2318 6.78646 63.0365 6.39062 64.0312 6.39062C65.0208 6.39062 65.8047 6.72917 66.3828 7.40625V3H67.8281V15H66.5L66.4297 14.0938C65.8516 14.8021 65.0469 15.1562 64.0156 15.1562C63.0365 15.1562 62.237 14.7552 61.6172 13.9531C61.0026 13.151 60.6953 12.1042 60.6953 10.8125V10.7031ZM62.1406 10.8672C62.1406 11.8255 62.3385 12.5755 62.7344 13.1172C63.1302 13.6589 63.6771 13.9297 64.375 13.9297C65.2917 13.9297 65.9609 13.5182 66.3828 12.6953V8.8125C65.9505 8.01562 65.2865 7.61719 64.3906 7.61719C63.6823 7.61719 63.1302 7.89062 62.7344 8.4375C62.3385 8.98438 62.1406 9.79427 62.1406 10.8672ZM1.25781 29.3828C1.25781 28.2057 1.41406 27.0755 1.72656 25.9922C2.04427 24.9089 2.51562 23.9245 3.14062 23.0391C3.76562 22.1536 4.41406 21.5286 5.08594 21.1641L5.38281 22.1172C4.6224 22.7005 3.9974 23.5911 3.50781 24.7891C3.02344 25.987 2.75781 27.3281 2.71094 28.8125L2.70312 29.4766C2.70312 31.487 3.07031 33.2318 3.80469 34.7109C4.2474 35.5964 4.77344 36.2891 5.38281 36.7891L5.08594 37.6719C4.39323 37.2865 3.73177 36.6406 3.10156 35.7344C1.8724 33.9635 1.25781 31.8464 1.25781 29.3828ZM14.1641 29.8516C14.1641 31.1536 13.8672 32.1979 13.2734 32.9844C12.6849 33.7656 11.888 34.1562 10.8828 34.1562C10.0286 34.1562 9.33854 33.8594 8.8125 33.2656V37.25H6.55469V25.5469H8.64844L8.72656 26.375C9.27344 25.7188 9.98698 25.3906 10.8672 25.3906C11.9089 25.3906 12.7188 25.776 13.2969 26.5469C13.875 27.3177 14.1641 28.3802 14.1641 29.7344V29.8516ZM11.9062 29.6875C11.9062 28.901 11.7656 28.2943 11.4844 27.8672C11.2083 27.4401 10.8047 27.2266 10.2734 27.2266C9.5651 27.2266 9.07812 27.4974 8.8125 28.0391V31.5C9.08854 32.0573 9.58073 32.3359 10.2891 32.3359C11.3672 32.3359 11.9062 31.4531 11.9062 29.6875ZM15.2188 29.6953C15.2188 28.8568 15.3802 28.1094 15.7031 27.4531C16.026 26.7969 16.4896 26.2891 17.0938 25.9297C17.7031 25.5703 18.4089 25.3906 19.2109 25.3906C20.3516 25.3906 21.2812 25.7396 22 26.4375C22.724 27.1354 23.1276 28.0833 23.2109 29.2812L23.2266 29.8594C23.2266 31.1562 22.8646 32.1979 22.1406 32.9844C21.4167 33.7656 20.4453 34.1562 19.2266 34.1562C18.0078 34.1562 17.0339 33.7656 16.3047 32.9844C15.5807 32.2031 15.2188 31.1406 15.2188 29.7969V29.6953ZM17.4766 29.8594C17.4766 30.6615 17.6276 31.276 17.9297 31.7031C18.2318 32.125 18.6641 32.3359 19.2266 32.3359C19.7734 32.3359 20.2005 32.1276 20.5078 31.7109C20.8151 31.2891 20.9688 30.6172 20.9688 29.6953C20.9688 28.9089 20.8151 28.2995 20.5078 27.8672C20.2005 27.4349 19.7682 27.2188 19.2109 27.2188C18.6589 27.2188 18.2318 27.4349 17.9297 27.8672C17.6276 28.2943 17.4766 28.9583 17.4766 29.8594ZM32.2266 29.8516C32.2266 31.1536 31.9297 32.1979 31.3359 32.9844C30.7474 33.7656 29.9505 34.1562 28.9453 34.1562C28.0911 34.1562 27.401 33.8594 26.875 33.2656V37.25H24.6172V25.5469H26.7109L26.7891 26.375C27.3359 25.7188 28.0495 25.3906 28.9297 25.3906C29.9714 25.3906 30.7812 25.776 31.3594 26.5469C31.9375 27.3177 32.2266 28.3802 32.2266 29.7344V29.8516ZM29.9688 29.6875C29.9688 28.901 29.8281 28.2943 29.5469 27.8672C29.2708 27.4401 28.8672 27.2266 28.3359 27.2266C27.6276 27.2266 27.1406 27.4974 26.875 28.0391V31.5C27.151 32.0573 27.6432 32.3359 28.3516 32.3359C29.4297 32.3359 29.9688 31.4531 29.9688 29.6875ZM38.6953 33.1406C38.138 33.8177 37.3672 34.1562 36.3828 34.1562C35.4766 34.1562 34.7839 33.8958 34.3047 33.375C33.8307 32.8542 33.5885 32.0911 33.5781 31.0859V25.5469H35.8359V31.0078C35.8359 31.888 36.237 32.3281 37.0391 32.3281C37.8047 32.3281 38.3307 32.0625 38.6172 31.5312V25.5469H40.8828V34H38.7578L38.6953 33.1406ZM44.9688 34H42.7031V22H44.9688V34ZM51.7344 34C51.6302 33.7969 51.5547 33.5443 51.5078 33.2422C50.9609 33.8516 50.25 34.1562 49.375 34.1562C48.5469 34.1562 47.8594 33.9167 47.3125 33.4375C46.7708 32.9583 46.5 32.3542 46.5 31.625C46.5 30.7292 46.8307 30.0417 47.4922 29.5625C48.1589 29.0833 49.1198 28.8411 50.375 28.8359H51.4141V28.3516C51.4141 27.9609 51.3125 27.6484 51.1094 27.4141C50.9115 27.1797 50.5964 27.0625 50.1641 27.0625C49.7839 27.0625 49.4844 27.1536 49.2656 27.3359C49.0521 27.5182 48.9453 27.7682 48.9453 28.0859H46.6875C46.6875 27.5964 46.8385 27.1432 47.1406 26.7266C47.4427 26.3099 47.8698 25.9844 48.4219 25.75C48.974 25.5104 49.5938 25.3906 50.2812 25.3906C51.3229 25.3906 52.1484 25.6536 52.7578 26.1797C53.3724 26.7005 53.6797 27.4349 53.6797 28.3828V32.0469C53.6849 32.849 53.7969 33.4557 54.0156 33.8672V34H51.7344ZM49.8672 32.4297C50.2005 32.4297 50.5078 32.3568 50.7891 32.2109C51.0703 32.0599 51.2786 31.8594 51.4141 31.6094V30.1562H50.5703C49.4401 30.1562 48.8385 30.5469 48.7656 31.3281L48.7578 31.4609C48.7578 31.7422 48.8568 31.974 49.0547 32.1562C49.2526 32.3385 49.5234 32.4297 49.8672 32.4297ZM58.1172 23.4688V25.5469H59.5625V27.2031H58.1172V31.4219C58.1172 31.7344 58.1771 31.9583 58.2969 32.0938C58.4167 32.2292 58.6458 32.2969 58.9844 32.2969C59.2344 32.2969 59.4557 32.2786 59.6484 32.2422V33.9531C59.2057 34.0885 58.75 34.1562 58.2812 34.1562C56.6979 34.1562 55.8906 33.3568 55.8594 31.7578V27.2031H54.625V25.5469H55.8594V23.4688H58.1172ZM63.2031 34H60.9375V25.5469H63.2031V34ZM60.8047 23.3594C60.8047 23.0208 60.9167 22.7422 61.1406 22.5234C61.3698 22.3047 61.6797 22.1953 62.0703 22.1953C62.4557 22.1953 62.763 22.3047 62.9922 22.5234C63.2214 22.7422 63.3359 23.0208 63.3359 23.3594C63.3359 23.7031 63.2188 23.9844 62.9844 24.2031C62.7552 24.4219 62.4505 24.5312 62.0703 24.5312C61.6901 24.5312 61.3828 24.4219 61.1484 24.2031C60.9193 23.9844 60.8047 23.7031 60.8047 23.3594ZM64.7188 29.6953C64.7188 28.8568 64.8802 28.1094 65.2031 27.4531C65.526 26.7969 65.9896 26.2891 66.5938 25.9297C67.2031 25.5703 67.9089 25.3906 68.7109 25.3906C69.8516 25.3906 70.7812 25.7396 71.5 26.4375C72.224 27.1354 72.6276 28.0833 72.7109 29.2812L72.7266 29.8594C72.7266 31.1562 72.3646 32.1979 71.6406 32.9844C70.9167 33.7656 69.9453 34.1562 68.7266 34.1562C67.5078 34.1562 66.5339 33.7656 65.8047 32.9844C65.0807 32.2031 64.7188 31.1406 64.7188 29.7969V29.6953ZM66.9766 29.8594C66.9766 30.6615 67.1276 31.276 67.4297 31.7031C67.7318 32.125 68.1641 32.3359 68.7266 32.3359C69.2734 32.3359 69.7005 32.1276 70.0078 31.7109C70.3151 31.2891 70.4688 30.6172 70.4688 29.6953C70.4688 28.9089 70.3151 28.2995 70.0078 27.8672C69.7005 27.4349 69.2682 27.2188 68.7109 27.2188C68.1589 27.2188 67.7318 27.4349 67.4297 27.8672C67.1276 28.2943 66.9766 28.9583 66.9766 29.8594ZM76.1953 25.5469L76.2656 26.5234C76.8698 25.7682 77.6797 25.3906 78.6953 25.3906C79.5911 25.3906 80.2578 25.6536 80.6953 26.1797C81.1328 26.7057 81.3568 27.4922 81.3672 28.5391V34H79.1094V28.5938C79.1094 28.1146 79.0052 27.7682 78.7969 27.5547C78.5885 27.3359 78.2422 27.2266 77.7578 27.2266C77.1224 27.2266 76.6458 27.4974 76.3281 28.0391V34H74.0703V25.5469H76.1953ZM86.6484 29.4609C86.6484 30.6224 86.4948 31.737 86.1875 32.8047C85.8854 33.8672 85.4193 34.849 84.7891 35.75C84.1641 36.651 83.5078 37.2917 82.8203 37.6719L82.5156 36.7891C83.3177 36.1745 83.9609 35.2214 84.4453 33.9297C84.9349 32.6328 85.1849 31.1953 85.1953 29.6172V29.3672C85.1953 28.2734 85.0807 27.2578 84.8516 26.3203C84.6224 25.3776 84.3021 24.5339 83.8906 23.7891C83.4844 23.0443 83.026 22.4635 82.5156 22.0469L82.8203 21.1641C83.5078 21.5443 84.1615 22.1797 84.7812 23.0703C85.4062 23.9609 85.8724 24.9427 86.1797 26.0156C86.4922 27.0885 86.6484 28.237 86.6484 29.4609Z" transform="translate(534 239)" fill="#0072B2"/>
</svg>
