<svg width="653" height="255" viewBox="0 0 653 255" fill="none" xmlns="http://www.w3.org/2000/svg">
<rect width="653" height="255" fill="white"/>
<path d="M0 140L4.03314 139.38C26.6329 135.903 46.6647 122.921 59.0705 103.714L110.25 24.473C113.749 19.0567 118.504 14.5396 124.088 11.3155V11.3155C136.244 4.29666 151.21 4.04507 163.574 10.6915V10.6915C170.307 14.3111 175.879 19.7619 179.646 26.414L220.855 99.1903C233.236 121.054 255.169 135.832 280.082 139.094L287 140" transform="translate(342 10)" stroke="#0072B2" stroke-width="2"/>
<line y1="-0.5" x2="314" y2="-0.5" transform="translate(329 160)" stroke="black"/>
<line y1="-0.5" x2="11" y2="-0.5" transform="translate(487 166) rotate(-90)" stroke="black"/>
<line y1="-0.5" x2="11" y2="-0.5" transform="translate(522 166) rotate(-90)" stroke="black"/>
<line y1="-0.5" x2="11" y2="-0.5" transform="translate(562 166) rotate(-90)" stroke="black"/>
<line y1="-0.5" x2="11" y2="-0.5" transform="translate(602 166) rotate(-90)" stroke="black"/>
<line y1="-0.5" x2="11" y2="-0.5" transform="translate(639 166) rotate(-90)" stroke="black"/>
<line y1="-0.5" x2="137" y2="-0.5" transform="translate(486 18) rotate(90)" stroke="black" stroke-dasharray="1 1"/>
<path d="M0 140L4.03314 139.38C26.6329 135.903 46.6647 122.921 59.0705 103.714L110.25 24.473C113.749 19.0567 118.504 14.5396 124.088 11.3155V11.3155C136.244 4.29666 151.21 4.04507 163.574 10.6915V10.6915C170.307 14.3111 175.879 19.7619 179.646 26.414L220.855 99.1903C233.236 121.054 255.169 135.832 280.082 139.094L287 140" transform="translate(13 10)" stroke="#0072B2" stroke-width="2"/>
<line y1="-0.5" x2="314" y2="-0.5" transform="translate(0 160)" stroke="black"/>
<line y1="-0.5" x2="11" y2="-0.5" transform="translate(158 166) rotate(-90)" stroke="black"/>
<line y1="-0.5" x2="11" y2="-0.5" transform="translate(193 166) rotate(-90)" stroke="black"/>
<line y1="-0.5" x2="11" y2="-0.5" transform="translate(233 166) rotate(-90)" stroke="black"/>
<line y1="-0.5" x2="11" y2="-0.5" transform="translate(273 166) rotate(-90)" stroke="black"/>
<line y1="-0.5" x2="11" y2="-0.5" transform="translate(310 166) rotate(-90)" stroke="black"/>
<line y1="-0.5" x2="137" y2="-0.5" transform="translate(157 18) rotate(90)" stroke="black" stroke-dasharray="1 1"/>
<line y1="-0.5" x2="116" y2="-0.5" transform="translate(193 156) rotate(-90)" stroke="#009E73" stroke-dasharray="1 1"/>
<line y1="-0.5" x2="116" y2="-0.5" transform="translate(522 155) rotate(-90)" stroke="black" stroke-dasharray="1 1"/>
<path d="M5.08447 12H3.25V4.92871L1.06006 5.60791V4.11621L4.8877 2.74512H5.08447V12ZM14.1172 5.21436C14.1172 5.66292 14.005 6.06071 13.7808 6.40771C13.5565 6.75472 13.2476 7.0319 12.854 7.23926C13.3026 7.45508 13.658 7.75342 13.9204 8.13428C14.1828 8.5109 14.314 8.95524 14.314 9.46729C14.314 10.2882 14.0347 10.9378 13.4761 11.416C12.9175 11.89 12.1579 12.127 11.1973 12.127C10.2367 12.127 9.47493 11.8879 8.91211 11.4097C8.34928 10.9315 8.06787 10.284 8.06787 9.46729C8.06787 8.95524 8.19906 8.50879 8.46143 8.12793C8.7238 7.74707 9.07715 7.45085 9.52148 7.23926C9.12793 7.0319 8.81901 6.75472 8.59473 6.40771C8.37467 6.06071 8.26465 5.66292 8.26465 5.21436C8.26465 4.42725 8.52702 3.80094 9.05176 3.33545C9.5765 2.86572 10.2896 2.63086 11.1909 2.63086C12.0881 2.63086 12.799 2.86361 13.3237 3.3291C13.8527 3.79036 14.1172 4.41878 14.1172 5.21436ZM12.4731 9.33398C12.4731 8.93197 12.3568 8.61035 12.124 8.36914C11.8913 8.12793 11.5781 8.00732 11.1846 8.00732C10.7952 8.00732 10.4842 8.12793 10.2515 8.36914C10.0187 8.60612 9.90234 8.92773 9.90234 9.33398C9.90234 9.72754 10.0166 10.0449 10.2451 10.2861C10.4736 10.5273 10.791 10.6479 11.1973 10.6479C11.5951 10.6479 11.9061 10.5316 12.1304 10.2988C12.3589 10.0661 12.4731 9.74447 12.4731 9.33398ZM12.2827 5.30322C12.2827 4.94352 12.1875 4.65576 11.9971 4.43994C11.8066 4.21989 11.5379 4.10986 11.1909 4.10986C10.8481 4.10986 10.5815 4.21566 10.3911 4.42725C10.2007 4.63883 10.1055 4.93083 10.1055 5.30322C10.1055 5.67139 10.2007 5.96761 10.3911 6.19189C10.5815 6.41618 10.8503 6.52832 11.1973 6.52832C11.5443 6.52832 11.8109 6.41618 11.9971 6.19189C12.1875 5.96761 12.2827 5.67139 12.2827 5.30322ZM21.7788 8.17871C21.7788 9.45671 21.5143 10.4342 20.9854 11.1113C20.4564 11.7884 19.682 12.127 18.6621 12.127C17.6549 12.127 16.8848 11.7948 16.3516 11.1304C15.8184 10.466 15.5454 9.51383 15.5327 8.27393V6.57275C15.5327 5.28206 15.7993 4.30241 16.3325 3.63379C16.87 2.96517 17.6423 2.63086 18.6494 2.63086C19.6566 2.63086 20.4268 2.96305 20.96 3.62744C21.4932 4.2876 21.7661 5.23763 21.7788 6.47754V8.17871ZM19.9443 6.3125C19.9443 5.54655 19.8385 4.99007 19.627 4.64307C19.4196 4.29183 19.0938 4.11621 18.6494 4.11621C18.2178 4.11621 17.8983 4.28337 17.6909 4.61768C17.4878 4.94775 17.3799 5.46615 17.3672 6.17285V8.41992C17.3672 9.17318 17.4688 9.73389 17.6719 10.1021C17.8792 10.466 18.2093 10.6479 18.6621 10.6479C19.1107 10.6479 19.4344 10.4723 19.6333 10.1211C19.8322 9.76986 19.9359 9.23242 19.9443 8.50879V6.3125ZM25.5938 9.24512L24.9336 9.90527V12H23.0991V2.25H24.9336V7.65186L25.2891 7.19482L27.0474 5.13184H29.25L26.7681 7.99463L29.4658 12H27.3584L25.5938 9.24512Z" transform="translate(471 170)" fill="black"/>
<path d="M4.62744 12H3.44678V4.17334L1.0791 5.04297V3.97656L4.44336 2.71338H4.62744V12ZM12.5684 7.9375C12.3229 8.22949 12.0288 8.46436 11.686 8.64209C11.3475 8.81982 10.9751 8.90869 10.5688 8.90869C10.0356 8.90869 9.57015 8.77751 9.17236 8.51514C8.77881 8.25277 8.47412 7.8846 8.2583 7.41064C8.04248 6.93245 7.93457 6.4056 7.93457 5.83008C7.93457 5.21224 8.05094 4.65576 8.28369 4.16064C8.52067 3.66553 8.85498 3.28678 9.28662 3.02441C9.71826 2.76204 10.2218 2.63086 10.7974 2.63086C11.7114 2.63086 12.4308 2.97363 12.9556 3.65918C13.4845 4.34049 13.749 5.27148 13.749 6.45215V6.79492C13.749 8.59342 13.3936 9.90739 12.6826 10.7368C11.9717 11.562 10.8989 11.9852 9.46436 12.0063H9.23584V11.0161H9.4834C10.4525 10.9992 11.1973 10.7474 11.7178 10.2607C12.2383 9.76986 12.5218 8.99544 12.5684 7.9375ZM10.7593 7.9375C11.1528 7.9375 11.5146 7.81689 11.8447 7.57568C12.179 7.33447 12.4224 7.03613 12.5747 6.68066V6.21094C12.5747 5.44076 12.4076 4.81445 12.0732 4.33203C11.7389 3.84961 11.3158 3.6084 10.8037 3.6084C10.2874 3.6084 9.87272 3.80729 9.55957 4.20508C9.24642 4.59863 9.08984 5.11914 9.08984 5.7666C9.08984 6.39714 9.24007 6.91764 9.54053 7.32812C9.84521 7.73438 10.2515 7.9375 10.7593 7.9375ZM21.1631 8.05811C21.1631 9.43343 20.9282 10.4554 20.4585 11.124C19.9888 11.7926 19.2546 12.127 18.2559 12.127C17.2699 12.127 16.5399 11.8011 16.0659 11.1494C15.592 10.4935 15.3465 9.51595 15.3296 8.2168V6.64893C15.3296 5.29053 15.5645 4.28125 16.0342 3.62109C16.5039 2.96094 17.2402 2.63086 18.2432 2.63086C19.2376 2.63086 19.9697 2.95036 20.4395 3.58936C20.9092 4.22412 21.1504 5.20589 21.1631 6.53467V8.05811ZM19.9888 6.45215C19.9888 5.45768 19.8491 4.73405 19.5698 4.28125C19.2905 3.82422 18.8483 3.5957 18.2432 3.5957C17.6423 3.5957 17.2043 3.8221 16.9292 4.2749C16.6541 4.7277 16.5124 5.42383 16.5039 6.36328V8.24219C16.5039 9.24089 16.6478 9.97933 16.9355 10.4575C17.2275 10.9315 17.6676 11.1685 18.2559 11.1685C18.8356 11.1685 19.2651 10.9442 19.5444 10.4956C19.828 10.047 19.9761 9.34033 19.9888 8.37549V6.45215ZM24.7051 8.81982L23.9688 9.58789V12H22.7944V2.25H23.9688V8.14697L24.5972 7.3916L26.7363 5.13184H28.1646L25.4922 8.00098L28.4756 12H27.0981L24.7051 8.81982Z" transform="translate(509 170)" fill="black"/>
<path d="M6.82373 12H0.768066V11.1558L3.96729 7.60107C4.44124 7.06364 4.76709 6.62777 4.94482 6.29346C5.12679 5.95492 5.21777 5.60579 5.21777 5.24609C5.21777 4.76367 5.07178 4.368 4.77979 4.05908C4.48779 3.75016 4.09847 3.5957 3.61182 3.5957C3.02783 3.5957 2.57292 3.76286 2.24707 4.09717C1.92546 4.42725 1.76465 4.88851 1.76465 5.48096H0.590332C0.590332 4.63037 0.863281 3.94271 1.40918 3.41797C1.95931 2.89323 2.69352 2.63086 3.61182 2.63086C4.47087 2.63086 5.15007 2.85726 5.64941 3.31006C6.14876 3.75863 6.39844 4.35742 6.39844 5.10645C6.39844 6.01628 5.81868 7.09961 4.65918 8.35645L2.18359 11.0415H6.82373V12ZM13.8633 8.05811C13.8633 9.43343 13.6284 10.4554 13.1587 11.124C12.689 11.7926 11.9548 12.127 10.9561 12.127C9.97005 12.127 9.24007 11.8011 8.76611 11.1494C8.29215 10.4935 8.04671 9.51595 8.02979 8.2168V6.64893C8.02979 5.29053 8.26465 4.28125 8.73438 3.62109C9.2041 2.96094 9.94043 2.63086 10.9434 2.63086C11.9378 2.63086 12.6699 2.95036 13.1396 3.58936C13.6094 4.22412 13.8506 5.20589 13.8633 6.53467V8.05811ZM12.689 6.45215C12.689 5.45768 12.5493 4.73405 12.27 4.28125C11.9907 3.82422 11.5485 3.5957 10.9434 3.5957C10.3424 3.5957 9.90446 3.8221 9.62939 4.2749C9.35433 4.7277 9.21257 5.42383 9.2041 6.36328V8.24219C9.2041 9.24089 9.34798 9.97933 9.63574 10.4575C9.92773 10.9315 10.3678 11.1685 10.9561 11.1685C11.5358 11.1685 11.9653 10.9442 12.2446 10.4956C12.5282 10.047 12.6763 9.34033 12.689 8.37549V6.45215ZM21.1631 8.05811C21.1631 9.43343 20.9282 10.4554 20.4585 11.124C19.9888 11.7926 19.2546 12.127 18.2559 12.127C17.2699 12.127 16.5399 11.8011 16.0659 11.1494C15.592 10.4935 15.3465 9.51595 15.3296 8.2168V6.64893C15.3296 5.29053 15.5645 4.28125 16.0342 3.62109C16.5039 2.96094 17.2402 2.63086 18.2432 2.63086C19.2376 2.63086 19.9697 2.95036 20.4395 3.58936C20.9092 4.22412 21.1504 5.20589 21.1631 6.53467V8.05811ZM19.9888 6.45215C19.9888 5.45768 19.8491 4.73405 19.5698 4.28125C19.2905 3.82422 18.8483 3.5957 18.2432 3.5957C17.6423 3.5957 17.2043 3.8221 16.9292 4.2749C16.6541 4.7277 16.5124 5.42383 16.5039 6.36328V8.24219C16.5039 9.24089 16.6478 9.97933 16.9355 10.4575C17.2275 10.9315 17.6676 11.1685 18.2559 11.1685C18.8356 11.1685 19.2651 10.9442 19.5444 10.4956C19.828 10.047 19.9761 9.34033 19.9888 8.37549V6.45215ZM24.7051 8.81982L23.9688 9.58789V12H22.7944V2.25H23.9688V8.14697L24.5972 7.3916L26.7363 5.13184H28.1646L25.4922 8.00098L28.4756 12H27.0981L24.7051 8.81982Z" transform="translate(546 170)" fill="black"/>
<path d="M6.82373 12H0.768066V11.1558L3.96729 7.60107C4.44124 7.06364 4.76709 6.62777 4.94482 6.29346C5.12679 5.95492 5.21777 5.60579 5.21777 5.24609C5.21777 4.76367 5.07178 4.368 4.77979 4.05908C4.48779 3.75016 4.09847 3.5957 3.61182 3.5957C3.02783 3.5957 2.57292 3.76286 2.24707 4.09717C1.92546 4.42725 1.76465 4.88851 1.76465 5.48096H0.590332C0.590332 4.63037 0.863281 3.94271 1.40918 3.41797C1.95931 2.89323 2.69352 2.63086 3.61182 2.63086C4.47087 2.63086 5.15007 2.85726 5.64941 3.31006C6.14876 3.75863 6.39844 4.35742 6.39844 5.10645C6.39844 6.01628 5.81868 7.09961 4.65918 8.35645L2.18359 11.0415H6.82373V12ZM11.9272 12H10.7466V4.17334L8.37891 5.04297V3.97656L11.7432 2.71338H11.9272V12ZM21.1631 8.05811C21.1631 9.43343 20.9282 10.4554 20.4585 11.124C19.9888 11.7926 19.2546 12.127 18.2559 12.127C17.2699 12.127 16.5399 11.8011 16.0659 11.1494C15.592 10.4935 15.3465 9.51595 15.3296 8.2168V6.64893C15.3296 5.29053 15.5645 4.28125 16.0342 3.62109C16.5039 2.96094 17.2402 2.63086 18.2432 2.63086C19.2376 2.63086 19.9697 2.95036 20.4395 3.58936C20.9092 4.22412 21.1504 5.20589 21.1631 6.53467V8.05811ZM19.9888 6.45215C19.9888 5.45768 19.8491 4.73405 19.5698 4.28125C19.2905 3.82422 18.8483 3.5957 18.2432 3.5957C17.6423 3.5957 17.2043 3.8221 16.9292 4.2749C16.6541 4.7277 16.5124 5.42383 16.5039 6.36328V8.24219C16.5039 9.24089 16.6478 9.97933 16.9355 10.4575C17.2275 10.9315 17.6676 11.1685 18.2559 11.1685C18.8356 11.1685 19.2651 10.9442 19.5444 10.4956C19.828 10.047 19.9761 9.34033 19.9888 8.37549V6.45215ZM24.7051 8.81982L23.9688 9.58789V12H22.7944V2.25H23.9688V8.14697L24.5972 7.3916L26.7363 5.13184H28.1646L25.4922 8.00098L28.4756 12H27.0981L24.7051 8.81982Z" transform="translate(586 170)" fill="black"/>
<path d="M6.96338 12H0.628418V10.7432L3.61816 7.55664C4.02865 7.10807 4.33122 6.71663 4.52588 6.38232C4.72477 6.04801 4.82422 5.73063 4.82422 5.43018C4.82422 5.01969 4.72054 4.69808 4.51318 4.46533C4.30583 4.22835 4.0096 4.10986 3.62451 4.10986C3.2098 4.10986 2.88184 4.25374 2.64062 4.5415C2.40365 4.82503 2.28516 5.19954 2.28516 5.66504H0.444336C0.444336 5.10221 0.577637 4.58805 0.844238 4.12256C1.11507 3.65706 1.49593 3.29313 1.98682 3.03076C2.4777 2.76416 3.03418 2.63086 3.65625 2.63086C4.6084 2.63086 5.34684 2.85938 5.87158 3.31641C6.40055 3.77344 6.66504 4.41878 6.66504 5.25244C6.66504 5.70947 6.54655 6.17497 6.30957 6.64893C6.07259 7.12288 5.66634 7.67513 5.09082 8.30566L2.98975 10.521H6.96338V12ZM14.4282 12H8.09326V10.7432L11.083 7.55664C11.4935 7.10807 11.7961 6.71663 11.9907 6.38232C12.1896 6.04801 12.2891 5.73063 12.2891 5.43018C12.2891 5.01969 12.1854 4.69808 11.978 4.46533C11.7707 4.22835 11.4744 4.10986 11.0894 4.10986C10.6746 4.10986 10.3467 4.25374 10.1055 4.5415C9.86849 4.82503 9.75 5.19954 9.75 5.66504H7.90918C7.90918 5.10221 8.04248 4.58805 8.30908 4.12256C8.57992 3.65706 8.96077 3.29313 9.45166 3.03076C9.94255 2.76416 10.499 2.63086 11.1211 2.63086C12.0732 2.63086 12.8117 2.85938 13.3364 3.31641C13.8654 3.77344 14.1299 4.41878 14.1299 5.25244C14.1299 5.70947 14.0114 6.17497 13.7744 6.64893C13.5374 7.12288 13.1312 7.67513 12.5557 8.30566L10.4546 10.521H14.4282V12ZM21.7788 8.17871C21.7788 9.45671 21.5143 10.4342 20.9854 11.1113C20.4564 11.7884 19.682 12.127 18.6621 12.127C17.6549 12.127 16.8848 11.7948 16.3516 11.1304C15.8184 10.466 15.5454 9.51383 15.5327 8.27393V6.57275C15.5327 5.28206 15.7993 4.30241 16.3325 3.63379C16.87 2.96517 17.6423 2.63086 18.6494 2.63086C19.6566 2.63086 20.4268 2.96305 20.96 3.62744C21.4932 4.2876 21.7661 5.23763 21.7788 6.47754V8.17871ZM19.9443 6.3125C19.9443 5.54655 19.8385 4.99007 19.627 4.64307C19.4196 4.29183 19.0938 4.11621 18.6494 4.11621C18.2178 4.11621 17.8983 4.28337 17.6909 4.61768C17.4878 4.94775 17.3799 5.46615 17.3672 6.17285V8.41992C17.3672 9.17318 17.4688 9.73389 17.6719 10.1021C17.8792 10.466 18.2093 10.6479 18.6621 10.6479C19.1107 10.6479 19.4344 10.4723 19.6333 10.1211C19.8322 9.76986 19.9359 9.23242 19.9443 8.50879V6.3125ZM25.5938 9.24512L24.9336 9.90527V12H23.0991V2.25H24.9336V7.65186L25.2891 7.19482L27.0474 5.13184H29.25L26.7681 7.99463L29.4658 12H27.3584L25.5938 9.24512Z" transform="translate(623 170)" fill="#D55E00"/>
<path d="M5.08447 12H3.25V4.92871L1.06006 5.60791V4.11621L4.8877 2.74512H5.08447V12ZM14.1172 5.21436C14.1172 5.66292 14.005 6.06071 13.7808 6.40771C13.5565 6.75472 13.2476 7.0319 12.854 7.23926C13.3026 7.45508 13.658 7.75342 13.9204 8.13428C14.1828 8.5109 14.314 8.95524 14.314 9.46729C14.314 10.2882 14.0347 10.9378 13.4761 11.416C12.9175 11.89 12.1579 12.127 11.1973 12.127C10.2367 12.127 9.47493 11.8879 8.91211 11.4097C8.34928 10.9315 8.06787 10.284 8.06787 9.46729C8.06787 8.95524 8.19906 8.50879 8.46143 8.12793C8.7238 7.74707 9.07715 7.45085 9.52148 7.23926C9.12793 7.0319 8.81901 6.75472 8.59473 6.40771C8.37467 6.06071 8.26465 5.66292 8.26465 5.21436C8.26465 4.42725 8.52702 3.80094 9.05176 3.33545C9.5765 2.86572 10.2896 2.63086 11.1909 2.63086C12.0881 2.63086 12.799 2.86361 13.3237 3.3291C13.8527 3.79036 14.1172 4.41878 14.1172 5.21436ZM12.4731 9.33398C12.4731 8.93197 12.3568 8.61035 12.124 8.36914C11.8913 8.12793 11.5781 8.00732 11.1846 8.00732C10.7952 8.00732 10.4842 8.12793 10.2515 8.36914C10.0187 8.60612 9.90234 8.92773 9.90234 9.33398C9.90234 9.72754 10.0166 10.0449 10.2451 10.2861C10.4736 10.5273 10.791 10.6479 11.1973 10.6479C11.5951 10.6479 11.9061 10.5316 12.1304 10.2988C12.3589 10.0661 12.4731 9.74447 12.4731 9.33398ZM12.2827 5.30322C12.2827 4.94352 12.1875 4.65576 11.9971 4.43994C11.8066 4.21989 11.5379 4.10986 11.1909 4.10986C10.8481 4.10986 10.5815 4.21566 10.3911 4.42725C10.2007 4.63883 10.1055 4.93083 10.1055 5.30322C10.1055 5.67139 10.2007 5.96761 10.3911 6.19189C10.5815 6.41618 10.8503 6.52832 11.1973 6.52832C11.5443 6.52832 11.8109 6.41618 11.9971 6.19189C12.1875 5.96761 12.2827 5.67139 12.2827 5.30322ZM21.7788 8.17871C21.7788 9.45671 21.5143 10.4342 20.9854 11.1113C20.4564 11.7884 19.682 12.127 18.6621 12.127C17.6549 12.127 16.8848 11.7948 16.3516 11.1304C15.8184 10.466 15.5454 9.51383 15.5327 8.27393V6.57275C15.5327 5.28206 15.7993 4.30241 16.3325 3.63379C16.87 2.96517 17.6423 2.63086 18.6494 2.63086C19.6566 2.63086 20.4268 2.96305 20.96 3.62744C21.4932 4.2876 21.7661 5.23763 21.7788 6.47754V8.17871ZM19.9443 6.3125C19.9443 5.54655 19.8385 4.99007 19.627 4.64307C19.4196 4.29183 19.0938 4.11621 18.6494 4.11621C18.2178 4.11621 17.8983 4.28337 17.6909 4.61768C17.4878 4.94775 17.3799 5.46615 17.3672 6.17285V8.41992C17.3672 9.17318 17.4688 9.73389 17.6719 10.1021C17.8792 10.466 18.2093 10.6479 18.6621 10.6479C19.1107 10.6479 19.4344 10.4723 19.6333 10.1211C19.8322 9.76986 19.9359 9.23242 19.9443 8.50879V6.3125ZM25.5938 9.24512L24.9336 9.90527V12H23.0991V2.25H24.9336V7.65186L25.2891 7.19482L27.0474 5.13184H29.25L26.7681 7.99463L29.4658 12H27.3584L25.5938 9.24512Z" transform="translate(142 170)" fill="black"/>
<path d="M6.96338 12H0.628418V10.7432L3.61816 7.55664C4.02865 7.10807 4.33122 6.71663 4.52588 6.38232C4.72477 6.04801 4.82422 5.73063 4.82422 5.43018C4.82422 5.01969 4.72054 4.69808 4.51318 4.46533C4.30583 4.22835 4.0096 4.10986 3.62451 4.10986C3.2098 4.10986 2.88184 4.25374 2.64062 4.5415C2.40365 4.82503 2.28516 5.19954 2.28516 5.66504H0.444336C0.444336 5.10221 0.577637 4.58805 0.844238 4.12256C1.11507 3.65706 1.49593 3.29313 1.98682 3.03076C2.4777 2.76416 3.03418 2.63086 3.65625 2.63086C4.6084 2.63086 5.34684 2.85938 5.87158 3.31641C6.40055 3.77344 6.66504 4.41878 6.66504 5.25244C6.66504 5.70947 6.54655 6.17497 6.30957 6.64893C6.07259 7.12288 5.66634 7.67513 5.09082 8.30566L2.98975 10.521H6.96338V12ZM14.4282 12H8.09326V10.7432L11.083 7.55664C11.4935 7.10807 11.7961 6.71663 11.9907 6.38232C12.1896 6.04801 12.2891 5.73063 12.2891 5.43018C12.2891 5.01969 12.1854 4.69808 11.978 4.46533C11.7707 4.22835 11.4744 4.10986 11.0894 4.10986C10.6746 4.10986 10.3467 4.25374 10.1055 4.5415C9.86849 4.82503 9.75 5.19954 9.75 5.66504H7.90918C7.90918 5.10221 8.04248 4.58805 8.30908 4.12256C8.57992 3.65706 8.96077 3.29313 9.45166 3.03076C9.94255 2.76416 10.499 2.63086 11.1211 2.63086C12.0732 2.63086 12.8117 2.85938 13.3364 3.31641C13.8654 3.77344 14.1299 4.41878 14.1299 5.25244C14.1299 5.70947 14.0114 6.17497 13.7744 6.64893C13.5374 7.12288 13.1312 7.67513 12.5557 8.30566L10.4546 10.521H14.4282V12ZM21.7788 8.17871C21.7788 9.45671 21.5143 10.4342 20.9854 11.1113C20.4564 11.7884 19.682 12.127 18.6621 12.127C17.6549 12.127 16.8848 11.7948 16.3516 11.1304C15.8184 10.466 15.5454 9.51383 15.5327 8.27393V6.57275C15.5327 5.28206 15.7993 4.30241 16.3325 3.63379C16.87 2.96517 17.6423 2.63086 18.6494 2.63086C19.6566 2.63086 20.4268 2.96305 20.96 3.62744C21.4932 4.2876 21.7661 5.23763 21.7788 6.47754V8.17871ZM19.9443 6.3125C19.9443 5.54655 19.8385 4.99007 19.627 4.64307C19.4196 4.29183 19.0938 4.11621 18.6494 4.11621C18.2178 4.11621 17.8983 4.28337 17.6909 4.61768C17.4878 4.94775 17.3799 5.46615 17.3672 6.17285V8.41992C17.3672 9.17318 17.4688 9.73389 17.6719 10.1021C17.8792 10.466 18.2093 10.6479 18.6621 10.6479C19.1107 10.6479 19.4344 10.4723 19.6333 10.1211C19.8322 9.76986 19.9359 9.23242 19.9443 8.50879V6.3125ZM25.5938 9.24512L24.9336 9.90527V12H23.0991V2.25H24.9336V7.65186L25.2891 7.19482L27.0474 5.13184H29.25L26.7681 7.99463L29.4658 12H27.3584L25.5938 9.24512Z" transform="translate(180 170)" fill="#009E73"/>
<path d="M6.82373 12H0.768066V11.1558L3.96729 7.60107C4.44124 7.06364 4.76709 6.62777 4.94482 6.29346C5.12679 5.95492 5.21777 5.60579 5.21777 5.24609C5.21777 4.76367 5.07178 4.368 4.77979 4.05908C4.48779 3.75016 4.09847 3.5957 3.61182 3.5957C3.02783 3.5957 2.57292 3.76286 2.24707 4.09717C1.92546 4.42725 1.76465 4.88851 1.76465 5.48096H0.590332C0.590332 4.63037 0.863281 3.94271 1.40918 3.41797C1.95931 2.89323 2.69352 2.63086 3.61182 2.63086C4.47087 2.63086 5.15007 2.85726 5.64941 3.31006C6.14876 3.75863 6.39844 4.35742 6.39844 5.10645C6.39844 6.01628 5.81868 7.09961 4.65918 8.35645L2.18359 11.0415H6.82373V12ZM12.6763 2.75146V3.74805H12.4604C11.5464 3.76497 10.8185 4.03581 10.2769 4.56055C9.73519 5.08529 9.42204 5.82373 9.3374 6.77588C9.82406 6.21729 10.4884 5.93799 11.3306 5.93799C12.1346 5.93799 12.7757 6.22152 13.2539 6.78857C13.7363 7.35563 13.9775 8.08773 13.9775 8.98486C13.9775 9.93701 13.7173 10.6987 13.1968 11.27C12.6805 11.8413 11.9865 12.127 11.1147 12.127C10.2303 12.127 9.51302 11.7884 8.96289 11.1113C8.41276 10.43 8.1377 9.55404 8.1377 8.4834V8.03271C8.1377 6.33154 8.49951 5.03239 9.22314 4.13525C9.95101 3.23389 11.0322 2.77262 12.4668 2.75146H12.6763ZM11.1338 6.91553C10.7318 6.91553 10.3615 7.03613 10.0229 7.27734C9.68441 7.51855 9.44954 7.82113 9.31836 8.18506V8.6167C9.31836 9.37842 9.48975 9.99202 9.83252 10.4575C10.1753 10.923 10.6027 11.1558 11.1147 11.1558C11.6437 11.1558 12.0584 10.9611 12.3589 10.5718C12.6636 10.1825 12.8159 9.67253 12.8159 9.04199C12.8159 8.40723 12.6615 7.89518 12.3525 7.50586C12.0479 7.1123 11.6416 6.91553 11.1338 6.91553ZM21.1631 8.05811C21.1631 9.43343 20.9282 10.4554 20.4585 11.124C19.9888 11.7926 19.2546 12.127 18.2559 12.127C17.2699 12.127 16.5399 11.8011 16.0659 11.1494C15.592 10.4935 15.3465 9.51595 15.3296 8.2168V6.64893C15.3296 5.29053 15.5645 4.28125 16.0342 3.62109C16.5039 2.96094 17.2402 2.63086 18.2432 2.63086C19.2376 2.63086 19.9697 2.95036 20.4395 3.58936C20.9092 4.22412 21.1504 5.20589 21.1631 6.53467V8.05811ZM19.9888 6.45215C19.9888 5.45768 19.8491 4.73405 19.5698 4.28125C19.2905 3.82422 18.8483 3.5957 18.2432 3.5957C17.6423 3.5957 17.2043 3.8221 16.9292 4.2749C16.6541 4.7277 16.5124 5.42383 16.5039 6.36328V8.24219C16.5039 9.24089 16.6478 9.97933 16.9355 10.4575C17.2275 10.9315 17.6676 11.1685 18.2559 11.1685C18.8356 11.1685 19.2651 10.9442 19.5444 10.4956C19.828 10.047 19.9761 9.34033 19.9888 8.37549V6.45215ZM24.7051 8.81982L23.9688 9.58789V12H22.7944V2.25H23.9688V8.14697L24.5972 7.3916L26.7363 5.13184H28.1646L25.4922 8.00098L28.4756 12H27.0981L24.7051 8.81982Z" transform="translate(218 170)" fill="black"/>
<path d="M2.47559 6.80762H3.35791C3.91227 6.79915 4.34814 6.65316 4.66553 6.36963C4.98291 6.0861 5.1416 5.70312 5.1416 5.2207C5.1416 4.13737 4.60205 3.5957 3.52295 3.5957C3.01514 3.5957 2.60889 3.7417 2.3042 4.03369C2.00374 4.32145 1.85352 4.70443 1.85352 5.18262H0.679199C0.679199 4.45052 0.945801 3.84326 1.479 3.36084C2.01644 2.87419 2.69775 2.63086 3.52295 2.63086C4.39469 2.63086 5.07812 2.86149 5.57324 3.32275C6.06836 3.78402 6.31592 4.42513 6.31592 5.24609C6.31592 5.64811 6.18473 6.03743 5.92236 6.41406C5.66423 6.79069 5.31087 7.0721 4.8623 7.2583C5.37012 7.41911 5.76156 7.68571 6.03662 8.05811C6.31592 8.4305 6.45557 8.88542 6.45557 9.42285C6.45557 10.2523 6.18473 10.9103 5.64307 11.397C5.1014 11.8836 4.39681 12.127 3.5293 12.127C2.66178 12.127 1.95508 11.8921 1.40918 11.4224C0.867513 10.9526 0.59668 10.3327 0.59668 9.5625H1.77734C1.77734 10.0492 1.93604 10.4385 2.25342 10.7305C2.5708 11.0225 2.99609 11.1685 3.5293 11.1685C4.09635 11.1685 4.53011 11.0203 4.83057 10.7241C5.13102 10.4279 5.28125 10.0026 5.28125 9.44824C5.28125 8.91081 5.11621 8.49821 4.78613 8.21045C4.45605 7.92269 3.97998 7.77458 3.35791 7.76611H2.47559V6.80762ZM13.8633 8.05811C13.8633 9.43343 13.6284 10.4554 13.1587 11.124C12.689 11.7926 11.9548 12.127 10.9561 12.127C9.97005 12.127 9.24007 11.8011 8.76611 11.1494C8.29215 10.4935 8.04671 9.51595 8.02979 8.2168V6.64893C8.02979 5.29053 8.26465 4.28125 8.73438 3.62109C9.2041 2.96094 9.94043 2.63086 10.9434 2.63086C11.9378 2.63086 12.6699 2.95036 13.1396 3.58936C13.6094 4.22412 13.8506 5.20589 13.8633 6.53467V8.05811ZM12.689 6.45215C12.689 5.45768 12.5493 4.73405 12.27 4.28125C11.9907 3.82422 11.5485 3.5957 10.9434 3.5957C10.3424 3.5957 9.90446 3.8221 9.62939 4.2749C9.35433 4.7277 9.21257 5.42383 9.2041 6.36328V8.24219C9.2041 9.24089 9.34798 9.97933 9.63574 10.4575C9.92773 10.9315 10.3678 11.1685 10.9561 11.1685C11.5358 11.1685 11.9653 10.9442 12.2446 10.4956C12.5282 10.047 12.6763 9.34033 12.689 8.37549V6.45215ZM21.1631 8.05811C21.1631 9.43343 20.9282 10.4554 20.4585 11.124C19.9888 11.7926 19.2546 12.127 18.2559 12.127C17.2699 12.127 16.5399 11.8011 16.0659 11.1494C15.592 10.4935 15.3465 9.51595 15.3296 8.2168V6.64893C15.3296 5.29053 15.5645 4.28125 16.0342 3.62109C16.5039 2.96094 17.2402 2.63086 18.2432 2.63086C19.2376 2.63086 19.9697 2.95036 20.4395 3.58936C20.9092 4.22412 21.1504 5.20589 21.1631 6.53467V8.05811ZM19.9888 6.45215C19.9888 5.45768 19.8491 4.73405 19.5698 4.28125C19.2905 3.82422 18.8483 3.5957 18.2432 3.5957C17.6423 3.5957 17.2043 3.8221 16.9292 4.2749C16.6541 4.7277 16.5124 5.42383 16.5039 6.36328V8.24219C16.5039 9.24089 16.6478 9.97933 16.9355 10.4575C17.2275 10.9315 17.6676 11.1685 18.2559 11.1685C18.8356 11.1685 19.2651 10.9442 19.5444 10.4956C19.828 10.047 19.9761 9.34033 19.9888 8.37549V6.45215ZM24.7051 8.81982L23.9688 9.58789V12H22.7944V2.25H23.9688V8.14697L24.5972 7.3916L26.7363 5.13184H28.1646L25.4922 8.00098L28.4756 12H27.0981L24.7051 8.81982Z" transform="translate(258 170)" fill="black"/>
<path d="M2.47559 6.80762H3.35791C3.91227 6.79915 4.34814 6.65316 4.66553 6.36963C4.98291 6.0861 5.1416 5.70312 5.1416 5.2207C5.1416 4.13737 4.60205 3.5957 3.52295 3.5957C3.01514 3.5957 2.60889 3.7417 2.3042 4.03369C2.00374 4.32145 1.85352 4.70443 1.85352 5.18262H0.679199C0.679199 4.45052 0.945801 3.84326 1.479 3.36084C2.01644 2.87419 2.69775 2.63086 3.52295 2.63086C4.39469 2.63086 5.07812 2.86149 5.57324 3.32275C6.06836 3.78402 6.31592 4.42513 6.31592 5.24609C6.31592 5.64811 6.18473 6.03743 5.92236 6.41406C5.66423 6.79069 5.31087 7.0721 4.8623 7.2583C5.37012 7.41911 5.76156 7.68571 6.03662 8.05811C6.31592 8.4305 6.45557 8.88542 6.45557 9.42285C6.45557 10.2523 6.18473 10.9103 5.64307 11.397C5.1014 11.8836 4.39681 12.127 3.5293 12.127C2.66178 12.127 1.95508 11.8921 1.40918 11.4224C0.867513 10.9526 0.59668 10.3327 0.59668 9.5625H1.77734C1.77734 10.0492 1.93604 10.4385 2.25342 10.7305C2.5708 11.0225 2.99609 11.1685 3.5293 11.1685C4.09635 11.1685 4.53011 11.0203 4.83057 10.7241C5.13102 10.4279 5.28125 10.0026 5.28125 9.44824C5.28125 8.91081 5.11621 8.49821 4.78613 8.21045C4.45605 7.92269 3.97998 7.77458 3.35791 7.76611H2.47559V6.80762ZM13.0254 8.896H14.3076V9.85449H13.0254V12H11.8447V9.85449H7.63623V9.1626L11.7749 2.75781H13.0254V8.896ZM8.96924 8.896H11.8447V4.36377L11.7051 4.61768L8.96924 8.896ZM21.1631 8.05811C21.1631 9.43343 20.9282 10.4554 20.4585 11.124C19.9888 11.7926 19.2546 12.127 18.2559 12.127C17.2699 12.127 16.5399 11.8011 16.0659 11.1494C15.592 10.4935 15.3465 9.51595 15.3296 8.2168V6.64893C15.3296 5.29053 15.5645 4.28125 16.0342 3.62109C16.5039 2.96094 17.2402 2.63086 18.2432 2.63086C19.2376 2.63086 19.9697 2.95036 20.4395 3.58936C20.9092 4.22412 21.1504 5.20589 21.1631 6.53467V8.05811ZM19.9888 6.45215C19.9888 5.45768 19.8491 4.73405 19.5698 4.28125C19.2905 3.82422 18.8483 3.5957 18.2432 3.5957C17.6423 3.5957 17.2043 3.8221 16.9292 4.2749C16.6541 4.7277 16.5124 5.42383 16.5039 6.36328V8.24219C16.5039 9.24089 16.6478 9.97933 16.9355 10.4575C17.2275 10.9315 17.6676 11.1685 18.2559 11.1685C18.8356 11.1685 19.2651 10.9442 19.5444 10.4956C19.828 10.047 19.9761 9.34033 19.9888 8.37549V6.45215ZM24.7051 8.81982L23.9688 9.58789V12H22.7944V2.25H23.9688V8.14697L24.5972 7.3916L26.7363 5.13184H28.1646L25.4922 8.00098L28.4756 12H27.0981L24.7051 8.81982Z" transform="translate(295 170)" fill="black"/>
<path d="M33.3536 0.353553C33.5488 0.158291 33.5488 -0.158291 33.3536 -0.353553L30.1716 -3.53553C29.9763 -3.7308 29.6597 -3.7308 29.4645 -3.53553C29.2692 -3.34027 29.2692 -3.02369 29.4645 -2.82843L32.2929 0L29.4645 2.82843C29.2692 3.02369 29.2692 3.34027 29.4645 3.53553C29.6597 3.7308 29.9763 3.7308 30.1716 3.53553L33.3536 0.353553ZM0 0.5H33V-0.5H0V0.5Z" transform="translate(158 41)" fill="#009E73"/>
<path d="M4.76465 10.9561C4.76465 10.7145 4.64388 10.5254 4.40234 10.3887C4.16536 10.2474 3.78255 10.1221 3.25391 10.0127C1.49479 9.64355 0.615234 8.89616 0.615234 7.77051C0.615234 7.11426 0.886393 6.56738 1.42871 6.12988C1.97559 5.68783 2.6888 5.4668 3.56836 5.4668C4.50716 5.4668 5.25684 5.68783 5.81738 6.12988C6.38249 6.57194 6.66504 7.14616 6.66504 7.85254H4.68945C4.68945 7.56999 4.59831 7.33757 4.41602 7.15527C4.23372 6.96842 3.94889 6.875 3.56152 6.875C3.22884 6.875 2.97135 6.9502 2.78906 7.10059C2.60677 7.25098 2.51562 7.44238 2.51562 7.6748C2.51562 7.89355 2.61816 8.07129 2.82324 8.20801C3.03288 8.34017 3.38379 8.45638 3.87598 8.55664C4.36816 8.65234 4.78288 8.76172 5.12012 8.88477C6.16374 9.26758 6.68555 9.93066 6.68555 10.874C6.68555 11.5485 6.39616 12.0954 5.81738 12.5146C5.23861 12.9294 4.49121 13.1367 3.5752 13.1367C2.9554 13.1367 2.40397 13.0273 1.9209 12.8086C1.44238 12.5853 1.06641 12.2822 0.792969 11.8994C0.519531 11.512 0.382812 11.0951 0.382812 10.6484H2.25586C2.27409 10.9993 2.40397 11.2682 2.64551 11.4551C2.88704 11.6419 3.21061 11.7354 3.61621 11.7354C3.99447 11.7354 4.2793 11.6647 4.4707 11.5234C4.66667 11.3776 4.76465 11.1885 4.76465 10.9561ZM17.7324 7.90039H11.6211V6.28711H17.7324V7.90039ZM17.7324 10.8604H11.6211V9.24707H17.7324V10.8604ZM28.7109 9.25391H29.8389V10.8467H28.7109V13H26.7354V10.8467H22.6543L22.5654 9.60254L26.7148 3.04688H28.7109V9.25391ZM24.5342 9.25391H26.7354V5.74023L26.6055 5.96582L24.5342 9.25391ZM37.6045 8.88477C37.6045 10.2611 37.3197 11.3138 36.75 12.043C36.1803 12.7721 35.3464 13.1367 34.248 13.1367C33.1634 13.1367 32.334 12.779 31.7598 12.0635C31.1855 11.348 30.8916 10.3226 30.8779 8.9873V7.15527C30.8779 5.7653 31.165 4.71029 31.7393 3.99023C32.318 3.27018 33.1497 2.91016 34.2344 2.91016C35.319 2.91016 36.1484 3.2679 36.7227 3.9834C37.2969 4.69434 37.5908 5.71745 37.6045 7.05273V8.88477ZM35.6289 6.875C35.6289 6.05013 35.515 5.45085 35.2871 5.07715C35.0638 4.69889 34.7129 4.50977 34.2344 4.50977C33.7695 4.50977 33.4255 4.68978 33.2021 5.0498C32.9834 5.40527 32.8672 5.96354 32.8535 6.72461V9.14453C32.8535 9.95573 32.9629 10.5596 33.1816 10.9561C33.4049 11.348 33.7604 11.5439 34.248 11.5439C34.7311 11.5439 35.0798 11.3548 35.2939 10.9766C35.5081 10.5983 35.6198 10.0195 35.6289 9.24023V6.875ZM45.6436 8.88477C45.6436 10.2611 45.3587 11.3138 44.7891 12.043C44.2194 12.7721 43.3854 13.1367 42.2871 13.1367C41.2025 13.1367 40.373 12.779 39.7988 12.0635C39.2246 11.348 38.9307 10.3226 38.917 8.9873V7.15527C38.917 5.7653 39.2041 4.71029 39.7783 3.99023C40.3571 3.27018 41.1888 2.91016 42.2734 2.91016C43.3581 2.91016 44.1875 3.2679 44.7617 3.9834C45.3359 4.69434 45.6299 5.71745 45.6436 7.05273V8.88477ZM43.668 6.875C43.668 6.05013 43.554 5.45085 43.3262 5.07715C43.1029 4.69889 42.752 4.50977 42.2734 4.50977C41.8086 4.50977 41.4645 4.68978 41.2412 5.0498C41.0225 5.40527 40.9062 5.96354 40.8926 6.72461V9.14453C40.8926 9.95573 41.002 10.5596 41.2207 10.9561C41.444 11.348 41.7995 11.5439 42.2871 11.5439C42.7702 11.5439 43.1188 11.3548 43.333 10.9766C43.5472 10.5983 43.6589 10.0195 43.668 9.24023V6.875ZM53.6826 8.88477C53.6826 10.2611 53.3978 11.3138 52.8281 12.043C52.2585 12.7721 51.4245 13.1367 50.3262 13.1367C49.2415 13.1367 48.4121 12.779 47.8379 12.0635C47.2637 11.348 46.9697 10.3226 46.9561 8.9873V7.15527C46.9561 5.7653 47.2432 4.71029 47.8174 3.99023C48.3962 3.27018 49.2279 2.91016 50.3125 2.91016C51.3971 2.91016 52.2266 3.2679 52.8008 3.9834C53.375 4.69434 53.6689 5.71745 53.6826 7.05273V8.88477ZM51.707 6.875C51.707 6.05013 51.5931 5.45085 51.3652 5.07715C51.1419 4.69889 50.791 4.50977 50.3125 4.50977C49.8477 4.50977 49.5036 4.68978 49.2803 5.0498C49.0615 5.40527 48.9453 5.96354 48.9316 6.72461V9.14453C48.9316 9.95573 49.041 10.5596 49.2598 10.9561C49.4831 11.348 49.8385 11.5439 50.3262 11.5439C50.8092 11.5439 51.1579 11.3548 51.3721 10.9766C51.5863 10.5983 51.6979 10.0195 51.707 9.24023V6.875ZM61.7217 8.88477C61.7217 10.2611 61.4368 11.3138 60.8672 12.043C60.2975 12.7721 59.4635 13.1367 58.3652 13.1367C57.2806 13.1367 56.4512 12.779 55.877 12.0635C55.3027 11.348 55.0088 10.3226 54.9951 8.9873V7.15527C54.9951 5.7653 55.2822 4.71029 55.8564 3.99023C56.4352 3.27018 57.2669 2.91016 58.3516 2.91016C59.4362 2.91016 60.2656 3.2679 60.8398 3.9834C61.4141 4.69434 61.708 5.71745 61.7217 7.05273V8.88477ZM59.7461 6.875C59.7461 6.05013 59.6322 5.45085 59.4043 5.07715C59.181 4.69889 58.8301 4.50977 58.3516 4.50977C57.8867 4.50977 57.5426 4.68978 57.3193 5.0498C57.1006 5.40527 56.9844 5.96354 56.9707 6.72461V9.14453C56.9707 9.95573 57.0801 10.5596 57.2988 10.9561C57.5221 11.348 57.8776 11.5439 58.3652 11.5439C58.8483 11.5439 59.1969 11.3548 59.4111 10.9766C59.6253 10.5983 59.737 10.0195 59.7461 9.24023V6.875Z" transform="translate(224 26)" fill="#009E73"/>
<path d="M4.76465 10.9561C4.76465 10.7145 4.64388 10.5254 4.40234 10.3887C4.16536 10.2474 3.78255 10.1221 3.25391 10.0127C1.49479 9.64355 0.615234 8.89616 0.615234 7.77051C0.615234 7.11426 0.886393 6.56738 1.42871 6.12988C1.97559 5.68783 2.6888 5.4668 3.56836 5.4668C4.50716 5.4668 5.25684 5.68783 5.81738 6.12988C6.38249 6.57194 6.66504 7.14616 6.66504 7.85254H4.68945C4.68945 7.56999 4.59831 7.33757 4.41602 7.15527C4.23372 6.96842 3.94889 6.875 3.56152 6.875C3.22884 6.875 2.97135 6.9502 2.78906 7.10059C2.60677 7.25098 2.51562 7.44238 2.51562 7.6748C2.51562 7.89355 2.61816 8.07129 2.82324 8.20801C3.03288 8.34017 3.38379 8.45638 3.87598 8.55664C4.36816 8.65234 4.78288 8.76172 5.12012 8.88477C6.16374 9.26758 6.68555 9.93066 6.68555 10.874C6.68555 11.5485 6.39616 12.0954 5.81738 12.5146C5.23861 12.9294 4.49121 13.1367 3.5752 13.1367C2.9554 13.1367 2.40397 13.0273 1.9209 12.8086C1.44238 12.5853 1.06641 12.2822 0.792969 11.8994C0.519531 11.512 0.382812 11.0951 0.382812 10.6484H2.25586C2.27409 10.9993 2.40397 11.2682 2.64551 11.4551C2.88704 11.6419 3.21061 11.7354 3.61621 11.7354C3.99447 11.7354 4.2793 11.6647 4.4707 11.5234C4.66667 11.3776 4.76465 11.1885 4.76465 10.9561ZM17.7324 7.90039H11.6211V6.28711H17.7324V7.90039ZM17.7324 10.8604H11.6211V9.24707H17.7324V10.8604ZM27.665 13H25.6895V5.38477L23.3311 6.11621V4.50977L27.4531 3.0332H27.665V13ZM37.6045 8.88477C37.6045 10.2611 37.3197 11.3138 36.75 12.043C36.1803 12.7721 35.3464 13.1367 34.248 13.1367C33.1634 13.1367 32.334 12.779 31.7598 12.0635C31.1855 11.348 30.8916 10.3226 30.8779 8.9873V7.15527C30.8779 5.7653 31.165 4.71029 31.7393 3.99023C32.318 3.27018 33.1497 2.91016 34.2344 2.91016C35.319 2.91016 36.1484 3.2679 36.7227 3.9834C37.2969 4.69434 37.5908 5.71745 37.6045 7.05273V8.88477ZM35.6289 6.875C35.6289 6.05013 35.515 5.45085 35.2871 5.07715C35.0638 4.69889 34.7129 4.50977 34.2344 4.50977C33.7695 4.50977 33.4255 4.68978 33.2021 5.0498C32.9834 5.40527 32.8672 5.96354 32.8535 6.72461V9.14453C32.8535 9.95573 32.9629 10.5596 33.1816 10.9561C33.4049 11.348 33.7604 11.5439 34.248 11.5439C34.7311 11.5439 35.0798 11.3548 35.2939 10.9766C35.5081 10.5983 35.6198 10.0195 35.6289 9.24023V6.875ZM45.6436 8.88477C45.6436 10.2611 45.3587 11.3138 44.7891 12.043C44.2194 12.7721 43.3854 13.1367 42.2871 13.1367C41.2025 13.1367 40.373 12.779 39.7988 12.0635C39.2246 11.348 38.9307 10.3226 38.917 8.9873V7.15527C38.917 5.7653 39.2041 4.71029 39.7783 3.99023C40.3571 3.27018 41.1888 2.91016 42.2734 2.91016C43.3581 2.91016 44.1875 3.2679 44.7617 3.9834C45.3359 4.69434 45.6299 5.71745 45.6436 7.05273V8.88477ZM43.668 6.875C43.668 6.05013 43.554 5.45085 43.3262 5.07715C43.1029 4.69889 42.752 4.50977 42.2734 4.50977C41.8086 4.50977 41.4645 4.68978 41.2412 5.0498C41.0225 5.40527 40.9062 5.96354 40.8926 6.72461V9.14453C40.8926 9.95573 41.002 10.5596 41.2207 10.9561C41.444 11.348 41.7995 11.5439 42.2871 11.5439C42.7702 11.5439 43.1188 11.3548 43.333 10.9766C43.5472 10.5983 43.6589 10.0195 43.668 9.24023V6.875ZM53.6826 8.88477C53.6826 10.2611 53.3978 11.3138 52.8281 12.043C52.2585 12.7721 51.4245 13.1367 50.3262 13.1367C49.2415 13.1367 48.4121 12.779 47.8379 12.0635C47.2637 11.348 46.9697 10.3226 46.9561 8.9873V7.15527C46.9561 5.7653 47.2432 4.71029 47.8174 3.99023C48.3962 3.27018 49.2279 2.91016 50.3125 2.91016C51.3971 2.91016 52.2266 3.2679 52.8008 3.9834C53.375 4.69434 53.6689 5.71745 53.6826 7.05273V8.88477ZM51.707 6.875C51.707 6.05013 51.5931 5.45085 51.3652 5.07715C51.1419 4.69889 50.791 4.50977 50.3125 4.50977C49.8477 4.50977 49.5036 4.68978 49.2803 5.0498C49.0615 5.40527 48.9453 5.96354 48.9316 6.72461V9.14453C48.9316 9.95573 49.041 10.5596 49.2598 10.9561C49.4831 11.348 49.8385 11.5439 50.3262 11.5439C50.8092 11.5439 51.1579 11.3548 51.3721 10.9766C51.5863 10.5983 51.6979 10.0195 51.707 9.24023V6.875ZM61.7217 8.88477C61.7217 10.2611 61.4368 11.3138 60.8672 12.043C60.2975 12.7721 59.4635 13.1367 58.3652 13.1367C57.2806 13.1367 56.4512 12.779 55.877 12.0635C55.3027 11.348 55.0088 10.3226 54.9951 8.9873V7.15527C54.9951 5.7653 55.2822 4.71029 55.8564 3.99023C56.4352 3.27018 57.2669 2.91016 58.3516 2.91016C59.4362 2.91016 60.2656 3.2679 60.8398 3.9834C61.4141 4.69434 61.708 5.71745 61.7217 7.05273V8.88477ZM59.7461 6.875C59.7461 6.05013 59.6322 5.45085 59.4043 5.07715C59.181 4.69889 58.8301 4.50977 58.3516 4.50977C57.8867 4.50977 57.5426 4.68978 57.3193 5.0498C57.1006 5.40527 56.9844 5.96354 56.9707 6.72461V9.14453C56.9707 9.95573 57.0801 10.5596 57.2988 10.9561C57.5221 11.348 57.8776 11.5439 58.3652 11.5439C58.8483 11.5439 59.1969 11.3548 59.4111 10.9766C59.6253 10.5983 59.737 10.0195 59.7461 9.24023V6.875Z" transform="translate(552 26)" fill="#D55E00"/>
<path d="M4.76465 10.9561C4.76465 10.7145 4.64388 10.5254 4.40234 10.3887C4.16536 10.2474 3.78255 10.1221 3.25391 10.0127C1.49479 9.64355 0.615234 8.89616 0.615234 7.77051C0.615234 7.11426 0.886393 6.56738 1.42871 6.12988C1.97559 5.68783 2.6888 5.4668 3.56836 5.4668C4.50716 5.4668 5.25684 5.68783 5.81738 6.12988C6.38249 6.57194 6.66504 7.14616 6.66504 7.85254H4.68945C4.68945 7.56999 4.59831 7.33757 4.41602 7.15527C4.23372 6.96842 3.94889 6.875 3.56152 6.875C3.22884 6.875 2.97135 6.9502 2.78906 7.10059C2.60677 7.25098 2.51562 7.44238 2.51562 7.6748C2.51562 7.89355 2.61816 8.07129 2.82324 8.20801C3.03288 8.34017 3.38379 8.45638 3.87598 8.55664C4.36816 8.65234 4.78288 8.76172 5.12012 8.88477C6.16374 9.26758 6.68555 9.93066 6.68555 10.874C6.68555 11.5485 6.39616 12.0954 5.81738 12.5146C5.23861 12.9294 4.49121 13.1367 3.5752 13.1367C2.9554 13.1367 2.40397 13.0273 1.9209 12.8086C1.44238 12.5853 1.06641 12.2822 0.792969 11.8994C0.519531 11.512 0.382812 11.0951 0.382812 10.6484H2.25586C2.27409 10.9993 2.40397 11.2682 2.64551 11.4551C2.88704 11.6419 3.21061 11.7354 3.61621 11.7354C3.99447 11.7354 4.2793 11.6647 4.4707 11.5234C4.66667 11.3776 4.76465 11.1885 4.76465 10.9561Z" transform="translate(171 26)" fill="#009E73"/>
<path d="M33.3536 0.353553C33.5488 0.158291 33.5488 -0.158291 33.3536 -0.353553L30.1716 -3.53553C29.9763 -3.7308 29.6597 -3.7308 29.4645 -3.53553C29.2692 -3.34027 29.2692 -3.02369 29.4645 -2.82843L32.2929 0L29.4645 2.82843C29.2692 3.02369 29.2692 3.34027 29.4645 3.53553C29.6597 3.7308 29.9763 3.7308 30.1716 3.53553L33.3536 0.353553ZM0 0.5H33V-0.5H0V0.5Z" transform="translate(487 41)" fill="#D55E00"/>
<path d="M4.76465 10.9561C4.76465 10.7145 4.64388 10.5254 4.40234 10.3887C4.16536 10.2474 3.78255 10.1221 3.25391 10.0127C1.49479 9.64355 0.615234 8.89616 0.615234 7.77051C0.615234 7.11426 0.886393 6.56738 1.42871 6.12988C1.97559 5.68783 2.6888 5.4668 3.56836 5.4668C4.50716 5.4668 5.25684 5.68783 5.81738 6.12988C6.38249 6.57194 6.66504 7.14616 6.66504 7.85254H4.68945C4.68945 7.56999 4.59831 7.33757 4.41602 7.15527C4.23372 6.96842 3.94889 6.875 3.56152 6.875C3.22884 6.875 2.97135 6.9502 2.78906 7.10059C2.60677 7.25098 2.51562 7.44238 2.51562 7.6748C2.51562 7.89355 2.61816 8.07129 2.82324 8.20801C3.03288 8.34017 3.38379 8.45638 3.87598 8.55664C4.36816 8.65234 4.78288 8.76172 5.12012 8.88477C6.16374 9.26758 6.68555 9.93066 6.68555 10.874C6.68555 11.5485 6.39616 12.0954 5.81738 12.5146C5.23861 12.9294 4.49121 13.1367 3.5752 13.1367C2.9554 13.1367 2.40397 13.0273 1.9209 12.8086C1.44238 12.5853 1.06641 12.2822 0.792969 11.8994C0.519531 11.512 0.382812 11.0951 0.382812 10.6484H2.25586C2.27409 10.9993 2.40397 11.2682 2.64551 11.4551C2.88704 11.6419 3.21061 11.7354 3.61621 11.7354C3.99447 11.7354 4.2793 11.6647 4.4707 11.5234C4.66667 11.3776 4.76465 11.1885 4.76465 10.9561Z" transform="translate(500 26)" fill="#D55E00"/>
<path d="M31.7071 0.707107C32.0976 0.316583 32.0976 -0.316583 31.7071 -0.707107L25.3431 -7.07107C24.9526 -7.46159 24.3195 -7.46159 23.9289 -7.07107C23.5384 -6.68054 23.5384 -6.04738 23.9289 -5.65685L29.5858 0L23.9289 5.65685C23.5384 6.04738 23.5384 6.68054 23.9289 7.07107C24.3195 7.46159 24.9526 7.46159 25.3431 7.07107L31.7071 0.707107ZM0 1H31V-1H0V1Z" transform="translate(192 222) rotate(-90)" fill="#009E73"/>
<path d="M24.8057 13H22.7549L18.7627 6.45117V13H16.7119V3.04688H18.7627L22.7617 9.60938V3.04688H24.8057V13ZM26.1592 9.2334C26.1592 8.49967 26.3005 7.8457 26.583 7.27148C26.8656 6.69727 27.2712 6.25293 27.7998 5.93848C28.333 5.62402 28.9505 5.4668 29.6523 5.4668C30.6504 5.4668 31.4639 5.77214 32.0928 6.38281C32.7262 6.99349 33.0794 7.82292 33.1523 8.87109L33.166 9.37695C33.166 10.5117 32.8493 11.4232 32.2158 12.1113C31.5824 12.7949 30.7324 13.1367 29.666 13.1367C28.5996 13.1367 27.7474 12.7949 27.1094 12.1113C26.4759 11.4277 26.1592 10.498 26.1592 9.32227V9.2334ZM28.1348 9.37695C28.1348 10.0788 28.2669 10.6165 28.5312 10.9902C28.7956 11.3594 29.1738 11.5439 29.666 11.5439C30.1445 11.5439 30.5182 11.3617 30.7871 10.9971C31.056 10.6279 31.1904 10.04 31.1904 9.2334C31.1904 8.54525 31.056 8.01204 30.7871 7.63379C30.5182 7.25553 30.14 7.06641 29.6523 7.06641C29.1693 7.06641 28.7956 7.25553 28.5312 7.63379C28.2669 8.00749 28.1348 8.58854 28.1348 9.37695ZM36.748 3.78516V5.60352H38.0127V7.05273H36.748V10.7441C36.748 11.0176 36.8005 11.2135 36.9053 11.332C37.0101 11.4505 37.2106 11.5098 37.5068 11.5098C37.7256 11.5098 37.9193 11.4938 38.0879 11.4619V12.959C37.7005 13.0775 37.3018 13.1367 36.8916 13.1367C35.5062 13.1367 34.7998 12.4372 34.7725 11.0381V7.05273H33.6924V5.60352H34.7725V3.78516H36.748ZM44.9648 3.78516V5.60352H46.2295V7.05273H44.9648V10.7441C44.9648 11.0176 45.0173 11.2135 45.1221 11.332C45.2269 11.4505 45.4274 11.5098 45.7236 11.5098C45.9424 11.5098 46.1361 11.4938 46.3047 11.4619V12.959C45.9173 13.0775 45.5186 13.1367 45.1084 13.1367C43.723 13.1367 43.0166 12.4372 42.9893 11.0381V7.05273H41.9092V5.60352H42.9893V3.78516H44.9648ZM46.8174 9.2334C46.8174 8.49967 46.9587 7.8457 47.2412 7.27148C47.5238 6.69727 47.9294 6.25293 48.458 5.93848C48.9912 5.62402 49.6087 5.4668 50.3105 5.4668C51.3086 5.4668 52.1221 5.77214 52.751 6.38281C53.3844 6.99349 53.7376 7.82292 53.8105 8.87109L53.8242 9.37695C53.8242 10.5117 53.5075 11.4232 52.874 12.1113C52.2406 12.7949 51.3906 13.1367 50.3242 13.1367C49.2578 13.1367 48.4056 12.7949 47.7676 12.1113C47.1341 11.4277 46.8174 10.498 46.8174 9.32227V9.2334ZM48.793 9.37695C48.793 10.0788 48.9251 10.6165 49.1895 10.9902C49.4538 11.3594 49.832 11.5439 50.3242 11.5439C50.8027 11.5439 51.1764 11.3617 51.4453 10.9971C51.7142 10.6279 51.8486 10.04 51.8486 9.2334C51.8486 8.54525 51.7142 8.01204 51.4453 7.63379C51.1764 7.25553 50.7982 7.06641 50.3105 7.06641C49.8275 7.06641 49.4538 7.25553 49.1895 7.63379C48.9251 8.00749 48.793 8.58854 48.793 9.37695ZM54.7334 9.2334C54.7334 8.49967 54.8747 7.8457 55.1572 7.27148C55.4398 6.69727 55.8454 6.25293 56.374 5.93848C56.9072 5.62402 57.5247 5.4668 58.2266 5.4668C59.2246 5.4668 60.0381 5.77214 60.667 6.38281C61.3005 6.99349 61.6536 7.82292 61.7266 8.87109L61.7402 9.37695C61.7402 10.5117 61.4235 11.4232 60.79 12.1113C60.1566 12.7949 59.3066 13.1367 58.2402 13.1367C57.1738 13.1367 56.3216 12.7949 55.6836 12.1113C55.0501 11.4277 54.7334 10.498 54.7334 9.32227V9.2334ZM56.709 9.37695C56.709 10.0788 56.8411 10.6165 57.1055 10.9902C57.3698 11.3594 57.748 11.5439 58.2402 11.5439C58.7188 11.5439 59.0924 11.3617 59.3613 10.9971C59.6302 10.6279 59.7646 10.04 59.7646 9.2334C59.7646 8.54525 59.6302 8.01204 59.3613 7.63379C59.0924 7.25553 58.7142 7.06641 58.2266 7.06641C57.7435 7.06641 57.3698 7.25553 57.1055 7.63379C56.8411 8.00749 56.709 8.58854 56.709 9.37695ZM69.8477 13.1367C68.763 13.1367 67.8789 12.804 67.1953 12.1387C66.5163 11.4733 66.1768 10.5869 66.1768 9.47949V9.28809C66.1768 8.54525 66.3203 7.88216 66.6074 7.29883C66.8945 6.71094 67.3001 6.25977 67.8242 5.94531C68.3529 5.6263 68.9544 5.4668 69.6289 5.4668C70.6406 5.4668 71.4359 5.78581 72.0146 6.42383C72.598 7.06185 72.8896 7.96647 72.8896 9.1377V9.94434H68.1797C68.2435 10.4274 68.4349 10.8148 68.7539 11.1064C69.0775 11.3981 69.4854 11.5439 69.9775 11.5439C70.7386 11.5439 71.3333 11.2682 71.7617 10.7168L72.7324 11.8037C72.4362 12.223 72.0352 12.5511 71.5293 12.7881C71.0234 13.0205 70.4629 13.1367 69.8477 13.1367ZM69.6221 7.06641C69.2301 7.06641 68.9111 7.19857 68.665 7.46289C68.4235 7.72721 68.2686 8.10547 68.2002 8.59766H70.9482V8.44043C70.9391 8.00293 70.8206 7.66569 70.5928 7.42871C70.3649 7.18717 70.0413 7.06641 69.6221 7.06641ZM76.834 7.81152L78.0781 5.60352H80.1904L78.085 9.22656L80.2793 13H78.1602L76.8408 10.6758L75.5283 13H73.4023L75.5967 9.22656L73.498 5.60352H75.6172L76.834 7.81152ZM87.7988 9.37012C87.7988 10.5094 87.5391 11.4232 87.0195 12.1113C86.5046 12.7949 85.8073 13.1367 84.9277 13.1367C84.1803 13.1367 83.5765 12.877 83.1162 12.3574V15.8438H81.1406V5.60352H82.9727L83.041 6.32812C83.5195 5.75391 84.1439 5.4668 84.9141 5.4668C85.8255 5.4668 86.5342 5.80404 87.04 6.47852C87.5459 7.15299 87.7988 8.08268 87.7988 9.26758V9.37012ZM85.8232 9.22656C85.8232 8.53841 85.7002 8.00749 85.4541 7.63379C85.2126 7.26009 84.8594 7.07324 84.3945 7.07324C83.7747 7.07324 83.3486 7.31022 83.1162 7.78418V10.8125C83.3577 11.3001 83.7884 11.5439 84.4082 11.5439C85.3516 11.5439 85.8232 10.7715 85.8232 9.22656ZM92.4336 13.1367C91.349 13.1367 90.4648 12.804 89.7812 12.1387C89.1022 11.4733 88.7627 10.5869 88.7627 9.47949V9.28809C88.7627 8.54525 88.9062 7.88216 89.1934 7.29883C89.4805 6.71094 89.8861 6.25977 90.4102 5.94531C90.9388 5.6263 91.5404 5.4668 92.2148 5.4668C93.2266 5.4668 94.0218 5.78581 94.6006 6.42383C95.1839 7.06185 95.4756 7.96647 95.4756 9.1377V9.94434H90.7656C90.8294 10.4274 91.0208 10.8148 91.3398 11.1064C91.6634 11.3981 92.0713 11.5439 92.5635 11.5439C93.3245 11.5439 93.9193 11.2682 94.3477 10.7168L95.3184 11.8037C95.0221 12.223 94.6211 12.5511 94.1152 12.7881C93.6094 13.0205 93.0488 13.1367 92.4336 13.1367ZM92.208 7.06641C91.8161 7.06641 91.4971 7.19857 91.251 7.46289C91.0094 7.72721 90.8545 8.10547 90.7861 8.59766H93.5342V8.44043C93.5251 8.00293 93.4066 7.66569 93.1787 7.42871C92.9508 7.18717 92.6273 7.06641 92.208 7.06641ZM98.4219 5.60352L98.4834 6.45801C99.012 5.7972 99.7207 5.4668 100.609 5.4668C101.393 5.4668 101.977 5.69694 102.359 6.15723C102.742 6.61751 102.938 7.30566 102.947 8.22168V13H100.972V8.26953C100.972 7.85026 100.881 7.5472 100.698 7.36035C100.516 7.16895 100.213 7.07324 99.7891 7.07324C99.2331 7.07324 98.8161 7.31022 98.5381 7.78418V13H96.5625V5.60352H98.4219ZM108.457 10.9561C108.457 10.7145 108.336 10.5254 108.095 10.3887C107.858 10.2474 107.475 10.1221 106.946 10.0127C105.187 9.64355 104.308 8.89616 104.308 7.77051C104.308 7.11426 104.579 6.56738 105.121 6.12988C105.668 5.68783 106.381 5.4668 107.261 5.4668C108.2 5.4668 108.949 5.68783 109.51 6.12988C110.075 6.57194 110.357 7.14616 110.357 7.85254H108.382C108.382 7.56999 108.291 7.33757 108.108 7.15527C107.926 6.96842 107.641 6.875 107.254 6.875C106.921 6.875 106.664 6.9502 106.481 7.10059C106.299 7.25098 106.208 7.44238 106.208 7.6748C106.208 7.89355 106.311 8.07129 106.516 8.20801C106.725 8.34017 107.076 8.45638 107.568 8.55664C108.061 8.65234 108.475 8.76172 108.812 8.88477C109.856 9.26758 110.378 9.93066 110.378 10.874C110.378 11.5485 110.089 12.0954 109.51 12.5146C108.931 12.9294 108.184 13.1367 107.268 13.1367C106.648 13.1367 106.096 13.0273 105.613 12.8086C105.135 12.5853 104.759 12.2822 104.485 11.8994C104.212 11.512 104.075 11.0951 104.075 10.6484H105.948C105.966 10.9993 106.096 11.2682 106.338 11.4551C106.579 11.6419 106.903 11.7354 107.309 11.7354C107.687 11.7354 107.972 11.6647 108.163 11.5234C108.359 11.3776 108.457 11.1885 108.457 10.9561ZM113.741 13H111.759V5.60352H113.741V13ZM111.643 3.68945C111.643 3.39323 111.741 3.14941 111.937 2.95801C112.137 2.7666 112.408 2.6709 112.75 2.6709C113.087 2.6709 113.356 2.7666 113.557 2.95801C113.757 3.14941 113.857 3.39323 113.857 3.68945C113.857 3.99023 113.755 4.23633 113.55 4.42773C113.349 4.61914 113.083 4.71484 112.75 4.71484C112.417 4.71484 112.148 4.61914 111.943 4.42773C111.743 4.23633 111.643 3.99023 111.643 3.68945ZM118.144 10.5869L119.518 5.60352H121.582L119.087 13H117.2L114.705 5.60352H116.77L118.144 10.5869ZM125.766 13.1367C124.681 13.1367 123.797 12.804 123.113 12.1387C122.434 11.4733 122.095 10.5869 122.095 9.47949V9.28809C122.095 8.54525 122.238 7.88216 122.525 7.29883C122.812 6.71094 123.218 6.25977 123.742 5.94531C124.271 5.6263 124.872 5.4668 125.547 5.4668C126.559 5.4668 127.354 5.78581 127.933 6.42383C128.516 7.06185 128.808 7.96647 128.808 9.1377V9.94434H124.098C124.161 10.4274 124.353 10.8148 124.672 11.1064C124.995 11.3981 125.403 11.5439 125.896 11.5439C126.657 11.5439 127.251 11.2682 127.68 10.7168L128.65 11.8037C128.354 12.223 127.953 12.5511 127.447 12.7881C126.941 13.0205 126.381 13.1367 125.766 13.1367ZM125.54 7.06641C125.148 7.06641 124.829 7.19857 124.583 7.46289C124.341 7.72721 124.187 8.10547 124.118 8.59766H126.866V8.44043C126.857 8.00293 126.739 7.66569 126.511 7.42871C126.283 7.18717 125.959 7.06641 125.54 7.06641ZM12.5146 24.9531C12.5146 23.9095 12.6536 22.916 12.9316 21.9727C13.2096 21.0293 13.6198 20.1953 14.1621 19.4707C14.7044 18.7415 15.2923 18.2357 15.9258 17.9531L16.3086 19.0195C15.6432 19.5117 15.1237 20.2728 14.75 21.3027C14.3763 22.3327 14.1895 23.5358 14.1895 24.9121V25.124C14.1895 26.5049 14.374 27.7126 14.7432 28.7471C15.1123 29.7816 15.6341 30.554 16.3086 31.0645L15.9258 32.1104C15.306 31.8324 14.7272 31.3402 14.1895 30.6338C13.6562 29.932 13.2484 29.1208 12.9658 28.2002C12.6833 27.2796 12.5329 26.318 12.5146 25.3154V24.9531ZM20.4238 27.5439C20.7884 27.5439 21.0846 27.4437 21.3125 27.2432C21.5404 27.0426 21.6589 26.776 21.668 26.4434H23.5205C23.516 26.9447 23.3792 27.4049 23.1104 27.8242C22.8415 28.2389 22.4723 28.5625 22.0029 28.7949C21.5381 29.0228 21.0231 29.1367 20.458 29.1367C19.4007 29.1367 18.5667 28.8018 17.9561 28.1318C17.3454 27.4574 17.04 26.5277 17.04 25.3428V25.2129C17.04 24.0736 17.3431 23.1644 17.9492 22.4854C18.5553 21.8063 19.387 21.4668 20.4443 21.4668C21.3695 21.4668 22.11 21.7311 22.666 22.2598C23.2266 22.7839 23.5114 23.4834 23.5205 24.3584H21.668C21.6589 23.9756 21.5404 23.6657 21.3125 23.4287C21.0846 23.1872 20.7839 23.0664 20.4102 23.0664C19.9499 23.0664 19.6012 23.235 19.3643 23.5723C19.1318 23.9049 19.0156 24.4473 19.0156 25.1992V25.4043C19.0156 26.1654 19.1318 26.7122 19.3643 27.0449C19.5967 27.3776 19.9499 27.5439 20.4238 27.5439ZM26.7334 29H24.751V18.5H26.7334V29ZM28.0596 25.2334C28.0596 24.4997 28.2008 23.8457 28.4834 23.2715C28.766 22.6973 29.1715 22.2529 29.7002 21.9385C30.2334 21.624 30.8509 21.4668 31.5527 21.4668C32.5508 21.4668 33.3643 21.7721 33.9932 22.3828C34.6266 22.9935 34.9798 23.8229 35.0527 24.8711L35.0664 25.377C35.0664 26.5117 34.7497 27.4232 34.1162 28.1113C33.4827 28.7949 32.6328 29.1367 31.5664 29.1367C30.5 29.1367 29.6478 28.7949 29.0098 28.1113C28.3763 27.4277 28.0596 26.498 28.0596 25.3223V25.2334ZM30.0352 25.377C30.0352 26.0788 30.1673 26.6165 30.4316 26.9902C30.696 27.3594 31.0742 27.5439 31.5664 27.5439C32.0449 27.5439 32.4186 27.3617 32.6875 26.9971C32.9564 26.6279 33.0908 26.04 33.0908 25.2334C33.0908 24.5452 32.9564 24.012 32.6875 23.6338C32.4186 23.2555 32.0404 23.0664 31.5527 23.0664C31.0697 23.0664 30.696 23.2555 30.4316 23.6338C30.1673 24.0075 30.0352 24.5885 30.0352 25.377ZM40.2891 26.9561C40.2891 26.7145 40.1683 26.5254 39.9268 26.3887C39.6898 26.2474 39.307 26.1221 38.7783 26.0127C37.0192 25.6436 36.1396 24.8962 36.1396 23.7705C36.1396 23.1143 36.4108 22.5674 36.9531 22.1299C37.5 21.6878 38.2132 21.4668 39.0928 21.4668C40.0316 21.4668 40.7812 21.6878 41.3418 22.1299C41.9069 22.5719 42.1895 23.1462 42.1895 23.8525H40.2139C40.2139 23.57 40.1227 23.3376 39.9404 23.1553C39.7581 22.9684 39.4733 22.875 39.0859 22.875C38.7533 22.875 38.4958 22.9502 38.3135 23.1006C38.1312 23.251 38.04 23.4424 38.04 23.6748C38.04 23.8936 38.1426 24.0713 38.3477 24.208C38.5573 24.3402 38.9082 24.4564 39.4004 24.5566C39.8926 24.6523 40.3073 24.7617 40.6445 24.8848C41.6882 25.2676 42.21 25.9307 42.21 26.874C42.21 27.5485 41.9206 28.0954 41.3418 28.5146C40.763 28.9294 40.0156 29.1367 39.0996 29.1367C38.4798 29.1367 37.9284 29.0273 37.4453 28.8086C36.9668 28.5853 36.5908 28.2822 36.3174 27.8994C36.0439 27.512 35.9072 27.0951 35.9072 26.6484H37.7803C37.7985 26.9993 37.9284 27.2682 38.1699 27.4551C38.4115 27.6419 38.735 27.7354 39.1406 27.7354C39.5189 27.7354 39.8037 27.6647 39.9951 27.5234C40.1911 27.3776 40.2891 27.1885 40.2891 26.9561ZM46.8926 29.1367C45.8079 29.1367 44.9238 28.804 44.2402 28.1387C43.5612 27.4733 43.2217 26.5869 43.2217 25.4795V25.2881C43.2217 24.5452 43.3652 23.8822 43.6523 23.2988C43.9395 22.7109 44.3451 22.2598 44.8691 21.9453C45.3978 21.6263 45.9993 21.4668 46.6738 21.4668C47.6855 21.4668 48.4808 21.7858 49.0596 22.4238C49.6429 23.0618 49.9346 23.9665 49.9346 25.1377V25.9443H45.2246C45.2884 26.4274 45.4798 26.8148 45.7988 27.1064C46.1224 27.3981 46.5303 27.5439 47.0225 27.5439C47.7835 27.5439 48.3783 27.2682 48.8066 26.7168L49.7773 27.8037C49.4811 28.223 49.0801 28.5511 48.5742 28.7881C48.0684 29.0205 47.5078 29.1367 46.8926 29.1367ZM46.667 23.0664C46.2751 23.0664 45.9561 23.1986 45.71 23.4629C45.4684 23.7272 45.3135 24.1055 45.2451 24.5977H47.9932V24.4404C47.984 24.0029 47.8656 23.6657 47.6377 23.4287C47.4098 23.1872 47.0863 23.0664 46.667 23.0664ZM56.9141 19.7852V21.6035H58.1787V23.0527H56.9141V26.7441C56.9141 27.0176 56.9665 27.2135 57.0713 27.332C57.1761 27.4505 57.3766 27.5098 57.6729 27.5098C57.8916 27.5098 58.0853 27.4938 58.2539 27.4619V28.959C57.8665 29.0775 57.4678 29.1367 57.0576 29.1367C55.6722 29.1367 54.9658 28.4372 54.9385 27.0381V23.0527H53.8584V21.6035H54.9385V19.7852H56.9141ZM58.7666 25.2334C58.7666 24.4997 58.9079 23.8457 59.1904 23.2715C59.473 22.6973 59.8786 22.2529 60.4072 21.9385C60.9404 21.624 61.5579 21.4668 62.2598 21.4668C63.2578 21.4668 64.0713 21.7721 64.7002 22.3828C65.3337 22.9935 65.6868 23.8229 65.7598 24.8711L65.7734 25.377C65.7734 26.5117 65.4567 27.4232 64.8232 28.1113C64.1898 28.7949 63.3398 29.1367 62.2734 29.1367C61.207 29.1367 60.3548 28.7949 59.7168 28.1113C59.0833 27.4277 58.7666 26.498 58.7666 25.3223V25.2334ZM60.7422 25.377C60.7422 26.0788 60.8743 26.6165 61.1387 26.9902C61.403 27.3594 61.7812 27.5439 62.2734 27.5439C62.752 27.5439 63.1257 27.3617 63.3945 26.9971C63.6634 26.6279 63.7979 26.04 63.7979 25.2334C63.7979 24.5452 63.6634 24.012 63.3945 23.6338C63.1257 23.2555 62.7474 23.0664 62.2598 23.0664C61.7767 23.0664 61.403 23.2555 61.1387 23.6338C60.8743 24.0075 60.7422 24.5885 60.7422 25.377ZM72.8418 19.7852V21.6035H74.1064V23.0527H72.8418V26.7441C72.8418 27.0176 72.8942 27.2135 72.999 27.332C73.1038 27.4505 73.3044 27.5098 73.6006 27.5098C73.8193 27.5098 74.013 27.4938 74.1816 27.4619V28.959C73.7943 29.0775 73.3955 29.1367 72.9854 29.1367C71.5999 29.1367 70.8936 28.4372 70.8662 27.0381V23.0527H69.7861V21.6035H70.8662V19.7852H72.8418ZM77.1348 22.4102C77.6589 21.7812 78.3174 21.4668 79.1104 21.4668C80.7145 21.4668 81.528 22.3988 81.5508 24.2627V29H79.5752V24.3174C79.5752 23.8936 79.484 23.5814 79.3018 23.3809C79.1195 23.1758 78.8164 23.0732 78.3926 23.0732C77.8138 23.0732 77.3945 23.2965 77.1348 23.7432V29H75.1592V18.5H77.1348V22.4102ZM86.4453 29.1367C85.3607 29.1367 84.4766 28.804 83.793 28.1387C83.1139 27.4733 82.7744 26.5869 82.7744 25.4795V25.2881C82.7744 24.5452 82.918 23.8822 83.2051 23.2988C83.4922 22.7109 83.8978 22.2598 84.4219 21.9453C84.9505 21.6263 85.5521 21.4668 86.2266 21.4668C87.2383 21.4668 88.0335 21.7858 88.6123 22.4238C89.1956 23.0618 89.4873 23.9665 89.4873 25.1377V25.9443H84.7773C84.8411 26.4274 85.0326 26.8148 85.3516 27.1064C85.6751 27.3981 86.083 27.5439 86.5752 27.5439C87.3363 27.5439 87.931 27.2682 88.3594 26.7168L89.3301 27.8037C89.0339 28.223 88.6328 28.5511 88.127 28.7881C87.6211 29.0205 87.0605 29.1367 86.4453 29.1367ZM86.2197 23.0664C85.8278 23.0664 85.5088 23.1986 85.2627 23.4629C85.0212 23.7272 84.8662 24.1055 84.7979 24.5977H87.5459V24.4404C87.5368 24.0029 87.4183 23.6657 87.1904 23.4287C86.9626 23.1872 86.639 23.0664 86.2197 23.0664ZM95.9541 21.6035L96.0156 22.4307C96.5397 21.7881 97.2484 21.4668 98.1416 21.4668C99.0941 21.4668 99.748 21.8428 100.104 22.5947C100.623 21.8428 101.364 21.4668 102.325 21.4668C103.127 21.4668 103.724 21.7015 104.116 22.1709C104.508 22.6357 104.704 23.3376 104.704 24.2764V29H102.722V24.2832C102.722 23.8639 102.64 23.5586 102.476 23.3672C102.312 23.1712 102.022 23.0732 101.607 23.0732C101.015 23.0732 100.605 23.3558 100.377 23.9209L100.384 29H98.4082V24.29C98.4082 23.8617 98.3239 23.5518 98.1553 23.3604C97.9867 23.1689 97.6995 23.0732 97.2939 23.0732C96.7334 23.0732 96.3278 23.3057 96.0771 23.7705V29H94.1016V21.6035H95.9541ZM109.633 29.1367C108.548 29.1367 107.664 28.804 106.98 28.1387C106.301 27.4733 105.962 26.5869 105.962 25.4795V25.2881C105.962 24.5452 106.105 23.8822 106.393 23.2988C106.68 22.7109 107.085 22.2598 107.609 21.9453C108.138 21.6263 108.74 21.4668 109.414 21.4668C110.426 21.4668 111.221 21.7858 111.8 22.4238C112.383 23.0618 112.675 23.9665 112.675 25.1377V25.9443H107.965C108.029 26.4274 108.22 26.8148 108.539 27.1064C108.863 27.3981 109.271 27.5439 109.763 27.5439C110.524 27.5439 111.118 27.2682 111.547 26.7168L112.518 27.8037C112.221 28.223 111.82 28.5511 111.314 28.7881C110.809 29.0205 110.248 29.1367 109.633 29.1367ZM109.407 23.0664C109.015 23.0664 108.696 23.1986 108.45 23.4629C108.209 23.7272 108.054 24.1055 107.985 24.5977H110.733V24.4404C110.724 24.0029 110.606 23.6657 110.378 23.4287C110.15 23.1872 109.826 23.0664 109.407 23.0664ZM118.089 29C117.998 28.8223 117.932 28.6012 117.891 28.3369C117.412 28.8701 116.79 29.1367 116.024 29.1367C115.3 29.1367 114.698 28.9271 114.22 28.5078C113.746 28.0885 113.509 27.5599 113.509 26.9219C113.509 26.138 113.798 25.5365 114.377 25.1172C114.96 24.6979 115.801 24.486 116.899 24.4814H117.809V24.0576C117.809 23.7158 117.72 23.4424 117.542 23.2373C117.369 23.0322 117.093 22.9297 116.715 22.9297C116.382 22.9297 116.12 23.0094 115.929 23.1689C115.742 23.3285 115.648 23.5472 115.648 23.8252H113.673C113.673 23.3968 113.805 23.0003 114.069 22.6357C114.334 22.2712 114.707 21.9863 115.19 21.7812C115.674 21.5716 116.216 21.4668 116.817 21.4668C117.729 21.4668 118.451 21.6969 118.984 22.1572C119.522 22.613 119.791 23.2555 119.791 24.085V27.291C119.796 27.9928 119.894 28.5238 120.085 28.8838V29H118.089ZM116.455 27.626C116.747 27.626 117.016 27.5622 117.262 27.4346C117.508 27.3024 117.69 27.127 117.809 26.9082V25.6367H117.07C116.081 25.6367 115.555 25.9785 115.491 26.6621L115.484 26.7783C115.484 27.0244 115.571 27.2272 115.744 27.3867C115.917 27.5462 116.154 27.626 116.455 27.626ZM123.127 21.6035L123.188 22.458C123.717 21.7972 124.426 21.4668 125.314 21.4668C126.098 21.4668 126.682 21.6969 127.064 22.1572C127.447 22.6175 127.643 23.3057 127.652 24.2217V29H125.677V24.2695C125.677 23.8503 125.586 23.5472 125.403 23.3604C125.221 23.1689 124.918 23.0732 124.494 23.0732C123.938 23.0732 123.521 23.3102 123.243 23.7842V29H121.268V21.6035H123.127ZM132.561 25.1104C132.561 26.1403 132.412 27.1315 132.116 28.084C131.82 29.0365 131.394 29.8773 130.838 30.6064C130.282 31.3356 129.687 31.8369 129.054 32.1104L128.671 31.0645C129.318 30.5768 129.828 29.8249 130.202 28.8086C130.576 27.7923 130.77 26.6234 130.783 25.3018V24.9395C130.783 23.5768 130.596 22.376 130.223 21.3369C129.854 20.2979 129.336 19.5186 128.671 18.999L129.054 17.9531C129.674 18.222 130.257 18.7096 130.804 19.416C131.355 20.1224 131.781 20.945 132.082 21.8838C132.387 22.8226 132.547 23.7956 132.561 24.8027V25.1104Z" transform="translate(121 222)" fill="#009E73"/>
<path d="M38.9955 0.707107C39.386 0.316583 39.386 -0.316583 38.9955 -0.707107L32.6315 -7.07107C32.241 -7.46159 31.6078 -7.46159 31.2173 -7.07107C30.8268 -6.68054 30.8268 -6.04738 31.2173 -5.65685L36.8742 0L31.2173 5.65685C30.8268 6.04738 30.8268 6.68054 31.2173 7.07107C31.6078 7.46159 32.241 7.46159 32.6315 7.07107L38.9955 0.707107ZM0 1H38.2884V-1H0V1Z" transform="translate(613 220) rotate(-49.2364)" fill="#D55E00"/>
<path d="M31.7285 10.5322L33.9844 3.04688H36.2676L32.8018 13H30.6621L27.21 3.04688H29.4863L31.7285 10.5322ZM40.1846 13.1367C39.0999 13.1367 38.2158 12.804 37.5322 12.1387C36.8532 11.4733 36.5137 10.5869 36.5137 9.47949V9.28809C36.5137 8.54525 36.6572 7.88216 36.9443 7.29883C37.2314 6.71094 37.637 6.25977 38.1611 5.94531C38.6898 5.6263 39.2913 5.4668 39.9658 5.4668C40.9775 5.4668 41.7728 5.78581 42.3516 6.42383C42.9349 7.06185 43.2266 7.96647 43.2266 9.1377V9.94434H38.5166C38.5804 10.4274 38.7718 10.8148 39.0908 11.1064C39.4144 11.3981 39.8223 11.5439 40.3145 11.5439C41.0755 11.5439 41.6702 11.2682 42.0986 10.7168L43.0693 11.8037C42.7731 12.223 42.3721 12.5511 41.8662 12.7881C41.3604 13.0205 40.7998 13.1367 40.1846 13.1367ZM39.959 7.06641C39.5671 7.06641 39.248 7.19857 39.002 7.46289C38.7604 7.72721 38.6055 8.10547 38.5371 8.59766H41.2852V8.44043C41.276 8.00293 41.1576 7.66569 40.9297 7.42871C40.7018 7.18717 40.3783 7.06641 39.959 7.06641ZM48.5107 7.45605C48.2419 7.4196 48.0049 7.40137 47.7998 7.40137C47.0524 7.40137 46.5625 7.6543 46.3301 8.16016V13H44.3545V5.60352H46.2207L46.2754 6.48535C46.6719 5.80632 47.221 5.4668 47.9229 5.4668C48.1416 5.4668 48.3467 5.49642 48.5381 5.55566L48.5107 7.45605ZM52.3525 10.2041L53.7197 5.60352H55.8389L52.8652 14.1484L52.7012 14.5381C52.2591 15.5042 51.5299 15.9873 50.5137 15.9873C50.2266 15.9873 49.9349 15.944 49.6387 15.8574V14.3604L49.9395 14.3672C50.3132 14.3672 50.5911 14.3102 50.7734 14.1963C50.9603 14.0824 51.1061 13.8932 51.2109 13.6289L51.4434 13.0205L48.8525 5.60352H50.9785L52.3525 10.2041ZM63.5088 13.1367C62.4242 13.1367 61.54 12.804 60.8564 12.1387C60.1774 11.4733 59.8379 10.5869 59.8379 9.47949V9.28809C59.8379 8.54525 59.9814 7.88216 60.2686 7.29883C60.5557 6.71094 60.9613 6.25977 61.4854 5.94531C62.014 5.6263 62.6156 5.4668 63.29 5.4668C64.3018 5.4668 65.097 5.78581 65.6758 6.42383C66.2591 7.06185 66.5508 7.96647 66.5508 9.1377V9.94434H61.8408C61.9046 10.4274 62.096 10.8148 62.415 11.1064C62.7386 11.3981 63.1465 11.5439 63.6387 11.5439C64.3997 11.5439 64.9945 11.2682 65.4229 10.7168L66.3936 11.8037C66.0973 12.223 65.6963 12.5511 65.1904 12.7881C64.6846 13.0205 64.124 13.1367 63.5088 13.1367ZM63.2832 7.06641C62.8913 7.06641 62.5723 7.19857 62.3262 7.46289C62.0846 7.72721 61.9297 8.10547 61.8613 8.59766H64.6094V8.44043C64.6003 8.00293 64.4818 7.66569 64.2539 7.42871C64.026 7.18717 63.7025 7.06641 63.2832 7.06641ZM70.4951 7.81152L71.7393 5.60352H73.8516L71.7461 9.22656L73.9404 13H71.8213L70.502 10.6758L69.1895 13H67.0635L69.2578 9.22656L67.1592 5.60352H69.2783L70.4951 7.81152ZM81.46 9.37012C81.46 10.5094 81.2002 11.4232 80.6807 12.1113C80.1657 12.7949 79.4684 13.1367 78.5889 13.1367C77.8415 13.1367 77.2376 12.877 76.7773 12.3574V15.8438H74.8018V5.60352H76.6338L76.7021 6.32812C77.1807 5.75391 77.805 5.4668 78.5752 5.4668C79.4867 5.4668 80.1953 5.80404 80.7012 6.47852C81.207 7.15299 81.46 8.08268 81.46 9.26758V9.37012ZM79.4844 9.22656C79.4844 8.53841 79.3613 8.00749 79.1152 7.63379C78.8737 7.26009 78.5205 7.07324 78.0557 7.07324C77.4359 7.07324 77.0098 7.31022 76.7773 7.78418V10.8125C77.0189 11.3001 77.4495 11.5439 78.0693 11.5439C79.0127 11.5439 79.4844 10.7715 79.4844 9.22656ZM86.0947 13.1367C85.0101 13.1367 84.126 12.804 83.4424 12.1387C82.7633 11.4733 82.4238 10.5869 82.4238 9.47949V9.28809C82.4238 8.54525 82.5674 7.88216 82.8545 7.29883C83.1416 6.71094 83.5472 6.25977 84.0713 5.94531C84.5999 5.6263 85.2015 5.4668 85.876 5.4668C86.8877 5.4668 87.6829 5.78581 88.2617 6.42383C88.8451 7.06185 89.1367 7.96647 89.1367 9.1377V9.94434H84.4268C84.4906 10.4274 84.682 10.8148 85.001 11.1064C85.3245 11.3981 85.7324 11.5439 86.2246 11.5439C86.9857 11.5439 87.5804 11.2682 88.0088 10.7168L88.9795 11.8037C88.6833 12.223 88.2822 12.5511 87.7764 12.7881C87.2705 13.0205 86.71 13.1367 86.0947 13.1367ZM85.8691 7.06641C85.4772 7.06641 85.1582 7.19857 84.9121 7.46289C84.6706 7.72721 84.5156 8.10547 84.4473 8.59766H87.1953V8.44043C87.1862 8.00293 87.0677 7.66569 86.8398 7.42871C86.612 7.18717 86.2884 7.06641 85.8691 7.06641ZM92.083 5.60352L92.1445 6.45801C92.6732 5.7972 93.3818 5.4668 94.2705 5.4668C95.0544 5.4668 95.6377 5.69694 96.0205 6.15723C96.4033 6.61751 96.5993 7.30566 96.6084 8.22168V13H94.6328V8.26953C94.6328 7.85026 94.5417 7.5472 94.3594 7.36035C94.1771 7.16895 93.874 7.07324 93.4502 7.07324C92.8942 7.07324 92.4772 7.31022 92.1992 7.78418V13H90.2236V5.60352H92.083ZM102.118 10.9561C102.118 10.7145 101.997 10.5254 101.756 10.3887C101.519 10.2474 101.136 10.1221 100.607 10.0127C98.8483 9.64355 97.9688 8.89616 97.9688 7.77051C97.9688 7.11426 98.2399 6.56738 98.7822 6.12988C99.3291 5.68783 100.042 5.4668 100.922 5.4668C101.861 5.4668 102.61 5.68783 103.171 6.12988C103.736 6.57194 104.019 7.14616 104.019 7.85254H102.043C102.043 7.56999 101.952 7.33757 101.77 7.15527C101.587 6.96842 101.302 6.875 100.915 6.875C100.582 6.875 100.325 6.9502 100.143 7.10059C99.9603 7.25098 99.8691 7.44238 99.8691 7.6748C99.8691 7.89355 99.9717 8.07129 100.177 8.20801C100.386 8.34017 100.737 8.45638 101.229 8.55664C101.722 8.65234 102.136 8.76172 102.474 8.88477C103.517 9.26758 104.039 9.93066 104.039 10.874C104.039 11.5485 103.75 12.0954 103.171 12.5146C102.592 12.9294 101.845 13.1367 100.929 13.1367C100.309 13.1367 99.7575 13.0273 99.2744 12.8086C98.7959 12.5853 98.4199 12.2822 98.1465 11.8994C97.873 11.512 97.7363 11.0951 97.7363 10.6484H99.6094C99.6276 10.9993 99.7575 11.2682 99.999 11.4551C100.241 11.6419 100.564 11.7354 100.97 11.7354C101.348 11.7354 101.633 11.6647 101.824 11.5234C102.02 11.3776 102.118 11.1885 102.118 10.9561ZM107.402 13H105.42V5.60352H107.402V13ZM105.304 3.68945C105.304 3.39323 105.402 3.14941 105.598 2.95801C105.798 2.7666 106.069 2.6709 106.411 2.6709C106.748 2.6709 107.017 2.7666 107.218 2.95801C107.418 3.14941 107.519 3.39323 107.519 3.68945C107.519 3.99023 107.416 4.23633 107.211 4.42773C107.01 4.61914 106.744 4.71484 106.411 4.71484C106.078 4.71484 105.81 4.61914 105.604 4.42773C105.404 4.23633 105.304 3.99023 105.304 3.68945ZM111.805 10.5869L113.179 5.60352H115.243L112.748 13H110.861L108.366 5.60352H110.431L111.805 10.5869ZM119.427 13.1367C118.342 13.1367 117.458 12.804 116.774 12.1387C116.095 11.4733 115.756 10.5869 115.756 9.47949V9.28809C115.756 8.54525 115.899 7.88216 116.187 7.29883C116.474 6.71094 116.879 6.25977 117.403 5.94531C117.932 5.6263 118.534 5.4668 119.208 5.4668C120.22 5.4668 121.015 5.78581 121.594 6.42383C122.177 7.06185 122.469 7.96647 122.469 9.1377V9.94434H117.759C117.823 10.4274 118.014 10.8148 118.333 11.1064C118.657 11.3981 119.064 11.5439 119.557 11.5439C120.318 11.5439 120.912 11.2682 121.341 10.7168L122.312 11.8037C122.015 12.223 121.614 12.5511 121.108 12.7881C120.603 13.0205 120.042 13.1367 119.427 13.1367ZM119.201 7.06641C118.809 7.06641 118.49 7.19857 118.244 7.46289C118.003 7.72721 117.848 8.10547 117.779 8.59766H120.527V8.44043C120.518 8.00293 120.4 7.66569 120.172 7.42871C119.944 7.18717 119.62 7.06641 119.201 7.06641ZM14.3105 24.9531C14.3105 23.9095 14.4495 22.916 14.7275 21.9727C15.0055 21.0293 15.4157 20.1953 15.958 19.4707C16.5003 18.7415 17.0882 18.2357 17.7217 17.9531L18.1045 19.0195C17.4391 19.5117 16.9196 20.2728 16.5459 21.3027C16.1722 22.3327 15.9854 23.5358 15.9854 24.9121V25.124C15.9854 26.5049 16.1699 27.7126 16.5391 28.7471C16.9082 29.7816 17.43 30.554 18.1045 31.0645L17.7217 32.1104C17.1019 31.8324 16.5231 31.3402 15.9854 30.6338C15.4521 29.932 15.0443 29.1208 14.7617 28.2002C14.4792 27.2796 14.3288 26.318 14.3105 25.3154V24.9531ZM19.6836 29V23.0527H18.583V21.6035H19.6836V20.9746C19.6836 20.1452 19.9206 19.5026 20.3945 19.0469C20.873 18.5866 21.5407 18.3564 22.3975 18.3564C22.6709 18.3564 23.0059 18.402 23.4023 18.4932L23.3818 20.0244C23.2178 19.9834 23.0173 19.9629 22.7803 19.9629C22.0374 19.9629 21.666 20.3115 21.666 21.0088V21.6035H23.1357V23.0527H21.666V29H19.6836ZM28.4473 29C28.3561 28.8223 28.29 28.6012 28.249 28.3369C27.7705 28.8701 27.1484 29.1367 26.3828 29.1367C25.6582 29.1367 25.0566 28.9271 24.5781 28.5078C24.1042 28.0885 23.8672 27.5599 23.8672 26.9219C23.8672 26.138 24.1566 25.5365 24.7354 25.1172C25.3187 24.6979 26.1595 24.486 27.2578 24.4814H28.167V24.0576C28.167 23.7158 28.0781 23.4424 27.9004 23.2373C27.7272 23.0322 27.4515 22.9297 27.0732 22.9297C26.7406 22.9297 26.4785 23.0094 26.2871 23.1689C26.1003 23.3285 26.0068 23.5472 26.0068 23.8252H24.0312C24.0312 23.3968 24.1634 23.0003 24.4277 22.6357C24.6921 22.2712 25.0658 21.9863 25.5488 21.7812C26.0319 21.5716 26.5742 21.4668 27.1758 21.4668C28.0872 21.4668 28.8096 21.6969 29.3428 22.1572C29.8805 22.613 30.1494 23.2555 30.1494 24.085V27.291C30.154 27.9928 30.252 28.5238 30.4434 28.8838V29H28.4473ZM26.8135 27.626C27.1051 27.626 27.374 27.5622 27.6201 27.4346C27.8662 27.3024 28.0485 27.127 28.167 26.9082V25.6367H27.4287C26.4398 25.6367 25.9134 25.9785 25.8496 26.6621L25.8428 26.7783C25.8428 27.0244 25.9294 27.2272 26.1025 27.3867C26.2757 27.5462 26.5127 27.626 26.8135 27.626ZM35.8232 23.4561C35.5544 23.4196 35.3174 23.4014 35.1123 23.4014C34.3649 23.4014 33.875 23.6543 33.6426 24.1602V29H31.667V21.6035H33.5332L33.5879 22.4854C33.9844 21.8063 34.5335 21.4668 35.2354 21.4668C35.4541 21.4668 35.6592 21.4964 35.8506 21.5557L35.8232 23.4561ZM40.8066 29V23.0527H39.7061V21.6035H40.8066V20.9746C40.8066 20.1452 41.0436 19.5026 41.5176 19.0469C41.9961 18.5866 42.6637 18.3564 43.5205 18.3564C43.7939 18.3564 44.1289 18.402 44.5254 18.4932L44.5049 20.0244C44.3408 19.9834 44.1403 19.9629 43.9033 19.9629C43.1605 19.9629 42.7891 20.3115 42.7891 21.0088V21.6035H44.2588V23.0527H42.7891V29H40.8066ZM49.4404 23.4561C49.1715 23.4196 48.9346 23.4014 48.7295 23.4014C47.9821 23.4014 47.4922 23.6543 47.2598 24.1602V29H45.2842V21.6035H47.1504L47.2051 22.4854C47.6016 21.8063 48.1507 21.4668 48.8525 21.4668C49.0713 21.4668 49.2764 21.4964 49.4678 21.5557L49.4404 23.4561ZM49.8438 25.2334C49.8438 24.4997 49.985 23.8457 50.2676 23.2715C50.5501 22.6973 50.9557 22.2529 51.4844 21.9385C52.0176 21.624 52.6351 21.4668 53.3369 21.4668C54.335 21.4668 55.1484 21.7721 55.7773 22.3828C56.4108 22.9935 56.764 23.8229 56.8369 24.8711L56.8506 25.377C56.8506 26.5117 56.5339 27.4232 55.9004 28.1113C55.2669 28.7949 54.417 29.1367 53.3506 29.1367C52.2842 29.1367 51.432 28.7949 50.7939 28.1113C50.1605 27.4277 49.8438 26.498 49.8438 25.3223V25.2334ZM51.8193 25.377C51.8193 26.0788 51.9515 26.6165 52.2158 26.9902C52.4801 27.3594 52.8584 27.5439 53.3506 27.5439C53.8291 27.5439 54.2028 27.3617 54.4717 26.9971C54.7406 26.6279 54.875 26.04 54.875 25.2334C54.875 24.5452 54.7406 24.012 54.4717 23.6338C54.2028 23.2555 53.8245 23.0664 53.3369 23.0664C52.8538 23.0664 52.4801 23.2555 52.2158 23.6338C51.9515 24.0075 51.8193 24.5885 51.8193 25.377ZM59.9199 21.6035L59.9814 22.4307C60.5055 21.7881 61.2142 21.4668 62.1074 21.4668C63.0599 21.4668 63.7139 21.8428 64.0693 22.5947C64.5889 21.8428 65.3294 21.4668 66.291 21.4668C67.0931 21.4668 67.6901 21.7015 68.082 22.1709C68.474 22.6357 68.6699 23.3376 68.6699 24.2764V29H66.6875V24.2832C66.6875 23.8639 66.6055 23.5586 66.4414 23.3672C66.2773 23.1712 65.988 23.0732 65.5732 23.0732C64.9808 23.0732 64.5706 23.3558 64.3428 23.9209L64.3496 29H62.374V24.29C62.374 23.8617 62.2897 23.5518 62.1211 23.3604C61.9525 23.1689 61.6654 23.0732 61.2598 23.0732C60.6992 23.0732 60.2936 23.3057 60.043 23.7705V29H58.0674V21.6035H59.9199ZM76.0459 19.7852V21.6035H77.3105V23.0527H76.0459V26.7441C76.0459 27.0176 76.0983 27.2135 76.2031 27.332C76.3079 27.4505 76.5085 27.5098 76.8047 27.5098C77.0234 27.5098 77.2171 27.4938 77.3857 27.4619V28.959C76.9984 29.0775 76.5996 29.1367 76.1895 29.1367C74.804 29.1367 74.0977 28.4372 74.0703 27.0381V23.0527H72.9902V21.6035H74.0703V19.7852H76.0459ZM80.3389 22.4102C80.863 21.7812 81.5215 21.4668 82.3145 21.4668C83.9186 21.4668 84.7321 22.3988 84.7549 24.2627V29H82.7793V24.3174C82.7793 23.8936 82.6882 23.5814 82.5059 23.3809C82.3236 23.1758 82.0205 23.0732 81.5967 23.0732C81.0179 23.0732 80.5986 23.2965 80.3389 23.7432V29H78.3633V18.5H80.3389V22.4102ZM89.6494 29.1367C88.5648 29.1367 87.6807 28.804 86.9971 28.1387C86.318 27.4733 85.9785 26.5869 85.9785 25.4795V25.2881C85.9785 24.5452 86.1221 23.8822 86.4092 23.2988C86.6963 22.7109 87.1019 22.2598 87.626 21.9453C88.1546 21.6263 88.7562 21.4668 89.4307 21.4668C90.4424 21.4668 91.2376 21.7858 91.8164 22.4238C92.3997 23.0618 92.6914 23.9665 92.6914 25.1377V25.9443H87.9814C88.0452 26.4274 88.2367 26.8148 88.5557 27.1064C88.8792 27.3981 89.2871 27.5439 89.7793 27.5439C90.5404 27.5439 91.1351 27.2682 91.5635 26.7168L92.5342 27.8037C92.238 28.223 91.8369 28.5511 91.3311 28.7881C90.8252 29.0205 90.2646 29.1367 89.6494 29.1367ZM89.4238 23.0664C89.0319 23.0664 88.7129 23.1986 88.4668 23.4629C88.2253 23.7272 88.0703 24.1055 88.002 24.5977H90.75V24.4404C90.7409 24.0029 90.6224 23.6657 90.3945 23.4287C90.1667 23.1872 89.8431 23.0664 89.4238 23.0664ZM99.1582 21.6035L99.2197 22.4307C99.7438 21.7881 100.452 21.4668 101.346 21.4668C102.298 21.4668 102.952 21.8428 103.308 22.5947C103.827 21.8428 104.568 21.4668 105.529 21.4668C106.331 21.4668 106.928 21.7015 107.32 22.1709C107.712 22.6357 107.908 23.3376 107.908 24.2764V29H105.926V24.2832C105.926 23.8639 105.844 23.5586 105.68 23.3672C105.516 23.1712 105.226 23.0732 104.812 23.0732C104.219 23.0732 103.809 23.3558 103.581 23.9209L103.588 29H101.612V24.29C101.612 23.8617 101.528 23.5518 101.359 23.3604C101.191 23.1689 100.904 23.0732 100.498 23.0732C99.9375 23.0732 99.5319 23.3057 99.2812 23.7705V29H97.3057V21.6035H99.1582ZM112.837 29.1367C111.752 29.1367 110.868 28.804 110.185 28.1387C109.506 27.4733 109.166 26.5869 109.166 25.4795V25.2881C109.166 24.5452 109.31 23.8822 109.597 23.2988C109.884 22.7109 110.289 22.2598 110.813 21.9453C111.342 21.6263 111.944 21.4668 112.618 21.4668C113.63 21.4668 114.425 21.7858 115.004 22.4238C115.587 23.0618 115.879 23.9665 115.879 25.1377V25.9443H111.169C111.233 26.4274 111.424 26.8148 111.743 27.1064C112.067 27.3981 112.475 27.5439 112.967 27.5439C113.728 27.5439 114.323 27.2682 114.751 26.7168L115.722 27.8037C115.425 28.223 115.024 28.5511 114.519 28.7881C114.013 29.0205 113.452 29.1367 112.837 29.1367ZM112.611 23.0664C112.219 23.0664 111.9 23.1986 111.654 23.4629C111.413 23.7272 111.258 24.1055 111.189 24.5977H113.938V24.4404C113.928 24.0029 113.81 23.6657 113.582 23.4287C113.354 23.1872 113.031 23.0664 112.611 23.0664ZM121.293 29C121.202 28.8223 121.136 28.6012 121.095 28.3369C120.616 28.8701 119.994 29.1367 119.229 29.1367C118.504 29.1367 117.902 28.9271 117.424 28.5078C116.95 28.0885 116.713 27.5599 116.713 26.9219C116.713 26.138 117.002 25.5365 117.581 25.1172C118.164 24.6979 119.005 24.486 120.104 24.4814H121.013V24.0576C121.013 23.7158 120.924 23.4424 120.746 23.2373C120.573 23.0322 120.297 22.9297 119.919 22.9297C119.586 22.9297 119.324 23.0094 119.133 23.1689C118.946 23.3285 118.853 23.5472 118.853 23.8252H116.877C116.877 23.3968 117.009 23.0003 117.273 22.6357C117.538 22.2712 117.911 21.9863 118.395 21.7812C118.878 21.5716 119.42 21.4668 120.021 21.4668C120.933 21.4668 121.655 21.6969 122.188 22.1572C122.726 22.613 122.995 23.2555 122.995 24.085V27.291C123 27.9928 123.098 28.5238 123.289 28.8838V29H121.293ZM119.659 27.626C119.951 27.626 120.22 27.5622 120.466 27.4346C120.712 27.3024 120.894 27.127 121.013 26.9082V25.6367H120.274C119.285 25.6367 118.759 25.9785 118.695 26.6621L118.688 26.7783C118.688 27.0244 118.775 27.2272 118.948 27.3867C119.121 27.5462 119.358 27.626 119.659 27.626ZM126.331 21.6035L126.393 22.458C126.921 21.7972 127.63 21.4668 128.519 21.4668C129.302 21.4668 129.886 21.6969 130.269 22.1572C130.651 22.6175 130.847 23.3057 130.856 24.2217V29H128.881V24.2695C128.881 23.8503 128.79 23.5472 128.607 23.3604C128.425 23.1689 128.122 23.0732 127.698 23.0732C127.142 23.0732 126.725 23.3102 126.447 23.7842V29H124.472V21.6035H126.331ZM135.765 25.1104C135.765 26.1403 135.617 27.1315 135.32 28.084C135.024 29.0365 134.598 29.8773 134.042 30.6064C133.486 31.3356 132.891 31.8369 132.258 32.1104L131.875 31.0645C132.522 30.5768 133.033 29.8249 133.406 28.8086C133.78 27.7923 133.974 26.6234 133.987 25.3018V24.9395C133.987 23.5768 133.8 22.376 133.427 21.3369C133.058 20.2979 132.54 19.5186 131.875 18.999L132.258 17.9531C132.878 18.222 133.461 18.7096 134.008 19.416C134.559 20.1224 134.985 20.945 135.286 21.8838C135.591 22.8226 135.751 23.7956 135.765 24.8027V25.1104Z" transform="translate(515 222)" fill="#D55E00"/>
<path d="M4.5 5.94434L6.23291 2.75781H8.42285L5.73145 7.34082L8.49268 12H6.27734L4.5 8.7627L2.72266 12H0.507324L3.26855 7.34082L0.577148 2.75781H2.76709L4.5 5.94434Z" transform="translate(153 -1)" fill="black"/>
<line y1="-0.5" x2="7" y2="-0.5" transform="translate(154 1)" stroke="black"/>
<path d="M4.5 5.94434L6.23291 2.75781H8.42285L5.73145 7.34082L8.49268 12H6.27734L4.5 8.7627L2.72266 12H0.507324L3.26855 7.34082L0.577148 2.75781H2.76709L4.5 5.94434Z" transform="translate(482 -1)" fill="black"/>
<line y1="-0.5" x2="7" y2="-0.5" transform="translate(483 1)" stroke="black"/>
<line y1="-0.5" x2="53" y2="-0.5" transform="translate(174 8)" stroke="black"/>
<path d="M20.3536 0.353553C20.5488 0.158291 20.5488 -0.158291 20.3536 -0.353553L17.1716 -3.53553C16.9763 -3.7308 16.6597 -3.7308 16.4645 -3.53553C16.2692 -3.34027 16.2692 -3.02369 16.4645 -2.82843L19.2929 0L16.4645 2.82843C16.2692 3.02369 16.2692 3.34027 16.4645 3.53553C16.6597 3.7308 16.9763 3.7308 17.1716 3.53553L20.3536 0.353553ZM0 0.5H20V-0.5H0V0.5Z" transform="translate(227 7) rotate(90)" fill="black"/>
<line y1="-0.5" x2="19" y2="-0.5" transform="translate(174 8) rotate(90)" stroke="black"/>
<line y1="-0.5" x2="53" y2="-0.5" transform="translate(503 9)" stroke="black"/>
<path d="M20.3536 0.353553C20.5488 0.158291 20.5488 -0.158291 20.3536 -0.353553L17.1716 -3.53553C16.9763 -3.7308 16.6597 -3.7308 16.4645 -3.53553C16.2692 -3.34027 16.2692 -3.02369 16.4645 -2.82843L19.2929 0L16.4645 2.82843C16.2692 3.02369 16.2692 3.34027 16.4645 3.53553C16.6597 3.7308 16.9763 3.7308 17.1716 3.53553L20.3536 0.353553ZM0 0.5H20V-0.5H0V0.5Z" transform="translate(556 8) rotate(90)" fill="black"/>
<line y1="-0.5" x2="19" y2="-0.5" transform="translate(503 9) rotate(90)" stroke="black"/>
</svg>
