<svg width="349" height="319" viewBox="0 0 349 319" fill="none" xmlns="http://www.w3.org/2000/svg">
<rect width="349" height="319" fill="white"/>
<path d="M0 152C58.4528 -160.319 75.0659 96.4402 312 152H0Z" transform="translate(24 57)" fill="#56B4E9" fill-opacity="0.3"/>
<path d="M0 152C58.4528 -160.319 75.0659 96.4402 312 152" transform="translate(24 57)" stroke="#0072B2" stroke-width="2"/>
<line y1="-1" x2="167.002" y2="-1" transform="translate(2 209.996) rotate(-89.4854)" stroke="black" stroke-width="2"/>
<line y1="-1" x2="343.001" y2="-1" transform="translate(0 211)" stroke="black" stroke-width="2"/>
<path d="M0 17.9502C75 0.950203 144 -12.0498 279 17.9502Z" transform="translate(37 191.05)" fill="#D55E00"/>
<path d="M0 17.9502C75 0.950203 144 -12.0498 279 17.9502" transform="translate(37 191.05)" stroke="#0072B2" stroke-width="2"/>
<path d="M3.35938 10.9922V15H1.01562V3.625H5.45312C6.30729 3.625 7.05729 3.78125 7.70312 4.09375C8.35417 4.40625 8.85417 4.85156 9.20312 5.42969C9.55208 6.0026 9.72656 6.65625 9.72656 7.39062C9.72656 8.50521 9.34375 9.38542 8.57812 10.0312C7.81771 10.6719 6.76302 10.9922 5.41406 10.9922H3.35938ZM3.35938 9.09375H5.45312C6.07292 9.09375 6.54427 8.94792 6.86719 8.65625C7.19531 8.36458 7.35938 7.94792 7.35938 7.40625C7.35938 6.84896 7.19531 6.39844 6.86719 6.05469C6.53906 5.71094 6.08594 5.53385 5.50781 5.52344H3.35938V9.09375ZM10.7344 10.6953C10.7344 9.85677 10.8958 9.10938 11.2188 8.45312C11.5417 7.79688 12.0052 7.28906 12.6094 6.92969C13.2188 6.57031 13.9245 6.39062 14.7266 6.39062C15.8672 6.39062 16.7969 6.73958 17.5156 7.4375C18.2396 8.13542 18.6432 9.08333 18.7266 10.2812L18.7422 10.8594C18.7422 12.1562 18.3802 13.1979 17.6562 13.9844C16.9323 14.7656 15.9609 15.1562 14.7422 15.1562C13.5234 15.1562 12.5495 14.7656 11.8203 13.9844C11.0964 13.2031 10.7344 12.1406 10.7344 10.7969V10.6953ZM12.9922 10.8594C12.9922 11.6615 13.1432 12.276 13.4453 12.7031C13.7474 13.125 14.1797 13.3359 14.7422 13.3359C15.2891 13.3359 15.7161 13.1276 16.0234 12.7109C16.3307 12.2891 16.4844 11.6172 16.4844 10.6953C16.4844 9.90885 16.3307 9.29948 16.0234 8.86719C15.7161 8.4349 15.2839 8.21875 14.7266 8.21875C14.1745 8.21875 13.7474 8.4349 13.4453 8.86719C13.1432 9.29427 12.9922 9.95833 12.9922 10.8594ZM27.7422 10.8516C27.7422 12.1536 27.4453 13.1979 26.8516 13.9844C26.263 14.7656 25.4661 15.1562 24.4609 15.1562C23.6068 15.1562 22.9167 14.8594 22.3906 14.2656V18.25H20.1328V6.54688H22.2266L22.3047 7.375C22.8516 6.71875 23.5651 6.39062 24.4453 6.39062C25.487 6.39062 26.2969 6.77604 26.875 7.54688C27.4531 8.31771 27.7422 9.38021 27.7422 10.7344V10.8516ZM25.4844 10.6875C25.4844 9.90104 25.3438 9.29427 25.0625 8.86719C24.7865 8.4401 24.3828 8.22656 23.8516 8.22656C23.1432 8.22656 22.6562 8.4974 22.3906 9.03906V12.5C22.6667 13.0573 23.1589 13.3359 23.8672 13.3359C24.9453 13.3359 25.4844 12.4531 25.4844 10.6875ZM34.2109 14.1406C33.6536 14.8177 32.8828 15.1562 31.8984 15.1562C30.9922 15.1562 30.2995 14.8958 29.8203 14.375C29.3464 13.8542 29.1042 13.0911 29.0938 12.0859V6.54688H31.3516V12.0078C31.3516 12.888 31.7526 13.3281 32.5547 13.3281C33.3203 13.3281 33.8464 13.0625 34.1328 12.5312V6.54688H36.3984V15H34.2734L34.2109 14.1406ZM40.4844 15H38.2188V3H40.4844V15ZM47.25 15C47.1458 14.7969 47.0703 14.5443 47.0234 14.2422C46.4766 14.8516 45.7656 15.1562 44.8906 15.1562C44.0625 15.1562 43.375 14.9167 42.8281 14.4375C42.2865 13.9583 42.0156 13.3542 42.0156 12.625C42.0156 11.7292 42.3464 11.0417 43.0078 10.5625C43.6745 10.0833 44.6354 9.84115 45.8906 9.83594H46.9297V9.35156C46.9297 8.96094 46.8281 8.64844 46.625 8.41406C46.4271 8.17969 46.112 8.0625 45.6797 8.0625C45.2995 8.0625 45 8.15365 44.7812 8.33594C44.5677 8.51823 44.4609 8.76823 44.4609 9.08594H42.2031C42.2031 8.59635 42.3542 8.14323 42.6562 7.72656C42.9583 7.3099 43.3854 6.98438 43.9375 6.75C44.4896 6.51042 45.1094 6.39062 45.7969 6.39062C46.8385 6.39062 47.6641 6.65365 48.2734 7.17969C48.888 7.70052 49.1953 8.4349 49.1953 9.38281V13.0469C49.2005 13.849 49.3125 14.4557 49.5312 14.8672V15H47.25ZM45.3828 13.4297C45.7161 13.4297 46.0234 13.3568 46.3047 13.2109C46.5859 13.0599 46.7943 12.8594 46.9297 12.6094V11.1562H46.0859C44.9557 11.1562 44.3542 11.5469 44.2812 12.3281L44.2734 12.4609C44.2734 12.7422 44.3724 12.974 44.5703 13.1562C44.7682 13.3385 45.0391 13.4297 45.3828 13.4297ZM53.6328 4.46875V6.54688H55.0781V8.20312H53.6328V12.4219C53.6328 12.7344 53.6927 12.9583 53.8125 13.0938C53.9323 13.2292 54.1615 13.2969 54.5 13.2969C54.75 13.2969 54.9714 13.2786 55.1641 13.2422V14.9531C54.7214 15.0885 54.2656 15.1562 53.7969 15.1562C52.2135 15.1562 51.4062 14.3568 51.375 12.7578V8.20312H50.1406V6.54688H51.375V4.46875H53.6328ZM58.7188 15H56.4531V6.54688H58.7188V15ZM56.3203 4.35938C56.3203 4.02083 56.4323 3.74219 56.6562 3.52344C56.8854 3.30469 57.1953 3.19531 57.5859 3.19531C57.9714 3.19531 58.2786 3.30469 58.5078 3.52344C58.737 3.74219 58.8516 4.02083 58.8516 4.35938C58.8516 4.70312 58.7344 4.98438 58.5 5.20312C58.2708 5.42188 57.9661 5.53125 57.5859 5.53125C57.2057 5.53125 56.8984 5.42188 56.6641 5.20312C56.4349 4.98438 56.3203 4.70312 56.3203 4.35938ZM60.2344 10.6953C60.2344 9.85677 60.3958 9.10938 60.7188 8.45312C61.0417 7.79688 61.5052 7.28906 62.1094 6.92969C62.7188 6.57031 63.4245 6.39062 64.2266 6.39062C65.3672 6.39062 66.2969 6.73958 67.0156 7.4375C67.7396 8.13542 68.1432 9.08333 68.2266 10.2812L68.2422 10.8594C68.2422 12.1562 67.8802 13.1979 67.1562 13.9844C66.4323 14.7656 65.4609 15.1562 64.2422 15.1562C63.0234 15.1562 62.0495 14.7656 61.3203 13.9844C60.5964 13.2031 60.2344 12.1406 60.2344 10.7969V10.6953ZM62.4922 10.8594C62.4922 11.6615 62.6432 12.276 62.9453 12.7031C63.2474 13.125 63.6797 13.3359 64.2422 13.3359C64.7891 13.3359 65.2161 13.1276 65.5234 12.7109C65.8307 12.2891 65.9844 11.6172 65.9844 10.6953C65.9844 9.90885 65.8307 9.29948 65.5234 8.86719C65.2161 8.4349 64.7839 8.21875 64.2266 8.21875C63.6745 8.21875 63.2474 8.4349 62.9453 8.86719C62.6432 9.29427 62.4922 9.95833 62.4922 10.8594ZM71.7109 6.54688L71.7812 7.52344C72.3854 6.76823 73.1953 6.39062 74.2109 6.39062C75.1068 6.39062 75.7734 6.65365 76.2109 7.17969C76.6484 7.70573 76.8724 8.49219 76.8828 9.53906V15H74.625V9.59375C74.625 9.11458 74.5208 8.76823 74.3125 8.55469C74.1042 8.33594 73.7578 8.22656 73.2734 8.22656C72.638 8.22656 72.1615 8.4974 71.8438 9.03906V15H69.5859V6.54688H71.7109Z" transform="translate(59 98)" fill="black"/>
<path d="M6.91406 12.0156C6.91406 11.5729 6.75781 11.2344 6.44531 11C6.13281 10.7604 5.57031 10.5104 4.75781 10.25C3.94531 9.98438 3.30208 9.72396 2.82812 9.46875C1.53646 8.77083 0.890625 7.83073 0.890625 6.64844C0.890625 6.03385 1.0625 5.48698 1.40625 5.00781C1.75521 4.52344 2.2526 4.14583 2.89844 3.875C3.54948 3.60417 4.27865 3.46875 5.08594 3.46875C5.89844 3.46875 6.6224 3.61719 7.25781 3.91406C7.89323 4.20573 8.38542 4.61979 8.73438 5.15625C9.08854 5.69271 9.26562 6.30208 9.26562 6.98438H6.92188C6.92188 6.46354 6.75781 6.0599 6.42969 5.77344C6.10156 5.48177 5.64062 5.33594 5.04688 5.33594C4.47396 5.33594 4.02865 5.45833 3.71094 5.70312C3.39323 5.94271 3.23438 6.26042 3.23438 6.65625C3.23438 7.02604 3.41927 7.33594 3.78906 7.58594C4.16406 7.83594 4.71354 8.07031 5.4375 8.28906C6.77083 8.6901 7.74219 9.1875 8.35156 9.78125C8.96094 10.375 9.26562 11.1146 9.26562 12C9.26562 12.9844 8.89323 13.7578 8.14844 14.3203C7.40365 14.8776 6.40104 15.1562 5.14062 15.1562C4.26562 15.1562 3.46875 14.9974 2.75 14.6797C2.03125 14.3568 1.48177 13.9167 1.10156 13.3594C0.726562 12.8021 0.539062 12.1562 0.539062 11.4219H2.89062C2.89062 12.6771 3.64062 13.3047 5.14062 13.3047C5.69792 13.3047 6.13281 13.1927 6.44531 12.9688C6.75781 12.7396 6.91406 12.4219 6.91406 12.0156ZM15.6094 15C15.5052 14.7969 15.4297 14.5443 15.3828 14.2422C14.8359 14.8516 14.125 15.1562 13.25 15.1562C12.4219 15.1562 11.7344 14.9167 11.1875 14.4375C10.6458 13.9583 10.375 13.3542 10.375 12.625C10.375 11.7292 10.7057 11.0417 11.3672 10.5625C12.0339 10.0833 12.9948 9.84115 14.25 9.83594H15.2891V9.35156C15.2891 8.96094 15.1875 8.64844 14.9844 8.41406C14.7865 8.17969 14.4714 8.0625 14.0391 8.0625C13.6589 8.0625 13.3594 8.15365 13.1406 8.33594C12.9271 8.51823 12.8203 8.76823 12.8203 9.08594H10.5625C10.5625 8.59635 10.7135 8.14323 11.0156 7.72656C11.3177 7.3099 11.7448 6.98438 12.2969 6.75C12.849 6.51042 13.4688 6.39062 14.1562 6.39062C15.1979 6.39062 16.0234 6.65365 16.6328 7.17969C17.2474 7.70052 17.5547 8.4349 17.5547 9.38281V13.0469C17.5599 13.849 17.6719 14.4557 17.8906 14.8672V15H15.6094ZM13.7422 13.4297C14.0755 13.4297 14.3828 13.3568 14.6641 13.2109C14.9453 13.0599 15.1536 12.8594 15.2891 12.6094V11.1562H14.4453C13.3151 11.1562 12.7135 11.5469 12.6406 12.3281L12.6328 12.4609C12.6328 12.7422 12.7318 12.974 12.9297 13.1562C13.1276 13.3385 13.3984 13.4297 13.7422 13.4297ZM21.4062 6.54688L21.4766 7.49219C22.0755 6.75781 22.8854 6.39062 23.9062 6.39062C24.9948 6.39062 25.7422 6.82031 26.1484 7.67969C26.7422 6.82031 27.5885 6.39062 28.6875 6.39062C29.6042 6.39062 30.2865 6.65885 30.7344 7.19531C31.1823 7.72656 31.4062 8.52865 31.4062 9.60156V15H29.1406V9.60938C29.1406 9.13021 29.0469 8.78125 28.8594 8.5625C28.6719 8.33854 28.3411 8.22656 27.8672 8.22656C27.1901 8.22656 26.7214 8.54948 26.4609 9.19531L26.4688 15H24.2109V9.61719C24.2109 9.1276 24.1146 8.77344 23.9219 8.55469C23.7292 8.33594 23.401 8.22656 22.9375 8.22656C22.2969 8.22656 21.8333 8.49219 21.5469 9.02344V15H19.2891V6.54688H21.4062ZM40.7578 10.8516C40.7578 12.1536 40.4609 13.1979 39.8672 13.9844C39.2786 14.7656 38.4818 15.1562 37.4766 15.1562C36.6224 15.1562 35.9323 14.8594 35.4062 14.2656V18.25H33.1484V6.54688H35.2422L35.3203 7.375C35.8672 6.71875 36.5807 6.39062 37.4609 6.39062C38.5026 6.39062 39.3125 6.77604 39.8906 7.54688C40.4688 8.31771 40.7578 9.38021 40.7578 10.7344V10.8516ZM38.5 10.6875C38.5 9.90104 38.3594 9.29427 38.0781 8.86719C37.8021 8.4401 37.3984 8.22656 36.8672 8.22656C36.1589 8.22656 35.6719 8.4974 35.4062 9.03906V12.5C35.6823 13.0573 36.1745 13.3359 36.8828 13.3359C37.9609 13.3359 38.5 12.4531 38.5 10.6875ZM44.5469 15H42.2812V3H44.5469V15ZM50.3047 15.1562C49.0651 15.1562 48.0547 14.776 47.2734 14.0156C46.4974 13.2552 46.1094 12.2422 46.1094 10.9766V10.7578C46.1094 9.90885 46.2734 9.15104 46.6016 8.48438C46.9297 7.8125 47.3932 7.29688 47.9922 6.9375C48.5964 6.57292 49.2839 6.39062 50.0547 6.39062C51.2109 6.39062 52.1198 6.75521 52.7812 7.48438C53.4479 8.21354 53.7812 9.2474 53.7812 10.5859V11.5078H48.3984C48.4714 12.0599 48.6901 12.5026 49.0547 12.8359C49.4245 13.1693 49.8906 13.3359 50.4531 13.3359C51.3229 13.3359 52.0026 13.0208 52.4922 12.3906L53.6016 13.6328C53.263 14.112 52.8047 14.487 52.2266 14.7578C51.6484 15.0234 51.0078 15.1562 50.3047 15.1562ZM50.0469 8.21875C49.599 8.21875 49.2344 8.36979 48.9531 8.67188C48.6771 8.97396 48.5 9.40625 48.4219 9.96875H51.5625V9.78906C51.5521 9.28906 51.4167 8.90365 51.1562 8.63281C50.8958 8.35677 50.526 8.21875 50.0469 8.21875Z" transform="translate(149 190)" fill="white"/>
<path d="M175.354 0.353553C175.549 0.158291 175.549 -0.158291 175.354 -0.353553L172.172 -3.53553C171.976 -3.7308 171.66 -3.7308 171.464 -3.53553C171.269 -3.34027 171.269 -3.02369 171.464 -2.82843L174.293 0L171.464 2.82843C171.269 3.02369 171.269 3.34027 171.464 3.53553C171.66 3.7308 171.976 3.7308 172.172 3.53553L175.354 0.353553ZM0 0.5H0.994318V-0.5H0V0.5ZM2.98295 0.5H4.97159V-0.5H2.98295V0.5ZM6.96023 0.5H8.94886V-0.5H6.96023V0.5ZM10.9375 0.5H12.9261V-0.5H10.9375V0.5ZM14.9148 0.5H16.9034V-0.5H14.9148V0.5ZM18.892 0.5H20.8807V-0.5H18.892V0.5ZM22.8693 0.5H24.858V-0.5H22.8693V0.5ZM26.8466 0.5H28.8352V-0.5H26.8466V0.5ZM30.8239 0.5H32.8125V-0.5H30.8239V0.5ZM34.8011 0.5H36.7898V-0.5H34.8011V0.5ZM38.7784 0.5H40.767V-0.5H38.7784V0.5ZM42.7557 0.5H44.7443V-0.5H42.7557V0.5ZM46.733 0.5H48.7216V-0.5H46.733V0.5ZM50.7102 0.5H52.6989V-0.5H50.7102V0.5ZM54.6875 0.5H56.6761V-0.5H54.6875V0.5ZM58.6648 0.5H60.6534V-0.5H58.6648V0.5ZM62.642 0.5H64.6307V-0.5H62.642V0.5ZM66.6193 0.5H68.608V-0.5H66.6193V0.5ZM70.5966 0.5H72.5852V-0.5H70.5966V0.5ZM74.5739 0.5H76.5625V-0.5H74.5739V0.5ZM78.5511 0.5H80.5398V-0.5H78.5511V0.5ZM82.5284 0.5H84.517V-0.5H82.5284V0.5ZM86.5057 0.5H88.4943V-0.5H86.5057V0.5ZM90.483 0.5H92.4716V-0.5H90.483V0.5ZM94.4602 0.5H96.4489V-0.5H94.4602V0.5ZM98.4375 0.5H100.426V-0.5H98.4375V0.5ZM102.415 0.5H104.403V-0.5H102.415V0.5ZM106.392 0.5H108.381V-0.5H106.392V0.5ZM110.369 0.5H112.358V-0.5H110.369V0.5ZM114.347 0.5H116.335V-0.5H114.347V0.5ZM118.324 0.5H120.312V-0.5H118.324V0.5ZM122.301 0.5H124.29V-0.5H122.301V0.5ZM126.278 0.5H128.267V-0.5H126.278V0.5ZM130.256 0.5H132.244V-0.5H130.256V0.5ZM134.233 0.5H136.222V-0.5H134.233V0.5ZM138.21 0.5H140.199V-0.5H138.21V0.5ZM142.188 0.5H144.176V-0.5H142.188V0.5ZM146.165 0.5H148.153V-0.5H146.165V0.5ZM150.142 0.5H152.131V-0.5H150.142V0.5ZM154.119 0.5H156.108V-0.5H154.119V0.5ZM158.097 0.5H160.085V-0.5H158.097V0.5ZM162.074 0.5H164.062V-0.5H162.074V0.5ZM166.051 0.5H168.04V-0.5H166.051V0.5ZM170.028 0.5H172.017V-0.5H170.028V0.5ZM174.006 0.5H175V-0.5H174.006V0.5ZM175.707 0.707107C176.098 0.316583 176.098 -0.316583 175.707 -0.707107L169.343 -7.07107C168.953 -7.46159 168.319 -7.46159 167.929 -7.07107C167.538 -6.68054 167.538 -6.04738 167.929 -5.65685L173.586 0L167.929 5.65685C167.538 6.04738 167.538 6.68054 167.929 7.07107C168.319 7.46159 168.953 7.46159 169.343 7.07107L175.707 0.707107ZM0 1H0.994318V-1H0V1ZM2.98295 1H4.97159V-1H2.98295V1ZM6.96023 1H8.94886V-1H6.96023V1ZM10.9375 1H12.9261V-1H10.9375V1ZM14.9148 1H16.9034V-1H14.9148V1ZM18.892 1H20.8807V-1H18.892V1ZM22.8693 1H24.858V-1H22.8693V1ZM26.8466 1H28.8352V-1H26.8466V1ZM30.8239 1H32.8125V-1H30.8239V1ZM34.8011 1H36.7898V-1H34.8011V1ZM38.7784 1H40.767V-1H38.7784V1ZM42.7557 1H44.7443V-1H42.7557V1ZM46.733 1H48.7216V-1H46.733V1ZM50.7102 1H52.6989V-1H50.7102V1ZM54.6875 1H56.6761V-1H54.6875V1ZM58.6648 1H60.6534V-1H58.6648V1ZM62.642 1H64.6307V-1H62.642V1ZM66.6193 1H68.608V-1H66.6193V1ZM70.5966 1H72.5852V-1H70.5966V1ZM74.5739 1H76.5625V-1H74.5739V1ZM78.5511 1H80.5398V-1H78.5511V1ZM82.5284 1H84.517V-1H82.5284V1ZM86.5057 1H88.4943V-1H86.5057V1ZM90.483 1H92.4716V-1H90.483V1ZM94.4602 1H96.4489V-1H94.4602V1ZM98.4375 1H100.426V-1H98.4375V1ZM102.415 1H104.403V-1H102.415V1ZM106.392 1H108.381V-1H106.392V1ZM110.369 1H112.358V-1H110.369V1ZM114.347 1H116.335V-1H114.347V1ZM118.324 1H120.312V-1H118.324V1ZM122.301 1H124.29V-1H122.301V1ZM126.278 1H128.267V-1H126.278V1ZM130.256 1H132.244V-1H130.256V1ZM134.233 1H136.222V-1H134.233V1ZM138.21 1H140.199V-1H138.21V1ZM142.188 1H144.176V-1H142.188V1ZM146.165 1H148.153V-1H146.165V1ZM150.142 1H152.131V-1H150.142V1ZM154.119 1H156.108V-1H154.119V1ZM158.097 1H160.085V-1H158.097V1ZM162.074 1H164.062V-1H162.074V1ZM166.051 1H168.04V-1H166.051V1ZM170.028 1H172.017V-1H170.028V1ZM174.006 1H175V-1H174.006V1Z" transform="translate(161 277)" fill="#0072B2"/>
<path d="M137.354 0.353553C137.549 0.158291 137.549 -0.158291 137.354 -0.353553L134.172 -3.53553C133.976 -3.7308 133.66 -3.7308 133.464 -3.53553C133.269 -3.34027 133.269 -3.02369 133.464 -2.82843L136.293 0L133.464 2.82843C133.269 3.02369 133.269 3.34027 133.464 3.53553C133.66 3.7308 133.976 3.7308 134.172 3.53553L137.354 0.353553ZM0 0.5H1.00735V-0.5H0V0.5ZM3.02206 0.5H5.03676V-0.5H3.02206V0.5ZM7.05147 0.5H9.06618V-0.5H7.05147V0.5ZM11.0809 0.5H13.0956V-0.5H11.0809V0.5ZM15.1103 0.5H17.125V-0.5H15.1103V0.5ZM19.1397 0.5H21.1544V-0.5H19.1397V0.5ZM23.1691 0.5H25.1838V-0.5H23.1691V0.5ZM27.1985 0.5H29.2132V-0.5H27.1985V0.5ZM31.2279 0.5H33.2426V-0.5H31.2279V0.5ZM35.2574 0.5H37.2721V-0.5H35.2574V0.5ZM39.2868 0.5H41.3015V-0.5H39.2868V0.5ZM43.3162 0.5H45.3309V-0.5H43.3162V0.5ZM47.3456 0.5H49.3603V-0.5H47.3456V0.5ZM51.375 0.5H53.3897V-0.5H51.375V0.5ZM55.4044 0.5H57.4191V-0.5H55.4044V0.5ZM59.4338 0.5H61.4485V-0.5H59.4338V0.5ZM63.4632 0.5H65.4779V-0.5H63.4632V0.5ZM67.4926 0.5H69.5074V-0.5H67.4926V0.5ZM71.5221 0.5H73.5368V-0.5H71.5221V0.5ZM75.5515 0.5H77.5662V-0.5H75.5515V0.5ZM79.5809 0.5H81.5956V-0.5H79.5809V0.5ZM83.6103 0.5H85.625V-0.5H83.6103V0.5ZM87.6397 0.5H89.6544V-0.5H87.6397V0.5ZM91.6691 0.5H93.6838V-0.5H91.6691V0.5ZM95.6985 0.5H97.7132V-0.5H95.6985V0.5ZM99.7279 0.5H101.743V-0.5H99.7279V0.5ZM103.757 0.5H105.772V-0.5H103.757V0.5ZM107.787 0.5H109.801V-0.5H107.787V0.5ZM111.816 0.5H113.831V-0.5H111.816V0.5ZM115.846 0.5H117.86V-0.5H115.846V0.5ZM119.875 0.5H121.89V-0.5H119.875V0.5ZM123.904 0.5H125.919V-0.5H123.904V0.5ZM127.934 0.5H129.949V-0.5H127.934V0.5ZM131.963 0.5H133.978V-0.5H131.963V0.5ZM135.993 0.5H137V-0.5H135.993V0.5ZM137.707 0.707107C138.098 0.316583 138.098 -0.316583 137.707 -0.707107L131.343 -7.07107C130.953 -7.46159 130.319 -7.46159 129.929 -7.07107C129.538 -6.68054 129.538 -6.04738 129.929 -5.65685L135.586 0L129.929 5.65685C129.538 6.04738 129.538 6.68054 129.929 7.07107C130.319 7.46159 130.953 7.46159 131.343 7.07107L137.707 0.707107ZM0 1H1.00735V-1H0V1ZM3.02206 1H5.03676V-1H3.02206V1ZM7.05147 1H9.06618V-1H7.05147V1ZM11.0809 1H13.0956V-1H11.0809V1ZM15.1103 1H17.125V-1H15.1103V1ZM19.1397 1H21.1544V-1H19.1397V1ZM23.1691 1H25.1838V-1H23.1691V1ZM27.1985 1H29.2132V-1H27.1985V1ZM31.2279 1H33.2426V-1H31.2279V1ZM35.2574 1H37.2721V-1H35.2574V1ZM39.2868 1H41.3015V-1H39.2868V1ZM43.3162 1H45.3309V-1H43.3162V1ZM47.3456 1H49.3603V-1H47.3456V1ZM51.375 1H53.3897V-1H51.375V1ZM55.4044 1H57.4191V-1H55.4044V1ZM59.4338 1H61.4485V-1H59.4338V1ZM63.4632 1H65.4779V-1H63.4632V1ZM67.4926 1H69.5074V-1H67.4926V1ZM71.5221 1H73.5368V-1H71.5221V1ZM75.5515 1H77.5662V-1H75.5515V1ZM79.5809 1H81.5956V-1H79.5809V1ZM83.6103 1H85.625V-1H83.6103V1ZM87.6397 1H89.6544V-1H87.6397V1ZM91.6691 1H93.6838V-1H91.6691V1ZM95.6985 1H97.7132V-1H95.6985V1ZM99.7279 1H101.743V-1H99.7279V1ZM103.757 1H105.772V-1H103.757V1ZM107.787 1H109.801V-1H107.787V1ZM111.816 1H113.831V-1H111.816V1ZM115.846 1H117.86V-1H115.846V1ZM119.875 1H121.89V-1H119.875V1ZM123.904 1H125.919V-1H123.904V1ZM127.934 1H129.949V-1H127.934V1ZM131.963 1H133.978V-1H131.963V1ZM135.993 1H137V-1H135.993V1Z" transform="translate(161 277) rotate(180)" fill="#0072B2"/>
<path d="M144.373 0.353553C144.568 0.158291 144.568 -0.158291 144.373 -0.353553L141.191 -3.53553C140.995 -3.7308 140.679 -3.7308 140.484 -3.53553C140.288 -3.34027 140.288 -3.02369 140.484 -2.82843L143.312 0L140.484 2.82843C140.288 3.02369 140.288 3.34027 140.484 3.53553C140.679 3.7308 140.995 3.7308 141.191 3.53553L144.373 0.353553ZM0 0.5H1.00013V-0.5H0V0.5ZM3.0004 0.5H5.00066V-0.5H3.0004V0.5ZM7.00093 0.5H9.0012V-0.5H7.00093V0.5ZM11.0015 0.5H13.0017V-0.5H11.0015V0.5ZM15.002 0.5H17.0023V-0.5H15.002V0.5ZM19.0025 0.5H21.0028V-0.5H19.0025V0.5ZM23.0031 0.5H25.0033V-0.5H23.0031V0.5ZM27.0036 0.5H29.0039V-0.5H27.0036V0.5ZM31.0041 0.5H33.0044V-0.5H31.0041V0.5ZM35.0046 0.5H37.0049V-0.5H35.0046V0.5ZM39.0052 0.5H41.0054V-0.5H39.0052V0.5ZM43.0057 0.5H45.006V-0.5H43.0057V0.5ZM47.0062 0.5H49.0065V-0.5H47.0062V0.5ZM51.0068 0.5H53.007V-0.5H51.0068V0.5ZM55.0073 0.5H57.0076V-0.5H55.0073V0.5ZM59.0078 0.5H61.0081V-0.5H59.0078V0.5ZM63.0084 0.5H65.0086V-0.5H63.0084V0.5ZM67.0089 0.5H69.0092V-0.5H67.0089V0.5ZM71.0094 0.5H73.0097V-0.5H71.0094V0.5ZM75.01 0.5H77.0102V-0.5H75.01V0.5ZM79.0105 0.5H81.0108V-0.5H79.0105V0.5ZM83.011 0.5H85.0113V-0.5H83.011V0.5ZM87.0116 0.5H89.0118V-0.5H87.0116V0.5ZM91.0121 0.5H93.0124V-0.5H91.0121V0.5ZM95.0126 0.5H97.0129V-0.5H95.0126V0.5ZM99.0131 0.5H101.013V-0.5H99.0131V0.5ZM103.014 0.5H105.014V-0.5H103.014V0.5ZM107.014 0.5H109.014V-0.5H107.014V0.5ZM111.015 0.5H113.015V-0.5H111.015V0.5ZM115.015 0.5H117.016V-0.5H115.015V0.5ZM119.016 0.5H121.016V-0.5H119.016V0.5ZM123.016 0.5H125.017V-0.5H123.016V0.5ZM127.017 0.5H129.017V-0.5H127.017V0.5ZM131.017 0.5H133.018V-0.5H131.017V0.5ZM135.018 0.5H137.018V-0.5H135.018V0.5ZM139.018 0.5H141.019V-0.5H139.018V0.5ZM143.019 0.5H144.019V-0.5H143.019V0.5ZM144.726 0.707107C145.117 0.316582 145.117 -0.316582 144.726 -0.707107L138.362 -7.07107C137.972 -7.46159 137.339 -7.46159 136.948 -7.07107C136.558 -6.68054 136.558 -6.04738 136.948 -5.65685L142.605 0L136.948 5.65685C136.558 6.04738 136.558 6.68054 136.948 7.07107C137.339 7.46159 137.972 7.46159 138.362 7.07107L144.726 0.707107ZM0 1H1.00013V-1H0V1ZM3.0004 1H5.00066V-1H3.0004V1ZM7.00093 1H9.0012V-1H7.00093V1ZM11.0015 1H13.0017V-1H11.0015V1ZM15.002 1H17.0023V-1H15.002V1ZM19.0025 1H21.0028V-1H19.0025V1ZM23.0031 1H25.0033V-1H23.0031V1ZM27.0036 1H29.0039V-1H27.0036V1ZM31.0041 1H33.0044V-1H31.0041V1ZM35.0046 1H37.0049V-1H35.0046V1ZM39.0052 1H41.0054V-1H39.0052V1ZM43.0057 1H45.006V-1H43.0057V1ZM47.0062 1H49.0065V-1H47.0062V1ZM51.0068 1H53.007V-1H51.0068V1ZM55.0073 1H57.0076V-1H55.0073V1ZM59.0078 1H61.0081V-1H59.0078V1ZM63.0084 1H65.0086V-1H63.0084V1ZM67.0089 1H69.0092V-1H67.0089V1ZM71.0094 1H73.0097V-1H71.0094V1ZM75.01 1H77.0102V-1H75.01V1ZM79.0105 1H81.0108V-1H79.0105V1ZM83.011 1H85.0113V-1H83.011V1ZM87.0116 1H89.0118V-1H87.0116V1ZM91.0121 1H93.0124V-1H91.0121V1ZM95.0126 1H97.0129V-1H95.0126V1ZM99.0131 1H101.013V-1H99.0131V1ZM103.014 1H105.014V-1H103.014V1ZM107.014 1H109.014V-1H107.014V1ZM111.015 1H113.015V-1H111.015V1ZM115.015 1H117.016V-1H115.015V1ZM119.016 1H121.016V-1H119.016V1ZM123.016 1H125.017V-1H123.016V1ZM127.017 1H129.017V-1H127.017V1ZM131.017 1H133.018V-1H131.017V1ZM135.018 1H137.018V-1H135.018V1ZM139.018 1H141.019V-1H139.018V1ZM143.019 1H144.019V-1H143.019V1Z" transform="matrix(1 0 0.0473031 0.998881 171.981 227)" fill="#D55E00"/>
<path d="M135.879 0.353553C136.075 0.158291 136.075 -0.158291 135.879 -0.353553L132.697 -3.53553C132.502 -3.7308 132.186 -3.7308 131.99 -3.53553C131.795 -3.34027 131.795 -3.02369 131.99 -2.82843L134.819 0L131.99 2.82843C131.795 3.02369 131.795 3.34027 131.99 3.53553C132.186 3.7308 132.502 3.7308 132.697 3.53553L135.879 0.353553ZM0 0.5H0.996514V-0.5H0V0.5ZM2.98954 0.5H4.98257V-0.5H2.98954V0.5ZM6.9756 0.5H8.96863V-0.5H6.9756V0.5ZM10.9617 0.5H12.9547V-0.5H10.9617V0.5ZM14.9477 0.5H16.9407V-0.5H14.9477V0.5ZM18.9338 0.5H20.9268V-0.5H18.9338V0.5ZM22.9198 0.5H24.9128V-0.5H22.9198V0.5ZM26.9059 0.5H28.8989V-0.5H26.9059V0.5ZM30.8919 0.5H32.885V-0.5H30.8919V0.5ZM34.878 0.5H36.871V-0.5H34.878V0.5ZM38.864 0.5H40.8571V-0.5H38.864V0.5ZM42.8501 0.5H44.8431V-0.5H42.8501V0.5ZM46.8362 0.5H48.8292V-0.5H46.8362V0.5ZM50.8222 0.5H52.8152V-0.5H50.8222V0.5ZM54.8083 0.5H56.8013V-0.5H54.8083V0.5ZM58.7943 0.5H60.7873V-0.5H58.7943V0.5ZM62.7804 0.5H64.7734V-0.5H62.7804V0.5ZM66.7664 0.5H68.7595V-0.5H66.7664V0.5ZM70.7525 0.5H72.7455V-0.5H70.7525V0.5ZM74.7385 0.5H76.7316V-0.5H74.7385V0.5ZM78.7246 0.5H80.7176V-0.5H78.7246V0.5ZM82.7107 0.5H84.7037V-0.5H82.7107V0.5ZM86.6967 0.5H88.6897V-0.5H86.6967V0.5ZM90.6828 0.5H92.6758V-0.5H90.6828V0.5ZM94.6688 0.5H96.6618V-0.5H94.6688V0.5ZM98.6549 0.5H100.648V-0.5H98.6549V0.5ZM102.641 0.5H104.634V-0.5H102.641V0.5ZM106.627 0.5H108.62V-0.5H106.627V0.5ZM110.613 0.5H112.606V-0.5H110.613V0.5ZM114.599 0.5H116.592V-0.5H114.599V0.5ZM118.585 0.5H120.578V-0.5H118.585V0.5ZM122.571 0.5H124.564V-0.5H122.571V0.5ZM126.557 0.5H128.55V-0.5H126.557V0.5ZM130.543 0.5H132.536V-0.5H130.543V0.5ZM134.529 0.5H135.526V-0.5H134.529V0.5ZM136.233 0.707107C136.624 0.316582 136.624 -0.316582 136.233 -0.707107L129.869 -7.07107C129.479 -7.46159 128.845 -7.46159 128.455 -7.07107C128.064 -6.68054 128.064 -6.04738 128.455 -5.65685L134.112 0L128.455 5.65685C128.064 6.04738 128.064 6.68054 128.455 7.07107C128.845 7.46159 129.479 7.46159 129.869 7.07107L136.233 0.707107ZM0 1H0.996514V-1H0V1ZM2.98954 1H4.98257V-1H2.98954V1ZM6.9756 1H8.96863V-1H6.9756V1ZM10.9617 1H12.9547V-1H10.9617V1ZM14.9477 1H16.9407V-1H14.9477V1ZM18.9338 1H20.9268V-1H18.9338V1ZM22.9198 1H24.9128V-1H22.9198V1ZM26.9059 1H28.8989V-1H26.9059V1ZM30.8919 1H32.885V-1H30.8919V1ZM34.878 1H36.871V-1H34.878V1ZM38.864 1H40.8571V-1H38.864V1ZM42.8501 1H44.8431V-1H42.8501V1ZM46.8362 1H48.8292V-1H46.8362V1ZM50.8222 1H52.8152V-1H50.8222V1ZM54.8083 1H56.8013V-1H54.8083V1ZM58.7943 1H60.7873V-1H58.7943V1ZM62.7804 1H64.7734V-1H62.7804V1ZM66.7664 1H68.7595V-1H66.7664V1ZM70.7525 1H72.7455V-1H70.7525V1ZM74.7385 1H76.7316V-1H74.7385V1ZM78.7246 1H80.7176V-1H78.7246V1ZM82.7107 1H84.7037V-1H82.7107V1ZM86.6967 1H88.6897V-1H86.6967V1ZM90.6828 1H92.6758V-1H90.6828V1ZM94.6688 1H96.6618V-1H94.6688V1ZM98.6549 1H100.648V-1H98.6549V1ZM102.641 1H104.634V-1H102.641V1ZM106.627 1H108.62V-1H106.627V1ZM110.613 1H112.606V-1H110.613V1ZM114.599 1H116.592V-1H114.599V1ZM118.585 1H120.578V-1H118.585V1ZM122.571 1H124.564V-1H122.571V1ZM126.557 1H128.55V-1H126.557V1ZM130.543 1H132.536V-1H130.543V1ZM134.529 1H135.526V-1H134.529V1Z" transform="translate(172.526 227) rotate(180)" fill="#D55E00"/>
<path d="M40.524 9.92969C39.2375 9.5599 38.3 9.10677 37.7115 8.57031C37.1281 8.02865 36.8365 7.36198 36.8365 6.57031C36.8365 5.67448 37.1932 4.9349 37.9068 4.35156C38.6255 3.76302 39.5578 3.46875 40.7036 3.46875C41.4849 3.46875 42.1802 3.61979 42.7896 3.92188C43.4042 4.22396 43.8781 4.64062 44.2115 5.17188C44.55 5.70312 44.7193 6.28385 44.7193 6.91406H43.2115C43.2115 6.22656 42.9927 5.6875 42.5552 5.29688C42.1177 4.90104 41.5005 4.70312 40.7036 4.70312C39.9641 4.70312 39.3859 4.86719 38.9693 5.19531C38.5578 5.51823 38.3521 5.96875 38.3521 6.54688C38.3521 7.01042 38.5474 7.40365 38.938 7.72656C39.3338 8.04427 40.0031 8.33594 40.9458 8.60156C41.8937 8.86719 42.6333 9.16146 43.1646 9.48438C43.701 9.80208 44.0969 10.1745 44.3521 10.6016C44.6125 11.0286 44.7427 11.5312 44.7427 12.1094C44.7427 13.0312 44.3833 13.7708 43.6646 14.3281C42.9458 14.8802 41.9849 15.1562 40.7818 15.1562C40.0005 15.1562 39.2713 15.0078 38.5943 14.7109C37.9172 14.4089 37.3937 13.9974 37.024 13.4766C36.6594 12.9557 36.4771 12.3646 36.4771 11.7031H37.9849C37.9849 12.3906 38.2375 12.9349 38.7427 13.3359C39.2531 13.7318 39.9328 13.9297 40.7818 13.9297C41.5734 13.9297 42.1802 13.7682 42.6021 13.4453C43.024 13.1224 43.2349 12.6823 43.2349 12.125C43.2349 11.5677 43.0396 11.138 42.649 10.8359C42.2583 10.5286 41.55 10.2266 40.524 9.92969ZM53.5865 10.8672C53.5865 12.1536 53.2922 13.1901 52.7036 13.9766C52.1151 14.763 51.3182 15.1562 50.313 15.1562C49.287 15.1562 48.4797 14.8307 47.8911 14.1797V18.25H46.4458V6.54688H47.7661L47.8365 7.48438C48.425 6.75521 49.2427 6.39062 50.2896 6.39062C51.3052 6.39062 52.1073 6.77344 52.6958 7.53906C53.2896 8.30469 53.5865 9.36979 53.5865 10.7344V10.8672ZM52.1411 10.7031C52.1411 9.75 51.938 8.9974 51.5318 8.44531C51.1255 7.89323 50.5682 7.61719 49.8599 7.61719C48.9849 7.61719 48.3286 8.00521 47.8911 8.78125V12.8203C48.3234 13.5911 48.9849 13.9766 49.8755 13.9766C50.5682 13.9766 51.1177 13.7031 51.524 13.1562C51.9354 12.6042 52.1411 11.7865 52.1411 10.7031ZM59.5161 7.84375C59.2974 7.80729 59.0604 7.78906 58.8052 7.78906C57.8573 7.78906 57.2141 8.19271 56.8755 9V15H55.4302V6.54688H56.8365L56.8599 7.52344C57.3338 6.76823 58.0057 6.39062 58.8755 6.39062C59.1568 6.39062 59.3703 6.42708 59.5161 6.5V7.84375ZM64.2036 15.1562C63.0578 15.1562 62.1255 14.7812 61.4068 14.0312C60.688 13.276 60.3286 12.2682 60.3286 11.0078V10.7422C60.3286 9.90365 60.4875 9.15625 60.8052 8.5C61.1281 7.83854 61.576 7.32292 62.149 6.95312C62.7271 6.57812 63.3521 6.39062 64.024 6.39062C65.1229 6.39062 65.9771 6.7526 66.5865 7.47656C67.1958 8.20052 67.5005 9.23698 67.5005 10.5859V11.1875H61.774C61.7948 12.0208 62.037 12.6953 62.5005 13.2109C62.9693 13.7214 63.563 13.9766 64.2818 13.9766C64.7922 13.9766 65.2245 13.8724 65.5786 13.6641C65.9328 13.4557 66.2427 13.1797 66.5083 12.8359L67.3911 13.5234C66.6828 14.612 65.6203 15.1562 64.2036 15.1562ZM64.024 7.57812C63.4406 7.57812 62.951 7.79167 62.5552 8.21875C62.1594 8.64062 61.9146 9.23438 61.8208 10H66.0552V9.89062C66.0135 9.15625 65.8156 8.58854 65.4615 8.1875C65.1073 7.78125 64.6281 7.57812 64.024 7.57812ZM74.399 15C74.3156 14.8333 74.2479 14.5365 74.1958 14.1094C73.524 14.8073 72.7219 15.1562 71.7896 15.1562C70.9562 15.1562 70.2714 14.9219 69.7349 14.4531C69.2036 13.9792 68.938 13.3802 68.938 12.6562C68.938 11.776 69.2714 11.0938 69.938 10.6094C70.6099 10.1198 71.5526 9.875 72.7661 9.875H74.1724V9.21094C74.1724 8.70573 74.0214 8.30469 73.7193 8.00781C73.4172 7.70573 72.9719 7.55469 72.3833 7.55469C71.8677 7.55469 71.4354 7.6849 71.0865 7.94531C70.7375 8.20573 70.563 8.52083 70.563 8.89062H69.1099C69.1099 8.46875 69.2583 8.0625 69.5552 7.67188C69.8573 7.27604 70.2635 6.96354 70.774 6.73438C71.2896 6.50521 71.8547 6.39062 72.4693 6.39062C73.4432 6.39062 74.2062 6.63542 74.7583 7.125C75.3104 7.60938 75.5969 8.27865 75.6177 9.13281V13.0234C75.6177 13.7995 75.7167 14.4167 75.9146 14.875V15H74.399ZM72.0005 13.8984C72.4536 13.8984 72.8833 13.7812 73.2896 13.5469C73.6958 13.3125 73.9901 13.0078 74.1724 12.6328V10.8984H73.0396C71.2687 10.8984 70.3833 11.4167 70.3833 12.4531C70.3833 12.9062 70.5344 13.2604 70.8365 13.5156C71.1385 13.7708 71.5266 13.8984 72.0005 13.8984ZM77.5318 10.7031C77.5318 9.40625 77.8391 8.36458 78.4536 7.57812C79.0682 6.78646 79.8729 6.39062 80.8677 6.39062C81.8573 6.39062 82.6411 6.72917 83.2193 7.40625V3H84.6646V15H83.3365L83.2661 14.0938C82.688 14.8021 81.8833 15.1562 80.8521 15.1562C79.8729 15.1562 79.0734 14.7552 78.4536 13.9531C77.8391 13.151 77.5318 12.1042 77.5318 10.8125V10.7031ZM78.9771 10.8672C78.9771 11.8255 79.175 12.5755 79.5708 13.1172C79.9667 13.6589 80.5135 13.9297 81.2115 13.9297C82.1281 13.9297 82.7974 13.5182 83.2193 12.6953V8.8125C82.787 8.01562 82.1229 7.61719 81.2271 7.61719C80.5187 7.61719 79.9667 7.89062 79.5708 8.4375C79.175 8.98438 78.9771 9.79427 78.9771 10.8672ZM30.063 29.3828C30.063 28.2057 30.2193 27.0755 30.5318 25.9922C30.8495 24.9089 31.3208 23.9245 31.9458 23.0391C32.5708 22.1536 33.2193 21.5286 33.8911 21.1641L34.188 22.1172C33.4276 22.7005 32.8026 23.5911 32.313 24.7891C31.8286 25.987 31.563 27.3281 31.5161 28.8125L31.5083 29.4766C31.5083 31.487 31.8755 33.2318 32.6099 34.7109C33.0526 35.5964 33.5786 36.2891 34.188 36.7891L33.8911 37.6719C33.1984 37.2865 32.537 36.6406 31.9068 35.7344C30.6776 33.9635 30.063 31.8464 30.063 29.3828ZM39.938 31.6641C39.938 31.388 39.8 31.1719 39.524 31.0156C39.2531 30.8542 38.8156 30.7109 38.2115 30.5859C36.201 30.1641 35.1958 29.3099 35.1958 28.0234C35.1958 27.2734 35.5057 26.6484 36.1255 26.1484C36.7505 25.6432 37.5656 25.3906 38.5708 25.3906C39.6437 25.3906 40.5005 25.6432 41.1411 26.1484C41.787 26.6536 42.1099 27.3099 42.1099 28.1172H39.8521C39.8521 27.7943 39.7479 27.5286 39.5396 27.3203C39.3312 27.1068 39.0057 27 38.563 27C38.1828 27 37.8885 27.0859 37.6802 27.2578C37.4719 27.4297 37.3677 27.6484 37.3677 27.9141C37.3677 28.1641 37.4849 28.3672 37.7193 28.5234C37.9588 28.6745 38.3599 28.8073 38.9224 28.9219C39.4849 29.0312 39.9588 29.1562 40.3443 29.2969C41.537 29.7344 42.1333 30.4922 42.1333 31.5703C42.1333 32.3411 41.8026 32.9661 41.1411 33.4453C40.4797 33.9193 39.6255 34.1562 38.5786 34.1562C37.8703 34.1562 37.2401 34.0312 36.688 33.7812C36.1411 33.526 35.7115 33.1797 35.399 32.7422C35.0865 32.2995 34.9302 31.8229 34.9302 31.3125H37.0708C37.0917 31.7135 37.2401 32.0208 37.5161 32.2344C37.7922 32.4479 38.162 32.5547 38.6255 32.5547C39.0578 32.5547 39.3833 32.474 39.6021 32.3125C39.826 32.1458 39.938 31.9297 39.938 31.6641ZM48.4927 34C48.3885 33.7969 48.313 33.5443 48.2661 33.2422C47.7193 33.8516 47.0083 34.1562 46.1333 34.1562C45.3052 34.1562 44.6177 33.9167 44.0708 33.4375C43.5292 32.9583 43.2583 32.3542 43.2583 31.625C43.2583 30.7292 43.5891 30.0417 44.2505 29.5625C44.9172 29.0833 45.8781 28.8411 47.1333 28.8359H48.1724V28.3516C48.1724 27.9609 48.0708 27.6484 47.8677 27.4141C47.6698 27.1797 47.3547 27.0625 46.9224 27.0625C46.5422 27.0625 46.2427 27.1536 46.024 27.3359C45.8104 27.5182 45.7036 27.7682 45.7036 28.0859H43.4458C43.4458 27.5964 43.5969 27.1432 43.899 26.7266C44.201 26.3099 44.6281 25.9844 45.1802 25.75C45.7323 25.5104 46.3521 25.3906 47.0396 25.3906C48.0812 25.3906 48.9068 25.6536 49.5161 26.1797C50.1307 26.7005 50.438 27.4349 50.438 28.3828V32.0469C50.4432 32.849 50.5552 33.4557 50.774 33.8672V34H48.4927ZM46.6255 32.4297C46.9588 32.4297 47.2661 32.3568 47.5474 32.2109C47.8286 32.0599 48.037 31.8594 48.1724 31.6094V30.1562H47.3286C46.1984 30.1562 45.5969 30.5469 45.524 31.3281L45.5161 31.4609C45.5161 31.7422 45.6151 31.974 45.813 32.1562C46.0109 32.3385 46.2818 32.4297 46.6255 32.4297ZM54.2896 25.5469L54.3599 26.4922C54.9588 25.7578 55.7687 25.3906 56.7896 25.3906C57.8781 25.3906 58.6255 25.8203 59.0318 26.6797C59.6255 25.8203 60.4719 25.3906 61.5708 25.3906C62.4875 25.3906 63.1698 25.6589 63.6177 26.1953C64.0656 26.7266 64.2896 27.5286 64.2896 28.6016V34H62.024V28.6094C62.024 28.1302 61.9302 27.7812 61.7427 27.5625C61.5552 27.3385 61.2245 27.2266 60.7505 27.2266C60.0734 27.2266 59.6047 27.5495 59.3443 28.1953L59.3521 34H57.0943V28.6172C57.0943 28.1276 56.9979 27.7734 56.8052 27.5547C56.6125 27.3359 56.2844 27.2266 55.8208 27.2266C55.1802 27.2266 54.7167 27.4922 54.4302 28.0234V34H52.1724V25.5469H54.2896ZM73.6411 29.8516C73.6411 31.1536 73.3443 32.1979 72.7505 32.9844C72.162 33.7656 71.3651 34.1562 70.3599 34.1562C69.5057 34.1562 68.8156 33.8594 68.2896 33.2656V37.25H66.0318V25.5469H68.1255L68.2036 26.375C68.7505 25.7188 69.4641 25.3906 70.3443 25.3906C71.3859 25.3906 72.1958 25.776 72.774 26.5469C73.3521 27.3177 73.6411 28.3802 73.6411 29.7344V29.8516ZM71.3833 29.6875C71.3833 28.901 71.2427 28.2943 70.9615 27.8672C70.6854 27.4401 70.2818 27.2266 69.7505 27.2266C69.0422 27.2266 68.5552 27.4974 68.2896 28.0391V31.5C68.5656 32.0573 69.0578 32.3359 69.7661 32.3359C70.8443 32.3359 71.3833 31.4531 71.3833 29.6875ZM77.4302 34H75.1646V22H77.4302V34ZM83.188 34.1562C81.9484 34.1562 80.938 33.776 80.1568 33.0156C79.3807 32.2552 78.9927 31.2422 78.9927 29.9766V29.7578C78.9927 28.9089 79.1568 28.151 79.4849 27.4844C79.813 26.8125 80.2766 26.2969 80.8755 25.9375C81.4797 25.5729 82.1672 25.3906 82.938 25.3906C84.0943 25.3906 85.0031 25.7552 85.6646 26.4844C86.3312 27.2135 86.6646 28.2474 86.6646 29.5859V30.5078H81.2818C81.3547 31.0599 81.5734 31.5026 81.938 31.8359C82.3078 32.1693 82.774 32.3359 83.3365 32.3359C84.2062 32.3359 84.8859 32.0208 85.3755 31.3906L86.4849 32.6328C86.1464 33.112 85.688 33.487 85.1099 33.7578C84.5318 34.0234 83.8911 34.1562 83.188 34.1562ZM82.9302 27.2188C82.4823 27.2188 82.1177 27.3698 81.8365 27.6719C81.5604 27.974 81.3833 28.4062 81.3052 28.9688H84.4458V28.7891C84.4354 28.2891 84.3 27.9036 84.0396 27.6328C83.7792 27.3568 83.4094 27.2188 82.9302 27.2188ZM91.5161 29.4609C91.5161 30.6224 91.3625 31.737 91.0552 32.8047C90.7531 33.8672 90.287 34.849 89.6568 35.75C89.0318 36.651 88.3755 37.2917 87.688 37.6719L87.3833 36.7891C88.1854 36.1745 88.8286 35.2214 89.313 33.9297C89.8026 32.6328 90.0526 31.1953 90.063 29.6172V29.3672C90.063 28.2734 89.9484 27.2578 89.7193 26.3203C89.4901 25.3776 89.1698 24.5339 88.7583 23.7891C88.3521 23.0443 87.8937 22.4635 87.3833 22.0469L87.688 21.1641C88.3755 21.5443 89.0292 22.1797 89.649 23.0703C90.274 23.9609 90.7401 24.9427 91.0474 26.0156C91.3599 27.0885 91.5161 28.237 91.5161 29.4609Z" transform="translate(115 227)" fill="#D55E00"/>
<path d="M23.6875 9.92969C22.401 9.5599 21.4635 9.10677 20.875 8.57031C20.2917 8.02865 20 7.36198 20 6.57031C20 5.67448 20.3568 4.9349 21.0703 4.35156C21.7891 3.76302 22.7214 3.46875 23.8672 3.46875C24.6484 3.46875 25.3438 3.61979 25.9531 3.92188C26.5677 4.22396 27.0417 4.64062 27.375 5.17188C27.7135 5.70312 27.8828 6.28385 27.8828 6.91406H26.375C26.375 6.22656 26.1562 5.6875 25.7188 5.29688C25.2812 4.90104 24.6641 4.70312 23.8672 4.70312C23.1276 4.70312 22.5495 4.86719 22.1328 5.19531C21.7214 5.51823 21.5156 5.96875 21.5156 6.54688C21.5156 7.01042 21.7109 7.40365 22.1016 7.72656C22.4974 8.04427 23.1667 8.33594 24.1094 8.60156C25.0573 8.86719 25.7969 9.16146 26.3281 9.48438C26.8646 9.80208 27.2604 10.1745 27.5156 10.6016C27.776 11.0286 27.9062 11.5312 27.9062 12.1094C27.9062 13.0312 27.5469 13.7708 26.8281 14.3281C26.1094 14.8802 25.1484 15.1562 23.9453 15.1562C23.1641 15.1562 22.4349 15.0078 21.7578 14.7109C21.0807 14.4089 20.5573 13.9974 20.1875 13.4766C19.8229 12.9557 19.6406 12.3646 19.6406 11.7031H21.1484C21.1484 12.3906 21.401 12.9349 21.9062 13.3359C22.4167 13.7318 23.0964 13.9297 23.9453 13.9297C24.737 13.9297 25.3438 13.7682 25.7656 13.4453C26.1875 13.1224 26.3984 12.6823 26.3984 12.125C26.3984 11.5677 26.2031 11.138 25.8125 10.8359C25.4219 10.5286 24.7135 10.2266 23.6875 9.92969ZM36.75 10.8672C36.75 12.1536 36.4557 13.1901 35.8672 13.9766C35.2786 14.763 34.4818 15.1562 33.4766 15.1562C32.4505 15.1562 31.6432 14.8307 31.0547 14.1797V18.25H29.6094V6.54688H30.9297L31 7.48438C31.5885 6.75521 32.4062 6.39062 33.4531 6.39062C34.4688 6.39062 35.2708 6.77344 35.8594 7.53906C36.4531 8.30469 36.75 9.36979 36.75 10.7344V10.8672ZM35.3047 10.7031C35.3047 9.75 35.1016 8.9974 34.6953 8.44531C34.2891 7.89323 33.7318 7.61719 33.0234 7.61719C32.1484 7.61719 31.4922 8.00521 31.0547 8.78125V12.8203C31.487 13.5911 32.1484 13.9766 33.0391 13.9766C33.7318 13.9766 34.2812 13.7031 34.6875 13.1562C35.099 12.6042 35.3047 11.7865 35.3047 10.7031ZM42.6797 7.84375C42.4609 7.80729 42.224 7.78906 41.9688 7.78906C41.0208 7.78906 40.3776 8.19271 40.0391 9V15H38.5938V6.54688H40L40.0234 7.52344C40.4974 6.76823 41.1693 6.39062 42.0391 6.39062C42.3203 6.39062 42.5339 6.42708 42.6797 6.5V7.84375ZM47.3672 15.1562C46.2214 15.1562 45.2891 14.7812 44.5703 14.0312C43.8516 13.276 43.4922 12.2682 43.4922 11.0078V10.7422C43.4922 9.90365 43.651 9.15625 43.9688 8.5C44.2917 7.83854 44.7396 7.32292 45.3125 6.95312C45.8906 6.57812 46.5156 6.39062 47.1875 6.39062C48.2865 6.39062 49.1406 6.7526 49.75 7.47656C50.3594 8.20052 50.6641 9.23698 50.6641 10.5859V11.1875H44.9375C44.9583 12.0208 45.2005 12.6953 45.6641 13.2109C46.1328 13.7214 46.7266 13.9766 47.4453 13.9766C47.9557 13.9766 48.388 13.8724 48.7422 13.6641C49.0964 13.4557 49.4062 13.1797 49.6719 12.8359L50.5547 13.5234C49.8464 14.612 48.7839 15.1562 47.3672 15.1562ZM47.1875 7.57812C46.6042 7.57812 46.1146 7.79167 45.7188 8.21875C45.3229 8.64062 45.0781 9.23438 44.9844 10H49.2188V9.89062C49.1771 9.15625 48.9792 8.58854 48.625 8.1875C48.2708 7.78125 47.7917 7.57812 47.1875 7.57812ZM57.5625 15C57.4792 14.8333 57.4115 14.5365 57.3594 14.1094C56.6875 14.8073 55.8854 15.1562 54.9531 15.1562C54.1198 15.1562 53.4349 14.9219 52.8984 14.4531C52.3672 13.9792 52.1016 13.3802 52.1016 12.6562C52.1016 11.776 52.4349 11.0938 53.1016 10.6094C53.7734 10.1198 54.7161 9.875 55.9297 9.875H57.3359V9.21094C57.3359 8.70573 57.1849 8.30469 56.8828 8.00781C56.5807 7.70573 56.1354 7.55469 55.5469 7.55469C55.0312 7.55469 54.599 7.6849 54.25 7.94531C53.901 8.20573 53.7266 8.52083 53.7266 8.89062H52.2734C52.2734 8.46875 52.4219 8.0625 52.7188 7.67188C53.0208 7.27604 53.4271 6.96354 53.9375 6.73438C54.4531 6.50521 55.0182 6.39062 55.6328 6.39062C56.6068 6.39062 57.3698 6.63542 57.9219 7.125C58.474 7.60938 58.7604 8.27865 58.7812 9.13281V13.0234C58.7812 13.7995 58.8802 14.4167 59.0781 14.875V15H57.5625ZM55.1641 13.8984C55.6172 13.8984 56.0469 13.7812 56.4531 13.5469C56.8594 13.3125 57.1536 13.0078 57.3359 12.6328V10.8984H56.2031C54.4323 10.8984 53.5469 11.4167 53.5469 12.4531C53.5469 12.9062 53.6979 13.2604 54 13.5156C54.3021 13.7708 54.6901 13.8984 55.1641 13.8984ZM60.6953 10.7031C60.6953 9.40625 61.0026 8.36458 61.6172 7.57812C62.2318 6.78646 63.0365 6.39062 64.0312 6.39062C65.0208 6.39062 65.8047 6.72917 66.3828 7.40625V3H67.8281V15H66.5L66.4297 14.0938C65.8516 14.8021 65.0469 15.1562 64.0156 15.1562C63.0365 15.1562 62.237 14.7552 61.6172 13.9531C61.0026 13.151 60.6953 12.1042 60.6953 10.8125V10.7031ZM62.1406 10.8672C62.1406 11.8255 62.3385 12.5755 62.7344 13.1172C63.1302 13.6589 63.6771 13.9297 64.375 13.9297C65.2917 13.9297 65.9609 13.5182 66.3828 12.6953V8.8125C65.9505 8.01562 65.2865 7.61719 64.3906 7.61719C63.6823 7.61719 63.1302 7.89062 62.7344 8.4375C62.3385 8.98438 62.1406 9.79427 62.1406 10.8672ZM1.25781 29.3828C1.25781 28.2057 1.41406 27.0755 1.72656 25.9922C2.04427 24.9089 2.51562 23.9245 3.14062 23.0391C3.76562 22.1536 4.41406 21.5286 5.08594 21.1641L5.38281 22.1172C4.6224 22.7005 3.9974 23.5911 3.50781 24.7891C3.02344 25.987 2.75781 27.3281 2.71094 28.8125L2.70312 29.4766C2.70312 31.487 3.07031 33.2318 3.80469 34.7109C4.2474 35.5964 4.77344 36.2891 5.38281 36.7891L5.08594 37.6719C4.39323 37.2865 3.73177 36.6406 3.10156 35.7344C1.8724 33.9635 1.25781 31.8464 1.25781 29.3828ZM14.1641 29.8516C14.1641 31.1536 13.8672 32.1979 13.2734 32.9844C12.6849 33.7656 11.888 34.1562 10.8828 34.1562C10.0286 34.1562 9.33854 33.8594 8.8125 33.2656V37.25H6.55469V25.5469H8.64844L8.72656 26.375C9.27344 25.7188 9.98698 25.3906 10.8672 25.3906C11.9089 25.3906 12.7188 25.776 13.2969 26.5469C13.875 27.3177 14.1641 28.3802 14.1641 29.7344V29.8516ZM11.9062 29.6875C11.9062 28.901 11.7656 28.2943 11.4844 27.8672C11.2083 27.4401 10.8047 27.2266 10.2734 27.2266C9.5651 27.2266 9.07812 27.4974 8.8125 28.0391V31.5C9.08854 32.0573 9.58073 32.3359 10.2891 32.3359C11.3672 32.3359 11.9062 31.4531 11.9062 29.6875ZM15.2188 29.6953C15.2188 28.8568 15.3802 28.1094 15.7031 27.4531C16.026 26.7969 16.4896 26.2891 17.0938 25.9297C17.7031 25.5703 18.4089 25.3906 19.2109 25.3906C20.3516 25.3906 21.2812 25.7396 22 26.4375C22.724 27.1354 23.1276 28.0833 23.2109 29.2812L23.2266 29.8594C23.2266 31.1562 22.8646 32.1979 22.1406 32.9844C21.4167 33.7656 20.4453 34.1562 19.2266 34.1562C18.0078 34.1562 17.0339 33.7656 16.3047 32.9844C15.5807 32.2031 15.2188 31.1406 15.2188 29.7969V29.6953ZM17.4766 29.8594C17.4766 30.6615 17.6276 31.276 17.9297 31.7031C18.2318 32.125 18.6641 32.3359 19.2266 32.3359C19.7734 32.3359 20.2005 32.1276 20.5078 31.7109C20.8151 31.2891 20.9688 30.6172 20.9688 29.6953C20.9688 28.9089 20.8151 28.2995 20.5078 27.8672C20.2005 27.4349 19.7682 27.2188 19.2109 27.2188C18.6589 27.2188 18.2318 27.4349 17.9297 27.8672C17.6276 28.2943 17.4766 28.9583 17.4766 29.8594ZM32.2266 29.8516C32.2266 31.1536 31.9297 32.1979 31.3359 32.9844C30.7474 33.7656 29.9505 34.1562 28.9453 34.1562C28.0911 34.1562 27.401 33.8594 26.875 33.2656V37.25H24.6172V25.5469H26.7109L26.7891 26.375C27.3359 25.7188 28.0495 25.3906 28.9297 25.3906C29.9714 25.3906 30.7812 25.776 31.3594 26.5469C31.9375 27.3177 32.2266 28.3802 32.2266 29.7344V29.8516ZM29.9688 29.6875C29.9688 28.901 29.8281 28.2943 29.5469 27.8672C29.2708 27.4401 28.8672 27.2266 28.3359 27.2266C27.6276 27.2266 27.1406 27.4974 26.875 28.0391V31.5C27.151 32.0573 27.6432 32.3359 28.3516 32.3359C29.4297 32.3359 29.9688 31.4531 29.9688 29.6875ZM38.6953 33.1406C38.138 33.8177 37.3672 34.1562 36.3828 34.1562C35.4766 34.1562 34.7839 33.8958 34.3047 33.375C33.8307 32.8542 33.5885 32.0911 33.5781 31.0859V25.5469H35.8359V31.0078C35.8359 31.888 36.237 32.3281 37.0391 32.3281C37.8047 32.3281 38.3307 32.0625 38.6172 31.5312V25.5469H40.8828V34H38.7578L38.6953 33.1406ZM44.9688 34H42.7031V22H44.9688V34ZM51.7344 34C51.6302 33.7969 51.5547 33.5443 51.5078 33.2422C50.9609 33.8516 50.25 34.1562 49.375 34.1562C48.5469 34.1562 47.8594 33.9167 47.3125 33.4375C46.7708 32.9583 46.5 32.3542 46.5 31.625C46.5 30.7292 46.8307 30.0417 47.4922 29.5625C48.1589 29.0833 49.1198 28.8411 50.375 28.8359H51.4141V28.3516C51.4141 27.9609 51.3125 27.6484 51.1094 27.4141C50.9115 27.1797 50.5964 27.0625 50.1641 27.0625C49.7839 27.0625 49.4844 27.1536 49.2656 27.3359C49.0521 27.5182 48.9453 27.7682 48.9453 28.0859H46.6875C46.6875 27.5964 46.8385 27.1432 47.1406 26.7266C47.4427 26.3099 47.8698 25.9844 48.4219 25.75C48.974 25.5104 49.5938 25.3906 50.2812 25.3906C51.3229 25.3906 52.1484 25.6536 52.7578 26.1797C53.3724 26.7005 53.6797 27.4349 53.6797 28.3828V32.0469C53.6849 32.849 53.7969 33.4557 54.0156 33.8672V34H51.7344ZM49.8672 32.4297C50.2005 32.4297 50.5078 32.3568 50.7891 32.2109C51.0703 32.0599 51.2786 31.8594 51.4141 31.6094V30.1562H50.5703C49.4401 30.1562 48.8385 30.5469 48.7656 31.3281L48.7578 31.4609C48.7578 31.7422 48.8568 31.974 49.0547 32.1562C49.2526 32.3385 49.5234 32.4297 49.8672 32.4297ZM58.1172 23.4688V25.5469H59.5625V27.2031H58.1172V31.4219C58.1172 31.7344 58.1771 31.9583 58.2969 32.0938C58.4167 32.2292 58.6458 32.2969 58.9844 32.2969C59.2344 32.2969 59.4557 32.2786 59.6484 32.2422V33.9531C59.2057 34.0885 58.75 34.1562 58.2812 34.1562C56.6979 34.1562 55.8906 33.3568 55.8594 31.7578V27.2031H54.625V25.5469H55.8594V23.4688H58.1172ZM63.2031 34H60.9375V25.5469H63.2031V34ZM60.8047 23.3594C60.8047 23.0208 60.9167 22.7422 61.1406 22.5234C61.3698 22.3047 61.6797 22.1953 62.0703 22.1953C62.4557 22.1953 62.763 22.3047 62.9922 22.5234C63.2214 22.7422 63.3359 23.0208 63.3359 23.3594C63.3359 23.7031 63.2188 23.9844 62.9844 24.2031C62.7552 24.4219 62.4505 24.5312 62.0703 24.5312C61.6901 24.5312 61.3828 24.4219 61.1484 24.2031C60.9193 23.9844 60.8047 23.7031 60.8047 23.3594ZM64.7188 29.6953C64.7188 28.8568 64.8802 28.1094 65.2031 27.4531C65.526 26.7969 65.9896 26.2891 66.5938 25.9297C67.2031 25.5703 67.9089 25.3906 68.7109 25.3906C69.8516 25.3906 70.7812 25.7396 71.5 26.4375C72.224 27.1354 72.6276 28.0833 72.7109 29.2812L72.7266 29.8594C72.7266 31.1562 72.3646 32.1979 71.6406 32.9844C70.9167 33.7656 69.9453 34.1562 68.7266 34.1562C67.5078 34.1562 66.5339 33.7656 65.8047 32.9844C65.0807 32.2031 64.7188 31.1406 64.7188 29.7969V29.6953ZM66.9766 29.8594C66.9766 30.6615 67.1276 31.276 67.4297 31.7031C67.7318 32.125 68.1641 32.3359 68.7266 32.3359C69.2734 32.3359 69.7005 32.1276 70.0078 31.7109C70.3151 31.2891 70.4688 30.6172 70.4688 29.6953C70.4688 28.9089 70.3151 28.2995 70.0078 27.8672C69.7005 27.4349 69.2682 27.2188 68.7109 27.2188C68.1589 27.2188 67.7318 27.4349 67.4297 27.8672C67.1276 28.2943 66.9766 28.9583 66.9766 29.8594ZM76.1953 25.5469L76.2656 26.5234C76.8698 25.7682 77.6797 25.3906 78.6953 25.3906C79.5911 25.3906 80.2578 25.6536 80.6953 26.1797C81.1328 26.7057 81.3568 27.4922 81.3672 28.5391V34H79.1094V28.5938C79.1094 28.1146 79.0052 27.7682 78.7969 27.5547C78.5885 27.3359 78.2422 27.2266 77.7578 27.2266C77.1224 27.2266 76.6458 27.4974 76.3281 28.0391V34H74.0703V25.5469H76.1953ZM86.6484 29.4609C86.6484 30.6224 86.4948 31.737 86.1875 32.8047C85.8854 33.8672 85.4193 34.849 84.7891 35.75C84.1641 36.651 83.5078 37.2917 82.8203 37.6719L82.5156 36.7891C83.3177 36.1745 83.9609 35.2214 84.4453 33.9297C84.9349 32.6328 85.1849 31.1953 85.1953 29.6172V29.3672C85.1953 28.2734 85.0807 27.2578 84.8516 26.3203C84.6224 25.3776 84.3021 24.5339 83.8906 23.7891C83.4844 23.0443 83.026 22.4635 82.5156 22.0469L82.8203 21.1641C83.5078 21.5443 84.1615 22.1797 84.7812 23.0703C85.4062 23.9609 85.8724 24.9427 86.1797 26.0156C86.4922 27.0885 86.6484 28.237 86.6484 29.4609Z" transform="translate(128 281)" fill="#0072B2"/>
<line y1="-1" x2="65" y2="-1" transform="translate(52 53)" stroke="#0072B2" stroke-width="2"/>
<line y1="-1" x2="11" y2="-1" transform="translate(53.884 64) rotate(-90)" stroke="#0072B2" stroke-width="2"/>
<line y1="-1" x2="11" y2="-1" transform="translate(117 64) rotate(-90)" stroke="#0072B2" stroke-width="2"/>
<path d="M27.7071 0.707107C28.0976 0.316582 28.0976 -0.316582 27.7071 -0.707107L21.3431 -7.07107C20.9526 -7.46159 20.3195 -7.46159 19.9289 -7.07107C19.5384 -6.68054 19.5384 -6.04738 19.9289 -5.65685L25.5858 0L19.9289 5.65685C19.5384 6.04738 19.5384 6.68054 19.9289 7.07107C20.3195 7.46159 20.9526 7.46159 21.3431 7.07107L27.7071 0.707107ZM0 1H27V-1H0V1Z" transform="translate(84 16) rotate(90)" fill="#0072B2"/>
<path d="M9.53662 10.4478C9.45361 11.5952 9.02881 12.4985 8.26221 13.1577C7.50049 13.8169 6.49463 14.1465 5.24463 14.1465C3.87744 14.1465 2.80078 13.6875 2.01465 12.7695C1.2334 11.8467 0.842773 10.582 0.842773 8.97559V8.32373C0.842773 7.29834 1.02344 6.39502 1.38477 5.61377C1.74609 4.83252 2.26123 4.23438 2.93018 3.81934C3.604 3.39941 4.38525 3.18945 5.27393 3.18945C6.50439 3.18945 7.49561 3.51904 8.24756 4.17822C8.99951 4.8374 9.43408 5.7627 9.55127 6.9541H7.354C7.30029 6.26562 7.10742 5.76758 6.77539 5.45996C6.44824 5.14746 5.94775 4.99121 5.27393 4.99121C4.5415 4.99121 3.99219 5.25488 3.62598 5.78223C3.26465 6.30469 3.0791 7.11768 3.06934 8.22119V9.02686C3.06934 10.1792 3.24268 11.0215 3.58936 11.5537C3.94092 12.0859 4.49268 12.3521 5.24463 12.3521C5.92334 12.3521 6.42871 12.1982 6.76074 11.8906C7.09766 11.5781 7.29053 11.0972 7.33936 10.4478H9.53662ZM13.0742 14H10.9502V2.75H13.0742V14ZM19.5708 13.1943C19.0483 13.8291 18.3257 14.1465 17.4028 14.1465C16.5532 14.1465 15.9038 13.9023 15.4546 13.4141C15.0103 12.9258 14.7832 12.2104 14.7734 11.2681V6.0752H16.8901V11.1948C16.8901 12.02 17.2661 12.4326 18.0181 12.4326C18.7358 12.4326 19.229 12.1836 19.4976 11.6855V6.0752H21.6216V14H19.6294L19.5708 13.1943ZM27.5103 11.8101C27.5103 11.5513 27.3809 11.3486 27.1221 11.2021C26.8682 11.0508 26.458 10.9165 25.8916 10.7993C24.0068 10.4038 23.0645 9.60303 23.0645 8.39697C23.0645 7.69385 23.355 7.10791 23.936 6.63916C24.522 6.16553 25.2861 5.92871 26.2285 5.92871C27.2344 5.92871 28.0376 6.16553 28.6382 6.63916C29.2437 7.11279 29.5464 7.72803 29.5464 8.48486H27.4297C27.4297 8.18213 27.332 7.93311 27.1367 7.73779C26.9414 7.5376 26.6362 7.4375 26.2212 7.4375C25.8647 7.4375 25.5889 7.51807 25.3936 7.6792C25.1982 7.84033 25.1006 8.04541 25.1006 8.29443C25.1006 8.52881 25.2104 8.71924 25.4302 8.86572C25.6548 9.00732 26.0308 9.13184 26.5581 9.23926C27.0854 9.3418 27.5298 9.45898 27.8911 9.59082C29.0093 10.001 29.5684 10.7114 29.5684 11.7222C29.5684 12.4448 29.2583 13.0308 28.6382 13.48C28.0181 13.9243 27.2173 14.1465 26.2358 14.1465C25.5718 14.1465 24.981 14.0293 24.4634 13.7949C23.9507 13.5557 23.5479 13.231 23.2549 12.8208C22.9619 12.4058 22.8154 11.959 22.8154 11.4805H24.8223C24.8418 11.8564 24.981 12.1445 25.2397 12.3447C25.4985 12.5449 25.8452 12.645 26.2798 12.645C26.6851 12.645 26.9902 12.5693 27.1953 12.418C27.4053 12.2617 27.5103 12.0591 27.5103 11.8101ZM33.4722 4.12695V6.0752H34.8271V7.62793H33.4722V11.583C33.4722 11.876 33.5283 12.0859 33.6406 12.2129C33.7529 12.3398 33.9678 12.4033 34.2852 12.4033C34.5195 12.4033 34.7271 12.3862 34.9077 12.3521V13.9561C34.4927 14.083 34.0654 14.1465 33.626 14.1465C32.1416 14.1465 31.3848 13.397 31.3555 11.8979V7.62793H30.1982V6.0752H31.3555V4.12695H33.4722ZM39.6538 14.1465C38.4917 14.1465 37.5444 13.79 36.812 13.0771C36.0845 12.3643 35.7207 11.4146 35.7207 10.228V10.0229C35.7207 9.22705 35.8745 8.5166 36.1821 7.8916C36.4897 7.26172 36.9243 6.77832 37.4858 6.44141C38.0522 6.09961 38.6968 5.92871 39.4194 5.92871C40.5034 5.92871 41.3555 6.27051 41.9756 6.9541C42.6006 7.6377 42.9131 8.60693 42.9131 9.86182V10.7261H37.8667C37.9351 11.2437 38.1401 11.6587 38.4819 11.9712C38.8286 12.2837 39.2656 12.4399 39.793 12.4399C40.6084 12.4399 41.2456 12.1445 41.7046 11.5537L42.7446 12.7183C42.4272 13.1675 41.9976 13.519 41.4556 13.7729C40.9136 14.022 40.313 14.1465 39.6538 14.1465ZM39.4121 7.64258C38.9922 7.64258 38.6504 7.78418 38.3867 8.06738C38.1279 8.35059 37.9619 8.75586 37.8887 9.2832H40.833V9.11475C40.8232 8.646 40.6963 8.28467 40.4521 8.03076C40.208 7.77197 39.8613 7.64258 39.4121 7.64258ZM48.5747 8.06006C48.2866 8.021 48.0327 8.00146 47.813 8.00146C47.0122 8.00146 46.4873 8.27246 46.2383 8.81445V14H44.1216V6.0752H46.1211L46.1797 7.02002C46.6045 6.29248 47.1929 5.92871 47.9448 5.92871C48.1792 5.92871 48.3989 5.96045 48.604 6.02393L48.5747 8.06006Z" transform="translate(60 -2)" fill="#0072B2"/>
<path d="M40.0791 14H37.8818L33.6045 6.9834V14H31.4072V3.33594H33.6045L37.8892 10.3672V3.33594H40.0791V14ZM41.5293 9.96436C41.5293 9.17822 41.6807 8.47754 41.9834 7.8623C42.2861 7.24707 42.7207 6.771 43.2871 6.43408C43.8584 6.09717 44.52 5.92871 45.272 5.92871C46.3413 5.92871 47.2129 6.25586 47.8867 6.91016C48.5654 7.56445 48.9438 8.45312 49.022 9.57617L49.0366 10.1182C49.0366 11.334 48.6973 12.3105 48.0186 13.0479C47.3398 13.7803 46.4292 14.1465 45.2866 14.1465C44.144 14.1465 43.231 13.7803 42.5474 13.0479C41.8687 12.3154 41.5293 11.3193 41.5293 10.0596V9.96436ZM43.646 10.1182C43.646 10.8701 43.7876 11.4463 44.0708 11.8467C44.354 12.2422 44.7593 12.4399 45.2866 12.4399C45.7993 12.4399 46.1997 12.2446 46.4878 11.854C46.7759 11.4585 46.9199 10.8286 46.9199 9.96436C46.9199 9.22705 46.7759 8.65576 46.4878 8.25049C46.1997 7.84521 45.7944 7.64258 45.272 7.64258C44.7544 7.64258 44.354 7.84521 44.0708 8.25049C43.7876 8.65088 43.646 9.27344 43.646 10.1182ZM57.3716 12.4399C57.7622 12.4399 58.0796 12.3325 58.3237 12.1177C58.5679 11.9028 58.6948 11.6172 58.7046 11.2607H60.6895C60.6846 11.7979 60.5381 12.291 60.25 12.7402C59.9619 13.1846 59.5664 13.5312 59.0635 13.7803C58.5654 14.0244 58.0137 14.1465 57.4082 14.1465C56.2754 14.1465 55.3818 13.7876 54.7275 13.0698C54.0732 12.3472 53.7461 11.3511 53.7461 10.0815V9.94238C53.7461 8.72168 54.0708 7.74756 54.7202 7.02002C55.3696 6.29248 56.2607 5.92871 57.3936 5.92871C58.3848 5.92871 59.1782 6.21191 59.7739 6.77832C60.3745 7.33984 60.6797 8.08936 60.6895 9.02686H58.7046C58.6948 8.6167 58.5679 8.28467 58.3237 8.03076C58.0796 7.77197 57.7573 7.64258 57.3569 7.64258C56.8638 7.64258 56.4902 7.82324 56.2363 8.18457C55.9873 8.54102 55.8628 9.12207 55.8628 9.92773V10.1475C55.8628 10.9629 55.9873 11.5488 56.2363 11.9053C56.4854 12.2617 56.8638 12.4399 57.3716 12.4399ZM64.1318 14H62.0078V2.75H64.1318V14ZM70.6284 13.1943C70.106 13.8291 69.3833 14.1465 68.4604 14.1465C67.6108 14.1465 66.9614 13.9023 66.5122 13.4141C66.0679 12.9258 65.8408 12.2104 65.8311 11.2681V6.0752H67.9478V11.1948C67.9478 12.02 68.3237 12.4326 69.0757 12.4326C69.7935 12.4326 70.2866 12.1836 70.5552 11.6855V6.0752H72.6792V14H70.687L70.6284 13.1943ZM78.5679 11.8101C78.5679 11.5513 78.4385 11.3486 78.1797 11.2021C77.9258 11.0508 77.5156 10.9165 76.9492 10.7993C75.0645 10.4038 74.1221 9.60303 74.1221 8.39697C74.1221 7.69385 74.4126 7.10791 74.9937 6.63916C75.5796 6.16553 76.3438 5.92871 77.2861 5.92871C78.292 5.92871 79.0952 6.16553 79.6958 6.63916C80.3013 7.11279 80.604 7.72803 80.604 8.48486H78.4873C78.4873 8.18213 78.3896 7.93311 78.1943 7.73779C77.999 7.5376 77.6938 7.4375 77.2788 7.4375C76.9224 7.4375 76.6465 7.51807 76.4512 7.6792C76.2559 7.84033 76.1582 8.04541 76.1582 8.29443C76.1582 8.52881 76.2681 8.71924 76.4878 8.86572C76.7124 9.00732 77.0884 9.13184 77.6157 9.23926C78.1431 9.3418 78.5874 9.45898 78.9487 9.59082C80.0669 10.001 80.626 10.7114 80.626 11.7222C80.626 12.4448 80.3159 13.0308 79.6958 13.48C79.0757 13.9243 78.2749 14.1465 77.2935 14.1465C76.6294 14.1465 76.0386 14.0293 75.521 13.7949C75.0083 13.5557 74.6055 13.231 74.3125 12.8208C74.0195 12.4058 73.873 11.959 73.873 11.4805H75.8799C75.8994 11.8564 76.0386 12.1445 76.2974 12.3447C76.5562 12.5449 76.9028 12.645 77.3374 12.645C77.7427 12.645 78.0479 12.5693 78.2529 12.418C78.4629 12.2617 78.5679 12.0591 78.5679 11.8101ZM84.5298 4.12695V6.0752H85.8848V7.62793H84.5298V11.583C84.5298 11.876 84.5859 12.0859 84.6982 12.2129C84.8105 12.3398 85.0254 12.4033 85.3428 12.4033C85.5771 12.4033 85.7847 12.3862 85.9653 12.3521V13.9561C85.5503 14.083 85.123 14.1465 84.6836 14.1465C83.1992 14.1465 82.4424 13.397 82.4131 11.8979V7.62793H81.2559V6.0752H82.4131V4.12695H84.5298ZM90.7114 14.1465C89.5493 14.1465 88.6021 13.79 87.8696 13.0771C87.1421 12.3643 86.7783 11.4146 86.7783 10.228V10.0229C86.7783 9.22705 86.9321 8.5166 87.2397 7.8916C87.5474 7.26172 87.9819 6.77832 88.5435 6.44141C89.1099 6.09961 89.7544 5.92871 90.4771 5.92871C91.561 5.92871 92.4131 6.27051 93.0332 6.9541C93.6582 7.6377 93.9707 8.60693 93.9707 9.86182V10.7261H88.9243C88.9927 11.2437 89.1978 11.6587 89.5396 11.9712C89.8862 12.2837 90.3232 12.4399 90.8506 12.4399C91.666 12.4399 92.3032 12.1445 92.7622 11.5537L93.8022 12.7183C93.4849 13.1675 93.0552 13.519 92.5132 13.7729C91.9712 14.022 91.3706 14.1465 90.7114 14.1465ZM90.4697 7.64258C90.0498 7.64258 89.708 7.78418 89.4443 8.06738C89.1855 8.35059 89.0195 8.75586 88.9463 9.2832H91.8906V9.11475C91.8809 8.646 91.7539 8.28467 91.5098 8.03076C91.2656 7.77197 90.9189 7.64258 90.4697 7.64258ZM99.6323 8.06006C99.3442 8.021 99.0903 8.00146 98.8706 8.00146C98.0698 8.00146 97.5449 8.27246 97.2959 8.81445V14H95.1792V6.0752H97.1787L97.2373 7.02002C97.6621 6.29248 98.2505 5.92871 99.0024 5.92871C99.2368 5.92871 99.4565 5.96045 99.6616 6.02393L99.6323 8.06006ZM99.9326 16.6733L98.8267 16.0947L99.0903 15.6187C99.4175 15.0229 99.5859 14.4297 99.5957 13.8389V12.1982H101.383L101.375 13.6631C101.371 14.2051 101.234 14.752 100.965 15.3037C100.697 15.8555 100.353 16.312 99.9326 16.6733ZM109.315 4.12695V6.0752H110.67V7.62793H109.315V11.583C109.315 11.876 109.371 12.0859 109.483 12.2129C109.596 12.3398 109.811 12.4033 110.128 12.4033C110.362 12.4033 110.57 12.3862 110.75 12.3521V13.9561C110.335 14.083 109.908 14.1465 109.469 14.1465C107.984 14.1465 107.228 13.397 107.198 11.8979V7.62793H106.041V6.0752H107.198V4.12695H109.315ZM113.915 6.93945C114.476 6.26562 115.182 5.92871 116.031 5.92871C117.75 5.92871 118.622 6.92725 118.646 8.92432V14H116.529V8.98291C116.529 8.52881 116.432 8.19434 116.236 7.97949C116.041 7.75977 115.716 7.6499 115.262 7.6499C114.642 7.6499 114.193 7.88916 113.915 8.36768V14H111.798V2.75H113.915V6.93945ZM123.89 14.1465C122.728 14.1465 121.781 13.79 121.048 13.0771C120.321 12.3643 119.957 11.4146 119.957 10.228V10.0229C119.957 9.22705 120.111 8.5166 120.418 7.8916C120.726 7.26172 121.161 6.77832 121.722 6.44141C122.289 6.09961 122.933 5.92871 123.656 5.92871C124.74 5.92871 125.592 6.27051 126.212 6.9541C126.837 7.6377 127.149 8.60693 127.149 9.86182V10.7261H122.103C122.171 11.2437 122.376 11.6587 122.718 11.9712C123.065 12.2837 123.502 12.4399 124.029 12.4399C124.845 12.4399 125.482 12.1445 125.941 11.5537L126.981 12.7183C126.664 13.1675 126.234 13.519 125.692 13.7729C125.15 14.022 124.549 14.1465 123.89 14.1465ZM123.648 7.64258C123.229 7.64258 122.887 7.78418 122.623 8.06738C122.364 8.35059 122.198 8.75586 122.125 9.2832H125.069V9.11475C125.06 8.646 124.933 8.28467 124.688 8.03076C124.444 7.77197 124.098 7.64258 123.648 7.64258ZM0.923828 26.979C0.923828 25.7437 1.19971 24.7598 1.75146 24.0273C2.30811 23.2949 3.06738 22.9287 4.0293 22.9287C4.80078 22.9287 5.43799 23.2168 5.94092 23.793V19.75H8.06494V31H6.15332L6.05078 30.1577C5.52344 30.8169 4.84473 31.1465 4.01465 31.1465C3.08203 31.1465 2.33252 30.7803 1.76611 30.0479C1.20459 29.3105 0.923828 28.2876 0.923828 26.979ZM3.04053 27.1328C3.04053 27.875 3.16992 28.4438 3.42871 28.8394C3.6875 29.2349 4.06348 29.4326 4.55664 29.4326C5.21094 29.4326 5.67236 29.1567 5.94092 28.605V25.4775C5.67725 24.9258 5.2207 24.6499 4.57129 24.6499C3.55078 24.6499 3.04053 25.4775 3.04053 27.1328ZM11.9395 31H9.81543V23.0752H11.9395V31ZM9.69092 21.0244C9.69092 20.707 9.7959 20.4458 10.0059 20.2407C10.2207 20.0356 10.5112 19.9331 10.8774 19.9331C11.2388 19.9331 11.5269 20.0356 11.7417 20.2407C11.9565 20.4458 12.064 20.707 12.064 21.0244C12.064 21.3467 11.9541 21.6104 11.7344 21.8154C11.5195 22.0205 11.2339 22.123 10.8774 22.123C10.521 22.123 10.2329 22.0205 10.0132 21.8154C9.79834 21.6104 9.69092 21.3467 9.69092 21.0244ZM17.9819 28.8101C17.9819 28.5513 17.8525 28.3486 17.5938 28.2021C17.3398 28.0508 16.9297 27.9165 16.3633 27.7993C14.4785 27.4038 13.5361 26.603 13.5361 25.397C13.5361 24.6938 13.8267 24.1079 14.4077 23.6392C14.9937 23.1655 15.7578 22.9287 16.7002 22.9287C17.7061 22.9287 18.5093 23.1655 19.1099 23.6392C19.7153 24.1128 20.0181 24.728 20.0181 25.4849H17.9014C17.9014 25.1821 17.8037 24.9331 17.6084 24.7378C17.4131 24.5376 17.1079 24.4375 16.6929 24.4375C16.3364 24.4375 16.0605 24.5181 15.8652 24.6792C15.6699 24.8403 15.5723 25.0454 15.5723 25.2944C15.5723 25.5288 15.6821 25.7192 15.9019 25.8657C16.1265 26.0073 16.5024 26.1318 17.0298 26.2393C17.5571 26.3418 18.0015 26.459 18.3628 26.5908C19.481 27.001 20.04 27.7114 20.04 28.7222C20.04 29.4448 19.73 30.0308 19.1099 30.48C18.4897 30.9243 17.689 31.1465 16.7075 31.1465C16.0435 31.1465 15.4526 31.0293 14.9351 30.7949C14.4224 30.5557 14.0195 30.231 13.7266 29.8208C13.4336 29.4058 13.2871 28.959 13.2871 28.4805H15.2939C15.3135 28.8564 15.4526 29.1445 15.7114 29.3447C15.9702 29.5449 16.3169 29.645 16.7515 29.645C17.1567 29.645 17.4619 29.5693 17.667 29.418C17.877 29.2617 17.9819 29.0591 17.9819 28.8101ZM23.9438 21.127V23.0752H25.2988V24.6279H23.9438V28.583C23.9438 28.876 24 29.0859 24.1123 29.2129C24.2246 29.3398 24.4395 29.4033 24.7568 29.4033C24.9912 29.4033 25.1987 29.3862 25.3794 29.3521V30.9561C24.9644 31.083 24.5371 31.1465 24.0977 31.1465C22.6133 31.1465 21.8564 30.397 21.8271 28.8979V24.6279H20.6699V23.0752H21.8271V21.127H23.9438ZM30.9312 25.0601C30.6431 25.021 30.3892 25.0015 30.1694 25.0015C29.3687 25.0015 28.8438 25.2725 28.5947 25.8145V31H26.478V23.0752H28.4775L28.5361 24.02C28.9609 23.2925 29.5493 22.9287 30.3013 22.9287C30.5356 22.9287 30.7554 22.9604 30.9604 23.0239L30.9312 25.0601ZM34.1904 31H32.0664V23.0752H34.1904V31ZM31.9419 21.0244C31.9419 20.707 32.0469 20.4458 32.2568 20.2407C32.4717 20.0356 32.7622 19.9331 33.1284 19.9331C33.4897 19.9331 33.7778 20.0356 33.9927 20.2407C34.2075 20.4458 34.3149 20.707 34.3149 21.0244C34.3149 21.3467 34.2051 21.6104 33.9854 21.8154C33.7705 22.0205 33.4849 22.123 33.1284 22.123C32.772 22.123 32.4839 22.0205 32.2642 21.8154C32.0493 21.6104 31.9419 21.3467 31.9419 21.0244ZM43.082 27.1108C43.082 28.3804 42.811 29.3716 42.269 30.0845C41.7271 30.7925 40.9702 31.1465 39.9985 31.1465C39.1392 31.1465 38.4531 30.8169 37.9404 30.1577L37.8452 31H35.9409V19.75H38.0576V23.7856C38.5459 23.2144 39.188 22.9287 39.9839 22.9287C40.9507 22.9287 41.7075 23.2852 42.2544 23.998C42.8062 24.7061 43.082 25.7046 43.082 26.9937V27.1108ZM40.9653 26.957C40.9653 26.1562 40.8384 25.5728 40.5845 25.2065C40.3306 24.8354 39.9521 24.6499 39.4492 24.6499C38.7754 24.6499 38.3115 24.9258 38.0576 25.4775V28.605C38.3164 29.1616 38.7852 29.4399 39.4639 29.4399C40.1475 29.4399 40.5967 29.103 40.8115 28.4292C40.9141 28.1069 40.9653 27.6162 40.9653 26.957ZM49.1392 30.1943C48.6167 30.8291 47.894 31.1465 46.9712 31.1465C46.1216 31.1465 45.4722 30.9023 45.0229 30.4141C44.5786 29.9258 44.3516 29.2104 44.3418 28.2681V23.0752H46.4585V28.1948C46.4585 29.02 46.8345 29.4326 47.5864 29.4326C48.3042 29.4326 48.7974 29.1836 49.0659 28.6855V23.0752H51.1899V31H49.1978L49.1392 30.1943ZM55.3208 21.127V23.0752H56.6758V24.6279H55.3208V28.583C55.3208 28.876 55.377 29.0859 55.4893 29.2129C55.6016 29.3398 55.8164 29.4033 56.1338 29.4033C56.3682 29.4033 56.5757 29.3862 56.7563 29.3521V30.9561C56.3413 31.083 55.9141 31.1465 55.4746 31.1465C53.9902 31.1465 53.2334 30.397 53.2041 28.8979V24.6279H52.0469V23.0752H53.2041V21.127H55.3208ZM60.0889 31H57.9648V23.0752H60.0889V31ZM57.8403 21.0244C57.8403 20.707 57.9453 20.4458 58.1553 20.2407C58.3701 20.0356 58.6606 19.9331 59.0269 19.9331C59.3882 19.9331 59.6763 20.0356 59.8911 20.2407C60.106 20.4458 60.2134 20.707 60.2134 21.0244C60.2134 21.3467 60.1035 21.6104 59.8838 21.8154C59.6689 22.0205 59.3833 22.123 59.0269 22.123C58.6704 22.123 58.3823 22.0205 58.1626 21.8154C57.9478 21.6104 57.8403 21.3467 57.8403 21.0244ZM61.5098 26.9644C61.5098 26.1782 61.6611 25.4775 61.9639 24.8623C62.2666 24.2471 62.7012 23.771 63.2676 23.4341C63.8389 23.0972 64.5005 22.9287 65.2524 22.9287C66.3218 22.9287 67.1934 23.2559 67.8672 23.9102C68.5459 24.5645 68.9243 25.4531 69.0024 26.5762L69.0171 27.1182C69.0171 28.334 68.6777 29.3105 67.999 30.0479C67.3203 30.7803 66.4097 31.1465 65.2671 31.1465C64.1245 31.1465 63.2114 30.7803 62.5278 30.0479C61.8491 29.3154 61.5098 28.3193 61.5098 27.0596V26.9644ZM63.6265 27.1182C63.6265 27.8701 63.7681 28.4463 64.0513 28.8467C64.3345 29.2422 64.7397 29.4399 65.2671 29.4399C65.7798 29.4399 66.1802 29.2446 66.4683 28.854C66.7563 28.4585 66.9004 27.8286 66.9004 26.9644C66.9004 26.2271 66.7563 25.6558 66.4683 25.2505C66.1802 24.8452 65.7749 24.6426 65.2524 24.6426C64.7349 24.6426 64.3345 24.8452 64.0513 25.2505C63.7681 25.6509 63.6265 26.2734 63.6265 27.1182ZM72.269 23.0752L72.335 23.9907C72.9014 23.2827 73.6606 22.9287 74.6128 22.9287C75.4526 22.9287 76.0776 23.1753 76.4878 23.6685C76.8979 24.1616 77.1079 24.8989 77.1177 25.8804V31H75.001V25.9316C75.001 25.4824 74.9033 25.1577 74.708 24.9575C74.5127 24.7524 74.188 24.6499 73.7339 24.6499C73.1382 24.6499 72.6914 24.9038 72.3936 25.4116V31H70.2769V23.0752H72.269ZM84.6982 31H82.5742V23.0752H84.6982V31ZM82.4497 21.0244C82.4497 20.707 82.5547 20.4458 82.7646 20.2407C82.9795 20.0356 83.27 19.9331 83.6362 19.9331C83.9976 19.9331 84.2856 20.0356 84.5005 20.2407C84.7153 20.4458 84.8228 20.707 84.8228 21.0244C84.8228 21.3467 84.7129 21.6104 84.4932 21.8154C84.2783 22.0205 83.9927 22.123 83.6362 22.123C83.2798 22.123 82.9917 22.0205 82.772 21.8154C82.5571 21.6104 82.4497 21.3467 82.4497 21.0244ZM90.7407 28.8101C90.7407 28.5513 90.6113 28.3486 90.3525 28.2021C90.0986 28.0508 89.6885 27.9165 89.1221 27.7993C87.2373 27.4038 86.2949 26.603 86.2949 25.397C86.2949 24.6938 86.5854 24.1079 87.1665 23.6392C87.7524 23.1655 88.5166 22.9287 89.459 22.9287C90.4648 22.9287 91.2681 23.1655 91.8687 23.6392C92.4741 24.1128 92.7769 24.728 92.7769 25.4849H90.6602C90.6602 25.1821 90.5625 24.9331 90.3672 24.7378C90.1719 24.5376 89.8667 24.4375 89.4517 24.4375C89.0952 24.4375 88.8193 24.5181 88.624 24.6792C88.4287 24.8403 88.3311 25.0454 88.3311 25.2944C88.3311 25.5288 88.4409 25.7192 88.6606 25.8657C88.8853 26.0073 89.2612 26.1318 89.7886 26.2393C90.3159 26.3418 90.7603 26.459 91.1216 26.5908C92.2397 27.001 92.7988 27.7114 92.7988 28.7222C92.7988 29.4448 92.4888 30.0308 91.8687 30.48C91.2485 30.9243 90.4478 31.1465 89.4663 31.1465C88.8022 31.1465 88.2114 31.0293 87.6938 30.7949C87.1812 30.5557 86.7783 30.231 86.4854 29.8208C86.1924 29.4058 86.0459 28.959 86.0459 28.4805H88.0527C88.0723 28.8564 88.2114 29.1445 88.4702 29.3447C88.729 29.5449 89.0757 29.645 89.5103 29.645C89.9155 29.645 90.2207 29.5693 90.4258 29.418C90.6357 29.2617 90.7407 29.0591 90.7407 28.8101ZM103.214 21.3906C102.794 21.3418 102.403 21.3174 102.042 21.3174C101.085 21.3174 100.606 21.7251 100.606 22.5405V23.0752H102.181V24.6279H100.606V31H98.4824V24.6279H97.3032V23.0752H98.4824V22.46C98.4922 21.542 98.7803 20.8364 99.3467 20.3433C99.9131 19.8452 100.714 19.5962 101.749 19.5962C102.486 19.5962 103.683 19.6743 105.338 19.8306V31H103.214V21.3906ZM111.695 31C111.598 30.8096 111.527 30.5728 111.483 30.2896C110.97 30.8608 110.304 31.1465 109.483 31.1465C108.707 31.1465 108.062 30.9219 107.55 30.4727C107.042 30.0234 106.788 29.457 106.788 28.7734C106.788 27.9336 107.098 27.2891 107.718 26.8398C108.343 26.3906 109.244 26.1636 110.421 26.1587H111.395V25.7046C111.395 25.3384 111.3 25.0454 111.109 24.8257C110.924 24.606 110.628 24.4961 110.223 24.4961C109.867 24.4961 109.586 24.5815 109.381 24.7524C109.181 24.9233 109.081 25.1577 109.081 25.4556H106.964C106.964 24.9966 107.105 24.5718 107.389 24.1812C107.672 23.7905 108.072 23.4854 108.59 23.2656C109.107 23.041 109.688 22.9287 110.333 22.9287C111.31 22.9287 112.083 23.1753 112.655 23.6685C113.231 24.1567 113.519 24.8452 113.519 25.7339V29.1689C113.524 29.9209 113.629 30.4897 113.834 30.8755V31H111.695ZM109.945 29.5278C110.257 29.5278 110.545 29.4595 110.809 29.3228C111.073 29.1812 111.268 28.9932 111.395 28.7588V27.3965H110.604C109.544 27.3965 108.98 27.7627 108.912 28.4951L108.905 28.6196C108.905 28.8833 108.998 29.1006 109.183 29.2715C109.369 29.4424 109.623 29.5278 109.945 29.5278ZM117.679 21.127V23.0752H119.034V24.6279H117.679V28.583C117.679 28.876 117.735 29.0859 117.848 29.2129C117.96 29.3398 118.175 29.4033 118.492 29.4033C118.727 29.4033 118.934 29.3862 119.115 29.3521V30.9561C118.7 31.083 118.272 31.1465 117.833 31.1465C116.349 31.1465 115.592 30.397 115.562 28.8979V24.6279H114.405V23.0752H115.562V21.127H117.679ZM122.748 21.127V23.0752H124.103V24.6279H122.748V28.583C122.748 28.876 122.804 29.0859 122.916 29.2129C123.028 29.3398 123.243 29.4033 123.561 29.4033C123.795 29.4033 124.002 29.3862 124.183 29.3521V30.9561C123.768 31.083 123.341 31.1465 122.901 31.1465C121.417 31.1465 120.66 30.397 120.631 28.8979V24.6279H119.474V23.0752H120.631V21.127H122.748ZM128.929 31.1465C127.767 31.1465 126.82 30.79 126.087 30.0771C125.36 29.3643 124.996 28.4146 124.996 27.228V27.0229C124.996 26.2271 125.15 25.5166 125.458 24.8916C125.765 24.2617 126.2 23.7783 126.761 23.4414C127.328 23.0996 127.972 22.9287 128.695 22.9287C129.779 22.9287 130.631 23.2705 131.251 23.9541C131.876 24.6377 132.188 25.6069 132.188 26.8618V27.7261H127.142C127.21 28.2437 127.416 28.6587 127.757 28.9712C128.104 29.2837 128.541 29.4399 129.068 29.4399C129.884 29.4399 130.521 29.1445 130.98 28.5537L132.02 29.7183C131.703 30.1675 131.273 30.519 130.731 30.7729C130.189 31.022 129.588 31.1465 128.929 31.1465ZM128.688 24.6426C128.268 24.6426 127.926 24.7842 127.662 25.0674C127.403 25.3506 127.237 25.7559 127.164 26.2832H130.108V26.1147C130.099 25.646 129.972 25.2847 129.728 25.0308C129.483 24.772 129.137 24.6426 128.688 24.6426ZM135.345 23.0752L135.411 23.9907C135.978 23.2827 136.737 22.9287 137.689 22.9287C138.529 22.9287 139.154 23.1753 139.564 23.6685C139.974 24.1616 140.184 24.8989 140.194 25.8804V31H138.077V25.9316C138.077 25.4824 137.979 25.1577 137.784 24.9575C137.589 24.7524 137.264 24.6499 136.81 24.6499C136.214 24.6499 135.768 24.9038 135.47 25.4116V31H133.353V23.0752H135.345ZM145.453 31.1465C144.291 31.1465 143.343 30.79 142.611 30.0771C141.883 29.3643 141.52 28.4146 141.52 27.228V27.0229C141.52 26.2271 141.673 25.5166 141.981 24.8916C142.289 24.2617 142.723 23.7783 143.285 23.4414C143.851 23.0996 144.496 22.9287 145.218 22.9287C146.302 22.9287 147.154 23.2705 147.774 23.9541C148.399 24.6377 148.712 25.6069 148.712 26.8618V27.7261H143.666C143.734 28.2437 143.939 28.6587 144.281 28.9712C144.627 29.2837 145.064 29.4399 145.592 29.4399C146.407 29.4399 147.044 29.1445 147.503 28.5537L148.543 29.7183C148.226 30.1675 147.796 30.519 147.254 30.7729C146.712 31.022 146.112 31.1465 145.453 31.1465ZM145.211 24.6426C144.791 24.6426 144.449 24.7842 144.186 25.0674C143.927 25.3506 143.761 25.7559 143.688 26.2832H146.632V26.1147C146.622 25.646 146.495 25.2847 146.251 25.0308C146.007 24.772 145.66 24.6426 145.211 24.6426ZM149.591 26.979C149.591 25.7437 149.867 24.7598 150.418 24.0273C150.975 23.2949 151.734 22.9287 152.696 22.9287C153.468 22.9287 154.105 23.2168 154.608 23.793V19.75H156.732V31H154.82L154.718 30.1577C154.19 30.8169 153.512 31.1465 152.682 31.1465C151.749 31.1465 151 30.7803 150.433 30.0479C149.872 29.3105 149.591 28.2876 149.591 26.979ZM151.708 27.1328C151.708 27.875 151.837 28.4438 152.096 28.8394C152.354 29.2349 152.73 29.4326 153.224 29.4326C153.878 29.4326 154.339 29.1567 154.608 28.605V25.4775C154.344 24.9258 153.888 24.6499 153.238 24.6499C152.218 24.6499 151.708 25.4775 151.708 27.1328Z" transform="translate(192 100)" fill="#D55E00"/>
<path d="M56.2769 0.707107C56.6674 0.316582 56.6674 -0.316582 56.2769 -0.707107L49.9129 -7.07107C49.5224 -7.46159 48.8892 -7.46159 48.4987 -7.07107C48.1082 -6.68054 48.1082 -6.04738 48.4987 -5.65685L54.1556 0L48.4987 5.65685C48.1082 6.04738 48.1082 6.68054 48.4987 7.07107C48.8892 7.46159 49.5224 7.46159 49.9129 7.07107L56.2769 0.707107ZM0 1H55.5698V-1H0V1Z" transform="translate(244 136) rotate(120.256)" fill="#D55E00"/>
</svg>
